%
M48
M72
T01C0.0157
T02C0.0236
T03C0.0320
T04C0.0335
T05C0.0394
T06C0.0400
T07C0.0630
T08C0.1180
T09C0.1260
T10C0.1280
%
T01
X4409Y16024
X7638Y15079
X14291Y13701
X17283Y12717
X14409Y14390
X16535Y13780
X14764Y14547
X17047Y13701
X8268Y16811
X8268Y15984
X15748Y12992
X14173Y12579
X5118Y15157
X7638Y14469
X15610Y13406
X14193Y12972
X3425Y16102
X7126Y14764
X15236Y13602
X14272Y13346
X5335Y16339
X8858Y15551
X15059Y14783
X16535Y14567
X3976Y18031
X8661Y15866
X9843Y15354
X4724Y18898
X9843Y15748
X5118Y18898
X9882Y16102
X5512Y18898
X10236Y16161
X5906Y18898
X10630Y16142
X4331Y18898
X14508Y16417
X16063Y16811
X15728Y17618
X14567Y17126
X16319Y16535
X14862Y16260
X14311Y14055
X16122Y13780
X17185Y15945
X17539Y19803
X15768Y22717
X15335Y23465
X16909Y15728
X17165Y19803
X13780Y22126
X13780Y22776
X5925Y20472
X18504Y16969
X18110Y16969
X18720Y18051
X2756Y22441
X19193Y16772
X3150Y22835
X16398Y17972
X15768Y18602
X11083Y23209
X11476Y22165
X16673Y18248
X16043Y18878
X10630Y23228
X10630Y22579
X5059Y9783
X20079Y19291
X21654Y22441
X22047Y23622
X19685Y24016
X1614Y12165
X6654Y10669
X5138Y13366
X9213Y12165
X15354Y12205
X17717Y12283
X19291Y11417
X24016Y18898
X19528Y17264
X1181Y20866
X8130Y12579
X3543Y11417
X9843Y12579
X5138Y11437
X20768Y16909
X21299Y17441
X18504Y14055
X18504Y14724
X21260Y15748
X22126Y16594
X21654Y19291
X20866Y19291
X19390Y18248
X23622Y16142
X19035Y18248
X23622Y16535
X20866Y8425
X20866Y9134
X20866Y10433
X21339Y11181
X20512Y8425
X20512Y9134
X20591Y10709
X21083Y11437
X20138Y8425
X20236Y9390
X17717Y16969
X4134Y22835
X5728Y16831
X4469Y16909
X15945Y17894
X14921Y17106
X4488Y13465
X4606Y15118
X5787Y15118
X7087Y13976
X21260Y18504
X16929Y16949
X21260Y18898
X17323Y16949
T02
X22835Y10630
X24409Y10630
X23622Y10630
X21654Y12205
X3543Y18898
X7480Y18898
X15354Y9843
X16535Y8268
X14173Y17717
X20866Y17717
X23425Y25138
T03
X3618Y22122
X4618Y22122
X4618Y25122
X3618Y25122
X5618Y22122
X6618Y22122
X5618Y25122
X6618Y25122
X23335Y6693
X22335Y6693
T04
X19689Y20839
X18508Y20839
X27165Y10039
X27165Y8858
T05
X5537Y7868
X5037Y6868
X4537Y7868
X3537Y7868
X2537Y7868
X4037Y6868
X3037Y6868
X2037Y6868
X1181Y2795
X6378Y2795
X5394Y2795
X2165Y2795
T06
X10199Y6650
X10699Y5650
X11199Y6650
X11699Y5650
X12199Y6650
X12699Y5650
X16104Y6650
X16604Y5650
X17104Y6650
X17604Y5650
X18104Y6650
X18604Y5650
X27165Y15354
X27265Y16354
X27165Y17354
X27265Y18354
X27165Y19354
X27265Y20354
T07
X787Y5551
X6772Y5551
T08
X25591Y5394
X25591Y3031
X27441Y4213
T09
X1537Y4368
X6037Y4368
T10
X9449Y3150
X13449Y3150
X15354Y3150
X19354Y3150
M30
