G75*
G70*
%OFA0B0*%
%FSLAX24Y24*%
%IPPOS*%
%LPD*%
%AMOC8*
5,1,8,0,0,1.08239X$1,22.5*
%
%ADD10R,0.0138X0.0413*%
%ADD11R,0.0413X0.0138*%
%ADD12R,0.0434X0.0119*%
%ADD13R,0.0119X0.0434*%
%ADD14C,0.0560*%
%ADD15C,0.1320*%
%ADD16C,0.0780*%
%ADD17R,0.0749X0.0355*%
%ADD18C,0.1300*%
%ADD19R,0.0780X0.0780*%
%ADD20C,0.0985*%
%ADD21C,0.0634*%
%ADD22R,0.0355X0.1024*%
%ADD23R,0.0355X0.0697*%
%ADD24R,0.0697X0.0355*%
%ADD25R,0.0355X0.0355*%
%ADD26R,0.0434X0.0493*%
%ADD27C,0.0375*%
%ADD28R,0.0340X0.0640*%
%ADD29R,0.0512X0.0257*%
%ADD30R,0.0788X0.0473*%
%ADD31R,0.0434X0.0473*%
%ADD32R,0.0473X0.0434*%
%ADD33R,0.0591X0.0670*%
%ADD34R,0.0670X0.0591*%
%ADD35C,0.1620*%
%ADD36R,0.0493X0.0434*%
%ADD37R,0.0520X0.0920*%
%ADD38R,0.1457X0.0906*%
D10*
X017359Y013644D03*
X017556Y013644D03*
X017753Y013644D03*
X017949Y013644D03*
X018146Y013644D03*
X018343Y013644D03*
X018540Y013644D03*
X018737Y013644D03*
X018934Y013644D03*
X019131Y013644D03*
X019327Y013644D03*
X019524Y013644D03*
X019721Y013644D03*
X019918Y013644D03*
X020115Y013644D03*
X020312Y013644D03*
X020312Y018073D03*
X020115Y018073D03*
X019918Y018073D03*
X019721Y018073D03*
X019524Y018073D03*
X019327Y018073D03*
X019131Y018073D03*
X018934Y018073D03*
X018737Y018073D03*
X018540Y018073D03*
X018343Y018073D03*
X018146Y018073D03*
X017949Y018073D03*
X017753Y018073D03*
X017556Y018073D03*
X017359Y018073D03*
D11*
X016621Y017335D03*
X016621Y017138D03*
X016621Y016941D03*
X016621Y016744D03*
X016621Y016547D03*
X016621Y016350D03*
X016621Y016154D03*
X016621Y015957D03*
X016621Y015760D03*
X016621Y015563D03*
X016621Y015366D03*
X016621Y015169D03*
X016621Y014972D03*
X016621Y014776D03*
X016621Y014579D03*
X016621Y014382D03*
X021050Y014382D03*
X021050Y014579D03*
X021050Y014776D03*
X021050Y014972D03*
X021050Y015169D03*
X021050Y015366D03*
X021050Y015563D03*
X021050Y015760D03*
X021050Y015957D03*
X021050Y016154D03*
X021050Y016350D03*
X021050Y016547D03*
X021050Y016744D03*
X021050Y016941D03*
X021050Y017138D03*
X021050Y017335D03*
D12*
X008304Y017335D03*
X008304Y017531D03*
X008304Y017728D03*
X008304Y017138D03*
X008304Y016941D03*
X008304Y016744D03*
X008304Y016547D03*
X008304Y016350D03*
X008304Y016154D03*
X008304Y015957D03*
X008304Y015760D03*
X008304Y015563D03*
X004957Y015563D03*
X004957Y015760D03*
X004957Y015957D03*
X004957Y016154D03*
X004957Y016350D03*
X004957Y016547D03*
X004957Y016744D03*
X004957Y016941D03*
X004957Y017138D03*
X004957Y017335D03*
X004957Y017531D03*
X004957Y017728D03*
D13*
X005548Y018319D03*
X005745Y018319D03*
X005942Y018319D03*
X006138Y018319D03*
X006335Y018319D03*
X006532Y018319D03*
X006729Y018319D03*
X006926Y018319D03*
X007123Y018319D03*
X007320Y018319D03*
X007516Y018319D03*
X007713Y018319D03*
X007713Y014972D03*
X007516Y014972D03*
X007320Y014972D03*
X007123Y014972D03*
X006926Y014972D03*
X006729Y014972D03*
X006532Y014972D03*
X006335Y014972D03*
X006138Y014972D03*
X005942Y014972D03*
X005745Y014972D03*
X005548Y014972D03*
D14*
X005737Y022366D02*
X005737Y022886D01*
X004737Y022886D02*
X004737Y022366D01*
X006737Y022366D02*
X006737Y022886D01*
X007737Y022886D02*
X007737Y022366D01*
X007737Y025366D02*
X007737Y025886D01*
X006737Y025886D02*
X006737Y025366D01*
X005737Y025366D02*
X005737Y025886D01*
X004737Y025886D02*
X004737Y025366D01*
D15*
X010568Y003654D03*
X014568Y003654D03*
X016473Y003654D03*
X020473Y003654D03*
D16*
X019723Y006154D03*
X019223Y007154D03*
X018223Y007154D03*
X017723Y006154D03*
X018723Y006154D03*
X017223Y007154D03*
X013818Y006154D03*
X012818Y006154D03*
X013318Y007154D03*
X012318Y007154D03*
X011318Y007154D03*
X011818Y006154D03*
X006656Y008372D03*
X005656Y008372D03*
X004656Y008372D03*
X003656Y008372D03*
X004156Y007372D03*
X005156Y007372D03*
X006156Y007372D03*
X023453Y007197D03*
X024453Y007197D03*
X028284Y015858D03*
X028384Y016858D03*
X028284Y017858D03*
X028384Y018858D03*
X028284Y019858D03*
X028384Y020858D03*
D17*
X012799Y023376D03*
X012799Y023876D03*
X012799Y024376D03*
X012799Y024876D03*
X010699Y024876D03*
X010699Y024376D03*
X010699Y023876D03*
X010699Y023376D03*
D18*
X007156Y004872D03*
X002656Y004872D03*
D19*
X003156Y007372D03*
D20*
X001906Y006055D03*
X007890Y006055D03*
D21*
X002300Y003299D03*
X003284Y003299D03*
X006512Y003299D03*
X007497Y003299D03*
D22*
X016473Y024776D03*
D23*
X016473Y023313D03*
D24*
X015660Y023626D03*
X015660Y024126D03*
X015660Y024626D03*
X017286Y024626D03*
X017286Y024126D03*
X017286Y023626D03*
D25*
X022871Y019402D03*
X023461Y019402D03*
X023461Y018614D03*
X022871Y018614D03*
D26*
X021201Y020230D03*
X020217Y020230D03*
X019233Y020230D03*
X019233Y022455D03*
X020217Y022455D03*
X021201Y022455D03*
D27*
X020808Y021343D03*
X019627Y021343D03*
X028284Y010543D03*
X028284Y009362D03*
D28*
X024703Y021157D03*
X023203Y021157D03*
X023203Y023157D03*
X024703Y023157D03*
D29*
X022890Y024933D03*
X022890Y025307D03*
X022890Y025681D03*
X021867Y025681D03*
X021867Y024933D03*
D30*
X019170Y011587D03*
X019170Y010681D03*
X017713Y010681D03*
X017713Y011587D03*
D31*
X016473Y011469D03*
X016473Y010799D03*
X020410Y010799D03*
X020410Y011469D03*
X023225Y006016D03*
X023894Y006016D03*
X012536Y005169D03*
X012536Y004500D03*
X011709Y004500D03*
X011709Y005169D03*
X005449Y009618D03*
X005449Y010287D03*
X004268Y010287D03*
X004268Y009618D03*
X004367Y012669D03*
X005036Y012669D03*
X005587Y012669D03*
X006257Y012669D03*
X006808Y012669D03*
X007477Y012669D03*
X008028Y013496D03*
X008697Y013496D03*
X009249Y013496D03*
X009918Y013496D03*
X005036Y013496D03*
X004367Y013496D03*
X003816Y013496D03*
X003146Y013496D03*
X003146Y017020D03*
X003816Y017020D03*
X004662Y018280D03*
X004662Y018949D03*
X003422Y021370D03*
X002753Y021370D03*
X002753Y022177D03*
X003422Y022177D03*
X003422Y022984D03*
X002753Y022984D03*
X002753Y023791D03*
X003422Y023791D03*
X008993Y023791D03*
X008993Y024461D03*
X013776Y024598D03*
X014446Y024598D03*
X014446Y023772D03*
X013776Y023772D03*
X013776Y022945D03*
X014446Y022945D03*
X018442Y023791D03*
X018442Y024461D03*
X020804Y024972D03*
X020804Y025642D03*
X023953Y025642D03*
X023953Y024972D03*
X024012Y020228D03*
X024682Y020228D03*
X024682Y019402D03*
X024012Y019402D03*
X024012Y018575D03*
X024682Y018575D03*
X027103Y019067D03*
X027103Y019736D03*
X015016Y017630D03*
X014347Y017630D03*
X008599Y018280D03*
X008599Y018949D03*
D32*
X003816Y017827D03*
X003146Y017827D03*
X005587Y013496D03*
X006257Y013496D03*
X006808Y013496D03*
X007477Y013496D03*
X008028Y012669D03*
X008697Y012669D03*
X009249Y012669D03*
X009918Y012669D03*
X015745Y013496D03*
X016414Y013496D03*
X017713Y012709D03*
X018383Y012709D03*
X021257Y013496D03*
X021926Y013496D03*
X021532Y018220D03*
X020863Y018220D03*
X022792Y020228D03*
X023461Y020228D03*
X022713Y024126D03*
X022044Y024126D03*
X016414Y018220D03*
X015745Y018220D03*
X014446Y025425D03*
X013776Y025425D03*
X003816Y012669D03*
X003146Y012669D03*
X004249Y003988D03*
X004249Y003319D03*
X005056Y003319D03*
X005056Y003988D03*
X013363Y004500D03*
X013363Y005169D03*
X018107Y008772D03*
X018776Y008772D03*
X023619Y008772D03*
X024288Y008772D03*
X025194Y008772D03*
X025863Y008772D03*
X027162Y007984D03*
X027831Y007984D03*
D33*
X015686Y010937D03*
X015686Y012118D03*
D34*
X021001Y012709D03*
X022182Y012709D03*
X026906Y007197D03*
X028087Y007197D03*
X008953Y011843D03*
X007772Y011843D03*
D35*
X026709Y005898D03*
X028560Y004717D03*
X026709Y003535D03*
D36*
X027172Y008969D03*
X027172Y009953D03*
X027172Y010937D03*
X029396Y010937D03*
X029396Y009953D03*
X029396Y008969D03*
D37*
X025651Y009914D03*
X024741Y009914D03*
X023831Y009914D03*
D38*
X024741Y012354D03*
M02*
