G75*
G70*
%OFA0B0*%
%FSLAX24Y24*%
%IPPOS*%
%LPD*%
%AMOC8*
5,1,8,0,0,1.08239X$1,22.5*
%
%ADD10C,0.0080*%
%ADD11C,0.0100*%
%ADD12C,0.0060*%
%ADD13C,0.0040*%
%ADD14C,0.0200*%
%ADD15C,0.0070*%
%ADD16C,0.0050*%
D10*
X001158Y000543D02*
X001158Y026449D01*
X029820Y026449D01*
X029820Y000543D01*
X001158Y000543D01*
X001906Y002825D02*
X007906Y002825D01*
X007890Y002827D02*
X007890Y005504D01*
X007890Y006606D02*
X007890Y008811D01*
X007867Y008809D02*
X001906Y008809D01*
X001906Y008772D02*
X001906Y006606D01*
X001906Y005504D02*
X001906Y002866D01*
X009868Y001604D02*
X015268Y001604D01*
X015268Y007754D01*
X009868Y007754D01*
X009868Y001604D01*
X015773Y001604D02*
X021173Y001604D01*
X021173Y007754D01*
X015773Y007754D01*
X015773Y001604D01*
X024938Y001685D02*
X028481Y001685D01*
X028481Y003772D01*
X028481Y005622D02*
X028481Y005898D01*
X027654Y005898D01*
X025764Y005898D02*
X024938Y005898D01*
X024938Y001685D01*
X028034Y015358D02*
X027784Y015608D01*
X027784Y016108D01*
X028034Y016358D01*
X027784Y016608D01*
X027784Y017108D01*
X028034Y017358D01*
X027784Y017608D01*
X027784Y018108D01*
X028034Y018358D01*
X027784Y018608D01*
X027784Y019108D01*
X028034Y019358D01*
X027784Y019608D01*
X027784Y020108D01*
X028034Y020358D01*
X027784Y020608D01*
X027784Y021108D01*
X028034Y021358D01*
X028534Y021358D01*
X028784Y021108D01*
X028784Y020608D01*
X028534Y020358D01*
X028784Y020108D01*
X028784Y019608D01*
X028534Y019358D01*
X028784Y019108D01*
X028784Y018608D01*
X028534Y018358D01*
X028784Y018108D01*
X028784Y017608D01*
X028534Y017358D01*
X028784Y017108D01*
X028784Y016608D01*
X028534Y016358D01*
X028784Y016108D01*
X028784Y015608D01*
X028534Y015358D01*
X028034Y015358D01*
X008237Y022976D02*
X008237Y025276D01*
X004237Y025276D01*
X004237Y024526D01*
X004276Y024524D01*
X004315Y024518D01*
X004353Y024509D01*
X004390Y024496D01*
X004426Y024479D01*
X004459Y024459D01*
X004491Y024435D01*
X004520Y024409D01*
X004546Y024380D01*
X004570Y024348D01*
X004590Y024315D01*
X004607Y024279D01*
X004620Y024242D01*
X004629Y024204D01*
X004635Y024165D01*
X004637Y024126D01*
X004635Y024087D01*
X004629Y024048D01*
X004620Y024010D01*
X004607Y023973D01*
X004590Y023937D01*
X004570Y023904D01*
X004546Y023872D01*
X004520Y023843D01*
X004491Y023817D01*
X004459Y023793D01*
X004426Y023773D01*
X004390Y023756D01*
X004353Y023743D01*
X004315Y023734D01*
X004276Y023728D01*
X004237Y023726D01*
X004237Y022976D01*
X008237Y022976D01*
D11*
X023333Y007707D02*
X023333Y007507D01*
X023333Y006867D02*
X023333Y006687D01*
X023953Y007997D02*
X024007Y007995D01*
X024061Y007990D01*
X024114Y007981D01*
X024167Y007968D01*
X024218Y007952D01*
X024268Y007932D01*
X024317Y007909D01*
X024365Y007883D01*
X024410Y007854D01*
X024453Y007821D01*
X024494Y007786D01*
X024533Y007748D01*
X024569Y007708D01*
X024602Y007665D01*
X024632Y007620D01*
X024659Y007573D01*
X024648Y006800D02*
X024618Y006752D01*
X024585Y006707D01*
X024549Y006664D01*
X024511Y006623D01*
X024469Y006586D01*
X024425Y006551D01*
X024379Y006520D01*
X024330Y006491D01*
X024280Y006467D01*
X024228Y006446D01*
X024174Y006428D01*
X024120Y006415D01*
X024065Y006405D01*
X024009Y006399D01*
X023953Y006397D01*
X023900Y006399D01*
X023846Y006404D01*
X023794Y006413D01*
X023742Y006425D01*
X023691Y006441D01*
X023641Y006460D01*
X023592Y006483D01*
X023545Y006509D01*
X023500Y006537D01*
X023457Y006569D01*
X023417Y006603D01*
X023378Y006641D01*
X023342Y006680D01*
X023338Y007709D02*
X023374Y007749D01*
X023413Y007787D01*
X023454Y007822D01*
X023497Y007854D01*
X023542Y007884D01*
X023589Y007910D01*
X023638Y007932D01*
X023689Y007952D01*
X023740Y007968D01*
X023792Y007981D01*
X023846Y007990D01*
X023899Y007995D01*
X023953Y007997D01*
D12*
X023776Y008231D02*
X023990Y008444D01*
X024203Y008231D01*
X024203Y008871D01*
X024421Y008871D02*
X024421Y008231D01*
X024848Y008231D01*
X025065Y008231D02*
X025065Y008871D01*
X025386Y008871D01*
X025492Y008765D01*
X025492Y008551D01*
X025386Y008444D01*
X025065Y008444D01*
X025279Y008444D02*
X025492Y008231D01*
X025591Y007474D02*
X025164Y007474D01*
X025164Y007153D01*
X025378Y007260D01*
X025485Y007260D01*
X025591Y007153D01*
X025591Y006940D01*
X025485Y006833D01*
X025271Y006833D01*
X025164Y006940D01*
X025809Y007047D02*
X025809Y007474D01*
X026236Y007474D02*
X026236Y007047D01*
X026023Y006833D01*
X025809Y007047D01*
X027098Y006833D02*
X027418Y006833D01*
X027525Y006940D01*
X027525Y007367D01*
X027418Y007474D01*
X027098Y007474D01*
X027098Y006833D01*
X027743Y006940D02*
X027743Y007367D01*
X027849Y007474D01*
X028063Y007474D01*
X028170Y007367D01*
X028170Y006940D02*
X028063Y006833D01*
X027849Y006833D01*
X027743Y006940D01*
X024848Y008871D02*
X024421Y008871D01*
X024421Y008551D02*
X024634Y008551D01*
X023776Y008871D02*
X023776Y008231D01*
X023559Y008338D02*
X023559Y008765D01*
X023452Y008871D01*
X023239Y008871D01*
X023132Y008765D01*
X023132Y008338D01*
X023239Y008231D01*
X023452Y008231D01*
X023559Y008338D01*
X022914Y008551D02*
X022808Y008444D01*
X022487Y008444D01*
X022487Y008231D02*
X022487Y008871D01*
X022808Y008871D01*
X022914Y008765D01*
X022914Y008551D01*
X019436Y008655D02*
X019436Y008014D01*
X019009Y008655D01*
X019009Y008014D01*
X018793Y008014D02*
X018580Y008014D01*
X018686Y008014D02*
X018686Y008655D01*
X018580Y008655D02*
X018793Y008655D01*
X018362Y008441D02*
X018362Y008014D01*
X018362Y008334D02*
X017935Y008334D01*
X017935Y008441D02*
X018149Y008655D01*
X018362Y008441D01*
X017935Y008441D02*
X017935Y008014D01*
X017717Y008014D02*
X017504Y008228D01*
X017611Y008228D02*
X017290Y008228D01*
X017290Y008014D02*
X017290Y008655D01*
X017611Y008655D01*
X017717Y008548D01*
X017717Y008334D01*
X017611Y008228D01*
X013531Y008121D02*
X013531Y008548D01*
X013424Y008655D01*
X013104Y008655D01*
X013104Y008014D01*
X013424Y008014D01*
X013531Y008121D01*
X012886Y008014D02*
X012886Y008655D01*
X012459Y008655D02*
X012886Y008014D01*
X012459Y008014D02*
X012459Y008655D01*
X012243Y008655D02*
X012029Y008655D01*
X012136Y008655D02*
X012136Y008014D01*
X012029Y008014D02*
X012243Y008014D01*
X011812Y008014D02*
X011812Y008655D01*
X011385Y008655D02*
X011385Y008014D01*
X011598Y008228D01*
X011812Y008014D01*
X007269Y009836D02*
X006842Y009836D01*
X007055Y009836D02*
X007055Y009195D01*
X006624Y009195D02*
X006197Y009195D01*
X006197Y009836D01*
X006624Y009836D01*
X006411Y009516D02*
X006197Y009516D01*
X005979Y009836D02*
X005979Y009195D01*
X005552Y009836D01*
X005552Y009195D01*
X005335Y009195D02*
X005121Y009409D01*
X005228Y009409D02*
X004908Y009409D01*
X004908Y009195D02*
X004908Y009836D01*
X005228Y009836D01*
X005335Y009729D01*
X005335Y009516D01*
X005228Y009409D01*
X004690Y009195D02*
X004263Y009195D01*
X004263Y009836D01*
X004690Y009836D01*
X004477Y009516D02*
X004263Y009516D01*
X004046Y009516D02*
X003619Y009516D01*
X003619Y009836D02*
X003619Y009195D01*
X003188Y009195D02*
X003188Y009836D01*
X003401Y009836D02*
X002974Y009836D01*
X002757Y009836D02*
X002330Y009836D01*
X002330Y009195D01*
X002757Y009195D01*
X002543Y009516D02*
X002330Y009516D01*
X004046Y009836D02*
X004046Y009195D01*
X009523Y018644D02*
X009630Y018751D01*
X009737Y018644D01*
X009843Y018751D01*
X009843Y019071D01*
X010061Y019071D02*
X010061Y018751D01*
X010168Y018644D01*
X010274Y018751D01*
X010381Y018644D01*
X010488Y018751D01*
X010488Y019071D01*
X010706Y019071D02*
X010706Y018751D01*
X010812Y018644D01*
X010919Y018751D01*
X011026Y018644D01*
X011133Y018751D01*
X011133Y019071D01*
X011350Y018751D02*
X011457Y018751D01*
X011457Y018644D01*
X011350Y018644D01*
X011350Y018751D01*
X011672Y018644D02*
X011993Y018644D01*
X012099Y018751D01*
X011993Y018858D01*
X011779Y018858D01*
X011672Y018964D01*
X011779Y019071D01*
X012099Y019071D01*
X012317Y018964D02*
X012317Y018751D01*
X012424Y018644D01*
X012637Y018644D01*
X012744Y018858D02*
X012317Y018858D01*
X012317Y018964D02*
X012424Y019071D01*
X012637Y019071D01*
X012744Y018964D01*
X012744Y018858D01*
X012961Y018644D02*
X013175Y018644D01*
X013068Y018644D02*
X013068Y019285D01*
X012961Y019285D01*
X013391Y019071D02*
X013391Y018751D01*
X013498Y018644D01*
X013605Y018751D01*
X013711Y018644D01*
X013818Y018751D01*
X013818Y019071D01*
X014036Y019071D02*
X014463Y018644D01*
X014680Y018644D02*
X014680Y018751D01*
X014787Y018751D01*
X014787Y018644D01*
X014680Y018644D01*
X015002Y018751D02*
X015109Y018644D01*
X015429Y018644D01*
X015647Y018751D02*
X015754Y018644D01*
X015967Y018644D01*
X016074Y018751D01*
X016074Y018964D01*
X015967Y019071D01*
X015754Y019071D01*
X015647Y018964D01*
X015647Y018751D01*
X015429Y019071D02*
X015109Y019071D01*
X015002Y018964D01*
X015002Y018751D01*
X014463Y019071D02*
X014036Y018644D01*
X016291Y018644D02*
X016291Y019071D01*
X016398Y019071D01*
X016505Y018964D01*
X016612Y019071D01*
X016718Y018964D01*
X016718Y018644D01*
X016505Y018644D02*
X016505Y018964D01*
X009523Y018644D02*
X009416Y018751D01*
X009416Y019071D01*
X025164Y021794D02*
X025485Y021794D01*
X025591Y021901D01*
X025591Y022007D01*
X025485Y022114D01*
X025164Y022114D01*
X025164Y021794D02*
X025164Y022434D01*
X025485Y022434D01*
X025591Y022328D01*
X025591Y022221D01*
X025485Y022114D01*
X025809Y022221D02*
X025916Y022328D01*
X025916Y022541D01*
X026059Y022581D02*
X026272Y022581D01*
X026379Y022688D01*
X026379Y023222D01*
X026596Y023115D02*
X026596Y023008D01*
X026703Y022901D01*
X026917Y022901D01*
X027023Y022795D01*
X027023Y022688D01*
X026917Y022581D01*
X026703Y022581D01*
X026596Y022688D01*
X026883Y022434D02*
X026776Y022328D01*
X026776Y021901D01*
X026883Y021794D01*
X027096Y021794D01*
X027203Y021901D01*
X027203Y022328D01*
X027096Y022434D01*
X026883Y022434D01*
X027241Y022581D02*
X027241Y023008D01*
X027454Y023222D01*
X027668Y023008D01*
X027668Y022581D01*
X027634Y022434D02*
X027420Y022221D01*
X027420Y021794D01*
X027420Y022114D02*
X027847Y022114D01*
X027847Y022221D02*
X027847Y021794D01*
X028065Y021794D02*
X028385Y021794D01*
X028492Y021901D01*
X028492Y022328D01*
X028385Y022434D01*
X028065Y022434D01*
X028065Y021794D01*
X027847Y022221D02*
X027634Y022434D01*
X027885Y022581D02*
X027885Y023222D01*
X028206Y023222D01*
X028312Y023115D01*
X028312Y022901D01*
X028206Y022795D01*
X027885Y022795D01*
X028099Y022795D02*
X028312Y022581D01*
X028709Y022434D02*
X028709Y021794D01*
X029136Y021794D01*
X029354Y021794D02*
X029354Y022434D01*
X029674Y022434D01*
X029781Y022328D01*
X029781Y022114D01*
X029674Y022007D01*
X029354Y022007D01*
X029567Y022007D02*
X029781Y021794D01*
X029136Y022434D02*
X028709Y022434D01*
X028744Y022581D02*
X028744Y023222D01*
X028957Y023222D02*
X028530Y023222D01*
X029175Y023008D02*
X029388Y023222D01*
X029388Y022581D01*
X029175Y022581D02*
X029602Y022581D01*
X028923Y022114D02*
X028709Y022114D01*
X027668Y022901D02*
X027241Y022901D01*
X027023Y023115D02*
X026917Y023222D01*
X026703Y023222D01*
X026596Y023115D01*
X025952Y023222D02*
X025952Y022688D01*
X026059Y022581D01*
X026131Y022434D02*
X026131Y021794D01*
X026558Y021794D01*
X026165Y001568D02*
X025845Y001568D01*
X025845Y000928D01*
X025845Y001141D02*
X026165Y001141D01*
X026272Y001248D01*
X026272Y001461D01*
X026165Y001568D01*
X025629Y001568D02*
X025415Y001568D01*
X025522Y001568D02*
X025522Y000928D01*
X025415Y000928D02*
X025629Y000928D01*
X024984Y000928D02*
X024984Y001568D01*
X024771Y001568D02*
X025198Y001568D01*
X027134Y001248D02*
X027561Y001248D01*
X027779Y001141D02*
X027779Y001568D01*
X027779Y001141D02*
X027992Y000928D01*
X028206Y001141D01*
X028206Y001568D01*
X028423Y001568D02*
X028423Y000928D01*
X028850Y000928D01*
X028637Y001248D02*
X028423Y001248D01*
X028423Y001568D02*
X028850Y001568D01*
X027348Y001461D02*
X027348Y001034D01*
D13*
X027469Y015583D02*
X027469Y016043D01*
X027622Y016043D02*
X027315Y016043D01*
X027162Y015967D02*
X027085Y016043D01*
X026932Y016043D01*
X026855Y015967D01*
X026855Y015890D01*
X026932Y015813D01*
X027085Y015813D01*
X027162Y015736D01*
X027162Y015660D01*
X027085Y015583D01*
X026932Y015583D01*
X026855Y015660D01*
X026702Y015583D02*
X026548Y015736D01*
X026625Y015736D02*
X026395Y015736D01*
X026395Y015583D02*
X026395Y016043D01*
X026625Y016043D01*
X026702Y015967D01*
X026702Y015813D01*
X026625Y015736D01*
X027021Y016607D02*
X027021Y017067D01*
X027174Y017067D02*
X026867Y017067D01*
X027327Y017067D02*
X027634Y016607D01*
X027327Y016607D02*
X027634Y017067D01*
X027634Y017611D02*
X027327Y018071D01*
X027174Y017994D02*
X027174Y017841D01*
X027097Y017764D01*
X026867Y017764D01*
X026867Y017611D02*
X026867Y018071D01*
X027097Y018071D01*
X027174Y017994D01*
X027021Y017764D02*
X027174Y017611D01*
X027327Y017611D02*
X027634Y018071D01*
X027565Y018634D02*
X027412Y018634D01*
X027335Y018711D01*
X027182Y018788D02*
X027028Y018634D01*
X026875Y018788D01*
X026875Y019095D01*
X026721Y019018D02*
X026721Y018941D01*
X026644Y018864D01*
X026721Y018788D01*
X026721Y018711D01*
X026644Y018634D01*
X026491Y018634D01*
X026414Y018711D01*
X026568Y018864D02*
X026644Y018864D01*
X026721Y019018D02*
X026644Y019095D01*
X026491Y019095D01*
X026414Y019018D01*
X026471Y019638D02*
X026625Y019638D01*
X026702Y019715D01*
X026702Y019868D01*
X026548Y019868D01*
X026395Y019715D02*
X026395Y020022D01*
X026471Y020098D01*
X026625Y020098D01*
X026702Y020022D01*
X026855Y020098D02*
X026855Y019638D01*
X027162Y019638D02*
X027162Y020098D01*
X027315Y020098D02*
X027546Y020098D01*
X027622Y020022D01*
X027622Y019715D01*
X027546Y019638D01*
X027315Y019638D01*
X027315Y020098D01*
X026855Y020098D02*
X027162Y019638D01*
X027182Y019095D02*
X027182Y018788D01*
X027335Y019018D02*
X027412Y019095D01*
X027565Y019095D01*
X027642Y019018D01*
X027642Y018941D01*
X027565Y018864D01*
X027642Y018788D01*
X027642Y018711D01*
X027565Y018634D01*
X027565Y018864D02*
X027488Y018864D01*
X026471Y019638D02*
X026395Y019715D01*
X026471Y020642D02*
X026625Y020642D01*
X026702Y020719D01*
X026702Y020872D01*
X026548Y020872D01*
X026395Y020719D02*
X026395Y021026D01*
X026471Y021102D01*
X026625Y021102D01*
X026702Y021026D01*
X026855Y021102D02*
X026855Y020642D01*
X027162Y020642D02*
X027162Y021102D01*
X027315Y021102D02*
X027546Y021102D01*
X027622Y021026D01*
X027622Y020719D01*
X027546Y020642D01*
X027315Y020642D01*
X027315Y021102D01*
X026855Y021102D02*
X027162Y020642D01*
X026471Y020642D02*
X026395Y020719D01*
D14*
X016873Y020289D02*
X015671Y022091D01*
X015031Y022091D02*
X015031Y020289D01*
X014430Y020889D01*
X013830Y020289D01*
X013830Y022091D01*
X011988Y022091D02*
X011988Y020289D01*
X013189Y020289D01*
X011348Y020289D02*
X010147Y020289D01*
X010147Y022091D01*
X011348Y022091D01*
X010747Y021190D02*
X010147Y021190D01*
X009506Y020889D02*
X009506Y020589D01*
X009206Y020289D01*
X008606Y020289D01*
X008305Y020589D01*
X008606Y021190D02*
X009206Y021190D01*
X009506Y020889D01*
X009506Y021790D02*
X009206Y022091D01*
X008606Y022091D01*
X008305Y021790D01*
X008305Y021490D01*
X008606Y021190D01*
X015671Y020289D02*
X016873Y022091D01*
D15*
X016434Y020067D02*
X016434Y019437D01*
X016224Y019437D02*
X016644Y019437D01*
X016224Y019857D02*
X016434Y020067D01*
X015355Y019752D02*
X015355Y019437D01*
X015355Y019752D02*
X015250Y019857D01*
X014935Y019857D01*
X014935Y019437D01*
X014711Y019542D02*
X014711Y019752D01*
X014606Y019857D01*
X014395Y019857D01*
X014290Y019752D01*
X014290Y019542D01*
X014395Y019437D01*
X014606Y019437D01*
X014711Y019542D01*
X014071Y019437D02*
X013861Y019437D01*
X013966Y019437D02*
X013966Y019857D01*
X013861Y019857D01*
X013636Y019857D02*
X013321Y019857D01*
X013216Y019752D01*
X013321Y019647D01*
X013531Y019647D01*
X013636Y019542D01*
X013531Y019437D01*
X013216Y019437D01*
X012994Y019857D02*
X012889Y019857D01*
X012679Y019647D01*
X012679Y019437D02*
X012679Y019857D01*
X012455Y019752D02*
X012455Y019647D01*
X012034Y019647D01*
X012034Y019752D02*
X012140Y019857D01*
X012350Y019857D01*
X012455Y019752D01*
X012350Y019437D02*
X012140Y019437D01*
X012034Y019542D01*
X012034Y019752D01*
X011810Y019857D02*
X011600Y019437D01*
X011390Y019857D01*
X013966Y020067D02*
X013966Y020172D01*
X007558Y001563D02*
X007558Y000933D01*
X007348Y000933D02*
X007769Y000933D01*
X007348Y001353D02*
X007558Y001563D01*
X006914Y001563D02*
X006914Y000933D01*
X006704Y000933D02*
X007124Y000933D01*
X006704Y001353D02*
X006914Y001563D01*
X006479Y001248D02*
X006059Y001248D01*
X005835Y001458D02*
X005415Y001038D01*
X005415Y000933D01*
X005190Y001038D02*
X005085Y000933D01*
X004875Y000933D01*
X004770Y001038D01*
X005190Y001458D01*
X005190Y001038D01*
X004770Y001038D02*
X004770Y001458D01*
X004875Y001563D01*
X005085Y001563D01*
X005190Y001458D01*
X005415Y001563D02*
X005835Y001563D01*
X005835Y001458D01*
X004546Y001248D02*
X004126Y001248D01*
X003901Y001458D02*
X003901Y001038D01*
X003796Y000933D01*
X003586Y000933D01*
X003481Y001038D01*
X003901Y001458D01*
X003796Y001563D01*
X003586Y001563D01*
X003481Y001458D01*
X003481Y001038D01*
X003257Y000933D02*
X002836Y000933D01*
X003047Y000933D02*
X003047Y001563D01*
X002836Y001353D01*
X002612Y001458D02*
X002192Y001038D01*
X002297Y000933D01*
X002507Y000933D01*
X002612Y001038D01*
X002612Y001458D01*
X002507Y001563D01*
X002297Y001563D01*
X002192Y001458D01*
X002192Y001038D01*
X001968Y000933D02*
X001547Y000933D01*
X001968Y001353D01*
X001968Y001458D01*
X001863Y001563D01*
X001653Y001563D01*
X001547Y001458D01*
D16*
X010337Y001164D02*
X010337Y000864D01*
X010337Y001089D02*
X010637Y001089D01*
X010637Y001164D02*
X010637Y000864D01*
X010797Y000864D02*
X011022Y000864D01*
X011097Y000939D01*
X011097Y001239D01*
X011022Y001314D01*
X010797Y001314D01*
X010797Y000864D01*
X010637Y001164D02*
X010487Y001314D01*
X010337Y001164D01*
X011257Y001164D02*
X011257Y000864D01*
X011257Y001089D02*
X011558Y001089D01*
X011558Y001164D02*
X011558Y000864D01*
X011718Y000864D02*
X011718Y001314D01*
X011868Y001164D01*
X012018Y001314D01*
X012018Y000864D01*
X011558Y001164D02*
X011407Y001314D01*
X011257Y001164D01*
X012638Y001239D02*
X012638Y000939D01*
X012713Y000864D01*
X012864Y000864D01*
X012939Y000939D01*
X012939Y001089D01*
X012789Y001089D01*
X012939Y001239D02*
X012864Y001314D01*
X012713Y001314D01*
X012638Y001239D01*
X013099Y001314D02*
X013099Y000864D01*
X013099Y001014D02*
X013324Y001014D01*
X013399Y001089D01*
X013399Y001239D01*
X013324Y001314D01*
X013099Y001314D01*
X013249Y001014D02*
X013399Y000864D01*
X013559Y000864D02*
X013859Y000864D01*
X014019Y000864D02*
X014170Y000864D01*
X014095Y000864D02*
X014095Y001314D01*
X014170Y001314D02*
X014019Y001314D01*
X013859Y001314D02*
X013559Y001314D01*
X013559Y000864D01*
X013559Y001089D02*
X013709Y001089D01*
X014326Y001239D02*
X014326Y000939D01*
X014401Y000864D01*
X014552Y000864D01*
X014627Y000939D01*
X014627Y001089D01*
X014476Y001089D01*
X014326Y001239D02*
X014401Y001314D01*
X014552Y001314D01*
X014627Y001239D01*
X015247Y001239D02*
X015247Y001164D01*
X015547Y000864D01*
X015547Y001014D02*
X015397Y000864D01*
X015322Y000864D01*
X015247Y000939D01*
X015247Y001014D01*
X015397Y001164D01*
X015397Y001239D01*
X015322Y001314D01*
X015247Y001239D01*
X016168Y000939D02*
X016243Y000864D01*
X016318Y000864D01*
X016393Y000939D01*
X016393Y001314D01*
X016318Y001314D02*
X016468Y001314D01*
X016628Y001239D02*
X016628Y000939D01*
X016703Y000864D01*
X016853Y000864D01*
X016928Y000939D01*
X016928Y001239D01*
X016853Y001314D01*
X016703Y001314D01*
X016628Y001239D01*
X017089Y001314D02*
X017089Y000864D01*
X017389Y000864D02*
X017089Y001314D01*
X017389Y001314D02*
X017389Y000864D01*
X018009Y000939D02*
X018084Y000864D01*
X018234Y000864D01*
X018309Y000939D01*
X018309Y001014D01*
X018234Y001089D01*
X018084Y001089D01*
X018009Y001164D01*
X018009Y001239D01*
X018084Y001314D01*
X018234Y001314D01*
X018309Y001239D01*
X018470Y001239D02*
X018470Y000939D01*
X018545Y000864D01*
X018695Y000864D01*
X018770Y000939D01*
X018770Y001239D01*
X018695Y001314D01*
X018545Y001314D01*
X018470Y001239D01*
X018930Y001314D02*
X018930Y000864D01*
X019080Y001014D01*
X019230Y000864D01*
X019230Y001314D01*
X019390Y001314D02*
X019540Y001164D01*
X019691Y001314D01*
X019691Y000864D01*
X019851Y000864D02*
X019851Y001164D01*
X020001Y001314D01*
X020151Y001164D01*
X020151Y000864D01*
X020311Y000864D02*
X020311Y001314D01*
X020611Y000864D01*
X020611Y001314D01*
X020151Y001089D02*
X019851Y001089D01*
X019390Y000864D02*
X019390Y001314D01*
X024053Y011946D02*
X024204Y011946D01*
X024279Y012021D01*
X024279Y012322D01*
X024204Y012397D01*
X024053Y012397D01*
X023978Y012322D01*
X023978Y012021D01*
X024053Y011946D01*
X024439Y011946D02*
X024439Y012397D01*
X024739Y011946D01*
X024739Y012397D01*
X024664Y012734D02*
X024514Y012734D01*
X024439Y012809D01*
X024439Y013109D01*
X024514Y013184D01*
X024664Y013184D01*
X024739Y013109D01*
X024739Y012809D01*
X024664Y012734D01*
X024899Y012734D02*
X025049Y012884D01*
X025199Y012734D01*
X025199Y013184D01*
X025359Y013184D02*
X025359Y012734D01*
X025660Y012734D01*
X025820Y012734D02*
X025820Y013184D01*
X026045Y013184D01*
X026120Y013109D01*
X026120Y012959D01*
X026045Y012884D01*
X025820Y012884D01*
X025970Y012884D02*
X026120Y012734D01*
X026120Y012397D02*
X025820Y012397D01*
X025820Y011946D01*
X026120Y011946D01*
X026280Y012096D02*
X026430Y011946D01*
X026580Y012096D01*
X026580Y012397D01*
X026741Y012397D02*
X026741Y011946D01*
X027041Y011946D01*
X027201Y011946D02*
X027201Y012397D01*
X027426Y012397D01*
X027501Y012322D01*
X027501Y012171D01*
X027426Y012096D01*
X027201Y012096D01*
X027351Y012096D02*
X027501Y011946D01*
X027661Y012021D02*
X027736Y011946D01*
X027886Y011946D01*
X027961Y012021D01*
X027961Y012096D01*
X027886Y012171D01*
X027736Y012171D01*
X027661Y012246D01*
X027661Y012322D01*
X027736Y012397D01*
X027886Y012397D01*
X027961Y012322D01*
X028122Y012397D02*
X028122Y011946D01*
X028422Y011946D01*
X028272Y012171D02*
X028122Y012171D01*
X028122Y012397D02*
X028422Y012397D01*
X028504Y012734D02*
X028428Y012809D01*
X028428Y013109D01*
X028504Y013184D01*
X028654Y013184D01*
X028729Y013109D01*
X028889Y013184D02*
X028889Y012734D01*
X028729Y012809D02*
X028654Y012734D01*
X028504Y012734D01*
X028889Y012959D02*
X029189Y012959D01*
X029189Y013184D02*
X029189Y012734D01*
X028268Y013184D02*
X027968Y013184D01*
X028118Y013184D02*
X028118Y012734D01*
X027811Y012734D02*
X027661Y012734D01*
X027736Y012734D02*
X027736Y013184D01*
X027661Y013184D02*
X027811Y013184D01*
X027501Y013184D02*
X027501Y012734D01*
X027351Y012884D01*
X027201Y012734D01*
X027201Y013184D01*
X027041Y013109D02*
X026966Y013184D01*
X026816Y013184D01*
X026741Y013109D01*
X026741Y013034D01*
X026816Y012959D01*
X026966Y012959D01*
X027041Y012884D01*
X027041Y012809D01*
X026966Y012734D01*
X026816Y012734D01*
X026741Y012809D01*
X026741Y012397D02*
X027041Y012397D01*
X026891Y012171D02*
X026741Y012171D01*
X026280Y012096D02*
X026280Y012397D01*
X025970Y012171D02*
X025820Y012171D01*
X025660Y012171D02*
X025660Y012322D01*
X025585Y012397D01*
X025359Y012397D01*
X025359Y011946D01*
X025359Y012096D02*
X025585Y012096D01*
X025660Y012171D01*
X025510Y012096D02*
X025660Y011946D01*
X024899Y012734D02*
X024899Y013184D01*
X025359Y013184D02*
X025660Y013184D01*
X025510Y012959D02*
X025359Y012959D01*
X024279Y012959D02*
X024204Y012884D01*
X023978Y012884D01*
X023978Y012734D02*
X023978Y013184D01*
X024204Y013184D01*
X024279Y013109D01*
X024279Y012959D01*
M02*
