G75*
G70*
%OFA0B0*%
%FSLAX24Y24*%
%IPPOS*%
%LPD*%
%AMOC8*
5,1,8,0,0,1.08239X$1,22.5*
%
%ADD10C,0.0560*%
%ADD11C,0.1320*%
%ADD12C,0.0780*%
%ADD13C,0.1300*%
%ADD14R,0.0780X0.0780*%
%ADD15C,0.0985*%
%ADD16C,0.0634*%
%ADD17C,0.0375*%
%ADD18C,0.1620*%
D10*
X004737Y022366D02*
X004737Y022886D01*
X005737Y022886D02*
X005737Y022366D01*
X006737Y022366D02*
X006737Y022886D01*
X007737Y022886D02*
X007737Y022366D01*
X007737Y025366D02*
X007737Y025886D01*
X006737Y025886D02*
X006737Y025366D01*
X005737Y025366D02*
X005737Y025886D01*
X004737Y025886D02*
X004737Y025366D01*
D11*
X010568Y003654D03*
X014568Y003654D03*
X016473Y003654D03*
X020473Y003654D03*
D12*
X019723Y006154D03*
X019223Y007154D03*
X018223Y007154D03*
X017723Y006154D03*
X018723Y006154D03*
X017223Y007154D03*
X013818Y006154D03*
X012818Y006154D03*
X013318Y007154D03*
X012318Y007154D03*
X011318Y007154D03*
X011818Y006154D03*
X006656Y008372D03*
X005656Y008372D03*
X004656Y008372D03*
X003656Y008372D03*
X004156Y007372D03*
X005156Y007372D03*
X006156Y007372D03*
X023453Y007197D03*
X024453Y007197D03*
X028284Y015858D03*
X028384Y016858D03*
X028284Y017858D03*
X028384Y018858D03*
X028284Y019858D03*
X028384Y020858D03*
D13*
X007156Y004872D03*
X002656Y004872D03*
D14*
X003156Y007372D03*
D15*
X001906Y006055D03*
X007890Y006055D03*
D16*
X002300Y003299D03*
X003284Y003299D03*
X006512Y003299D03*
X007497Y003299D03*
D17*
X019627Y021343D03*
X020808Y021343D03*
X028284Y010543D03*
X028284Y009362D03*
D18*
X026709Y005898D03*
X028560Y004717D03*
X026709Y003535D03*
M02*
