G75*
G70*
%OFA0B0*%
%FSLAX24Y24*%
%IPPOS*%
%LPD*%
%AMOC8*
5,1,8,0,0,1.08239X$1,22.5*
%
%ADD10R,0.0118X0.0394*%
%ADD11R,0.0394X0.0118*%
%ADD12R,0.0394X0.0079*%
%ADD13R,0.0079X0.0394*%
%ADD14C,0.0520*%
%ADD15C,0.0740*%
%ADD16R,0.0709X0.0315*%
%ADD17R,0.0740X0.0740*%
%ADD18C,0.0945*%
%ADD19C,0.0594*%
%ADD20R,0.0315X0.0984*%
%ADD21R,0.0315X0.0657*%
%ADD22R,0.0657X0.0315*%
%ADD23R,0.0315X0.0315*%
%ADD24R,0.0394X0.0453*%
%ADD25R,0.0300X0.0600*%
%ADD26R,0.0472X0.0217*%
%ADD27R,0.0748X0.0433*%
%ADD28R,0.0394X0.0433*%
%ADD29R,0.0433X0.0394*%
%ADD30R,0.0551X0.0630*%
%ADD31R,0.0630X0.0551*%
%ADD32C,0.1580*%
%ADD33R,0.0453X0.0394*%
%ADD34R,0.0480X0.0880*%
%ADD35R,0.1417X0.0866*%
%ADD36C,0.0079*%
%ADD37C,0.0277*%
%ADD38C,0.0394*%
%ADD39C,0.0356*%
%ADD40C,0.0236*%
%ADD41C,0.0157*%
%ADD42C,0.0118*%
D10*
X017359Y013644D03*
X017556Y013644D03*
X017753Y013644D03*
X017949Y013644D03*
X018146Y013644D03*
X018343Y013644D03*
X018540Y013644D03*
X018737Y013644D03*
X018934Y013644D03*
X019131Y013644D03*
X019327Y013644D03*
X019524Y013644D03*
X019721Y013644D03*
X019918Y013644D03*
X020115Y013644D03*
X020312Y013644D03*
X020312Y018073D03*
X020115Y018073D03*
X019918Y018073D03*
X019721Y018073D03*
X019524Y018073D03*
X019327Y018073D03*
X019131Y018073D03*
X018934Y018073D03*
X018737Y018073D03*
X018540Y018073D03*
X018343Y018073D03*
X018146Y018073D03*
X017949Y018073D03*
X017753Y018073D03*
X017556Y018073D03*
X017359Y018073D03*
D11*
X016621Y017335D03*
X016621Y017138D03*
X016621Y016941D03*
X016621Y016744D03*
X016621Y016547D03*
X016621Y016350D03*
X016621Y016154D03*
X016621Y015957D03*
X016621Y015760D03*
X016621Y015563D03*
X016621Y015366D03*
X016621Y015169D03*
X016621Y014972D03*
X016621Y014776D03*
X016621Y014579D03*
X016621Y014382D03*
X021050Y014382D03*
X021050Y014579D03*
X021050Y014776D03*
X021050Y014972D03*
X021050Y015169D03*
X021050Y015366D03*
X021050Y015563D03*
X021050Y015760D03*
X021050Y015957D03*
X021050Y016154D03*
X021050Y016350D03*
X021050Y016547D03*
X021050Y016744D03*
X021050Y016941D03*
X021050Y017138D03*
X021050Y017335D03*
D12*
X008304Y017335D03*
X008304Y017531D03*
X008304Y017728D03*
X008304Y017138D03*
X008304Y016941D03*
X008304Y016744D03*
X008304Y016547D03*
X008304Y016350D03*
X008304Y016154D03*
X008304Y015957D03*
X008304Y015760D03*
X008304Y015563D03*
X004957Y015563D03*
X004957Y015760D03*
X004957Y015957D03*
X004957Y016154D03*
X004957Y016350D03*
X004957Y016547D03*
X004957Y016744D03*
X004957Y016941D03*
X004957Y017138D03*
X004957Y017335D03*
X004957Y017531D03*
X004957Y017728D03*
D13*
X005548Y018319D03*
X005745Y018319D03*
X005942Y018319D03*
X006138Y018319D03*
X006335Y018319D03*
X006532Y018319D03*
X006729Y018319D03*
X006926Y018319D03*
X007123Y018319D03*
X007320Y018319D03*
X007516Y018319D03*
X007713Y018319D03*
X007713Y014972D03*
X007516Y014972D03*
X007320Y014972D03*
X007123Y014972D03*
X006926Y014972D03*
X006729Y014972D03*
X006532Y014972D03*
X006335Y014972D03*
X006138Y014972D03*
X005942Y014972D03*
X005745Y014972D03*
X005548Y014972D03*
D14*
X005737Y022366D02*
X005737Y022886D01*
X004737Y022886D02*
X004737Y022366D01*
X006737Y022366D02*
X006737Y022886D01*
X007737Y022886D02*
X007737Y022366D01*
X007737Y025366D02*
X007737Y025886D01*
X006737Y025886D02*
X006737Y025366D01*
X005737Y025366D02*
X005737Y025886D01*
X004737Y025886D02*
X004737Y025366D01*
D15*
X004656Y008372D03*
X003656Y008372D03*
X004156Y007372D03*
X005156Y007372D03*
X006156Y007372D03*
X005656Y008372D03*
X006656Y008372D03*
X011318Y007154D03*
X012318Y007154D03*
X013318Y007154D03*
X013818Y006154D03*
X012818Y006154D03*
X011818Y006154D03*
X017223Y007154D03*
X017723Y006154D03*
X018723Y006154D03*
X018223Y007154D03*
X019223Y007154D03*
X019723Y006154D03*
X023453Y007197D03*
X024453Y007197D03*
X028284Y015858D03*
X028384Y016858D03*
X028284Y017858D03*
X028384Y018858D03*
X028284Y019858D03*
X028384Y020858D03*
D16*
X012799Y023376D03*
X012799Y023876D03*
X012799Y024376D03*
X012799Y024876D03*
X010699Y024876D03*
X010699Y024376D03*
X010699Y023876D03*
X010699Y023376D03*
D17*
X003156Y007372D03*
D18*
X001906Y006055D03*
X007890Y006055D03*
D19*
X007497Y003299D03*
X006512Y003299D03*
X003284Y003299D03*
X002300Y003299D03*
D20*
X016473Y024776D03*
D21*
X016473Y023313D03*
D22*
X015660Y023626D03*
X015660Y024126D03*
X015660Y024626D03*
X017286Y024626D03*
X017286Y024126D03*
X017286Y023626D03*
D23*
X022871Y019402D03*
X023461Y019402D03*
X023461Y018614D03*
X022871Y018614D03*
D24*
X021201Y020230D03*
X020217Y020230D03*
X019233Y020230D03*
X019233Y022455D03*
X020217Y022455D03*
X021201Y022455D03*
D25*
X023203Y023157D03*
X024703Y023157D03*
X024703Y021157D03*
X023203Y021157D03*
D26*
X022890Y024933D03*
X022890Y025307D03*
X022890Y025681D03*
X021867Y025681D03*
X021867Y024933D03*
D27*
X019170Y011587D03*
X019170Y010681D03*
X017713Y010681D03*
X017713Y011587D03*
D28*
X016473Y011469D03*
X016473Y010799D03*
X020410Y010799D03*
X020410Y011469D03*
X023225Y006016D03*
X023894Y006016D03*
X012536Y005169D03*
X012536Y004500D03*
X011709Y004500D03*
X011709Y005169D03*
X005449Y009618D03*
X005449Y010287D03*
X004268Y010287D03*
X004268Y009618D03*
X004367Y012669D03*
X005036Y012669D03*
X005587Y012669D03*
X006257Y012669D03*
X006808Y012669D03*
X007477Y012669D03*
X008028Y013496D03*
X008697Y013496D03*
X009249Y013496D03*
X009918Y013496D03*
X005036Y013496D03*
X004367Y013496D03*
X003816Y013496D03*
X003146Y013496D03*
X003146Y017020D03*
X003816Y017020D03*
X004662Y018280D03*
X004662Y018949D03*
X003422Y021370D03*
X002753Y021370D03*
X002753Y022177D03*
X003422Y022177D03*
X003422Y022984D03*
X002753Y022984D03*
X002753Y023791D03*
X003422Y023791D03*
X008993Y023791D03*
X008993Y024461D03*
X013776Y024598D03*
X014446Y024598D03*
X014446Y023772D03*
X013776Y023772D03*
X013776Y022945D03*
X014446Y022945D03*
X018442Y023791D03*
X018442Y024461D03*
X020804Y024972D03*
X020804Y025642D03*
X023953Y025642D03*
X023953Y024972D03*
X024012Y020228D03*
X024682Y020228D03*
X024682Y019402D03*
X024012Y019402D03*
X024012Y018575D03*
X024682Y018575D03*
X027103Y019067D03*
X027103Y019736D03*
X015016Y017630D03*
X014347Y017630D03*
X008599Y018280D03*
X008599Y018949D03*
D29*
X003816Y017827D03*
X003146Y017827D03*
X005587Y013496D03*
X006257Y013496D03*
X006808Y013496D03*
X007477Y013496D03*
X008028Y012669D03*
X008697Y012669D03*
X009249Y012669D03*
X009918Y012669D03*
X015745Y013496D03*
X016414Y013496D03*
X017713Y012709D03*
X018383Y012709D03*
X021257Y013496D03*
X021926Y013496D03*
X021532Y018220D03*
X020863Y018220D03*
X022792Y020228D03*
X023461Y020228D03*
X022713Y024126D03*
X022044Y024126D03*
X016414Y018220D03*
X015745Y018220D03*
X014446Y025425D03*
X013776Y025425D03*
X003816Y012669D03*
X003146Y012669D03*
X004249Y003988D03*
X004249Y003319D03*
X005056Y003319D03*
X005056Y003988D03*
X013363Y004500D03*
X013363Y005169D03*
X018107Y008772D03*
X018776Y008772D03*
X023619Y008772D03*
X024288Y008772D03*
X025194Y008772D03*
X025863Y008772D03*
X027162Y007984D03*
X027831Y007984D03*
D30*
X015686Y010937D03*
X015686Y012118D03*
D31*
X021001Y012709D03*
X022182Y012709D03*
X026906Y007197D03*
X028087Y007197D03*
X008953Y011843D03*
X007772Y011843D03*
D32*
X026709Y005898D03*
X028560Y004717D03*
X026709Y003535D03*
D33*
X027172Y008969D03*
X027172Y009953D03*
X027172Y010937D03*
X029396Y010937D03*
X029396Y009953D03*
X029396Y008969D03*
D34*
X025651Y009914D03*
X024741Y009914D03*
X023831Y009914D03*
D35*
X024741Y012354D03*
D36*
X001512Y005451D02*
X001512Y000898D01*
X029465Y000898D01*
X029465Y004233D01*
X029381Y004086D01*
X029190Y003895D01*
X028956Y003760D01*
X028695Y003690D01*
X028425Y003690D01*
X028164Y003760D01*
X027930Y003895D01*
X027739Y004086D01*
X027603Y004320D01*
X027533Y004581D01*
X027533Y004852D01*
X027603Y005113D01*
X027739Y005347D01*
X027930Y005538D01*
X028127Y005651D01*
X028127Y006545D01*
X027987Y006685D01*
X027674Y006685D01*
X027536Y006823D01*
X027536Y007551D01*
X027517Y007551D01*
X027497Y007571D01*
X027476Y007551D01*
X027457Y007551D01*
X027457Y006823D01*
X027346Y006712D01*
X027530Y006528D01*
X027666Y006294D01*
X027735Y006033D01*
X027735Y005762D01*
X027666Y005501D01*
X027530Y005268D01*
X027339Y005076D01*
X027105Y004941D01*
X026844Y004871D01*
X026574Y004871D01*
X026313Y004941D01*
X026079Y005076D01*
X025888Y005268D01*
X025753Y005501D01*
X025683Y005762D01*
X025683Y006033D01*
X025753Y006294D01*
X025888Y006528D01*
X026079Y006719D01*
X026276Y006833D01*
X026276Y007086D01*
X026342Y007245D01*
X026355Y007258D01*
X026355Y007570D01*
X026473Y007688D01*
X026473Y007814D01*
X026473Y009520D01*
X026623Y009520D02*
X026848Y009520D01*
X027496Y009520D01*
X027913Y009520D01*
X027881Y009442D01*
X027881Y009323D01*
X027575Y009323D01*
X027496Y009402D01*
X026848Y009402D01*
X026709Y009263D01*
X026709Y008674D01*
X026729Y008654D01*
X026729Y008299D01*
X026709Y008279D01*
X026709Y008144D01*
X026539Y007974D01*
X026473Y007814D01*
X026473Y007748D02*
X024707Y007748D01*
X024741Y007734D02*
X024741Y008339D01*
X024827Y008339D02*
X024879Y008339D01*
X025508Y008339D01*
X025528Y008359D01*
X025548Y008339D01*
X026177Y008339D01*
X026316Y008477D01*
X026316Y009066D01*
X026296Y009086D01*
X026296Y009520D01*
X026623Y009520D01*
X026631Y009520D02*
X026631Y008065D01*
X026628Y008063D02*
X023523Y008063D01*
X023481Y008021D02*
X023481Y007803D01*
X023574Y007803D02*
X023333Y007803D01*
X023213Y007753D01*
X023798Y008339D01*
X023933Y008339D01*
X023953Y008359D01*
X023953Y007554D01*
X023797Y007711D01*
X023574Y007803D01*
X023638Y007776D02*
X023638Y008179D01*
X023680Y008220D02*
X026709Y008220D01*
X026729Y008378D02*
X026217Y008378D01*
X026158Y008339D02*
X026158Y006764D01*
X026225Y006803D02*
X024917Y006803D01*
X024898Y006784D02*
X024898Y000898D01*
X024741Y000898D02*
X024741Y006660D01*
X024707Y006646D02*
X026006Y006646D01*
X026001Y006640D02*
X026001Y008339D01*
X025843Y008339D02*
X025843Y006450D01*
X025865Y006488D02*
X024170Y006488D01*
X024170Y006468D02*
X024170Y006524D01*
X024265Y006619D01*
X024333Y006591D01*
X024574Y006591D01*
X024797Y006683D01*
X024967Y006853D01*
X025060Y007076D01*
X025060Y007317D01*
X024967Y007540D01*
X024797Y007711D01*
X024574Y007803D01*
X024333Y007803D01*
X024110Y007711D01*
X023953Y007554D01*
X023917Y007591D02*
X023990Y007591D01*
X024111Y007711D02*
X024111Y008339D01*
X024202Y008339D02*
X024655Y008339D01*
X024827Y008339D01*
X024898Y008339D02*
X024898Y007609D01*
X024917Y007591D02*
X026375Y007591D01*
X026355Y007433D02*
X025012Y007433D01*
X025056Y007327D02*
X025056Y008339D01*
X025213Y008339D02*
X025213Y000898D01*
X025056Y000898D02*
X025056Y007067D01*
X025060Y007118D02*
X026289Y007118D01*
X026316Y007181D02*
X026316Y009520D01*
X026296Y009480D02*
X027896Y009480D01*
X027890Y009466D02*
X027890Y009520D01*
X027733Y009520D02*
X027733Y009323D01*
X027881Y009323D02*
X027575Y009323D01*
X027575Y009520D01*
X027418Y009520D02*
X027418Y009402D01*
X027260Y009402D02*
X027260Y009520D01*
X027103Y009520D02*
X027103Y009402D01*
X026946Y009402D02*
X026946Y009520D01*
X026788Y009520D02*
X026788Y009342D01*
X026769Y009323D02*
X026296Y009323D01*
X026296Y009165D02*
X026709Y009165D01*
X026709Y009008D02*
X026316Y009008D01*
X026316Y008850D02*
X026709Y008850D01*
X026709Y008693D02*
X026316Y008693D01*
X026316Y008535D02*
X026729Y008535D01*
X026511Y007906D02*
X023365Y007906D01*
X023323Y007864D02*
X023323Y007799D01*
X023707Y007748D02*
X024200Y007748D01*
X024268Y007776D02*
X024268Y008339D01*
X024202Y008339D02*
X023974Y008339D01*
X023953Y008359D01*
X023796Y008336D02*
X023796Y007711D01*
X024426Y007803D02*
X024426Y008339D01*
X024583Y008339D02*
X024583Y007799D01*
X025060Y007276D02*
X026355Y007276D01*
X026276Y006961D02*
X025012Y006961D01*
X024583Y006594D02*
X024583Y000898D01*
X024426Y000898D02*
X024426Y006591D01*
X024268Y006617D02*
X024268Y006389D01*
X024327Y006331D02*
X025774Y006331D01*
X025721Y006173D02*
X024327Y006173D01*
X024327Y006330D02*
X024189Y006468D01*
X024170Y006468D01*
X024327Y006330D02*
X024327Y005701D01*
X025700Y005701D01*
X025686Y005753D02*
X025686Y003680D01*
X025683Y003671D02*
X025683Y003400D01*
X025753Y003139D01*
X025888Y002905D01*
X026079Y002714D01*
X026313Y002579D01*
X026574Y002509D01*
X026844Y002509D01*
X027105Y002579D01*
X027339Y002714D01*
X027530Y002905D01*
X027666Y003139D01*
X027735Y003400D01*
X027735Y003671D01*
X027666Y003932D01*
X027530Y004166D01*
X027339Y004357D01*
X027105Y004492D01*
X026844Y004562D01*
X026574Y004562D01*
X026313Y004492D01*
X026079Y004357D01*
X025888Y004166D01*
X025753Y003932D01*
X025683Y003671D01*
X025683Y003654D02*
X021349Y003654D01*
X021349Y003811D02*
X025721Y003811D01*
X025774Y003969D02*
X021291Y003969D01*
X021276Y004004D02*
X021276Y004402D01*
X021119Y004402D02*
X021119Y004247D01*
X021082Y004283D02*
X026006Y004283D01*
X026001Y004278D02*
X026001Y005155D01*
X025927Y005228D02*
X023099Y005228D01*
X023099Y005071D02*
X026089Y005071D01*
X026158Y005031D02*
X026158Y004402D01*
X026225Y004441D02*
X022847Y004441D01*
X022851Y004443D02*
X022851Y000898D01*
X022694Y000898D02*
X022694Y004402D01*
X022752Y004402D02*
X022580Y004402D01*
X020957Y004402D01*
X020969Y004396D01*
X021216Y004150D01*
X021349Y003828D01*
X021349Y003479D01*
X021216Y003157D01*
X020969Y002911D01*
X020647Y002777D01*
X020299Y002777D01*
X019977Y002911D01*
X019730Y003157D01*
X019597Y003479D01*
X019597Y003828D01*
X019730Y004150D01*
X019977Y004396D01*
X019989Y004402D01*
X016957Y004402D01*
X016969Y004396D01*
X017216Y004150D01*
X017349Y003828D01*
X017349Y003479D01*
X017216Y003157D01*
X016969Y002911D01*
X016647Y002777D01*
X016299Y002777D01*
X015977Y002911D01*
X015730Y003157D01*
X015597Y003479D01*
X015597Y003828D01*
X015730Y004150D01*
X015977Y004396D01*
X015989Y004402D01*
X015051Y004402D01*
X015064Y004396D01*
X015310Y004150D01*
X015444Y003828D01*
X015444Y003479D01*
X015310Y003157D01*
X015064Y002911D01*
X014742Y002777D01*
X014393Y002777D01*
X014071Y002911D01*
X013825Y003157D01*
X013691Y003479D01*
X013691Y003828D01*
X013790Y004067D01*
X013690Y004067D01*
X013677Y004067D01*
X013048Y004067D01*
X012949Y004166D01*
X012831Y004047D01*
X012241Y004047D01*
X012123Y004166D01*
X012004Y004047D01*
X011415Y004047D01*
X011276Y004186D01*
X011276Y004524D01*
X011199Y004601D01*
X011121Y004679D01*
X011079Y004780D01*
X011079Y005636D01*
X011079Y005746D01*
X011121Y005847D01*
X011239Y005965D01*
X011211Y006033D01*
X011211Y006274D01*
X011304Y006497D01*
X011354Y006547D01*
X011197Y006547D01*
X010974Y006640D01*
X010804Y006810D01*
X010711Y007033D01*
X010711Y007274D01*
X010804Y007497D01*
X010974Y007667D01*
X011197Y007760D01*
X011438Y007760D01*
X011661Y007667D01*
X011818Y007511D01*
X011974Y007667D01*
X012197Y007760D01*
X012438Y007760D01*
X012661Y007667D01*
X012818Y007511D01*
X012974Y007667D01*
X013197Y007760D01*
X013438Y007760D01*
X013661Y007667D01*
X013831Y007497D01*
X013924Y007274D01*
X013924Y007033D01*
X013831Y006810D01*
X013781Y006760D01*
X013938Y006760D01*
X014161Y006667D01*
X014331Y006497D01*
X014424Y006274D01*
X014424Y006033D01*
X014331Y005810D01*
X014161Y005640D01*
X014023Y005583D01*
X017517Y005583D01*
X017380Y005640D01*
X017209Y005810D01*
X017117Y006033D01*
X017117Y006274D01*
X017209Y006497D01*
X017260Y006547D01*
X017102Y006547D01*
X016880Y006640D01*
X016709Y006810D01*
X016617Y007033D01*
X016617Y007274D01*
X016709Y007497D01*
X016880Y007667D01*
X017102Y007760D01*
X017344Y007760D01*
X017566Y007667D01*
X017723Y007511D01*
X017869Y007657D01*
X017869Y008339D01*
X017793Y008339D01*
X017763Y008368D01*
X017737Y008357D01*
X017572Y008357D01*
X017419Y008420D01*
X017303Y008537D01*
X017240Y008689D01*
X017240Y008854D01*
X017303Y009006D01*
X017419Y009123D01*
X017572Y009186D01*
X017737Y009186D01*
X017763Y009175D01*
X017793Y009205D01*
X018421Y009205D01*
X018442Y009184D01*
X018442Y009205D01*
X018462Y009205D02*
X018442Y009184D01*
X018462Y009205D02*
X019082Y009205D01*
X019082Y009205D01*
X015362Y009205D01*
X015221Y009205D01*
X015091Y009259D01*
X014698Y009652D01*
X014598Y009752D01*
X014544Y009882D01*
X014544Y011016D01*
X011024Y011016D01*
X010899Y011016D01*
X010107Y011016D01*
X007733Y008641D01*
X007733Y007259D01*
X007733Y007134D01*
X007685Y007018D01*
X006898Y006231D01*
X006809Y006142D01*
X006693Y006094D01*
X006552Y006094D01*
X006552Y005493D01*
X006666Y005606D01*
X006984Y005738D01*
X007255Y005738D01*
X007182Y005914D01*
X007182Y006196D01*
X007290Y006457D01*
X007489Y006656D01*
X007749Y006764D01*
X008031Y006764D01*
X008292Y006656D01*
X008491Y006457D01*
X008599Y006196D01*
X008599Y005914D01*
X008491Y005654D01*
X008292Y005454D01*
X008031Y005346D01*
X007897Y005346D01*
X008022Y005044D01*
X008022Y004700D01*
X007890Y004381D01*
X007890Y004237D01*
X007901Y004226D02*
X007818Y004309D01*
X007890Y004381D01*
X007915Y004441D02*
X010179Y004441D01*
X010253Y004471D02*
X010253Y011016D01*
X010410Y011016D02*
X010410Y004530D01*
X010393Y004530D02*
X010071Y004396D01*
X009825Y004150D01*
X009691Y003828D01*
X009691Y003479D01*
X009825Y003157D01*
X010071Y002911D01*
X010393Y002777D01*
X010742Y002777D01*
X011064Y002911D01*
X011310Y003157D01*
X011444Y003479D01*
X011444Y003828D01*
X011310Y004150D01*
X011064Y004396D01*
X010742Y004530D01*
X010393Y004530D01*
X010568Y004530D02*
X010568Y011016D01*
X010725Y011016D02*
X010725Y007307D01*
X010712Y007276D02*
X007733Y007276D01*
X007733Y007433D02*
X010777Y007433D01*
X010883Y007576D02*
X010883Y011016D01*
X011040Y011016D02*
X011040Y007695D01*
X011169Y007748D02*
X007733Y007748D01*
X007733Y007591D02*
X010897Y007591D01*
X011197Y007760D02*
X011197Y011016D01*
X011355Y011016D02*
X011355Y007760D01*
X011466Y007748D02*
X012169Y007748D01*
X012142Y007737D02*
X012142Y011016D01*
X011985Y011016D02*
X011985Y007672D01*
X011897Y007591D02*
X011738Y007591D01*
X011670Y007658D02*
X011670Y011016D01*
X011827Y011016D02*
X011827Y007521D01*
X012300Y007760D02*
X012300Y011016D01*
X012457Y011016D02*
X012457Y007752D01*
X012466Y007748D02*
X013169Y007748D01*
X013245Y007760D02*
X013245Y011016D01*
X013402Y011016D02*
X013402Y007760D01*
X013466Y007748D02*
X017074Y007748D01*
X017024Y007727D02*
X017024Y009205D01*
X016867Y009205D02*
X016867Y007655D01*
X016803Y007591D02*
X013738Y007591D01*
X013717Y007611D02*
X013717Y011016D01*
X013560Y011016D02*
X013560Y007709D01*
X013858Y007433D02*
X016683Y007433D01*
X016709Y007497D02*
X016709Y009205D01*
X016552Y009205D02*
X016552Y005583D01*
X016709Y005583D02*
X016709Y006810D01*
X016716Y006803D02*
X013824Y006803D01*
X013875Y006760D02*
X013875Y006914D01*
X013894Y006961D02*
X016647Y006961D01*
X016617Y007118D02*
X013924Y007118D01*
X013923Y007276D02*
X016617Y007276D01*
X017182Y007760D02*
X017182Y009205D01*
X017339Y009205D02*
X017339Y009043D01*
X017304Y009008D02*
X008100Y009008D01*
X008048Y008956D02*
X008048Y006757D01*
X007890Y006764D02*
X007890Y008799D01*
X007942Y008850D02*
X017240Y008850D01*
X017240Y008693D02*
X007785Y008693D01*
X007733Y008641D02*
X007733Y006757D01*
X007575Y006692D02*
X007575Y006909D01*
X007627Y006961D02*
X010741Y006961D01*
X010725Y007000D02*
X010725Y004530D01*
X010883Y004471D02*
X010883Y006731D01*
X010811Y006803D02*
X007470Y006803D01*
X007418Y006751D02*
X007418Y006585D01*
X007479Y006646D02*
X007312Y006646D01*
X007260Y006594D02*
X007260Y006386D01*
X007238Y006331D02*
X006997Y006331D01*
X006946Y006279D02*
X006946Y005722D01*
X006894Y005701D02*
X006552Y005701D01*
X006631Y005571D02*
X006631Y006094D01*
X006552Y006016D02*
X007182Y006016D01*
X007182Y006173D02*
X006840Y006173D01*
X006788Y006134D02*
X006788Y005657D01*
X006603Y005543D02*
X006552Y005543D01*
X006552Y005858D02*
X007205Y005858D01*
X007103Y005738D02*
X007103Y006436D01*
X007155Y006488D02*
X007321Y006488D01*
X006788Y007012D02*
X006788Y007770D01*
X006777Y007766D02*
X007000Y007858D01*
X007103Y007962D01*
X007103Y007327D01*
X006500Y006724D01*
X006174Y006724D01*
X004471Y006724D01*
X004471Y006846D01*
X004500Y006858D01*
X004656Y007015D01*
X004813Y006858D01*
X005036Y006766D01*
X005277Y006766D01*
X005500Y006858D01*
X005656Y007015D01*
X005813Y006858D01*
X006036Y006766D01*
X006277Y006766D01*
X006500Y006858D01*
X006670Y007029D01*
X006762Y007251D01*
X006762Y007493D01*
X006670Y007715D01*
X006620Y007766D01*
X006777Y007766D01*
X006637Y007748D02*
X007103Y007748D01*
X007103Y007591D02*
X006722Y007591D01*
X006762Y007433D02*
X007103Y007433D01*
X007051Y007276D02*
X006762Y007276D01*
X006707Y007118D02*
X006894Y007118D01*
X006946Y007170D02*
X006946Y007836D01*
X007047Y007906D02*
X007103Y007906D01*
X006631Y007766D02*
X006631Y007755D01*
X006156Y007372D02*
X006156Y008691D01*
X008205Y010740D01*
X008205Y012039D01*
X008363Y012197D01*
X008363Y012925D01*
X008087Y013201D01*
X008087Y013496D01*
X008028Y013496D01*
X008028Y014067D01*
X007516Y014579D01*
X007516Y014972D01*
X007320Y014972D02*
X007320Y015720D01*
X007162Y015878D01*
X006690Y015878D01*
X006532Y015720D01*
X006532Y014972D01*
X006335Y014972D02*
X006335Y014677D01*
X005942Y014283D01*
X005449Y014283D01*
X005056Y013890D01*
X005056Y013516D01*
X005036Y013496D01*
X004701Y013870D02*
X004701Y013004D01*
X005036Y012669D01*
X005056Y012217D02*
X005056Y011720D01*
X005040Y011705D02*
X004976Y011705D01*
X004980Y011709D01*
X005037Y011847D01*
X005037Y011996D01*
X004980Y012134D01*
X004957Y012156D01*
X004957Y012217D01*
X005312Y012217D01*
X005312Y011976D01*
X005040Y011705D01*
X005035Y011843D02*
X005178Y011843D01*
X005213Y011878D02*
X005213Y012217D01*
X005312Y012157D02*
X004957Y012157D01*
X005035Y012000D02*
X005312Y012000D01*
X005587Y011862D02*
X005154Y011429D01*
X004170Y011429D01*
X003087Y010346D01*
X003087Y007441D01*
X003156Y007372D01*
X002812Y007978D02*
X002772Y007978D01*
X002772Y011181D01*
X003198Y011606D01*
X003957Y011606D01*
X002931Y010580D01*
X002854Y010503D01*
X002812Y010401D01*
X002812Y007978D01*
X002812Y008063D02*
X002772Y008063D01*
X002772Y008220D02*
X002812Y008220D01*
X002812Y008378D02*
X002772Y008378D01*
X002772Y008535D02*
X002812Y008535D01*
X002812Y008693D02*
X002772Y008693D01*
X002772Y008850D02*
X002812Y008850D01*
X002812Y009008D02*
X002772Y009008D01*
X002772Y009165D02*
X002812Y009165D01*
X002812Y009323D02*
X002772Y009323D01*
X002772Y009480D02*
X002812Y009480D01*
X002812Y009638D02*
X002772Y009638D01*
X002772Y009795D02*
X002812Y009795D01*
X002812Y009953D02*
X002772Y009953D01*
X002772Y010110D02*
X002812Y010110D01*
X002812Y010268D02*
X002772Y010268D01*
X002772Y010425D02*
X002822Y010425D01*
X002851Y010496D02*
X002851Y011259D01*
X002804Y011213D02*
X003564Y011213D01*
X003638Y011287D02*
X003638Y011606D01*
X003481Y011606D02*
X003481Y011130D01*
X003406Y011055D02*
X002772Y011055D01*
X002772Y010898D02*
X003249Y010898D01*
X003323Y010972D02*
X003323Y011606D01*
X003166Y011574D02*
X003166Y010815D01*
X003091Y010740D02*
X002772Y010740D01*
X002772Y010583D02*
X002934Y010583D01*
X003009Y010657D02*
X003009Y011417D01*
X002962Y011370D02*
X003721Y011370D01*
X003796Y011445D02*
X003796Y011606D01*
X003879Y011528D02*
X003119Y011528D01*
X002694Y011993D02*
X002694Y012294D01*
X002658Y012294D02*
X002774Y012294D01*
X002832Y012236D01*
X003461Y012236D01*
X003481Y012256D01*
X003481Y012236D01*
X003501Y012236D02*
X004052Y012236D01*
X004052Y012236D01*
X003005Y012236D01*
X002889Y012188D01*
X002801Y012100D01*
X002497Y011796D01*
X002497Y012375D01*
X002521Y012351D01*
X002658Y012294D01*
X002609Y012315D02*
X002497Y012315D01*
X002536Y012345D02*
X002536Y011835D01*
X002543Y011843D02*
X002497Y011843D01*
X002497Y012000D02*
X002701Y012000D01*
X002801Y012100D02*
X002801Y012100D01*
X002851Y012150D02*
X002851Y012236D01*
X002858Y012157D02*
X002497Y012157D01*
X003009Y012236D02*
X003009Y012236D01*
X003166Y012236D02*
X003166Y012236D01*
X003323Y012236D02*
X003323Y012236D01*
X003481Y012256D02*
X003501Y012236D01*
X003638Y012236D02*
X003638Y012236D01*
X003796Y012236D02*
X003796Y012236D01*
X003953Y012236D02*
X003953Y012236D01*
X003816Y012669D02*
X004268Y012669D01*
X004367Y012669D01*
X004367Y013496D01*
X004367Y013850D01*
X005154Y014638D01*
X005823Y014638D01*
X005942Y014756D01*
X005942Y014972D01*
X006138Y014972D02*
X006138Y014717D01*
X005902Y014480D01*
X005312Y014480D01*
X004701Y013870D01*
X004268Y014142D02*
X004268Y014681D01*
X004264Y014677D02*
X004804Y014677D01*
X004824Y014697D02*
X004284Y014697D01*
X004150Y014563D01*
X004150Y014024D01*
X004211Y014084D01*
X004824Y014697D01*
X004741Y014697D02*
X004741Y014614D01*
X004646Y014520D02*
X004150Y014520D01*
X004150Y014362D02*
X004489Y014362D01*
X004426Y014299D02*
X004426Y014697D01*
X004583Y014697D02*
X004583Y014457D01*
X004331Y014205D02*
X004150Y014205D01*
X004150Y014047D02*
X004174Y014047D01*
X003599Y014047D02*
X003398Y014047D01*
X003323Y013973D02*
X003323Y013949D01*
X003300Y013949D02*
X003599Y014248D01*
X003599Y013949D01*
X003521Y013949D01*
X003481Y013909D01*
X003481Y014130D01*
X003556Y014205D02*
X003599Y014205D01*
X003441Y013949D02*
X003300Y013949D01*
X003441Y013949D02*
X003481Y013909D01*
X003875Y013555D02*
X003816Y013496D01*
X003875Y013555D02*
X003875Y014677D01*
X004170Y014972D01*
X005548Y014972D01*
X005745Y014972D02*
X005745Y015602D01*
X005725Y015622D01*
X005843Y015740D01*
X005843Y017669D01*
X005548Y017965D01*
X005548Y018319D01*
X005509Y018280D01*
X004662Y018280D01*
X005095Y018535D02*
X005213Y018654D01*
X005804Y018654D01*
X005942Y018516D01*
X005942Y018319D01*
X006138Y018319D02*
X006138Y017925D01*
X006197Y017866D01*
X006197Y016291D01*
X006394Y016094D01*
X007162Y016094D01*
X007969Y015287D01*
X007969Y015071D01*
X008068Y014972D01*
X008383Y014972D01*
X009131Y014224D01*
X014544Y014224D01*
X014957Y013811D01*
X014957Y013457D01*
X015292Y013122D01*
X015292Y013083D01*
X014943Y012945D02*
X011310Y012945D01*
X011336Y013008D02*
X011336Y013157D01*
X011279Y013295D01*
X011174Y013401D01*
X011036Y013458D01*
X010887Y013458D01*
X010749Y013401D01*
X010643Y013295D01*
X010586Y013157D01*
X010586Y013008D01*
X010631Y012900D01*
X010544Y012987D01*
X010406Y013044D01*
X010290Y013044D01*
X010252Y013083D01*
X010351Y013182D01*
X010351Y013810D01*
X010213Y013949D01*
X010111Y013949D01*
X014430Y013949D01*
X014682Y013697D01*
X014682Y013402D01*
X014724Y013301D01*
X014801Y013223D01*
X014917Y013107D01*
X014917Y013008D01*
X014974Y012870D01*
X015080Y012765D01*
X015217Y012708D01*
X015367Y012708D01*
X015430Y012734D01*
X015430Y012669D01*
X015312Y012669D01*
X015174Y012531D01*
X015174Y012107D01*
X014712Y011646D01*
X011276Y011646D01*
X011276Y012867D01*
X011279Y012870D01*
X011336Y013008D01*
X011336Y013102D02*
X014917Y013102D01*
X014820Y013205D02*
X014820Y011753D01*
X014751Y011685D02*
X011276Y011685D01*
X011355Y011646D02*
X011355Y013949D01*
X011512Y013949D02*
X011512Y011646D01*
X011670Y011646D02*
X011670Y013949D01*
X011827Y013949D02*
X011827Y011646D01*
X011985Y011646D02*
X011985Y013949D01*
X012142Y013949D02*
X012142Y011646D01*
X012300Y011646D02*
X012300Y013949D01*
X012457Y013949D02*
X012457Y011646D01*
X012615Y011646D02*
X012615Y013949D01*
X012772Y013949D02*
X012772Y011646D01*
X012930Y011646D02*
X012930Y013949D01*
X013087Y013949D02*
X013087Y011646D01*
X013245Y011646D02*
X013245Y013949D01*
X013402Y013949D02*
X013402Y011646D01*
X013560Y011646D02*
X013560Y013949D01*
X013717Y013949D02*
X013717Y011646D01*
X013875Y011646D02*
X013875Y013949D01*
X014032Y013949D02*
X014032Y011646D01*
X014190Y011646D02*
X014190Y013949D01*
X014347Y013949D02*
X014347Y011646D01*
X014505Y011646D02*
X014505Y013874D01*
X014489Y013890D02*
X010272Y013890D01*
X010253Y013909D02*
X010253Y013949D01*
X010111Y013949D02*
X010111Y013949D01*
X009918Y013752D02*
X009780Y013890D01*
X008678Y013890D01*
X008599Y013969D01*
X008599Y014520D01*
X008323Y014795D01*
X008009Y014795D01*
X007831Y014972D01*
X007713Y014972D01*
X007320Y014972D02*
X007320Y013654D01*
X007477Y013496D01*
X007477Y013240D01*
X007615Y013102D01*
X007930Y013102D01*
X008048Y012984D01*
X008048Y012689D01*
X008028Y012669D01*
X008028Y012098D01*
X007772Y011843D01*
X007221Y011843D02*
X007040Y011843D01*
X007103Y011906D02*
X007103Y010028D01*
X007028Y009953D02*
X006350Y009953D01*
X006316Y009939D02*
X006316Y009240D01*
X006241Y009165D02*
X005932Y009165D01*
X005932Y009008D02*
X006083Y009008D01*
X006158Y009083D02*
X006158Y009912D01*
X006103Y009912D02*
X006252Y009912D01*
X006390Y009970D01*
X006496Y010075D01*
X006553Y010213D01*
X006553Y010362D01*
X006496Y010500D01*
X006390Y010605D01*
X006252Y010662D01*
X006103Y010662D01*
X006053Y010642D01*
X005843Y010642D01*
X005843Y010858D01*
X005887Y010858D02*
X005996Y010858D01*
X006098Y010900D01*
X007221Y012024D01*
X007221Y011469D01*
X007359Y011331D01*
X007418Y011331D01*
X007418Y011298D01*
X007397Y011248D01*
X007397Y011099D01*
X007454Y010961D01*
X007560Y010855D01*
X007698Y010798D01*
X007847Y010798D01*
X007893Y010817D01*
X005973Y008897D01*
X005932Y008914D01*
X005932Y009357D01*
X005932Y009466D01*
X005890Y009568D01*
X005882Y009575D01*
X005882Y009932D01*
X005882Y009933D01*
X006053Y009933D01*
X006103Y009912D01*
X006001Y009933D02*
X006001Y008925D01*
X005932Y009323D02*
X006398Y009323D01*
X006473Y009398D02*
X006473Y010052D01*
X006510Y010110D02*
X007186Y010110D01*
X007260Y010185D02*
X007260Y011430D01*
X007320Y011370D02*
X006567Y011370D01*
X006631Y011433D02*
X006631Y009555D01*
X006556Y009480D02*
X005926Y009480D01*
X005882Y009638D02*
X006713Y009638D01*
X006788Y009713D02*
X006788Y011591D01*
X006725Y011528D02*
X007221Y011528D01*
X007221Y011685D02*
X006882Y011685D01*
X006946Y011748D02*
X006946Y009870D01*
X006871Y009795D02*
X005882Y009795D01*
X005656Y009411D02*
X005449Y009618D01*
X004268Y009618D01*
X004156Y009506D01*
X004156Y007372D01*
X004583Y006942D02*
X004583Y006724D01*
X004471Y006803D02*
X004945Y006803D01*
X004898Y006823D02*
X004898Y006724D01*
X004741Y006724D02*
X004741Y006930D01*
X004710Y006961D02*
X004602Y006961D01*
X005056Y006766D02*
X005056Y006724D01*
X005213Y006724D02*
X005213Y006766D01*
X005367Y006803D02*
X005945Y006803D01*
X006001Y006780D02*
X006001Y006724D01*
X006158Y006724D02*
X006158Y006766D01*
X006316Y006782D02*
X006316Y006724D01*
X006367Y006803D02*
X006579Y006803D01*
X006631Y006855D02*
X006631Y006989D01*
X006602Y006961D02*
X006736Y006961D01*
X006473Y006847D02*
X006473Y006724D01*
X005843Y006724D02*
X005843Y006846D01*
X005710Y006961D02*
X005602Y006961D01*
X005686Y006985D02*
X005686Y006724D01*
X005528Y006724D02*
X005528Y006887D01*
X005371Y006805D02*
X005371Y006724D01*
X005371Y006094D02*
X005371Y004421D01*
X005370Y004421D02*
X004741Y004421D01*
X004741Y006094D01*
X004898Y006094D02*
X004898Y004421D01*
X004741Y004421D02*
X004652Y004332D01*
X004563Y004421D01*
X004524Y004421D01*
X004524Y006059D01*
X004524Y006094D01*
X005922Y006094D01*
X005922Y004378D01*
X005970Y004263D01*
X006058Y004174D01*
X006146Y004087D01*
X006024Y004087D01*
X005899Y004087D01*
X005783Y004039D01*
X005508Y003764D01*
X005508Y004283D01*
X005961Y004283D01*
X006001Y004232D02*
X006001Y004087D01*
X006106Y004126D02*
X005508Y004126D01*
X005508Y004283D02*
X005370Y004421D01*
X005213Y004421D02*
X005213Y006094D01*
X005056Y006094D02*
X005056Y004421D01*
X004583Y004401D02*
X004583Y006094D01*
X004524Y006016D02*
X005922Y006016D01*
X005843Y006094D02*
X005843Y004064D01*
X005713Y003969D02*
X005508Y003969D01*
X005508Y003811D02*
X005555Y003811D01*
X005528Y003784D02*
X005528Y006094D01*
X005686Y006094D02*
X005686Y003941D01*
X005922Y004441D02*
X004524Y004441D01*
X004524Y004598D02*
X005922Y004598D01*
X005922Y004756D02*
X004524Y004756D01*
X004524Y004913D02*
X005922Y004913D01*
X005922Y005071D02*
X004524Y005071D01*
X004524Y005228D02*
X005922Y005228D01*
X005922Y005386D02*
X004524Y005386D01*
X004524Y005543D02*
X005922Y005543D01*
X005922Y005701D02*
X004524Y005701D01*
X004524Y005858D02*
X005922Y005858D01*
X004249Y006114D02*
X004032Y006331D01*
X002772Y006331D01*
X002221Y006882D01*
X002221Y013260D01*
X004721Y015760D01*
X004957Y015760D01*
X004957Y016154D02*
X004642Y016154D01*
X004564Y016075D01*
X004564Y015819D01*
X002064Y013319D01*
X002064Y006803D01*
X002694Y006173D01*
X003717Y006173D01*
X003875Y006016D01*
X003875Y003752D01*
X003973Y003654D01*
X004721Y003654D01*
X005056Y003988D01*
X004249Y003988D02*
X004249Y006114D01*
X003599Y005898D02*
X003599Y003807D01*
X003599Y003738D01*
X003586Y003751D01*
X003390Y003832D01*
X003178Y003832D01*
X002982Y003751D01*
X002832Y003601D01*
X002792Y003504D01*
X002752Y003601D01*
X002602Y003751D01*
X002406Y003832D01*
X002194Y003832D01*
X001998Y003751D01*
X001848Y003601D01*
X001767Y003405D01*
X001767Y003193D01*
X001848Y002997D01*
X001985Y002860D01*
X001985Y002803D01*
X002033Y002688D01*
X002427Y002294D01*
X002515Y002205D01*
X002631Y002157D01*
X006489Y002157D01*
X006614Y002157D01*
X007749Y002157D01*
X007874Y002157D01*
X007990Y002205D01*
X008384Y002599D01*
X008472Y002688D01*
X008520Y002803D01*
X008520Y003414D01*
X008520Y003539D01*
X008472Y003655D01*
X007901Y004226D01*
X007844Y004283D02*
X009958Y004283D01*
X009938Y004263D02*
X009938Y010846D01*
X009989Y010898D02*
X014544Y010898D01*
X014505Y011016D02*
X014505Y005583D01*
X014662Y005583D02*
X014662Y009688D01*
X014712Y009638D02*
X008729Y009638D01*
X008678Y009586D02*
X008678Y000898D01*
X008835Y000898D02*
X008835Y009744D01*
X008887Y009795D02*
X014580Y009795D01*
X014544Y009953D02*
X009044Y009953D01*
X008993Y009901D02*
X008993Y000898D01*
X009150Y000898D02*
X009150Y010059D01*
X009202Y010110D02*
X014544Y010110D01*
X014544Y010268D02*
X009359Y010268D01*
X009308Y010216D02*
X009308Y000898D01*
X009465Y000898D02*
X009465Y010374D01*
X009517Y010425D02*
X014544Y010425D01*
X014544Y010583D02*
X009674Y010583D01*
X009623Y010531D02*
X009623Y000898D01*
X009780Y000898D02*
X009780Y003265D01*
X009750Y003339D02*
X008520Y003339D01*
X008520Y003496D02*
X009691Y003496D01*
X009691Y003654D02*
X008473Y003654D01*
X008363Y003764D02*
X008363Y005525D01*
X008381Y005543D02*
X011079Y005543D01*
X011079Y005386D02*
X008126Y005386D01*
X008048Y005353D02*
X008048Y004079D01*
X008001Y004126D02*
X009815Y004126D01*
X009780Y004042D02*
X009780Y010688D01*
X009832Y010740D02*
X014544Y010740D01*
X014347Y011016D02*
X014347Y006459D01*
X014335Y006488D02*
X017206Y006488D01*
X017182Y006431D02*
X017182Y006547D01*
X017024Y006580D02*
X017024Y005583D01*
X016867Y005583D02*
X016867Y006652D01*
X016874Y006646D02*
X014183Y006646D01*
X014190Y006639D02*
X014190Y011016D01*
X014032Y011016D02*
X014032Y006721D01*
X014400Y006331D02*
X017140Y006331D01*
X017117Y006173D02*
X014424Y006173D01*
X014417Y006016D02*
X017124Y006016D01*
X017182Y005876D02*
X017182Y005583D01*
X017339Y005583D02*
X017339Y005680D01*
X017318Y005701D02*
X014222Y005701D01*
X014190Y005668D02*
X014190Y005583D01*
X014347Y005583D02*
X014347Y005848D01*
X014351Y005858D02*
X017189Y005858D01*
X017497Y005591D02*
X017497Y005583D01*
X017929Y005583D02*
X018066Y005640D01*
X018223Y005796D01*
X018380Y005640D01*
X018447Y005612D01*
X018447Y005583D01*
X017929Y005583D01*
X017969Y005583D02*
X017969Y005599D01*
X018127Y005583D02*
X018127Y005700D01*
X018128Y005701D02*
X018318Y005701D01*
X018284Y005735D02*
X018284Y005583D01*
X018442Y005583D02*
X018442Y005614D01*
X018723Y005616D02*
X018875Y005465D01*
X021414Y005465D01*
X021532Y005583D01*
X021532Y008654D01*
X021257Y008929D01*
X021631Y008929D02*
X021709Y008850D01*
X021709Y005504D01*
X021512Y005307D01*
X013934Y005307D01*
X013796Y005169D01*
X013363Y005169D01*
X013323Y005209D01*
X013323Y007148D01*
X013318Y007154D01*
X013875Y007393D02*
X013875Y011016D01*
X013087Y011016D02*
X013087Y007714D01*
X012930Y007623D02*
X012930Y011016D01*
X012772Y011016D02*
X012772Y007556D01*
X012738Y007591D02*
X012897Y007591D01*
X012615Y007687D02*
X012615Y011016D01*
X011512Y011016D02*
X011512Y007729D01*
X010711Y007118D02*
X007726Y007118D01*
X008205Y006692D02*
X008205Y009114D01*
X008257Y009165D02*
X017522Y009165D01*
X017497Y009155D02*
X017497Y009205D01*
X017654Y009205D02*
X017654Y009186D01*
X017812Y009205D02*
X017812Y009205D01*
X017969Y009205D02*
X017969Y009205D01*
X018127Y009205D02*
X018127Y009205D01*
X018284Y009205D02*
X018284Y009205D01*
X018599Y009205D02*
X018599Y009205D01*
X018757Y009205D02*
X018757Y009205D01*
X018914Y009205D02*
X018914Y009205D01*
X019071Y009205D02*
X019071Y009205D01*
X019229Y009058D02*
X019302Y008985D01*
X019432Y008931D01*
X019573Y008931D01*
X020882Y008931D01*
X020882Y008855D01*
X020939Y008717D01*
X021044Y008611D01*
X021182Y008554D01*
X021242Y008554D01*
X021257Y008539D01*
X021257Y005740D01*
X020167Y005740D01*
X020237Y005810D01*
X020329Y006033D01*
X020329Y006274D01*
X020237Y006497D01*
X020066Y006667D01*
X019844Y006760D01*
X019687Y006760D01*
X019737Y006810D01*
X019829Y007033D01*
X019829Y007274D01*
X019737Y007497D01*
X019566Y007667D01*
X019344Y007760D01*
X019102Y007760D01*
X018999Y007717D01*
X018999Y008339D01*
X019091Y008339D01*
X019229Y008477D01*
X019229Y009058D01*
X019229Y007760D01*
X019372Y007748D02*
X021257Y007748D01*
X021257Y007591D02*
X019643Y007591D01*
X019701Y007532D02*
X019701Y008931D01*
X019544Y008931D02*
X019544Y007677D01*
X019386Y007742D02*
X019386Y008950D01*
X019279Y009008D02*
X019229Y009008D01*
X019229Y008850D02*
X020883Y008850D01*
X020804Y008931D02*
X020804Y005740D01*
X020961Y005740D02*
X020961Y008694D01*
X020962Y008693D02*
X019229Y008693D01*
X019229Y008535D02*
X021257Y008535D01*
X021119Y008580D02*
X021119Y005740D01*
X021257Y005858D02*
X020257Y005858D01*
X020174Y005747D02*
X020174Y005740D01*
X020331Y005740D02*
X020331Y008931D01*
X020174Y008931D02*
X020174Y006560D01*
X020241Y006488D02*
X021257Y006488D01*
X021257Y006331D02*
X020306Y006331D01*
X020329Y006173D02*
X021257Y006173D01*
X021257Y006016D02*
X020322Y006016D01*
X020489Y005740D02*
X020489Y008931D01*
X020646Y008931D02*
X020646Y005740D01*
X020088Y006646D02*
X021257Y006646D01*
X021257Y006803D02*
X019730Y006803D01*
X019701Y006775D02*
X019701Y006760D01*
X019859Y006753D02*
X019859Y008931D01*
X020016Y008931D02*
X020016Y006688D01*
X019799Y006961D02*
X021257Y006961D01*
X021257Y007118D02*
X019829Y007118D01*
X019829Y007276D02*
X021257Y007276D01*
X021257Y007433D02*
X019763Y007433D01*
X019074Y007748D02*
X018999Y007748D01*
X019071Y007747D02*
X019071Y008339D01*
X019130Y008378D02*
X021257Y008378D01*
X021257Y008220D02*
X018999Y008220D01*
X018999Y008063D02*
X021257Y008063D01*
X021257Y007906D02*
X018999Y007906D01*
X018723Y008719D02*
X018776Y008772D01*
X018723Y008719D02*
X018723Y006154D01*
X018723Y005616D01*
X019167Y005740D02*
X019223Y005796D01*
X019279Y005740D01*
X019167Y005740D01*
X019229Y005740D02*
X019229Y005790D01*
X019223Y006511D02*
X019187Y006547D01*
X019260Y006547D01*
X019223Y006511D01*
X019229Y006517D02*
X019229Y006547D01*
X017812Y007599D02*
X017812Y008339D01*
X017869Y008220D02*
X007733Y008220D01*
X007733Y008063D02*
X017869Y008063D01*
X017869Y007906D02*
X007733Y007906D01*
X007733Y008378D02*
X017522Y008378D01*
X017497Y008388D02*
X017497Y007696D01*
X017372Y007748D02*
X017869Y007748D01*
X017803Y007591D02*
X017643Y007591D01*
X017654Y007580D02*
X017654Y008357D01*
X017339Y008501D02*
X017339Y007760D01*
X017304Y008535D02*
X007733Y008535D01*
X007103Y008782D02*
X007067Y008818D01*
X007117Y008869D01*
X007103Y008834D01*
X007103Y008854D01*
X007099Y008850D02*
X007110Y008850D01*
X007103Y008834D02*
X007103Y008782D01*
X006656Y008797D02*
X006656Y008372D01*
X006656Y008797D02*
X008993Y011134D01*
X009386Y011134D01*
X009583Y011331D01*
X009583Y013161D01*
X009918Y013496D01*
X009918Y013752D01*
X010351Y013732D02*
X014646Y013732D01*
X014662Y013717D02*
X014662Y011646D01*
X014909Y011843D02*
X011276Y011843D01*
X011276Y012000D02*
X015066Y012000D01*
X015134Y012068D02*
X015134Y012742D01*
X015057Y012787D02*
X011276Y012787D01*
X011276Y012630D02*
X015273Y012630D01*
X015292Y012649D02*
X015292Y012708D01*
X015174Y012472D02*
X011276Y012472D01*
X011276Y012315D02*
X015174Y012315D01*
X015174Y012157D02*
X011276Y012157D01*
X010646Y012157D02*
X009859Y012157D01*
X009859Y012236D02*
X010232Y012236D01*
X010290Y012294D01*
X010406Y012294D01*
X010544Y012351D01*
X010646Y012454D01*
X010646Y011646D01*
X010040Y011646D01*
X009914Y011646D01*
X009859Y011623D01*
X009859Y012236D01*
X009938Y012236D02*
X009938Y011646D01*
X009859Y011685D02*
X010646Y011685D01*
X010568Y011646D02*
X010568Y012375D01*
X010646Y012315D02*
X010456Y012315D01*
X010410Y012296D02*
X010410Y011646D01*
X010253Y011646D02*
X010253Y012256D01*
X010095Y012236D02*
X010095Y011646D01*
X009859Y011843D02*
X010646Y011843D01*
X010646Y012000D02*
X009859Y012000D01*
X009918Y012669D02*
X010331Y012669D01*
X010586Y012945D02*
X010612Y012945D01*
X010568Y012963D02*
X010568Y013949D01*
X010725Y013949D02*
X010725Y013377D01*
X010789Y013417D02*
X010351Y013417D01*
X010351Y013260D02*
X010629Y013260D01*
X010586Y013102D02*
X010272Y013102D01*
X010253Y013083D02*
X010253Y013082D01*
X010410Y013042D02*
X010410Y013949D01*
X010883Y013949D02*
X010883Y013456D01*
X011040Y013456D02*
X011040Y013949D01*
X011197Y013949D02*
X011197Y013377D01*
X011133Y013417D02*
X014682Y013417D01*
X014682Y013575D02*
X010351Y013575D01*
X011294Y013260D02*
X014764Y013260D01*
X014977Y012867D02*
X014977Y011911D01*
X015557Y011488D02*
X015636Y011567D01*
X016040Y011567D01*
X016040Y011488D01*
X015557Y011488D01*
X015607Y011488D02*
X015607Y011538D01*
X015596Y011528D02*
X016040Y011528D01*
X015922Y011488D02*
X015922Y011567D01*
X015764Y011567D02*
X015764Y011488D01*
X016197Y011921D02*
X016197Y011961D01*
X016937Y011961D01*
X017067Y012015D01*
X017167Y012114D01*
X017364Y012311D01*
X017399Y012276D01*
X018028Y012276D01*
X018048Y012296D01*
X018068Y012276D01*
X018406Y012276D01*
X018170Y012039D01*
X017241Y012039D01*
X017103Y011901D01*
X017103Y011744D01*
X016906Y011744D01*
X016906Y011783D01*
X016768Y011921D01*
X016197Y011921D01*
X016237Y011921D02*
X016237Y011961D01*
X016394Y011961D02*
X016394Y011921D01*
X016552Y011921D02*
X016552Y011961D01*
X016709Y011961D02*
X016709Y011921D01*
X016846Y011843D02*
X017103Y011843D01*
X017024Y011744D02*
X017024Y011997D01*
X017032Y012000D02*
X017202Y012000D01*
X017182Y011980D02*
X017182Y012129D01*
X017210Y012157D02*
X018288Y012157D01*
X018284Y012154D02*
X018284Y012276D01*
X018127Y012276D02*
X018127Y012039D01*
X017969Y012039D02*
X017969Y012276D01*
X017812Y012276D02*
X017812Y012039D01*
X017654Y012039D02*
X017654Y012276D01*
X017497Y012276D02*
X017497Y012039D01*
X017339Y012039D02*
X017339Y012286D01*
X017713Y012709D02*
X017949Y012945D01*
X017949Y013644D01*
X017753Y013644D02*
X017753Y013299D01*
X017615Y013161D01*
X017142Y013161D01*
X016867Y013437D01*
X016867Y013496D01*
X017142Y013417D02*
X017241Y013319D01*
X017477Y013319D01*
X017556Y013398D01*
X017556Y013644D01*
X017359Y013644D02*
X017359Y013772D01*
X016946Y014185D01*
X016434Y014185D01*
X016355Y014106D01*
X016079Y014283D02*
X016079Y013890D01*
X016414Y013555D01*
X016414Y013496D01*
X016414Y012768D01*
X016473Y012709D01*
X016138Y012881D02*
X016098Y012783D01*
X016098Y012669D01*
X016060Y012669D01*
X016060Y013064D01*
X016079Y013083D01*
X016079Y012669D01*
X016060Y012787D02*
X016100Y012787D01*
X016138Y012881D02*
X016138Y013063D01*
X016100Y013063D01*
X016079Y013083D01*
X016060Y012945D02*
X016138Y012945D01*
X016690Y013022D02*
X016690Y013063D01*
X016728Y013063D01*
X016788Y013123D01*
X016792Y013121D01*
X016793Y013121D01*
X016982Y012932D01*
X016844Y012793D01*
X016791Y012921D01*
X016690Y013022D01*
X016709Y013003D02*
X016709Y013063D01*
X016768Y013102D02*
X016812Y013102D01*
X016867Y013047D02*
X016867Y012816D01*
X016767Y012945D02*
X016969Y012945D01*
X017142Y013417D02*
X017142Y013614D01*
X016867Y013890D01*
X016749Y013890D01*
X016729Y013909D01*
X016621Y014382D02*
X016965Y014382D01*
X017654Y015071D01*
X017615Y015327D02*
X017536Y015406D01*
X017536Y016094D01*
X018166Y016724D01*
X019131Y016724D01*
X019603Y017197D01*
X020016Y017197D01*
X020213Y017000D01*
X020410Y017000D01*
X020568Y017157D01*
X020568Y017354D01*
X020745Y017531D01*
X021768Y017531D01*
X021886Y017413D01*
X021546Y017256D02*
X021569Y017201D01*
X021674Y017096D01*
X021812Y017038D01*
X021961Y017038D01*
X022099Y017096D01*
X022157Y017154D01*
X022291Y017020D01*
X021483Y017020D01*
X021483Y017098D01*
X021483Y017256D01*
X021546Y017256D01*
X021573Y017197D02*
X021483Y017197D01*
X021591Y017178D02*
X021591Y017020D01*
X021483Y017039D02*
X021810Y017039D01*
X021749Y017020D02*
X021749Y017065D01*
X021906Y017038D02*
X021906Y017020D01*
X021963Y017039D02*
X022271Y017039D01*
X022221Y017020D02*
X022221Y017089D01*
X022064Y017081D02*
X022064Y017020D01*
X022497Y016547D02*
X021050Y016547D01*
X021050Y016744D02*
X022694Y016744D01*
X023284Y016154D01*
X023284Y012433D01*
X022536Y011685D01*
X022457Y011685D01*
X022556Y011941D02*
X022201Y011941D01*
X022556Y011941D02*
X023087Y012472D01*
X023087Y015957D01*
X022497Y016547D01*
X022379Y016252D02*
X021296Y015169D01*
X021050Y015169D01*
X021050Y014972D02*
X018068Y014972D01*
X017694Y014598D01*
X017556Y014598D01*
X017241Y014283D01*
X017654Y014283D02*
X017890Y014520D01*
X018284Y014520D01*
X018540Y014264D01*
X018540Y013644D01*
X018737Y013644D02*
X018737Y013319D01*
X018638Y013220D01*
X018402Y013220D01*
X018146Y012945D02*
X018383Y012709D01*
X018757Y012709D01*
X018835Y012787D01*
X018835Y012315D02*
X018048Y011528D01*
X017772Y011528D01*
X017713Y011587D01*
X017595Y011469D01*
X016473Y011469D01*
X016906Y011193D02*
X017182Y011193D01*
X017182Y011074D01*
X017163Y011055D02*
X016906Y011055D01*
X016906Y011114D02*
X016886Y011134D01*
X016906Y011154D01*
X016906Y011193D01*
X016906Y011114D02*
X016906Y010485D01*
X016876Y010455D01*
X016887Y010429D01*
X016887Y010264D01*
X016824Y010112D01*
X016708Y009995D01*
X016555Y009932D01*
X016391Y009932D01*
X016238Y009995D01*
X016122Y010112D01*
X016059Y010264D01*
X016059Y010386D01*
X015312Y010386D01*
X015253Y010446D01*
X015253Y010100D01*
X015439Y009913D01*
X019299Y009913D01*
X019430Y009859D01*
X019529Y009760D01*
X019649Y009640D01*
X020829Y009640D01*
X020804Y009701D01*
X020804Y009640D01*
X020804Y009701D02*
X020804Y010446D01*
X020705Y010346D01*
X020115Y010346D01*
X019977Y010485D01*
X019977Y010524D01*
X019962Y010524D01*
X019780Y010524D01*
X019780Y010367D01*
X019642Y010228D01*
X018698Y010228D01*
X018560Y010367D01*
X018560Y010995D01*
X018698Y011134D01*
X019642Y011134D01*
X018698Y011134D01*
X018560Y011272D01*
X018560Y011650D01*
X018323Y011413D01*
X018323Y011272D01*
X018185Y011134D01*
X017241Y011134D01*
X017182Y011193D01*
X017241Y011134D02*
X017103Y010995D01*
X017103Y010367D01*
X017241Y010228D01*
X018185Y010228D01*
X018323Y010367D01*
X018323Y010995D01*
X018185Y011134D01*
X017241Y011134D01*
X017339Y011134D02*
X017339Y011134D01*
X017497Y011134D02*
X017497Y011134D01*
X017654Y011134D02*
X017654Y011134D01*
X017812Y011134D02*
X017812Y011134D01*
X017969Y011134D02*
X017969Y011134D01*
X018127Y011134D02*
X018127Y011134D01*
X018264Y011213D02*
X018619Y011213D01*
X018599Y011233D02*
X018599Y011035D01*
X018619Y011055D02*
X018264Y011055D01*
X018284Y011035D02*
X018284Y011233D01*
X018323Y011370D02*
X018560Y011370D01*
X018560Y011528D02*
X018438Y011528D01*
X018442Y011532D02*
X018442Y009913D01*
X018599Y009913D02*
X018599Y010327D01*
X018659Y010268D02*
X018224Y010268D01*
X018284Y010327D02*
X018284Y009913D01*
X018127Y009913D02*
X018127Y010228D01*
X017969Y010228D02*
X017969Y009913D01*
X017812Y009913D02*
X017812Y010228D01*
X017654Y010228D02*
X017654Y009913D01*
X017497Y009913D02*
X017497Y010228D01*
X017339Y010228D02*
X017339Y009913D01*
X017182Y009913D02*
X017182Y010288D01*
X017202Y010268D02*
X016887Y010268D01*
X016867Y010214D02*
X016867Y009913D01*
X017024Y009913D02*
X017024Y011193D01*
X017103Y010898D02*
X016906Y010898D01*
X016906Y010740D02*
X017103Y010740D01*
X017103Y010583D02*
X016906Y010583D01*
X016887Y010425D02*
X017103Y010425D01*
X016823Y010110D02*
X020804Y010110D01*
X020804Y009953D02*
X016605Y009953D01*
X016552Y009932D02*
X016552Y009913D01*
X016709Y009913D02*
X016709Y009997D01*
X016394Y009932D02*
X016394Y009913D01*
X016341Y009953D02*
X015399Y009953D01*
X015449Y009913D02*
X015449Y010386D01*
X015607Y010386D02*
X015607Y009913D01*
X015764Y009913D02*
X015764Y010386D01*
X015922Y010386D02*
X015922Y009913D01*
X016079Y009913D02*
X016079Y010214D01*
X016059Y010268D02*
X015253Y010268D01*
X015292Y010406D02*
X015292Y010060D01*
X015253Y010110D02*
X016123Y010110D01*
X016237Y009997D02*
X016237Y009913D01*
X016237Y009205D02*
X016237Y005583D01*
X016394Y005583D02*
X016394Y009205D01*
X016079Y009205D02*
X016079Y005583D01*
X015922Y005583D02*
X015922Y009205D01*
X015764Y009205D02*
X015764Y005583D01*
X015607Y005583D02*
X015607Y009205D01*
X015449Y009205D02*
X015449Y005583D01*
X015292Y005583D02*
X015292Y009205D01*
X015134Y009241D02*
X015134Y005583D01*
X014977Y005583D02*
X014977Y009373D01*
X015027Y009323D02*
X008415Y009323D01*
X008363Y009271D02*
X008363Y006585D01*
X008302Y006646D02*
X010968Y006646D01*
X011040Y006612D02*
X011040Y004406D01*
X010956Y004441D02*
X011276Y004441D01*
X011276Y004283D02*
X011177Y004283D01*
X011197Y004263D02*
X011197Y004602D01*
X011201Y004598D02*
X007980Y004598D01*
X008022Y004756D02*
X011089Y004756D01*
X011079Y004913D02*
X008022Y004913D01*
X008011Y005071D02*
X011079Y005071D01*
X011079Y005228D02*
X007946Y005228D01*
X008205Y005419D02*
X008205Y003922D01*
X008159Y003969D02*
X009750Y003969D01*
X009691Y003811D02*
X008316Y003811D01*
X008520Y003181D02*
X009815Y003181D01*
X009938Y003044D02*
X009938Y000898D01*
X010095Y000898D02*
X010095Y002901D01*
X010179Y002866D02*
X008520Y002866D01*
X008520Y003024D02*
X009958Y003024D01*
X010253Y002836D02*
X010253Y000898D01*
X010410Y000898D02*
X010410Y002777D01*
X010568Y002777D02*
X010568Y000898D01*
X010725Y000898D02*
X010725Y002777D01*
X010883Y002836D02*
X010883Y000898D01*
X011040Y000898D02*
X011040Y002901D01*
X010956Y002866D02*
X014179Y002866D01*
X014190Y002862D02*
X014190Y000898D01*
X014347Y000898D02*
X014347Y002796D01*
X014505Y002777D02*
X014505Y000898D01*
X014662Y000898D02*
X014662Y002777D01*
X014820Y002809D02*
X014820Y000898D01*
X014977Y000898D02*
X014977Y002875D01*
X014956Y002866D02*
X016084Y002866D01*
X016079Y002868D02*
X016079Y000898D01*
X015922Y000898D02*
X015922Y002966D01*
X015864Y003024D02*
X015177Y003024D01*
X015134Y002981D02*
X015134Y000898D01*
X015292Y000898D02*
X015292Y003139D01*
X015320Y003181D02*
X015720Y003181D01*
X015764Y003123D02*
X015764Y000898D01*
X015607Y000898D02*
X015607Y003455D01*
X015597Y003496D02*
X015444Y003496D01*
X015444Y003654D02*
X015597Y003654D01*
X015597Y003811D02*
X015444Y003811D01*
X015385Y003969D02*
X015655Y003969D01*
X015607Y003852D02*
X015607Y004402D01*
X015764Y004402D02*
X015764Y004184D01*
X015720Y004126D02*
X015320Y004126D01*
X015292Y004168D02*
X015292Y004402D01*
X015449Y004402D02*
X015449Y000898D01*
X016237Y000898D02*
X016237Y002803D01*
X016394Y002777D02*
X016394Y000898D01*
X016552Y000898D02*
X016552Y002777D01*
X016709Y002803D02*
X016709Y000898D01*
X016867Y000898D02*
X016867Y002868D01*
X016862Y002866D02*
X020084Y002866D01*
X020016Y002894D02*
X020016Y000898D01*
X019859Y000898D02*
X019859Y003029D01*
X019864Y003024D02*
X017082Y003024D01*
X017024Y002966D02*
X017024Y000898D01*
X017182Y000898D02*
X017182Y003123D01*
X017226Y003181D02*
X019720Y003181D01*
X019701Y003227D02*
X019701Y000898D01*
X019544Y000898D02*
X019544Y004402D01*
X019701Y004402D02*
X019701Y004080D01*
X019720Y004126D02*
X017226Y004126D01*
X017182Y004184D02*
X017182Y004402D01*
X017082Y004283D02*
X019864Y004283D01*
X019859Y004279D02*
X019859Y004402D01*
X019386Y004402D02*
X019386Y000898D01*
X019229Y000898D02*
X019229Y004402D01*
X019071Y004402D02*
X019071Y000898D01*
X018914Y000898D02*
X018914Y004402D01*
X018757Y004402D02*
X018757Y000898D01*
X018599Y000898D02*
X018599Y004402D01*
X018442Y004402D02*
X018442Y000898D01*
X018284Y000898D02*
X018284Y004402D01*
X018127Y004402D02*
X018127Y000898D01*
X017969Y000898D02*
X017969Y004402D01*
X017812Y004402D02*
X017812Y000898D01*
X017654Y000898D02*
X017654Y004402D01*
X017497Y004402D02*
X017497Y000898D01*
X017339Y000898D02*
X017339Y003455D01*
X017349Y003496D02*
X019597Y003496D01*
X019597Y003654D02*
X017349Y003654D01*
X017349Y003811D02*
X019597Y003811D01*
X019655Y003969D02*
X017291Y003969D01*
X017339Y003852D02*
X017339Y004402D01*
X017024Y004402D02*
X017024Y004341D01*
X017291Y003339D02*
X019655Y003339D01*
X020174Y002829D02*
X020174Y000898D01*
X020331Y000898D02*
X020331Y002777D01*
X020489Y002777D02*
X020489Y000898D01*
X020646Y000898D02*
X020646Y002777D01*
X020804Y002842D02*
X020804Y000898D01*
X020961Y000898D02*
X020961Y002907D01*
X020862Y002866D02*
X025927Y002866D01*
X026001Y002793D02*
X026001Y000898D01*
X026158Y000898D02*
X026158Y002669D01*
X026089Y002709D02*
X008481Y002709D01*
X008363Y002578D02*
X008363Y000898D01*
X008520Y000898D02*
X008520Y005724D01*
X008511Y005701D02*
X011079Y005701D01*
X011133Y005858D02*
X008576Y005858D01*
X008599Y006016D02*
X011218Y006016D01*
X011197Y005923D02*
X011197Y006547D01*
X011300Y006488D02*
X008459Y006488D01*
X008520Y006386D02*
X008520Y009429D01*
X008572Y009480D02*
X014870Y009480D01*
X014820Y009530D02*
X014820Y005583D01*
X014032Y005583D02*
X014032Y005586D01*
X013794Y005547D02*
X013778Y005541D01*
X013758Y005521D01*
X013732Y005547D01*
X013794Y005547D01*
X013784Y005543D02*
X013736Y005543D01*
X013973Y005150D02*
X021631Y005150D01*
X021886Y005406D01*
X021886Y008831D01*
X021985Y008929D01*
X022360Y008931D02*
X023166Y008931D01*
X022299Y008064D01*
X022233Y007905D01*
X022233Y007733D01*
X022233Y006102D01*
X022233Y005268D01*
X022128Y005268D01*
X022162Y005351D01*
X022162Y008597D01*
X022197Y008611D01*
X022303Y008717D01*
X022360Y008855D01*
X022360Y008931D01*
X022379Y008931D02*
X022379Y008144D01*
X022455Y008220D02*
X022162Y008220D01*
X022162Y008063D02*
X022298Y008063D01*
X022233Y007906D02*
X022162Y007906D01*
X022162Y007748D02*
X022233Y007748D01*
X022233Y007591D02*
X022162Y007591D01*
X022162Y007433D02*
X022233Y007433D01*
X022233Y007276D02*
X022162Y007276D01*
X022162Y007118D02*
X022233Y007118D01*
X022233Y006961D02*
X022162Y006961D01*
X022162Y006803D02*
X022233Y006803D01*
X022233Y006646D02*
X022162Y006646D01*
X022162Y006488D02*
X022233Y006488D01*
X022233Y006331D02*
X022162Y006331D01*
X022162Y006173D02*
X022233Y006173D01*
X022233Y006016D02*
X022162Y006016D01*
X022162Y005858D02*
X022233Y005858D01*
X022233Y005701D02*
X022162Y005701D01*
X022162Y005543D02*
X022233Y005543D01*
X022233Y005386D02*
X022162Y005386D01*
X022221Y005268D02*
X022221Y008635D01*
X022279Y008693D02*
X022928Y008693D01*
X022851Y008616D02*
X022851Y008931D01*
X022694Y008931D02*
X022694Y008459D01*
X022770Y008535D02*
X022162Y008535D01*
X022162Y008378D02*
X022613Y008378D01*
X022536Y008301D02*
X022536Y008931D01*
X022358Y008850D02*
X023085Y008850D01*
X023009Y008774D02*
X023009Y008931D01*
X023166Y008931D02*
X023166Y008931D01*
X023166Y009640D02*
X023166Y009734D01*
X023186Y009714D02*
X023186Y009640D01*
X022360Y009640D01*
X022360Y009712D01*
X022303Y009850D01*
X022197Y009956D01*
X022162Y009970D01*
X022162Y010605D01*
X022197Y010619D01*
X022239Y010661D01*
X023186Y009714D01*
X023105Y009795D02*
X022325Y009795D01*
X022379Y009640D02*
X022379Y010521D01*
X022317Y010583D02*
X022162Y010583D01*
X022221Y010643D02*
X022221Y009932D01*
X022200Y009953D02*
X022947Y009953D01*
X023009Y009891D02*
X023009Y009640D01*
X022851Y009640D02*
X022851Y010049D01*
X022790Y010110D02*
X022162Y010110D01*
X022162Y010268D02*
X022632Y010268D01*
X022694Y010206D02*
X022694Y009640D01*
X022536Y009640D02*
X022536Y010364D01*
X022475Y010425D02*
X022162Y010425D01*
X021886Y010839D02*
X021985Y010937D01*
X021886Y010839D02*
X021886Y009736D01*
X021985Y009638D01*
X021631Y009638D02*
X021197Y009638D01*
X021079Y009756D01*
X021079Y011823D01*
X020548Y012354D01*
X020548Y014697D01*
X020430Y014815D01*
X019032Y014815D01*
X018934Y014717D01*
X018934Y013644D01*
X019131Y013644D02*
X019131Y014441D01*
X019249Y014559D01*
X019623Y014559D01*
X019998Y014539D02*
X020272Y014539D01*
X020272Y014077D01*
X020272Y014077D01*
X020075Y014077D01*
X019878Y014077D01*
X019681Y014077D01*
X019484Y014077D01*
X019406Y014077D01*
X019406Y014245D01*
X019410Y014241D01*
X019548Y014184D01*
X019697Y014184D01*
X019835Y014241D01*
X019941Y014347D01*
X019998Y014484D01*
X019998Y014539D01*
X020016Y014539D02*
X020016Y014077D01*
X019859Y014077D02*
X019859Y014265D01*
X019747Y014205D02*
X020272Y014205D01*
X020272Y014362D02*
X019947Y014362D01*
X019998Y014520D02*
X020272Y014520D01*
X020174Y014539D02*
X020174Y014077D01*
X019701Y014077D02*
X019701Y014186D01*
X019544Y014186D02*
X019544Y014077D01*
X019498Y014205D02*
X019406Y014205D01*
X019327Y013644D02*
X019327Y012413D01*
X019229Y012315D01*
X018835Y012315D01*
X018949Y012039D02*
X019509Y012039D01*
X019426Y012122D01*
X019385Y012081D01*
X019284Y012039D01*
X018949Y012039D01*
X018949Y012039D01*
X019071Y012039D02*
X019071Y012039D01*
X019229Y012039D02*
X019229Y012039D01*
X019386Y012039D02*
X019386Y012083D01*
X019524Y012413D02*
X020016Y011921D01*
X020016Y010799D01*
X020410Y010799D01*
X020016Y010799D02*
X019288Y010799D01*
X019170Y010681D01*
X019229Y010228D02*
X019229Y009913D01*
X019071Y009913D02*
X019071Y010228D01*
X018914Y010228D02*
X018914Y009913D01*
X018757Y009913D02*
X018757Y010228D01*
X018560Y010425D02*
X018323Y010425D01*
X018323Y010583D02*
X018560Y010583D01*
X018560Y010740D02*
X018323Y010740D01*
X018323Y010898D02*
X018560Y010898D01*
X018757Y011134D02*
X018757Y011134D01*
X018914Y011134D02*
X018914Y011134D01*
X019071Y011134D02*
X019071Y011134D01*
X019229Y011134D02*
X019229Y011134D01*
X019386Y011134D02*
X019386Y011134D01*
X019544Y011134D02*
X019544Y011134D01*
X019642Y011134D02*
X019701Y011075D01*
X019741Y011075D01*
X019741Y011233D01*
X019642Y011134D01*
X019701Y011075D02*
X019701Y011194D01*
X019720Y011213D02*
X019741Y011213D01*
X019859Y010524D02*
X019859Y009640D01*
X020016Y009640D02*
X020016Y010445D01*
X020037Y010425D02*
X019780Y010425D01*
X019701Y010288D02*
X019701Y009640D01*
X019544Y009745D02*
X019544Y010228D01*
X019681Y010268D02*
X020804Y010268D01*
X020804Y010425D02*
X020783Y010425D01*
X020646Y010346D02*
X020646Y009640D01*
X020489Y009640D02*
X020489Y010346D01*
X020331Y010346D02*
X020331Y009640D01*
X020174Y009640D02*
X020174Y010346D01*
X020804Y009795D02*
X019494Y009795D01*
X019386Y009877D02*
X019386Y010228D01*
X020410Y011469D02*
X020410Y011921D01*
X020143Y012184D02*
X019800Y012528D01*
X019800Y013211D01*
X019878Y013211D01*
X020075Y013211D01*
X020272Y013211D01*
X020272Y012409D01*
X020272Y012299D01*
X020283Y012274D01*
X020198Y012239D01*
X020143Y012184D01*
X020174Y012215D02*
X020174Y013211D01*
X020272Y013211D02*
X020272Y013211D01*
X020272Y013102D02*
X019800Y013102D01*
X019859Y013211D02*
X019859Y012468D01*
X019855Y012472D02*
X020272Y012472D01*
X020272Y012315D02*
X020012Y012315D01*
X020016Y012311D02*
X020016Y013211D01*
X019800Y012945D02*
X020272Y012945D01*
X020272Y012787D02*
X019800Y012787D01*
X019800Y012630D02*
X020272Y012630D01*
X019524Y012413D02*
X019524Y013644D01*
X019052Y013211D02*
X019052Y013101D01*
X019048Y013105D01*
X018952Y013145D01*
X018970Y013163D01*
X018990Y013211D01*
X019052Y013211D01*
X019051Y013102D02*
X019052Y013102D01*
X018343Y013644D02*
X018343Y014028D01*
X018166Y014205D01*
X018146Y013644D02*
X018146Y012945D01*
X016867Y011961D02*
X016867Y011822D01*
X015273Y010425D02*
X015253Y010425D01*
X015312Y013476D02*
X015312Y013575D01*
X015115Y013772D01*
X015115Y013890D01*
X014623Y014382D01*
X009347Y014382D01*
X008757Y014972D01*
X008953Y015268D02*
X008245Y015268D01*
X008757Y015583D02*
X008875Y015583D01*
X009721Y014736D01*
X014879Y014736D01*
X015410Y014205D01*
X015430Y014559D02*
X015075Y014913D01*
X009938Y014913D01*
X008717Y016134D01*
X008717Y016646D01*
X008619Y016744D01*
X008304Y016744D01*
X008304Y016941D02*
X008697Y016941D01*
X008993Y016646D01*
X008993Y016252D01*
X010174Y015071D01*
X015351Y015071D01*
X015528Y014894D01*
X015686Y014677D02*
X015686Y013555D01*
X015745Y013496D01*
X015410Y013850D02*
X014682Y014579D01*
X009642Y014579D01*
X008953Y015268D01*
X009386Y016252D02*
X009386Y016488D01*
X009386Y016252D02*
X010410Y015228D01*
X015804Y015228D01*
X015883Y015150D01*
X015883Y015051D01*
X015784Y014776D02*
X015686Y014677D01*
X015784Y014776D02*
X016621Y014776D01*
X016621Y014972D02*
X017005Y014972D01*
X017359Y015327D01*
X017359Y016134D01*
X018107Y016882D01*
X019032Y016882D01*
X019623Y017472D01*
X019760Y017709D02*
X019977Y017709D01*
X020056Y017630D01*
X020056Y017531D01*
X020312Y017276D01*
X020213Y017768D02*
X020646Y017768D01*
X020715Y018073D02*
X020312Y018073D01*
X020115Y018073D02*
X020115Y017866D01*
X020213Y017768D01*
X019760Y017709D02*
X019721Y017748D01*
X019721Y018073D01*
X019524Y018073D02*
X019524Y018516D01*
X019623Y018614D01*
X019780Y018614D01*
X019839Y018555D01*
X020154Y018752D02*
X019957Y018949D01*
X019406Y018949D01*
X019327Y018870D01*
X019327Y018073D01*
X019131Y018073D02*
X019131Y019106D01*
X019229Y019205D01*
X020095Y019205D01*
X020509Y018791D01*
X020509Y018752D01*
X020804Y018280D02*
X020863Y018220D01*
X020715Y018073D01*
X021119Y018654D02*
X021119Y019071D01*
X021096Y019126D01*
X021646Y019126D01*
X021709Y019152D01*
X021709Y018654D01*
X021218Y018654D01*
X021197Y018633D01*
X021177Y018654D01*
X021119Y018654D01*
X021119Y019126D01*
X021112Y019087D02*
X021709Y019087D01*
X021591Y019126D02*
X021591Y018654D01*
X021434Y018654D02*
X021434Y019126D01*
X021276Y019126D02*
X021276Y018654D01*
X021119Y018772D02*
X021709Y018772D01*
X021709Y018929D02*
X021119Y018929D01*
X020804Y019402D02*
X020217Y019988D01*
X020217Y020230D01*
X019784Y020189D02*
X019666Y020189D01*
X019666Y020346D02*
X019784Y020346D01*
X019784Y020504D02*
X019666Y020504D01*
X019666Y020555D02*
X019638Y020583D01*
X019812Y020583D01*
X019784Y020555D01*
X019784Y019906D01*
X019922Y019768D01*
X020048Y019768D01*
X020099Y019716D01*
X019548Y019716D01*
X019548Y019788D01*
X019666Y019906D01*
X019666Y020555D01*
X019701Y020583D02*
X019701Y019716D01*
X019548Y019717D02*
X020099Y019717D01*
X020016Y019716D02*
X020016Y019768D01*
X019859Y019716D02*
X019859Y019831D01*
X019816Y019874D02*
X019634Y019874D01*
X019666Y020031D02*
X019784Y020031D01*
X019233Y020185D02*
X019233Y020230D01*
X018800Y019960D02*
X018800Y019906D01*
X018918Y019788D01*
X018918Y019716D01*
X018282Y019716D01*
X018284Y019721D01*
X018284Y019932D01*
X018284Y019716D01*
X018282Y019717D02*
X018918Y019717D01*
X018914Y019716D02*
X018914Y019792D01*
X018832Y019874D02*
X018284Y019874D01*
X018284Y019932D02*
X018359Y019932D01*
X018471Y019979D01*
X018584Y019932D01*
X018733Y019932D01*
X018800Y019960D01*
X018757Y019942D02*
X018757Y019716D01*
X018599Y019716D02*
X018599Y019932D01*
X018442Y019966D02*
X018442Y019716D01*
X018009Y019776D02*
X018009Y020406D01*
X018343Y020740D01*
X018343Y022925D01*
X018264Y023004D01*
X017241Y023004D01*
X016827Y022591D01*
X015253Y022591D01*
X015036Y022374D01*
X014347Y022374D01*
X013776Y022945D01*
X011886Y022945D01*
X011749Y023083D01*
X011749Y023732D02*
X011749Y024126D01*
X011999Y024376D01*
X012799Y024376D01*
X012799Y023876D02*
X012365Y023876D01*
X012201Y023713D01*
X012595Y022669D02*
X013323Y022669D01*
X013776Y022217D01*
X015115Y022217D01*
X015312Y022413D01*
X016886Y022413D01*
X017320Y022846D01*
X018107Y022846D01*
X018186Y022768D01*
X018186Y020799D01*
X017851Y020465D01*
X017851Y019835D01*
X017792Y019776D01*
X017182Y019776D01*
X016886Y019480D01*
X016886Y019106D01*
X016538Y018968D02*
X015362Y018968D01*
X014828Y018968D01*
X014698Y018915D01*
X014598Y018815D01*
X014417Y018634D01*
X010097Y018634D01*
X010097Y019369D01*
X010097Y019510D01*
X010043Y019640D01*
X009587Y020096D01*
X009457Y020150D01*
X009316Y020150D01*
X003551Y020150D01*
X003410Y020150D01*
X003280Y020096D01*
X002887Y019702D01*
X002886Y019702D01*
X002787Y019602D01*
X002733Y019472D01*
X002733Y018161D01*
X002694Y018121D01*
X002694Y020917D01*
X002851Y020917D02*
X002851Y019666D01*
X002901Y019717D02*
X001512Y019717D01*
X001512Y019874D02*
X003059Y019874D01*
X003009Y019824D02*
X003009Y020917D01*
X003047Y020917D02*
X002458Y020917D01*
X002378Y020997D01*
X002374Y020995D01*
X002225Y020995D01*
X002087Y021052D01*
X001982Y021158D01*
X001925Y021295D01*
X001925Y021445D01*
X001982Y021582D01*
X002087Y021688D01*
X002225Y021745D01*
X002374Y021745D01*
X002378Y021743D01*
X002409Y021774D01*
X002320Y021863D01*
X002320Y022492D01*
X002409Y022581D01*
X002320Y022670D01*
X002320Y023299D01*
X002409Y023388D01*
X002320Y023477D01*
X002320Y024106D01*
X002458Y024244D01*
X003047Y024244D01*
X003087Y024204D01*
X003127Y024244D01*
X003717Y024244D01*
X003855Y024106D01*
X003855Y024067D01*
X003870Y024067D01*
X003972Y024025D01*
X003993Y024004D01*
X003993Y025103D01*
X003993Y025212D01*
X004035Y025314D01*
X004241Y025519D01*
X004241Y025985D01*
X004286Y026094D01*
X001512Y026094D01*
X001512Y006659D01*
X001765Y006764D01*
X001788Y006764D01*
X001788Y013374D01*
X001830Y013475D01*
X001907Y013552D01*
X004288Y015933D01*
X004288Y016130D01*
X004330Y016231D01*
X004371Y016272D01*
X004332Y016288D01*
X004289Y016331D01*
X004284Y016331D01*
X004174Y016331D01*
X004073Y016373D01*
X003879Y016567D01*
X003521Y016567D01*
X003441Y016567D01*
X003481Y016607D01*
X003521Y016567D01*
X003481Y016607D02*
X003481Y015126D01*
X003505Y015150D02*
X001512Y015150D01*
X001512Y015307D02*
X003662Y015307D01*
X003638Y015283D02*
X003638Y016567D01*
X003796Y016567D02*
X003796Y015441D01*
X003820Y015465D02*
X001512Y015465D01*
X001512Y015622D02*
X003977Y015622D01*
X003953Y015598D02*
X003953Y016492D01*
X004036Y016409D02*
X001512Y016409D01*
X001512Y016252D02*
X004351Y016252D01*
X004268Y016331D02*
X004268Y015913D01*
X004288Y015937D02*
X001512Y015937D01*
X001512Y015780D02*
X004135Y015780D01*
X004111Y015756D02*
X004111Y016357D01*
X004229Y016606D02*
X003816Y017020D01*
X004229Y016606D02*
X004544Y016606D01*
X004603Y016547D01*
X004957Y016547D01*
X004957Y016744D02*
X005312Y016744D01*
X005528Y016528D01*
X005390Y016179D02*
X005454Y016153D01*
X005568Y016153D01*
X005568Y015963D01*
X005513Y015940D01*
X005407Y015834D01*
X005390Y015794D01*
X005390Y015819D01*
X005390Y016016D01*
X005390Y016179D01*
X005390Y016094D02*
X005568Y016094D01*
X005528Y016153D02*
X005528Y015946D01*
X005510Y015937D02*
X005390Y015937D01*
X005390Y015450D02*
X005407Y015410D01*
X005411Y015405D01*
X005272Y015267D01*
X005272Y015248D01*
X004599Y015248D01*
X004650Y015300D01*
X004663Y015287D01*
X005252Y015287D01*
X005390Y015426D01*
X005390Y015450D01*
X005371Y015406D02*
X005371Y015366D01*
X005411Y015405D02*
X005411Y015405D01*
X005312Y015307D02*
X005272Y015307D01*
X005213Y015287D02*
X005213Y015248D01*
X005056Y015248D02*
X005056Y015287D01*
X004898Y015287D02*
X004898Y015248D01*
X004741Y015248D02*
X004741Y015287D01*
X004288Y016094D02*
X001512Y016094D01*
X001512Y016567D02*
X002852Y016567D01*
X003441Y016567D01*
X003323Y016567D02*
X003323Y014968D01*
X003347Y014992D02*
X001512Y014992D01*
X001512Y014835D02*
X003190Y014835D01*
X003166Y014811D02*
X003166Y016567D01*
X003009Y016567D02*
X003009Y014654D01*
X003032Y014677D02*
X001512Y014677D01*
X001512Y014520D02*
X002875Y014520D01*
X002851Y014496D02*
X002851Y016567D01*
X002852Y016567D02*
X002713Y016705D01*
X002713Y017334D01*
X002792Y017413D01*
X002792Y017434D01*
X002694Y017532D01*
X002694Y014339D01*
X002717Y014362D02*
X001512Y014362D01*
X001512Y014205D02*
X002560Y014205D01*
X002536Y014181D02*
X002536Y020917D01*
X002399Y020976D02*
X001512Y020976D01*
X001512Y020819D02*
X005946Y020819D01*
X006001Y020764D02*
X006001Y020150D01*
X006158Y020150D02*
X006158Y020606D01*
X006200Y020564D02*
X006278Y020487D01*
X006379Y020445D01*
X007147Y020445D01*
X007256Y020445D01*
X007358Y020487D01*
X007495Y020625D01*
X007573Y020702D01*
X007615Y020803D01*
X007615Y021059D01*
X007615Y021169D01*
X007573Y021270D01*
X007455Y021388D01*
X007377Y021466D01*
X007276Y021508D01*
X006489Y021508D01*
X006035Y021962D01*
X006157Y022085D01*
X006233Y022267D01*
X006233Y022985D01*
X006201Y023063D01*
X006273Y023063D01*
X006241Y022985D01*
X006241Y022267D01*
X006316Y022085D01*
X006456Y021945D01*
X006638Y021870D01*
X006836Y021870D01*
X007018Y021945D01*
X007157Y022085D01*
X007233Y022267D01*
X007233Y022985D01*
X007157Y023167D01*
X007018Y023307D01*
X006836Y023382D01*
X006670Y023382D01*
X006970Y023682D01*
X007012Y023784D01*
X007012Y023893D01*
X007012Y024943D01*
X007018Y024945D01*
X007157Y025085D01*
X007233Y025267D01*
X007233Y025985D01*
X007188Y026094D01*
X007286Y026094D01*
X007241Y025985D01*
X007241Y025267D01*
X007316Y025085D01*
X007456Y024945D01*
X007638Y024870D01*
X007812Y024870D01*
X007812Y023382D01*
X007638Y023382D01*
X007456Y023307D01*
X007316Y023167D01*
X007241Y022985D01*
X007241Y022267D01*
X007316Y022085D01*
X007456Y021945D01*
X007638Y021870D01*
X007812Y021870D01*
X007812Y020583D01*
X017602Y020583D01*
X017575Y020519D01*
X017575Y020410D01*
X017575Y020051D01*
X017127Y020051D01*
X017026Y020009D01*
X016948Y019932D01*
X016653Y019636D01*
X016611Y019535D01*
X016611Y019425D01*
X016611Y019361D01*
X016569Y019319D01*
X016511Y019181D01*
X016511Y019032D01*
X016538Y018968D01*
X016511Y019087D02*
X010097Y019087D01*
X010097Y019244D02*
X016538Y019244D01*
X016552Y019278D02*
X016552Y020583D01*
X016709Y020583D02*
X016709Y019693D01*
X016733Y019717D02*
X009966Y019717D01*
X009938Y019745D02*
X009938Y020583D01*
X010095Y020583D02*
X010095Y019514D01*
X010076Y019559D02*
X016621Y019559D01*
X016611Y019402D02*
X010097Y019402D01*
X010097Y018929D02*
X014733Y018929D01*
X014662Y018879D02*
X014662Y020583D01*
X014505Y020583D02*
X014505Y018722D01*
X014555Y018772D02*
X010097Y018772D01*
X010253Y018634D02*
X010253Y020583D01*
X010410Y020583D02*
X010410Y018634D01*
X010568Y018634D02*
X010568Y020583D01*
X010725Y020583D02*
X010725Y018634D01*
X010883Y018634D02*
X010883Y020583D01*
X011040Y020583D02*
X011040Y018634D01*
X011197Y018634D02*
X011197Y020583D01*
X011355Y020583D02*
X011355Y018634D01*
X011512Y018634D02*
X011512Y020583D01*
X011670Y020583D02*
X011670Y018634D01*
X011827Y018634D02*
X011827Y020583D01*
X011985Y020583D02*
X011985Y018634D01*
X012142Y018634D02*
X012142Y020583D01*
X012300Y020583D02*
X012300Y018634D01*
X012457Y018634D02*
X012457Y020583D01*
X012615Y020583D02*
X012615Y018634D01*
X012772Y018634D02*
X012772Y020583D01*
X012930Y020583D02*
X012930Y018634D01*
X013087Y018634D02*
X013087Y020583D01*
X013245Y020583D02*
X013245Y018634D01*
X013402Y018634D02*
X013402Y020583D01*
X013560Y020583D02*
X013560Y018634D01*
X013717Y018634D02*
X013717Y020583D01*
X013875Y020583D02*
X013875Y018634D01*
X014032Y018634D02*
X014032Y020583D01*
X014190Y020583D02*
X014190Y018634D01*
X014347Y018634D02*
X014347Y020583D01*
X014820Y020583D02*
X014820Y018965D01*
X014977Y018968D02*
X014977Y020583D01*
X015134Y020583D02*
X015134Y018968D01*
X015292Y018968D02*
X015292Y020583D01*
X015449Y020583D02*
X015449Y018968D01*
X015607Y018968D02*
X015607Y020583D01*
X015764Y020583D02*
X015764Y018968D01*
X015922Y018968D02*
X015922Y020583D01*
X016079Y020583D02*
X016079Y018968D01*
X016237Y018968D02*
X016237Y020583D01*
X016394Y020583D02*
X016394Y018968D01*
X017162Y019382D02*
X017398Y019618D01*
X017851Y019618D01*
X018009Y019776D01*
X017497Y020051D02*
X017497Y020583D01*
X017575Y020504D02*
X007375Y020504D01*
X007418Y020547D02*
X007418Y020150D01*
X007575Y020150D02*
X007575Y020708D01*
X007532Y020661D02*
X007812Y020661D01*
X007890Y020583D02*
X007890Y020150D01*
X007733Y020150D02*
X007733Y021870D01*
X007812Y021764D02*
X006233Y021764D01*
X006158Y021838D02*
X006158Y022086D01*
X006151Y022079D02*
X006322Y022079D01*
X006316Y022086D02*
X006316Y021681D01*
X006390Y021606D02*
X007812Y021606D01*
X007812Y021449D02*
X007394Y021449D01*
X007418Y021425D02*
X007418Y021983D01*
X007514Y021921D02*
X006960Y021921D01*
X006946Y021915D02*
X006946Y021508D01*
X007103Y021508D02*
X007103Y022030D01*
X007151Y022079D02*
X007322Y022079D01*
X007260Y022219D02*
X007260Y021508D01*
X007221Y021232D02*
X006375Y021232D01*
X005745Y021862D01*
X005745Y022618D01*
X005737Y022626D01*
X005241Y022551D02*
X005233Y022551D01*
X005233Y022519D02*
X005233Y022964D01*
X005241Y022964D01*
X005241Y022512D01*
X005233Y022519D01*
X005233Y022709D02*
X005241Y022709D01*
X005233Y022866D02*
X005241Y022866D01*
X005253Y023339D02*
X006237Y023339D01*
X006737Y023839D01*
X006737Y025626D01*
X007233Y025701D02*
X007241Y025701D01*
X007233Y025858D02*
X007241Y025858D01*
X007254Y026016D02*
X007220Y026016D01*
X007260Y026033D02*
X007260Y026094D01*
X007233Y025543D02*
X007241Y025543D01*
X007233Y025386D02*
X007241Y025386D01*
X007257Y025228D02*
X007217Y025228D01*
X007260Y025219D02*
X007260Y023033D01*
X007257Y023024D02*
X007217Y023024D01*
X007233Y022866D02*
X007241Y022866D01*
X007233Y022709D02*
X007241Y022709D01*
X007233Y022551D02*
X007241Y022551D01*
X007233Y022394D02*
X007241Y022394D01*
X007253Y022236D02*
X007220Y022236D01*
X007575Y021896D02*
X007575Y021264D01*
X007552Y021291D02*
X007812Y021291D01*
X007812Y021134D02*
X007615Y021134D01*
X007615Y020976D02*
X007812Y020976D01*
X007812Y020819D02*
X007615Y020819D01*
X007339Y020858D02*
X007339Y021114D01*
X007221Y021232D01*
X007044Y020976D02*
X006386Y020976D01*
X004737Y022626D01*
X004288Y022177D01*
X003422Y022177D01*
X003855Y021902D02*
X004233Y021902D01*
X004343Y021902D01*
X004444Y021944D01*
X004451Y021950D01*
X004456Y021945D01*
X004638Y021870D01*
X004836Y021870D01*
X005018Y021945D01*
X005023Y021950D01*
X005327Y021646D01*
X003855Y021646D01*
X003855Y021684D01*
X003766Y021774D01*
X003855Y021863D01*
X003855Y021902D01*
X003953Y021902D02*
X003953Y021646D01*
X004111Y021646D02*
X004111Y021902D01*
X004268Y021902D02*
X004268Y021646D01*
X004426Y021646D02*
X004426Y021936D01*
X004390Y021921D02*
X004514Y021921D01*
X004583Y021892D02*
X004583Y021646D01*
X004741Y021646D02*
X004741Y021870D01*
X004898Y021896D02*
X004898Y021646D01*
X005056Y021646D02*
X005056Y021917D01*
X005052Y021921D02*
X004960Y021921D01*
X005209Y021764D02*
X003776Y021764D01*
X003796Y021743D02*
X003796Y021804D01*
X003422Y021370D02*
X005784Y021370D01*
X006434Y020720D01*
X007201Y020720D01*
X007339Y020858D01*
X007260Y020447D02*
X007260Y020150D01*
X007103Y020150D02*
X007103Y020445D01*
X006946Y020445D02*
X006946Y020150D01*
X006788Y020150D02*
X006788Y020445D01*
X006631Y020445D02*
X006631Y020150D01*
X006473Y020150D02*
X006473Y020445D01*
X006316Y020471D02*
X006316Y020150D01*
X006260Y020504D02*
X001512Y020504D01*
X001512Y020661D02*
X006103Y020661D01*
X006200Y020564D02*
X005670Y021094D01*
X003855Y021094D01*
X003855Y021056D01*
X003717Y020917D01*
X003127Y020917D01*
X003087Y020957D01*
X003047Y020917D01*
X003166Y020917D02*
X003166Y019981D01*
X003216Y020031D02*
X001512Y020031D01*
X001512Y020189D02*
X017575Y020189D01*
X017575Y020346D02*
X001512Y020346D01*
X002064Y021076D02*
X002064Y013709D01*
X002087Y013732D02*
X001512Y013732D01*
X001512Y013575D02*
X001930Y013575D01*
X001906Y013551D02*
X001906Y026094D01*
X001749Y026094D02*
X001749Y006757D01*
X001788Y006803D02*
X001512Y006803D01*
X001591Y006692D02*
X001591Y026094D01*
X001512Y026016D02*
X004254Y026016D01*
X004268Y026052D02*
X004268Y026094D01*
X004111Y026094D02*
X004111Y025390D01*
X004107Y025386D02*
X001512Y025386D01*
X001512Y025543D02*
X004241Y025543D01*
X004241Y025701D02*
X001512Y025701D01*
X001512Y025858D02*
X004241Y025858D01*
X003953Y026094D02*
X003953Y024032D01*
X003993Y024126D02*
X003835Y024126D01*
X003796Y024165D02*
X003796Y026094D01*
X003638Y026094D02*
X003638Y024244D01*
X003481Y024244D02*
X003481Y026094D01*
X003323Y026094D02*
X003323Y024244D01*
X003166Y024244D02*
X003166Y026094D01*
X003009Y026094D02*
X003009Y024244D01*
X002851Y024244D02*
X002851Y026094D01*
X002694Y026094D02*
X002694Y024244D01*
X002536Y024244D02*
X002536Y026094D01*
X002379Y026094D02*
X002379Y024165D01*
X002340Y024126D02*
X001512Y024126D01*
X001512Y024283D02*
X003993Y024283D01*
X003993Y024441D02*
X001512Y024441D01*
X001512Y024598D02*
X003993Y024598D01*
X003993Y024756D02*
X001512Y024756D01*
X001512Y024913D02*
X003993Y024913D01*
X003993Y025071D02*
X001512Y025071D01*
X001512Y025228D02*
X003999Y025228D01*
X004268Y025157D02*
X004737Y025626D01*
X004268Y025157D02*
X004268Y023339D01*
X003816Y023791D01*
X003422Y023791D01*
X003796Y023418D02*
X003796Y023358D01*
X003815Y023339D02*
X003879Y023339D01*
X003893Y023324D02*
X003893Y023320D01*
X003834Y023320D01*
X003766Y023388D01*
X003798Y023420D01*
X003893Y023324D01*
X003835Y022984D02*
X003422Y022984D01*
X003835Y022984D02*
X003875Y022945D01*
X004249Y022945D01*
X004524Y023220D01*
X004524Y023457D01*
X004426Y023555D01*
X004426Y024520D01*
X004820Y024913D01*
X005449Y024913D01*
X005737Y025201D01*
X005737Y025626D01*
X005241Y025701D02*
X005233Y025701D01*
X005233Y025858D02*
X005241Y025858D01*
X005241Y025985D02*
X005241Y025267D01*
X005273Y025189D01*
X005201Y025189D01*
X005233Y025267D01*
X005233Y025985D01*
X005188Y026094D01*
X005286Y026094D01*
X005241Y025985D01*
X005254Y026016D02*
X005220Y026016D01*
X005213Y026032D02*
X005213Y026094D01*
X005233Y025543D02*
X005241Y025543D01*
X005233Y025386D02*
X005241Y025386D01*
X005257Y025228D02*
X005217Y025228D01*
X005213Y025219D02*
X005213Y025189D01*
X005213Y024638D02*
X005213Y023714D01*
X005178Y023714D02*
X005040Y023656D01*
X004935Y023551D01*
X004878Y023413D01*
X004878Y023365D01*
X004836Y023382D01*
X004800Y023382D01*
X004800Y023402D01*
X004800Y023511D01*
X004758Y023613D01*
X004701Y023669D01*
X004701Y024406D01*
X004934Y024638D01*
X005504Y024638D01*
X005606Y024680D01*
X005683Y024757D01*
X005796Y024870D01*
X005836Y024870D01*
X006018Y024945D01*
X006157Y025085D01*
X006233Y025267D01*
X006233Y025985D01*
X006188Y026094D01*
X006286Y026094D01*
X006241Y025985D01*
X006241Y025267D01*
X006316Y025085D01*
X006456Y024945D01*
X006461Y024943D01*
X006461Y023953D01*
X006123Y023614D01*
X005507Y023614D01*
X005465Y023656D01*
X005327Y023714D01*
X005178Y023714D01*
X005056Y023663D02*
X005056Y024638D01*
X004898Y024602D02*
X004898Y023463D01*
X004912Y023496D02*
X004800Y023496D01*
X004741Y023630D02*
X004741Y024445D01*
X004737Y024441D02*
X006461Y024441D01*
X006461Y024598D02*
X004894Y024598D01*
X005371Y024638D02*
X005371Y023695D01*
X005468Y023654D02*
X006162Y023654D01*
X006158Y023650D02*
X006158Y025086D01*
X006143Y025071D02*
X006330Y025071D01*
X006316Y025086D02*
X006316Y023807D01*
X006320Y023811D02*
X004701Y023811D01*
X004701Y023969D02*
X006461Y023969D01*
X006461Y024126D02*
X004701Y024126D01*
X004701Y024283D02*
X006461Y024283D01*
X006461Y024756D02*
X005682Y024756D01*
X005686Y024760D02*
X005686Y023614D01*
X005843Y023614D02*
X005843Y024873D01*
X005941Y024913D02*
X006461Y024913D01*
X006257Y025228D02*
X006217Y025228D01*
X006233Y025386D02*
X006241Y025386D01*
X006233Y025543D02*
X006241Y025543D01*
X006233Y025701D02*
X006241Y025701D01*
X006233Y025858D02*
X006241Y025858D01*
X006254Y026016D02*
X006220Y026016D01*
X006001Y024938D02*
X006001Y023614D01*
X005528Y023614D02*
X005528Y024648D01*
X005037Y023654D02*
X004717Y023654D01*
X004241Y022669D02*
X004241Y022519D01*
X004174Y022453D01*
X003855Y022453D01*
X003855Y022492D01*
X003766Y022581D01*
X003768Y022583D01*
X003800Y022570D01*
X003949Y022570D01*
X004087Y022627D01*
X004129Y022669D01*
X004241Y022669D01*
X004241Y022551D02*
X003795Y022551D01*
X003796Y022551D02*
X003796Y022572D01*
X003953Y022572D02*
X003953Y022453D01*
X004111Y022453D02*
X004111Y022651D01*
X002753Y022984D02*
X002753Y022177D01*
X002753Y021370D01*
X002300Y021370D01*
X002006Y021134D02*
X001512Y021134D01*
X001512Y021291D02*
X001927Y021291D01*
X001927Y021449D02*
X001512Y021449D01*
X001512Y021606D02*
X002006Y021606D01*
X002064Y021664D02*
X002064Y026094D01*
X002221Y026094D02*
X002221Y021743D01*
X002379Y021744D02*
X002379Y021804D01*
X002399Y021764D02*
X001512Y021764D01*
X001512Y021921D02*
X002320Y021921D01*
X002320Y022079D02*
X001512Y022079D01*
X001512Y022236D02*
X002320Y022236D01*
X002320Y022394D02*
X001512Y022394D01*
X001512Y022551D02*
X002379Y022551D01*
X002379Y022611D01*
X002320Y022709D02*
X001512Y022709D01*
X001512Y022866D02*
X002320Y022866D01*
X002320Y023024D02*
X001512Y023024D01*
X001512Y023181D02*
X002320Y023181D01*
X002360Y023339D02*
X001512Y023339D01*
X001512Y023496D02*
X002320Y023496D01*
X002379Y023418D02*
X002379Y023358D01*
X002320Y023654D02*
X001512Y023654D01*
X001512Y023811D02*
X002320Y023811D01*
X002320Y023969D02*
X001512Y023969D01*
X002753Y023791D02*
X002753Y022984D01*
X002379Y020997D02*
X002379Y014024D01*
X002402Y014047D02*
X001512Y014047D01*
X001512Y013890D02*
X002245Y013890D01*
X002221Y013866D02*
X002221Y020997D01*
X003323Y020917D02*
X003323Y020114D01*
X003481Y020150D02*
X003481Y020917D01*
X003638Y020917D02*
X003638Y020150D01*
X003796Y020150D02*
X003796Y020997D01*
X003776Y020976D02*
X005788Y020976D01*
X005843Y020921D02*
X005843Y020150D01*
X005686Y020150D02*
X005686Y021079D01*
X005528Y021094D02*
X005528Y020150D01*
X005371Y020150D02*
X005371Y021094D01*
X005213Y021094D02*
X005213Y020150D01*
X005056Y020150D02*
X005056Y021094D01*
X004898Y021094D02*
X004898Y020150D01*
X004741Y020150D02*
X004741Y021094D01*
X004583Y021094D02*
X004583Y020150D01*
X004426Y020150D02*
X004426Y021094D01*
X004268Y021094D02*
X004268Y020150D01*
X004111Y020150D02*
X004111Y021094D01*
X003953Y021094D02*
X003953Y020150D01*
X003953Y019441D02*
X003953Y019083D01*
X003957Y019087D02*
X003442Y019087D01*
X003442Y019244D02*
X004119Y019244D01*
X004112Y019241D02*
X004035Y019164D01*
X003680Y018810D01*
X003638Y018708D01*
X003638Y019441D01*
X003628Y019441D02*
X003442Y019255D01*
X003442Y018260D01*
X003461Y018260D01*
X003481Y018240D01*
X003481Y019294D01*
X003588Y019402D02*
X004248Y019402D01*
X004248Y019441D02*
X004248Y019319D01*
X004259Y019293D01*
X004249Y019283D01*
X004214Y019283D01*
X004112Y019241D01*
X004111Y019240D02*
X004111Y019441D01*
X004248Y019441D02*
X003628Y019441D01*
X003796Y019441D02*
X003796Y018925D01*
X003800Y018929D02*
X003442Y018929D01*
X003442Y018772D02*
X003665Y018772D01*
X003638Y018708D02*
X003638Y018599D01*
X003638Y018260D01*
X003501Y018260D01*
X003481Y018240D01*
X003442Y018299D02*
X003638Y018299D01*
X003638Y018457D02*
X003442Y018457D01*
X003442Y018614D02*
X003638Y018614D01*
X003914Y018654D02*
X004268Y019008D01*
X004603Y019008D01*
X004662Y018949D01*
X005095Y018929D02*
X005184Y018929D01*
X005158Y018929D01*
X005113Y018910D01*
X005095Y018910D01*
X005095Y019263D01*
X005065Y019293D01*
X005076Y019319D01*
X005076Y019323D01*
X005132Y019189D01*
X005174Y019147D01*
X005174Y018953D01*
X005184Y018929D01*
X005174Y019087D02*
X005095Y019087D01*
X005095Y019244D02*
X005109Y019244D01*
X005449Y019402D02*
X005449Y019008D01*
X005607Y018850D01*
X005843Y018850D01*
X006040Y018654D01*
X006237Y018654D01*
X006335Y018555D01*
X006335Y018319D01*
X006532Y018319D02*
X006532Y017925D01*
X006434Y017827D01*
X006434Y016862D01*
X006453Y016843D01*
X006708Y016567D02*
X007871Y016567D01*
X007871Y016488D02*
X007871Y016684D01*
X007871Y016804D01*
X007871Y017078D01*
X007871Y017275D01*
X007871Y017472D01*
X007871Y017630D01*
X007532Y017630D01*
X007222Y017320D01*
X007222Y017260D01*
X007165Y017122D01*
X007059Y017017D01*
X006922Y016960D01*
X006811Y016960D01*
X006828Y016917D01*
X006828Y016768D01*
X006771Y016630D01*
X006666Y016525D01*
X006528Y016468D01*
X006473Y016468D01*
X006473Y016405D01*
X006473Y016468D01*
X006473Y016409D02*
X007871Y016409D01*
X007871Y016488D02*
X007871Y016291D01*
X007871Y016094D01*
X007871Y015897D01*
X007871Y015775D01*
X007318Y016328D01*
X007217Y016370D01*
X007107Y016370D01*
X006508Y016370D01*
X006473Y016405D01*
X006631Y016370D02*
X006631Y016510D01*
X006788Y016370D02*
X006788Y016671D01*
X006810Y016724D02*
X007871Y016724D01*
X007871Y016882D02*
X006828Y016882D01*
X006946Y016970D02*
X006946Y016370D01*
X007103Y016370D02*
X007103Y017060D01*
X007082Y017039D02*
X007871Y017039D01*
X007871Y017197D02*
X007196Y017197D01*
X007256Y017354D02*
X007871Y017354D01*
X007871Y017512D02*
X007414Y017512D01*
X007418Y017516D02*
X007418Y016228D01*
X007394Y016252D02*
X007871Y016252D01*
X007871Y016094D02*
X007552Y016094D01*
X007575Y016071D02*
X007575Y017630D01*
X007733Y017630D02*
X007733Y015913D01*
X007709Y015937D02*
X007871Y015937D01*
X007867Y015780D02*
X007871Y015780D01*
X007260Y016352D02*
X007260Y017358D01*
X006847Y017335D02*
X007418Y017906D01*
X009170Y017906D01*
X009662Y017413D01*
X012064Y017413D01*
X012320Y017157D01*
X015253Y017157D01*
X015430Y017335D01*
X015764Y017335D01*
X016040Y017610D01*
X016296Y017807D02*
X016296Y017236D01*
X016394Y017138D01*
X016621Y017138D01*
X016965Y017138D01*
X017064Y017039D01*
X017064Y016606D01*
X017005Y016547D01*
X016621Y016547D01*
X016621Y016350D02*
X011670Y016350D01*
X011355Y016665D01*
X011394Y016409D02*
X011197Y016409D01*
X011001Y016606D01*
X010626Y016584D02*
X010626Y016665D01*
X010015Y016665D01*
X010035Y016646D01*
X010395Y016646D01*
X010504Y016646D01*
X010606Y016604D01*
X010626Y016584D01*
X010568Y016619D02*
X010568Y016665D01*
X010410Y016665D02*
X010410Y016646D01*
X010253Y016646D02*
X010253Y016665D01*
X010095Y016665D02*
X010095Y016646D01*
X009879Y016941D02*
X009682Y016744D01*
X009131Y016744D01*
X008737Y017138D01*
X008304Y017138D01*
X008304Y017335D02*
X008776Y017335D01*
X009209Y016902D01*
X009583Y016902D01*
X009780Y017098D01*
X011926Y017098D01*
X012201Y016823D01*
X015528Y016823D01*
X015627Y016921D01*
X015509Y017177D02*
X016079Y017177D01*
X016316Y016941D01*
X016621Y016941D01*
X016621Y016744D02*
X016355Y016744D01*
X016119Y016508D01*
X011886Y016508D01*
X011749Y016646D01*
X011827Y016941D02*
X012103Y016665D01*
X015883Y016665D01*
X015981Y016764D01*
X015509Y017177D02*
X015312Y016980D01*
X012260Y016980D01*
X011985Y017256D01*
X009701Y017256D01*
X009505Y017059D01*
X009268Y017059D01*
X008796Y017531D01*
X008304Y017531D01*
X008304Y017728D02*
X008973Y017728D01*
X009386Y017315D01*
X009776Y017689D02*
X009461Y018004D01*
X009517Y018004D01*
X009542Y017979D01*
X009672Y017925D01*
X009813Y017925D01*
X009851Y017925D01*
X013914Y017925D01*
X013914Y017433D01*
X012434Y017433D01*
X012220Y017647D01*
X012118Y017689D01*
X012009Y017689D01*
X009776Y017689D01*
X009780Y017689D02*
X009780Y017925D01*
X009938Y017925D02*
X009938Y017689D01*
X010095Y017689D02*
X010095Y017925D01*
X010253Y017925D02*
X010253Y017689D01*
X010410Y017689D02*
X010410Y017925D01*
X010568Y017925D02*
X010568Y017689D01*
X010725Y017689D02*
X010725Y017925D01*
X010883Y017925D02*
X010883Y017689D01*
X011040Y017689D02*
X011040Y017925D01*
X011197Y017925D02*
X011197Y017689D01*
X011355Y017689D02*
X011355Y017925D01*
X011512Y017925D02*
X011512Y017689D01*
X011670Y017689D02*
X011670Y017925D01*
X011827Y017925D02*
X011827Y017689D01*
X011985Y017689D02*
X011985Y017925D01*
X012142Y017925D02*
X012142Y017679D01*
X012166Y017669D02*
X013914Y017669D01*
X013914Y017512D02*
X012355Y017512D01*
X012300Y017567D02*
X012300Y017925D01*
X012457Y017925D02*
X012457Y017433D01*
X012615Y017433D02*
X012615Y017925D01*
X012772Y017925D02*
X012772Y017433D01*
X012930Y017433D02*
X012930Y017925D01*
X013087Y017925D02*
X013087Y017433D01*
X013245Y017433D02*
X013245Y017925D01*
X013402Y017925D02*
X013402Y017433D01*
X013560Y017433D02*
X013560Y017925D01*
X013717Y017925D02*
X013717Y017433D01*
X013875Y017433D02*
X013875Y017925D01*
X013914Y017827D02*
X009638Y017827D01*
X009623Y017842D02*
X009623Y017946D01*
X009537Y017984D02*
X009481Y017984D01*
X009465Y018000D02*
X009465Y018004D01*
X009388Y018713D02*
X009032Y018713D01*
X009032Y019263D01*
X009002Y019293D01*
X009013Y019319D01*
X009013Y019441D01*
X009240Y019441D01*
X009388Y019292D01*
X009388Y018713D01*
X009388Y018772D02*
X009032Y018772D01*
X009150Y018713D02*
X009150Y019441D01*
X009279Y019402D02*
X009013Y019402D01*
X009032Y019244D02*
X009388Y019244D01*
X009308Y019373D02*
X009308Y018713D01*
X009388Y018929D02*
X009032Y018929D01*
X009032Y019087D02*
X009388Y019087D01*
X008599Y018949D02*
X008540Y019008D01*
X007812Y019008D01*
X007516Y018713D01*
X007516Y018319D01*
X007320Y018319D02*
X007320Y019106D01*
X007024Y019402D01*
X007399Y019416D02*
X007399Y019441D01*
X008185Y019441D01*
X008185Y019319D01*
X008196Y019293D01*
X008186Y019283D01*
X007757Y019283D01*
X007656Y019241D01*
X007589Y019175D01*
X007553Y019262D01*
X007399Y019416D01*
X007414Y019402D02*
X008185Y019402D01*
X008048Y019441D02*
X008048Y019283D01*
X007890Y019283D02*
X007890Y019441D01*
X007733Y019441D02*
X007733Y019274D01*
X007662Y019244D02*
X007561Y019244D01*
X007575Y019209D02*
X007575Y019441D01*
X007418Y019441D02*
X007418Y019398D01*
X007926Y018732D02*
X008166Y018732D01*
X008166Y018634D01*
X008186Y018614D01*
X007988Y018614D01*
X007989Y018614D02*
X007898Y018704D01*
X007926Y018732D01*
X008048Y018732D02*
X008048Y018555D01*
X007989Y018555D02*
X007989Y018614D01*
X007989Y018555D02*
X008166Y018555D01*
X008166Y018594D01*
X008186Y018614D01*
X008599Y018280D02*
X007753Y018280D01*
X007713Y018319D01*
X007123Y018319D02*
X007123Y018634D01*
X006631Y019126D01*
X006631Y019402D01*
X006237Y019402D02*
X006237Y019283D01*
X006926Y018594D01*
X006926Y018319D01*
X006729Y018319D02*
X006729Y018555D01*
X006631Y018654D01*
X006473Y018654D01*
X006316Y018811D01*
X006119Y018811D01*
X005843Y019087D01*
X005843Y019402D01*
X005745Y018319D02*
X005745Y018004D01*
X006040Y017709D01*
X006040Y015858D01*
X006237Y015661D01*
X006729Y015445D02*
X006729Y014972D01*
X006926Y014972D02*
X006926Y014579D01*
X006631Y014283D01*
X006158Y014283D01*
X005922Y014047D01*
X005922Y013004D01*
X005587Y012669D01*
X005587Y011862D01*
X005843Y011760D02*
X005843Y011425D01*
X005827Y011409D02*
X005524Y011409D01*
X005821Y011706D01*
X005863Y011807D01*
X005863Y011917D01*
X005863Y012217D01*
X005882Y012217D01*
X005922Y012256D01*
X005942Y012237D01*
X005942Y012156D01*
X005939Y012153D01*
X005882Y012016D01*
X005882Y011866D01*
X005939Y011729D01*
X006043Y011625D01*
X005827Y011409D01*
X005686Y011409D02*
X005686Y011571D01*
X005642Y011528D02*
X005946Y011528D01*
X006001Y011583D02*
X006001Y011667D01*
X005982Y011685D02*
X005800Y011685D01*
X005863Y011843D02*
X005891Y011843D01*
X005882Y012000D02*
X005863Y012000D01*
X005863Y012157D02*
X005942Y012157D01*
X006571Y012157D02*
X006576Y012157D01*
X006573Y012155D02*
X006571Y012156D01*
X006571Y012217D01*
X006635Y012217D01*
X006573Y012155D01*
X006631Y012213D02*
X006631Y012217D01*
X007197Y012000D02*
X007221Y012000D01*
X006473Y011276D02*
X006473Y010522D01*
X006413Y010583D02*
X007658Y010583D01*
X007733Y010657D02*
X007733Y010798D01*
X007816Y010740D02*
X004264Y010740D01*
X004382Y010858D01*
X005887Y010858D01*
X006001Y010860D02*
X006001Y010642D01*
X005843Y010642D02*
X005744Y010740D01*
X005155Y010740D01*
X005056Y010642D01*
X005056Y010858D01*
X005213Y010858D02*
X005213Y010740D01*
X005371Y010740D02*
X005371Y010858D01*
X005528Y010858D02*
X005528Y010740D01*
X005686Y010740D02*
X005686Y010858D01*
X005942Y011134D02*
X007477Y012669D01*
X007142Y013004D01*
X007142Y013929D01*
X007123Y013949D01*
X007123Y014972D01*
X006729Y015445D02*
X006906Y015622D01*
X008205Y014480D02*
X008205Y014087D01*
X008363Y013929D01*
X008363Y013220D01*
X008678Y012906D01*
X008678Y012689D01*
X008697Y012669D01*
X008697Y012098D01*
X008953Y011843D01*
X008800Y011331D02*
X008541Y011331D01*
X008481Y011390D01*
X008481Y011012D01*
X008800Y011331D01*
X008678Y011331D02*
X008678Y011209D01*
X008682Y011213D02*
X008481Y011213D01*
X008520Y011351D02*
X008520Y011051D01*
X008524Y011055D02*
X008481Y011055D01*
X008481Y011370D02*
X008501Y011370D01*
X007890Y010816D02*
X007890Y010815D01*
X007575Y010849D02*
X007575Y010500D01*
X007501Y010425D02*
X006527Y010425D01*
X006553Y010268D02*
X007343Y010268D01*
X007418Y010342D02*
X007418Y011049D01*
X007415Y011055D02*
X006253Y011055D01*
X006316Y011118D02*
X006316Y010636D01*
X006158Y010662D02*
X006158Y010961D01*
X006091Y010898D02*
X007518Y010898D01*
X007397Y011213D02*
X006410Y011213D01*
X005942Y011134D02*
X004268Y011134D01*
X003656Y010522D01*
X003656Y008372D01*
X003381Y008914D02*
X003363Y008907D01*
X003363Y010232D01*
X003381Y010250D01*
X003381Y008914D01*
X003381Y009008D02*
X003363Y009008D01*
X003363Y009165D02*
X003381Y009165D01*
X003381Y009323D02*
X003363Y009323D01*
X003363Y009480D02*
X003381Y009480D01*
X003381Y009638D02*
X003363Y009638D01*
X003363Y009795D02*
X003381Y009795D01*
X003381Y009953D02*
X003363Y009953D01*
X003363Y010110D02*
X003381Y010110D01*
X004264Y010740D02*
X004563Y010740D01*
X004661Y010642D01*
X005056Y010642D01*
X004898Y010642D02*
X004898Y010858D01*
X004741Y010858D02*
X004741Y010642D01*
X004583Y010720D02*
X004583Y010858D01*
X004426Y010858D02*
X004426Y010740D01*
X004268Y010740D02*
X004268Y010744D01*
X003953Y011602D02*
X003953Y011606D01*
X005528Y011413D02*
X005528Y011409D01*
X005017Y009933D02*
X004701Y009933D01*
X004701Y009932D01*
X004701Y009894D01*
X005016Y009894D01*
X005016Y009932D01*
X005017Y009933D01*
X004898Y009933D02*
X004898Y009894D01*
X004741Y009894D02*
X004741Y009933D01*
X004741Y009343D02*
X004741Y008978D01*
X004777Y008978D02*
X004536Y008978D01*
X004432Y008935D01*
X004432Y009165D01*
X004563Y009165D01*
X005155Y009165D01*
X005381Y009165D01*
X005381Y008914D01*
X005313Y008886D01*
X005156Y008729D01*
X005000Y008886D01*
X004777Y008978D01*
X004898Y008928D02*
X004898Y009343D01*
X005016Y009343D02*
X005016Y009304D01*
X005155Y009165D01*
X005213Y009165D02*
X005213Y008786D01*
X005277Y008850D02*
X005035Y008850D01*
X005056Y008830D02*
X005056Y009264D01*
X005016Y009323D02*
X004701Y009323D01*
X004701Y009304D02*
X004701Y009343D01*
X005016Y009343D01*
X004701Y009304D02*
X004563Y009165D01*
X004583Y009186D02*
X004583Y008978D01*
X004432Y009008D02*
X005381Y009008D01*
X005371Y008910D02*
X005371Y009165D01*
X005656Y009411D02*
X005656Y008372D01*
X005686Y007766D02*
X005686Y007759D01*
X005693Y007766D02*
X005620Y007766D01*
X005656Y007729D01*
X005693Y007766D01*
X005675Y007748D02*
X005637Y007748D01*
X004693Y007766D02*
X004656Y007729D01*
X004620Y007766D01*
X004693Y007766D01*
X004675Y007748D02*
X004637Y007748D01*
X003599Y005898D02*
X002639Y005898D01*
X002612Y005909D01*
X002542Y005738D01*
X002828Y005738D01*
X003147Y005606D01*
X003390Y005363D01*
X003522Y005044D01*
X003522Y004700D01*
X003390Y004381D01*
X003147Y004138D01*
X002828Y004006D01*
X002484Y004006D01*
X002166Y004138D01*
X001922Y004381D01*
X001790Y004700D01*
X001790Y005044D01*
X001915Y005346D01*
X001765Y005346D01*
X001512Y005451D01*
X001512Y005386D02*
X001670Y005386D01*
X001749Y005353D02*
X001749Y000898D01*
X001906Y000898D02*
X001906Y002939D01*
X001979Y002866D02*
X001512Y002866D01*
X001512Y002709D02*
X002024Y002709D01*
X002064Y002657D02*
X002064Y000898D01*
X002221Y000898D02*
X002221Y002499D01*
X002169Y002551D02*
X001512Y002551D01*
X001512Y002394D02*
X002327Y002394D01*
X002379Y002342D02*
X002379Y000898D01*
X002536Y000898D02*
X002536Y002197D01*
X002484Y002236D02*
X001512Y002236D01*
X001512Y002079D02*
X029465Y002079D01*
X029465Y002236D02*
X008021Y002236D01*
X008048Y002263D02*
X008048Y000898D01*
X008205Y000898D02*
X008205Y002421D01*
X008178Y002394D02*
X029465Y002394D01*
X029465Y002551D02*
X027001Y002551D01*
X026946Y002536D02*
X026946Y000898D01*
X027103Y000898D02*
X027103Y002578D01*
X027260Y002669D02*
X027260Y000898D01*
X027418Y000898D02*
X027418Y002793D01*
X027491Y002866D02*
X029465Y002866D01*
X029465Y002709D02*
X027330Y002709D01*
X027575Y002983D02*
X027575Y000898D01*
X027733Y000898D02*
X027733Y003391D01*
X027719Y003339D02*
X029465Y003339D01*
X029465Y003496D02*
X027735Y003496D01*
X027735Y003654D02*
X029465Y003654D01*
X029465Y003811D02*
X029044Y003811D01*
X028993Y003782D02*
X028993Y000898D01*
X029150Y000898D02*
X029150Y003873D01*
X029263Y003969D02*
X029465Y003969D01*
X029465Y004126D02*
X029404Y004126D01*
X029308Y004013D02*
X029308Y000898D01*
X029465Y000976D02*
X001512Y000976D01*
X001591Y000898D02*
X001591Y005419D01*
X001512Y005228D02*
X001866Y005228D01*
X001906Y005325D02*
X001906Y005346D01*
X001801Y005071D02*
X001512Y005071D01*
X001512Y004913D02*
X001790Y004913D01*
X001790Y004756D02*
X001512Y004756D01*
X001512Y004598D02*
X001832Y004598D01*
X001897Y004441D02*
X001512Y004441D01*
X001512Y004283D02*
X002020Y004283D01*
X002064Y004240D02*
X002064Y003778D01*
X002143Y003811D02*
X001512Y003811D01*
X001512Y003654D02*
X001900Y003654D01*
X001906Y003659D02*
X001906Y004419D01*
X002194Y004126D02*
X001512Y004126D01*
X001512Y003969D02*
X003599Y003969D01*
X003599Y004126D02*
X003118Y004126D01*
X003166Y004157D02*
X003166Y003827D01*
X003127Y003811D02*
X002457Y003811D01*
X002379Y003832D02*
X002379Y004050D01*
X002536Y004006D02*
X002536Y003778D01*
X002694Y003659D02*
X002694Y004006D01*
X002851Y004015D02*
X002851Y003620D01*
X002885Y003654D02*
X002699Y003654D01*
X003009Y003762D02*
X003009Y004080D01*
X003292Y004283D02*
X003599Y004283D01*
X003599Y004441D02*
X003415Y004441D01*
X003323Y004314D02*
X003323Y003832D01*
X003441Y003811D02*
X003599Y003811D01*
X003481Y003795D02*
X003481Y004600D01*
X003480Y004598D02*
X003599Y004598D01*
X003599Y004756D02*
X003522Y004756D01*
X003522Y004913D02*
X003599Y004913D01*
X003599Y005071D02*
X003511Y005071D01*
X003481Y005144D02*
X003481Y005898D01*
X003599Y005858D02*
X002592Y005858D01*
X002694Y005898D02*
X002694Y005738D01*
X002851Y005729D02*
X002851Y005898D01*
X003009Y005898D02*
X003009Y005664D01*
X002919Y005701D02*
X003599Y005701D01*
X003599Y005543D02*
X003210Y005543D01*
X003166Y005587D02*
X003166Y005898D01*
X003323Y005898D02*
X003323Y005430D01*
X003367Y005386D02*
X003599Y005386D01*
X003599Y005228D02*
X003446Y005228D01*
X002221Y004115D02*
X002221Y003832D01*
X001804Y003496D02*
X001512Y003496D01*
X001512Y003339D02*
X001767Y003339D01*
X001772Y003181D02*
X001512Y003181D01*
X001512Y003024D02*
X001837Y003024D01*
X002683Y002928D02*
X002824Y002787D01*
X003127Y002787D01*
X002982Y002847D01*
X002832Y002997D01*
X002792Y003094D01*
X002752Y002997D01*
X002683Y002928D01*
X002694Y002918D02*
X002694Y002939D01*
X002745Y002866D02*
X002963Y002866D01*
X003009Y002836D02*
X003009Y002787D01*
X002851Y002787D02*
X002851Y002978D01*
X002821Y003024D02*
X002763Y003024D01*
X003441Y002787D02*
X003586Y002847D01*
X003736Y002997D01*
X003739Y003004D01*
X003816Y003004D01*
X003934Y002886D01*
X004563Y002886D01*
X004652Y002975D01*
X004741Y002886D01*
X005370Y002886D01*
X005429Y002945D01*
X005512Y002945D01*
X005628Y002993D01*
X005716Y003081D01*
X005979Y003344D01*
X005979Y003193D01*
X006061Y002997D01*
X006197Y002860D01*
X006197Y002787D01*
X003441Y002787D01*
X003481Y002787D02*
X003481Y002804D01*
X003605Y002866D02*
X006192Y002866D01*
X006158Y002900D02*
X006158Y002787D01*
X006001Y002787D02*
X006001Y003142D01*
X005984Y003181D02*
X005816Y003181D01*
X005843Y003208D02*
X005843Y002787D01*
X005686Y002787D02*
X005686Y003051D01*
X005659Y003024D02*
X006050Y003024D01*
X005979Y003339D02*
X005974Y003339D01*
X005528Y002952D02*
X005528Y002787D01*
X005371Y002787D02*
X005371Y002886D01*
X005213Y002886D02*
X005213Y002787D01*
X005056Y002787D02*
X005056Y002886D01*
X004898Y002886D02*
X004898Y002787D01*
X004741Y002787D02*
X004741Y002886D01*
X004583Y002906D02*
X004583Y002787D01*
X004426Y002787D02*
X004426Y002886D01*
X004268Y002886D02*
X004268Y002787D01*
X004111Y002787D02*
X004111Y002886D01*
X003953Y002886D02*
X003953Y002787D01*
X003796Y002787D02*
X003796Y003004D01*
X003638Y002900D02*
X003638Y002787D01*
X003638Y002157D02*
X003638Y000898D01*
X003481Y000898D02*
X003481Y002157D01*
X003323Y002157D02*
X003323Y000898D01*
X003166Y000898D02*
X003166Y002157D01*
X003009Y002157D02*
X003009Y000898D01*
X002851Y000898D02*
X002851Y002157D01*
X002694Y002157D02*
X002694Y000898D01*
X003796Y000898D02*
X003796Y002157D01*
X003953Y002157D02*
X003953Y000898D01*
X004111Y000898D02*
X004111Y002157D01*
X004268Y002157D02*
X004268Y000898D01*
X004426Y000898D02*
X004426Y002157D01*
X004583Y002157D02*
X004583Y000898D01*
X004741Y000898D02*
X004741Y002157D01*
X004898Y002157D02*
X004898Y000898D01*
X005056Y000898D02*
X005056Y002157D01*
X005213Y002157D02*
X005213Y000898D01*
X005371Y000898D02*
X005371Y002157D01*
X005528Y002157D02*
X005528Y000898D01*
X005686Y000898D02*
X005686Y002157D01*
X005843Y002157D02*
X005843Y000898D01*
X006001Y000898D02*
X006001Y002157D01*
X006158Y002157D02*
X006158Y000898D01*
X006316Y000898D02*
X006316Y002157D01*
X006473Y002157D02*
X006473Y000898D01*
X006631Y000898D02*
X006631Y002157D01*
X006788Y002157D02*
X006788Y000898D01*
X006946Y000898D02*
X006946Y002157D01*
X007103Y002157D02*
X007103Y000898D01*
X007260Y000898D02*
X007260Y002157D01*
X007418Y002157D02*
X007418Y000898D01*
X007575Y000898D02*
X007575Y002157D01*
X007733Y002157D02*
X007733Y000898D01*
X007890Y000898D02*
X007890Y002164D01*
X008336Y002551D02*
X026417Y002551D01*
X026473Y002536D02*
X026473Y000898D01*
X026316Y000898D02*
X026316Y002579D01*
X026631Y002509D02*
X026631Y000898D01*
X026788Y000898D02*
X026788Y002509D01*
X027599Y003024D02*
X029465Y003024D01*
X029465Y003181D02*
X027677Y003181D01*
X027733Y003680D02*
X027733Y004096D01*
X027716Y004126D02*
X027553Y004126D01*
X027575Y004088D02*
X027575Y004425D01*
X027571Y004441D02*
X027193Y004441D01*
X027260Y004402D02*
X027260Y005031D01*
X027330Y005071D02*
X027592Y005071D01*
X027575Y005008D02*
X027575Y005345D01*
X027599Y005386D02*
X027778Y005386D01*
X027733Y005337D02*
X027733Y005753D01*
X027719Y005701D02*
X028127Y005701D01*
X028048Y005606D02*
X028048Y006624D01*
X028026Y006646D02*
X027412Y006646D01*
X027418Y006640D02*
X027418Y006784D01*
X027437Y006803D02*
X027556Y006803D01*
X027575Y006784D02*
X027575Y006450D01*
X027553Y006488D02*
X028127Y006488D01*
X028127Y006331D02*
X027644Y006331D01*
X027698Y006173D02*
X028127Y006173D01*
X028127Y006016D02*
X027735Y006016D01*
X027733Y006042D02*
X027733Y006685D01*
X027890Y006685D02*
X027890Y005499D01*
X027939Y005543D02*
X027677Y005543D01*
X027670Y005228D02*
X027491Y005228D01*
X027418Y005155D02*
X027418Y004278D01*
X027412Y004283D02*
X027625Y004283D01*
X027533Y004598D02*
X023037Y004598D01*
X023033Y004589D02*
X023099Y004748D01*
X023099Y005563D01*
X023520Y005563D01*
X023560Y005603D01*
X023600Y005563D01*
X024189Y005563D01*
X024327Y005701D01*
X024268Y005642D02*
X024268Y000898D01*
X024111Y000898D02*
X024111Y005563D01*
X023953Y005563D02*
X023953Y000898D01*
X023796Y000898D02*
X023796Y005563D01*
X023638Y005563D02*
X023638Y000898D01*
X023481Y000898D02*
X023481Y005563D01*
X023323Y005563D02*
X023323Y000898D01*
X023166Y000898D02*
X023166Y005563D01*
X023099Y005543D02*
X025742Y005543D01*
X025820Y005386D02*
X023099Y005386D01*
X023099Y004913D02*
X026417Y004913D01*
X026473Y004899D02*
X026473Y004535D01*
X026631Y004562D02*
X026631Y004871D01*
X026788Y004871D02*
X026788Y004562D01*
X026946Y004534D02*
X026946Y004899D01*
X027001Y004913D02*
X027550Y004913D01*
X027533Y004756D02*
X023099Y004756D01*
X023033Y004589D02*
X022911Y004467D01*
X022752Y004402D01*
X022536Y004402D02*
X022536Y000898D01*
X022379Y000898D02*
X022379Y004402D01*
X022221Y004402D02*
X022221Y000898D01*
X022064Y000898D02*
X022064Y004402D01*
X021906Y004402D02*
X021906Y000898D01*
X021749Y000898D02*
X021749Y004402D01*
X021591Y004402D02*
X021591Y000898D01*
X021434Y000898D02*
X021434Y004402D01*
X021226Y004126D02*
X025865Y004126D01*
X025843Y004088D02*
X025843Y005345D01*
X025683Y005858D02*
X024327Y005858D01*
X024327Y006016D02*
X025683Y006016D01*
X025686Y006042D02*
X025686Y008339D01*
X025528Y008359D02*
X025528Y000898D01*
X025371Y000898D02*
X025371Y008339D01*
X025371Y009205D02*
X025371Y009238D01*
X025313Y009238D02*
X025430Y009238D01*
X025430Y009205D01*
X025174Y009205D01*
X025174Y009333D01*
X025196Y009355D01*
X025313Y009238D01*
X025213Y009205D02*
X025213Y009337D01*
X025228Y009323D02*
X025174Y009323D01*
X024308Y009323D02*
X024254Y009323D01*
X024268Y009337D02*
X024268Y009205D01*
X024308Y009205D02*
X024202Y009205D01*
X024052Y009205D01*
X024052Y009238D01*
X024169Y009238D01*
X024286Y009355D01*
X024308Y009333D01*
X024308Y009205D01*
X024111Y009205D02*
X024111Y009238D01*
X024286Y010473D02*
X024169Y010590D01*
X023535Y010590D01*
X022935Y011190D01*
X023760Y012015D01*
X023796Y012050D01*
X023796Y011823D01*
X023796Y011537D01*
X023772Y011528D02*
X023273Y011528D01*
X023323Y011578D02*
X023323Y010801D01*
X023385Y010740D02*
X023772Y010740D01*
X023796Y010730D02*
X023796Y010590D01*
X023867Y010701D02*
X024308Y010701D01*
X024308Y010495D01*
X024286Y010473D01*
X024268Y010490D02*
X024268Y010701D01*
X024308Y010583D02*
X024176Y010583D01*
X024111Y010590D02*
X024111Y010701D01*
X023953Y010701D02*
X023953Y010590D01*
X023867Y010701D02*
X023708Y010767D01*
X023586Y010889D01*
X023520Y011048D01*
X023520Y011220D01*
X023586Y011379D01*
X023708Y011501D01*
X023867Y011567D01*
X024655Y011567D01*
X025614Y011567D01*
X025773Y011501D01*
X025895Y011379D01*
X025961Y011220D01*
X025961Y011048D01*
X025895Y010889D01*
X025773Y010767D01*
X025614Y010701D01*
X025174Y010701D01*
X025174Y010495D01*
X025196Y010473D01*
X025313Y010590D01*
X025989Y010590D01*
X026127Y010452D01*
X026127Y010386D01*
X026355Y010386D01*
X026355Y014213D01*
X026355Y014354D01*
X026409Y014484D01*
X026803Y014878D01*
X026902Y014978D01*
X027032Y015031D01*
X028925Y015031D01*
X029111Y015218D01*
X029111Y015902D01*
X028850Y015641D01*
X028798Y015515D01*
X028627Y015344D01*
X028405Y015252D01*
X028163Y015252D01*
X027941Y015344D01*
X027770Y015515D01*
X027678Y015738D01*
X027678Y015979D01*
X027770Y016202D01*
X027939Y016370D01*
X024995Y016370D01*
X024953Y016328D01*
X024815Y016271D01*
X024666Y016271D01*
X024528Y016328D01*
X024423Y016433D01*
X024366Y016571D01*
X024366Y016616D01*
X023914Y016164D01*
X023914Y013003D01*
X023934Y013023D01*
X025547Y013023D01*
X025686Y012885D01*
X025686Y011823D01*
X025547Y011685D01*
X023934Y011685D01*
X023431Y011685D01*
X023481Y011735D02*
X023481Y010644D01*
X023638Y010590D02*
X023638Y010836D01*
X023582Y010898D02*
X023227Y010898D01*
X023166Y010959D02*
X023166Y011420D01*
X023116Y011370D02*
X023582Y011370D01*
X023638Y011431D02*
X023638Y011893D01*
X023588Y011843D02*
X023796Y011843D01*
X023796Y011823D02*
X023934Y011685D01*
X023953Y011685D02*
X023953Y011567D01*
X024111Y011567D02*
X024111Y011685D01*
X024268Y011685D02*
X024268Y011567D01*
X024426Y011567D02*
X024426Y011685D01*
X024583Y011685D02*
X024583Y011567D01*
X024741Y011567D02*
X024741Y011685D01*
X024898Y011685D02*
X024898Y011567D01*
X025056Y011567D02*
X025056Y011685D01*
X025213Y011685D02*
X025213Y011567D01*
X025371Y011567D02*
X025371Y011685D01*
X025528Y011685D02*
X025528Y011567D01*
X025548Y011685D02*
X026355Y011685D01*
X026355Y011528D02*
X025709Y011528D01*
X025686Y011537D02*
X025686Y016370D01*
X025843Y016370D02*
X025843Y011431D01*
X025899Y011370D02*
X026355Y011370D01*
X026355Y011213D02*
X025961Y011213D01*
X025961Y011055D02*
X026355Y011055D01*
X026355Y010898D02*
X025899Y010898D01*
X025843Y010836D02*
X025843Y010590D01*
X025996Y010583D02*
X026355Y010583D01*
X026355Y010740D02*
X025709Y010740D01*
X025686Y010730D02*
X025686Y010590D01*
X025528Y010590D02*
X025528Y010701D01*
X025371Y010701D02*
X025371Y010590D01*
X025306Y010583D02*
X025174Y010583D01*
X025213Y010490D02*
X025213Y010701D01*
X026001Y010578D02*
X026001Y016370D01*
X026158Y016370D02*
X026158Y010386D01*
X026127Y010425D02*
X026355Y010425D01*
X026316Y010386D02*
X026316Y016370D01*
X026473Y016370D02*
X026473Y014548D01*
X026444Y014520D02*
X023914Y014520D01*
X023914Y014677D02*
X026602Y014677D01*
X026631Y014706D02*
X026631Y016370D01*
X026788Y016370D02*
X026788Y014863D01*
X026759Y014835D02*
X023914Y014835D01*
X023914Y014992D02*
X026938Y014992D01*
X026946Y014995D02*
X026946Y016370D01*
X027103Y016370D02*
X027103Y015031D01*
X027260Y015031D02*
X027260Y016370D01*
X027418Y016370D02*
X027418Y015031D01*
X027575Y015031D02*
X027575Y016370D01*
X027733Y016370D02*
X027733Y016112D01*
X027726Y016094D02*
X023914Y016094D01*
X023953Y016204D02*
X023953Y013023D01*
X023914Y013102D02*
X026355Y013102D01*
X026355Y012945D02*
X025626Y012945D01*
X025528Y013023D02*
X025528Y016370D01*
X025371Y016370D02*
X025371Y013023D01*
X025213Y013023D02*
X025213Y016370D01*
X025056Y016370D02*
X025056Y013023D01*
X024898Y013023D02*
X024898Y016305D01*
X024741Y016271D02*
X024741Y013023D01*
X024583Y013023D02*
X024583Y016305D01*
X024447Y016409D02*
X024159Y016409D01*
X024111Y016361D02*
X024111Y013023D01*
X024268Y013023D02*
X024268Y016519D01*
X024317Y016567D02*
X024368Y016567D01*
X024426Y016430D02*
X024426Y013023D01*
X023914Y013260D02*
X026355Y013260D01*
X026355Y013417D02*
X023914Y013417D01*
X023914Y013575D02*
X026355Y013575D01*
X026355Y013732D02*
X023914Y013732D01*
X023914Y013890D02*
X026355Y013890D01*
X026355Y014047D02*
X023914Y014047D01*
X023914Y014205D02*
X026355Y014205D01*
X026358Y014362D02*
X023914Y014362D01*
X023914Y015150D02*
X029043Y015150D01*
X028993Y015100D02*
X028993Y015784D01*
X028989Y015780D02*
X029111Y015780D01*
X029111Y015622D02*
X028842Y015622D01*
X028835Y015605D02*
X028835Y015031D01*
X028678Y015031D02*
X028678Y015395D01*
X028748Y015465D02*
X029111Y015465D01*
X029111Y015307D02*
X028538Y015307D01*
X028520Y015300D02*
X028520Y015031D01*
X028363Y015031D02*
X028363Y015252D01*
X028205Y015252D02*
X028205Y015031D01*
X028048Y015031D02*
X028048Y015300D01*
X028031Y015307D02*
X023914Y015307D01*
X023914Y015465D02*
X027820Y015465D01*
X027890Y015395D02*
X027890Y015031D01*
X027733Y015031D02*
X027733Y015605D01*
X027726Y015622D02*
X023914Y015622D01*
X023914Y015780D02*
X027678Y015780D01*
X027678Y015937D02*
X023914Y015937D01*
X024002Y016252D02*
X027821Y016252D01*
X027890Y016322D02*
X027890Y016370D01*
X028171Y016646D02*
X028384Y016858D01*
X028171Y016646D02*
X024741Y016646D01*
X024741Y017039D02*
X027465Y017039D01*
X028284Y017858D01*
X028678Y017395D02*
X028678Y017393D01*
X028676Y017393D02*
X028796Y017513D01*
X028796Y017304D01*
X028727Y017372D01*
X028676Y017393D01*
X028745Y017354D02*
X028796Y017354D01*
X028795Y017512D02*
X028796Y017512D01*
X028796Y018204D02*
X028676Y018323D01*
X028727Y018344D01*
X028796Y018413D01*
X028796Y018204D01*
X028796Y018299D02*
X028700Y018299D01*
X028678Y018322D02*
X028678Y018324D01*
X027992Y018393D02*
X027941Y018372D01*
X027770Y018202D01*
X027678Y017979D01*
X027678Y017738D01*
X027706Y017670D01*
X027351Y017315D01*
X025065Y017315D01*
X026462Y018713D01*
X026710Y018713D01*
X026808Y018614D01*
X026364Y018614D01*
X026316Y018566D02*
X026316Y017315D01*
X026473Y017315D02*
X026473Y018713D01*
X026631Y018713D02*
X026631Y017315D01*
X026788Y017315D02*
X026788Y018634D01*
X026808Y018614D02*
X026943Y018614D01*
X027066Y018491D01*
X027225Y018425D01*
X027398Y018425D01*
X027960Y018425D01*
X027992Y018393D01*
X027890Y018425D02*
X027890Y018322D01*
X027868Y018299D02*
X026049Y018299D01*
X026001Y018251D02*
X026001Y017315D01*
X026158Y017315D02*
X026158Y018408D01*
X026206Y018457D02*
X027149Y018457D01*
X027103Y018476D02*
X027103Y017315D01*
X027260Y017315D02*
X027260Y018425D01*
X027418Y018425D02*
X027418Y017382D01*
X027390Y017354D02*
X025104Y017354D01*
X025213Y017315D02*
X025213Y017463D01*
X025262Y017512D02*
X027548Y017512D01*
X027575Y017539D02*
X027575Y018425D01*
X027733Y018425D02*
X027733Y018112D01*
X027745Y018142D02*
X025891Y018142D01*
X025843Y018093D02*
X025843Y017315D01*
X025686Y017315D02*
X025686Y017936D01*
X025734Y017984D02*
X027680Y017984D01*
X027678Y017827D02*
X025576Y017827D01*
X025528Y017778D02*
X025528Y017315D01*
X025371Y017315D02*
X025371Y017621D01*
X025419Y017669D02*
X027705Y017669D01*
X026946Y017315D02*
X026946Y018612D01*
X026316Y019067D02*
X026316Y019185D01*
X025764Y019736D01*
X024288Y019736D01*
X024012Y020012D01*
X024012Y020228D01*
X024347Y019953D02*
X024347Y020504D01*
X024268Y020583D01*
X023560Y020583D01*
X023481Y020504D01*
X023481Y020248D01*
X023461Y020228D01*
X023560Y020327D01*
X023304Y020740D02*
X022792Y020228D01*
X021985Y019421D01*
X021985Y018693D01*
X022418Y018260D01*
X022418Y017945D01*
X022694Y018199D02*
X022694Y018220D01*
X022890Y018220D01*
X022890Y018166D01*
X022932Y018064D01*
X022969Y018028D01*
X022969Y017353D01*
X022964Y017348D01*
X022658Y017655D01*
X022736Y017732D01*
X022793Y017870D01*
X022793Y018019D01*
X022736Y018157D01*
X022694Y018200D01*
X022694Y018205D01*
X022694Y018220D01*
X022742Y018142D02*
X022900Y018142D01*
X022851Y018220D02*
X022851Y017462D01*
X022801Y017512D02*
X022969Y017512D01*
X022969Y017669D02*
X022673Y017669D01*
X022694Y017690D02*
X022694Y017619D01*
X022775Y017827D02*
X022969Y017827D01*
X022969Y017984D02*
X022793Y017984D01*
X023166Y018220D02*
X023166Y019638D01*
X023009Y019795D01*
X022772Y019795D01*
X022871Y019402D02*
X022379Y019402D01*
X022379Y019008D02*
X022772Y018614D01*
X022871Y018614D01*
X023166Y018220D02*
X023245Y018142D01*
X023245Y017098D01*
X023495Y016818D02*
X023563Y016886D01*
X023620Y017024D01*
X023620Y017173D01*
X023563Y017311D01*
X023520Y017353D01*
X023520Y018087D01*
X023520Y018197D01*
X023510Y018220D01*
X023619Y018220D01*
X023718Y018122D01*
X024307Y018122D01*
X024347Y018162D01*
X024387Y018122D01*
X024870Y018122D01*
X023530Y016783D01*
X023495Y016818D01*
X023558Y016882D02*
X023629Y016882D01*
X023638Y016891D02*
X023638Y018201D01*
X023698Y018142D02*
X023520Y018142D01*
X023520Y017984D02*
X024732Y017984D01*
X024741Y017993D02*
X024741Y018122D01*
X024583Y018122D02*
X024583Y017836D01*
X024574Y017827D02*
X023520Y017827D01*
X023520Y017669D02*
X024417Y017669D01*
X024426Y017678D02*
X024426Y018122D01*
X024367Y018142D02*
X024327Y018142D01*
X024268Y018122D02*
X024268Y017521D01*
X024259Y017512D02*
X023520Y017512D01*
X023520Y017354D02*
X024102Y017354D01*
X024111Y017363D02*
X024111Y018122D01*
X023953Y018122D02*
X023953Y017206D01*
X023944Y017197D02*
X023610Y017197D01*
X023620Y017039D02*
X023787Y017039D01*
X023796Y017048D02*
X023796Y018122D01*
X024682Y018575D02*
X024682Y019402D01*
X025134Y019402D01*
X025371Y019108D02*
X025371Y018623D01*
X025362Y018614D02*
X025115Y018614D01*
X025115Y018457D02*
X025204Y018457D01*
X025213Y018466D02*
X025213Y019028D01*
X025209Y019027D02*
X025347Y019084D01*
X025452Y019189D01*
X025509Y019327D01*
X025509Y019461D01*
X025650Y019461D01*
X025929Y019182D01*
X025115Y018367D01*
X025115Y018889D01*
X025016Y018988D01*
X025056Y019028D01*
X025056Y018948D01*
X025075Y018929D02*
X025677Y018929D01*
X025686Y018938D02*
X025686Y019425D01*
X025709Y019402D02*
X025509Y019402D01*
X025528Y019461D02*
X025528Y018781D01*
X025519Y018772D02*
X025115Y018772D01*
X025060Y019027D02*
X025209Y019027D01*
X025060Y019027D02*
X025056Y019028D01*
X025350Y019087D02*
X025834Y019087D01*
X025843Y019096D02*
X025843Y019268D01*
X025867Y019244D02*
X025475Y019244D01*
X026272Y019618D02*
X026489Y019618D01*
X026590Y019660D01*
X026667Y019738D01*
X026670Y019740D01*
X026670Y019422D01*
X026671Y019421D01*
X026469Y019421D01*
X026272Y019618D01*
X026316Y019618D02*
X026316Y019575D01*
X026331Y019559D02*
X026670Y019559D01*
X026631Y019421D02*
X026631Y019701D01*
X026646Y019717D02*
X026670Y019717D01*
X026667Y019738D02*
X026667Y019738D01*
X026473Y019618D02*
X026473Y019421D01*
X026434Y019894D02*
X026886Y020346D01*
X028757Y020346D01*
X029071Y020031D01*
X029071Y016252D01*
X028678Y015858D01*
X028284Y015858D01*
X028715Y016285D02*
X028796Y016366D01*
X028796Y016413D01*
X028727Y016344D01*
X028676Y016323D01*
X028715Y016285D01*
X028678Y016322D02*
X028678Y016324D01*
X028793Y016409D02*
X028796Y016409D01*
X029465Y014570D02*
X029465Y011370D01*
X027064Y011370D01*
X027064Y014137D01*
X027250Y014323D01*
X029001Y014323D01*
X029142Y014323D01*
X029272Y014377D01*
X029465Y014570D01*
X029465Y014520D02*
X029415Y014520D01*
X029308Y014412D02*
X029308Y011370D01*
X029465Y011370D02*
X029072Y011370D01*
X028934Y011232D01*
X028934Y010642D01*
X029072Y010504D01*
X029465Y010504D01*
X029465Y010386D01*
X029072Y010386D01*
X028656Y010386D01*
X028688Y010463D01*
X028688Y010624D01*
X028626Y010772D01*
X028513Y010885D01*
X028364Y010947D01*
X028204Y010947D01*
X028055Y010885D01*
X027942Y010772D01*
X027881Y010624D01*
X027881Y010463D01*
X027913Y010386D01*
X027496Y010386D01*
X027064Y010386D01*
X027064Y010504D01*
X027496Y010504D01*
X027634Y010642D01*
X027634Y011232D01*
X027496Y011370D01*
X027064Y011370D01*
X027103Y011370D02*
X027103Y014176D01*
X027132Y014205D02*
X029465Y014205D01*
X029465Y014362D02*
X029237Y014362D01*
X029150Y014326D02*
X029150Y011370D01*
X028993Y011291D02*
X028993Y014323D01*
X028835Y014323D02*
X028835Y010386D01*
X028678Y010386D02*
X028678Y010439D01*
X028672Y010425D02*
X029465Y010425D01*
X029308Y010386D02*
X029308Y010504D01*
X029150Y010504D02*
X029150Y010386D01*
X028993Y010386D02*
X028993Y010583D01*
X028688Y010583D01*
X028678Y010647D02*
X028678Y014323D01*
X028520Y014323D02*
X028520Y010878D01*
X028483Y010898D02*
X028934Y010898D01*
X028934Y011055D02*
X027634Y011055D01*
X027634Y010898D02*
X028085Y010898D01*
X028048Y010878D02*
X028048Y014323D01*
X028205Y014323D02*
X028205Y010947D01*
X028363Y010947D02*
X028363Y014323D01*
X027890Y014323D02*
X027890Y010647D01*
X027881Y010583D02*
X027575Y010583D01*
X027575Y010386D01*
X027418Y010386D02*
X027418Y010504D01*
X027260Y010504D02*
X027260Y010386D01*
X027103Y010386D02*
X027103Y010504D01*
X027064Y010425D02*
X027896Y010425D01*
X027890Y010439D02*
X027890Y010386D01*
X027733Y010386D02*
X027733Y014323D01*
X027575Y014323D02*
X027575Y011291D01*
X027634Y011213D02*
X028934Y011213D01*
X028934Y010740D02*
X028639Y010740D01*
X027929Y010740D02*
X027634Y010740D01*
X027418Y011370D02*
X027418Y014323D01*
X027260Y014323D02*
X027260Y011370D01*
X027064Y011528D02*
X029465Y011528D01*
X029465Y011685D02*
X027064Y011685D01*
X027064Y011843D02*
X029465Y011843D01*
X029465Y012000D02*
X027064Y012000D01*
X027064Y012157D02*
X029465Y012157D01*
X029465Y012315D02*
X027064Y012315D01*
X027064Y012472D02*
X029465Y012472D01*
X029465Y012630D02*
X027064Y012630D01*
X027064Y012787D02*
X029465Y012787D01*
X029465Y012945D02*
X027064Y012945D01*
X027064Y013102D02*
X029465Y013102D01*
X029465Y013260D02*
X027064Y013260D01*
X027064Y013417D02*
X029465Y013417D01*
X029465Y013575D02*
X027064Y013575D01*
X027064Y013732D02*
X029465Y013732D01*
X029465Y013890D02*
X027064Y013890D01*
X027064Y014047D02*
X029465Y014047D01*
X026355Y012787D02*
X025686Y012787D01*
X025686Y012630D02*
X026355Y012630D01*
X026355Y012472D02*
X025686Y012472D01*
X025686Y012315D02*
X026355Y012315D01*
X026355Y012157D02*
X025686Y012157D01*
X025686Y012000D02*
X026355Y012000D01*
X026355Y011843D02*
X025686Y011843D01*
X023796Y012000D02*
X023746Y012000D01*
X023520Y011213D02*
X022958Y011213D01*
X023009Y011263D02*
X023009Y011116D01*
X023070Y011055D02*
X023520Y011055D01*
X021729Y011193D02*
X021729Y009972D01*
X021650Y009894D01*
X021355Y009894D01*
X021355Y010269D02*
X021355Y011088D01*
X021391Y011000D01*
X021453Y010938D01*
X021453Y010259D01*
X021430Y010269D01*
X021355Y010269D01*
X021432Y010268D02*
X021453Y010268D01*
X021434Y010267D02*
X021434Y010958D01*
X021453Y010898D02*
X021355Y010898D01*
X021355Y011055D02*
X021369Y011055D01*
X021355Y011337D02*
X021355Y011545D01*
X021433Y011467D01*
X021391Y011425D01*
X021355Y011337D01*
X021355Y011370D02*
X021369Y011370D01*
X021355Y011528D02*
X021372Y011528D01*
X021709Y011213D02*
X021729Y011193D01*
X021453Y010740D02*
X021355Y010740D01*
X021355Y010583D02*
X021453Y010583D01*
X021453Y010425D02*
X021355Y010425D01*
X021631Y012494D02*
X021552Y012573D01*
X021552Y013063D01*
X021571Y013063D01*
X021591Y013083D01*
X021591Y012534D01*
X021631Y012494D02*
X021631Y013063D01*
X021611Y013063D01*
X021591Y013083D01*
X021552Y012945D02*
X021631Y012945D01*
X021631Y012787D02*
X021552Y012787D01*
X021552Y012630D02*
X021631Y012630D01*
X021050Y013152D02*
X021001Y013102D01*
X021050Y013152D02*
X021050Y014382D01*
X021050Y014579D02*
X021690Y014579D01*
X021985Y014283D01*
X021985Y013555D01*
X021926Y013496D01*
X022379Y013656D02*
X022379Y015862D01*
X022393Y015877D02*
X022453Y015877D01*
X022591Y015934D01*
X022656Y015999D01*
X022812Y015843D01*
X022812Y013142D01*
X022673Y013142D01*
X022615Y013200D01*
X022615Y013326D01*
X022549Y013485D01*
X022379Y013656D01*
X022379Y013791D01*
X022260Y013909D01*
X022260Y014338D01*
X022218Y014440D01*
X022141Y014517D01*
X021846Y014812D01*
X021744Y014854D01*
X021635Y014854D01*
X021483Y014854D01*
X021483Y014932D01*
X021483Y014967D01*
X022393Y015877D01*
X022296Y015780D02*
X022812Y015780D01*
X022812Y015622D02*
X022138Y015622D01*
X022064Y015547D02*
X022064Y014594D01*
X022138Y014520D02*
X022812Y014520D01*
X022812Y014677D02*
X021981Y014677D01*
X021906Y014752D02*
X021906Y015390D01*
X021981Y015465D02*
X022812Y015465D01*
X022812Y015307D02*
X021823Y015307D01*
X021749Y015232D02*
X021749Y014853D01*
X021792Y014835D02*
X022812Y014835D01*
X022812Y014992D02*
X021508Y014992D01*
X021591Y015075D02*
X021591Y014854D01*
X021666Y015150D02*
X022812Y015150D01*
X022221Y015705D02*
X022221Y014433D01*
X022251Y014362D02*
X022812Y014362D01*
X022812Y014205D02*
X022260Y014205D01*
X022260Y014047D02*
X022812Y014047D01*
X022812Y013890D02*
X022280Y013890D01*
X022379Y013732D02*
X022812Y013732D01*
X022812Y013575D02*
X022459Y013575D01*
X022536Y013498D02*
X022536Y015911D01*
X022594Y015937D02*
X022717Y015937D01*
X022694Y015961D02*
X022694Y013142D01*
X022615Y013260D02*
X022812Y013260D01*
X022812Y013417D02*
X022577Y013417D01*
X021709Y013929D02*
X021709Y014169D01*
X021575Y014303D01*
X021483Y014303D01*
X021483Y014225D01*
X021345Y014087D01*
X021325Y014087D01*
X021325Y013929D01*
X021571Y013929D01*
X021591Y013909D01*
X021591Y014287D01*
X021674Y014205D02*
X021463Y014205D01*
X021434Y014176D02*
X021434Y013929D01*
X021591Y013909D02*
X021611Y013929D01*
X021709Y013929D01*
X021709Y014047D02*
X021325Y014047D01*
X021050Y015366D02*
X019859Y015366D01*
X019741Y015484D01*
X019505Y015484D01*
X019308Y015287D01*
X018028Y015287D01*
X017713Y015602D01*
X017713Y015917D01*
X018028Y016232D01*
X018304Y016154D02*
X017910Y015760D01*
X017910Y015642D01*
X018107Y015445D01*
X019229Y015445D01*
X019426Y015642D01*
X019820Y015642D01*
X019898Y015563D01*
X021050Y015563D01*
X021483Y015746D02*
X021483Y015917D01*
X021483Y016114D01*
X021483Y016272D01*
X022004Y016272D01*
X022004Y016267D01*
X021483Y015746D01*
X021483Y015780D02*
X021516Y015780D01*
X021591Y015854D02*
X021591Y016272D01*
X021483Y016252D02*
X021989Y016252D01*
X021906Y016272D02*
X021906Y016169D01*
X021831Y016094D02*
X021483Y016094D01*
X021483Y015937D02*
X021674Y015937D01*
X021749Y016012D02*
X021749Y016272D01*
X020617Y016252D02*
X018628Y016252D01*
X018622Y016236D02*
X018679Y016374D01*
X018679Y016449D01*
X019185Y016449D01*
X019287Y016491D01*
X019364Y016568D01*
X019717Y016921D01*
X019902Y016921D01*
X019980Y016844D01*
X020057Y016766D01*
X020158Y016724D01*
X019520Y016724D01*
X019544Y016748D02*
X019544Y015917D01*
X019481Y015917D02*
X019371Y015917D01*
X019270Y015875D01*
X019115Y015720D01*
X018260Y015720D01*
X018460Y015920D01*
X018537Y015997D01*
X018579Y016099D01*
X018579Y016194D01*
X018622Y016236D01*
X018599Y016214D02*
X018599Y015720D01*
X018442Y015720D02*
X018442Y015902D01*
X018477Y015937D02*
X020617Y015937D01*
X020617Y015917D02*
X020617Y015839D01*
X020012Y015839D01*
X019976Y015875D01*
X019874Y015917D01*
X019481Y015917D01*
X019386Y015917D02*
X019386Y016591D01*
X019363Y016567D02*
X020617Y016567D01*
X020617Y016507D02*
X020617Y016704D01*
X020617Y016817D01*
X020566Y016766D01*
X020465Y016724D01*
X020617Y016724D01*
X020489Y016734D02*
X020489Y015839D01*
X020617Y015917D02*
X020617Y016114D01*
X020617Y016310D01*
X020617Y016507D01*
X020617Y016409D02*
X018679Y016409D01*
X018757Y016449D02*
X018757Y015720D01*
X018914Y015720D02*
X018914Y016449D01*
X019071Y016449D02*
X019071Y015720D01*
X019174Y015780D02*
X018319Y015780D01*
X018284Y015744D02*
X018284Y015720D01*
X018304Y016154D02*
X018304Y016449D01*
X018578Y016094D02*
X020617Y016094D01*
X020331Y015839D02*
X020331Y016724D01*
X020355Y016724D02*
X020465Y016724D01*
X020355Y016724D02*
X020158Y016724D01*
X020174Y016724D02*
X020174Y015839D01*
X020016Y015839D02*
X020016Y016807D01*
X019942Y016882D02*
X019678Y016882D01*
X019701Y016906D02*
X019701Y015917D01*
X019859Y015917D02*
X019859Y016921D01*
X019229Y016467D02*
X019229Y015835D01*
X019623Y015228D02*
X019524Y015130D01*
X017969Y015130D01*
X017772Y015327D01*
X017615Y015327D01*
X017182Y015386D02*
X017182Y016173D01*
X018048Y017039D01*
X018796Y017039D01*
X019229Y017472D01*
X018835Y017472D02*
X018560Y017197D01*
X017969Y017197D01*
X017024Y016252D01*
X017024Y015465D01*
X016926Y015366D01*
X016621Y015366D01*
X016621Y015169D02*
X016965Y015169D01*
X017182Y015386D01*
X016621Y015563D02*
X010863Y015563D01*
X010568Y015858D01*
X010568Y016252D01*
X010449Y016370D01*
X009780Y016370D01*
X009977Y016055D02*
X010646Y015386D01*
X016079Y015386D01*
X016178Y015287D01*
X016621Y015760D02*
X011453Y015760D01*
X011355Y015858D01*
X010961Y015858D01*
X010961Y016252D02*
X011355Y016252D01*
X011650Y015957D01*
X016621Y015957D01*
X016621Y016154D02*
X011650Y016154D01*
X011394Y016409D01*
X011827Y016941D02*
X009879Y016941D01*
X007009Y017886D02*
X006832Y017710D01*
X006772Y017710D01*
X006709Y017683D01*
X006709Y017713D01*
X006766Y017769D01*
X006808Y017870D01*
X006808Y017886D01*
X006985Y017886D01*
X007009Y017886D01*
X006946Y017886D02*
X006946Y017823D01*
X006950Y017827D02*
X006790Y017827D01*
X006788Y017823D02*
X006788Y017710D01*
X005587Y017413D02*
X005509Y017335D01*
X004957Y017335D01*
X004957Y017531D02*
X004957Y017728D01*
X003914Y017728D01*
X003914Y018654D01*
X004190Y018539D02*
X004190Y018200D01*
X004229Y018161D01*
X004229Y018579D01*
X004190Y018539D01*
X004190Y018457D02*
X004229Y018457D01*
X004229Y018299D02*
X004190Y018299D01*
X003816Y017827D02*
X003914Y017728D01*
X004052Y017413D02*
X003186Y017413D01*
X003146Y017453D01*
X002734Y017354D02*
X001512Y017354D01*
X001512Y017197D02*
X002713Y017197D01*
X002713Y017039D02*
X001512Y017039D01*
X001512Y016882D02*
X002713Y016882D01*
X002713Y016724D02*
X001512Y016724D01*
X001512Y017512D02*
X002714Y017512D01*
X002694Y017532D02*
X002694Y018121D01*
X002714Y018142D02*
X001512Y018142D01*
X001512Y018299D02*
X002733Y018299D01*
X002733Y018457D02*
X001512Y018457D01*
X001512Y018614D02*
X002733Y018614D01*
X002733Y018772D02*
X001512Y018772D01*
X001512Y018929D02*
X002733Y018929D01*
X002733Y019087D02*
X001512Y019087D01*
X001512Y019244D02*
X002733Y019244D01*
X002733Y019402D02*
X001512Y019402D01*
X001512Y019559D02*
X002769Y019559D01*
X002694Y017984D02*
X001512Y017984D01*
X001512Y017827D02*
X002694Y017827D01*
X002694Y017669D02*
X001512Y017669D01*
X004052Y017413D02*
X004524Y016941D01*
X004957Y016941D01*
X005390Y017010D02*
X005390Y017059D01*
X005463Y017059D01*
X005513Y017038D01*
X005568Y017038D01*
X005568Y016902D01*
X005543Y016902D01*
X005468Y016978D01*
X005390Y017010D01*
X005390Y017039D02*
X005510Y017039D01*
X005528Y017038D02*
X005528Y016917D01*
X004524Y017331D02*
X004402Y017453D01*
X004524Y017453D01*
X004524Y017394D01*
X004524Y017331D01*
X004524Y017354D02*
X004501Y017354D01*
X004426Y017429D02*
X004426Y017453D01*
X005095Y018004D02*
X005095Y018004D01*
X005272Y018004D01*
X005272Y017984D01*
X005272Y017984D01*
X005252Y018004D01*
X005095Y018004D01*
X005213Y018004D02*
X005213Y018004D01*
X008048Y020150D02*
X008048Y020583D01*
X008205Y020583D02*
X008205Y020150D01*
X008363Y020150D02*
X008363Y020583D01*
X008520Y020583D02*
X008520Y020150D01*
X008678Y020150D02*
X008678Y020583D01*
X008835Y020583D02*
X008835Y020150D01*
X008993Y020150D02*
X008993Y020583D01*
X009150Y020583D02*
X009150Y020150D01*
X009308Y020150D02*
X009308Y020583D01*
X009465Y020583D02*
X009465Y020146D01*
X009623Y020060D02*
X009623Y020583D01*
X009780Y020583D02*
X009780Y019903D01*
X009809Y019874D02*
X016890Y019874D01*
X016867Y019850D02*
X016867Y020583D01*
X017024Y020583D02*
X017024Y020008D01*
X017079Y020031D02*
X009651Y020031D01*
X006788Y021508D02*
X006788Y021870D01*
X006631Y021873D02*
X006631Y021508D01*
X006473Y021524D02*
X006473Y021938D01*
X006514Y021921D02*
X006075Y021921D01*
X006220Y022236D02*
X006253Y022236D01*
X006241Y022394D02*
X006233Y022394D01*
X006233Y022551D02*
X006241Y022551D01*
X006233Y022709D02*
X006241Y022709D01*
X006233Y022866D02*
X006241Y022866D01*
X006257Y023024D02*
X006217Y023024D01*
X006788Y023382D02*
X006788Y023500D01*
X006784Y023496D02*
X007812Y023496D01*
X007733Y023382D02*
X007733Y024870D01*
X007812Y024756D02*
X007012Y024756D01*
X007012Y024913D02*
X007533Y024913D01*
X007575Y024896D02*
X007575Y023356D01*
X007533Y023339D02*
X006941Y023339D01*
X006946Y023337D02*
X006946Y023658D01*
X006941Y023654D02*
X007812Y023654D01*
X007812Y023811D02*
X007012Y023811D01*
X007012Y023969D02*
X007812Y023969D01*
X007812Y024126D02*
X007012Y024126D01*
X007012Y024283D02*
X007812Y024283D01*
X007812Y024441D02*
X007012Y024441D01*
X007012Y024598D02*
X007812Y024598D01*
X007418Y024983D02*
X007418Y023269D01*
X007330Y023181D02*
X007143Y023181D01*
X007103Y023222D02*
X007103Y025030D01*
X007143Y025071D02*
X007330Y025071D01*
X005213Y021760D02*
X005213Y021646D01*
X013776Y023673D02*
X013776Y023772D01*
X013776Y024598D01*
X013776Y025425D01*
X014229Y025031D02*
X015255Y025031D01*
X015660Y024626D01*
X015660Y024126D02*
X014898Y024126D01*
X014446Y024579D01*
X014446Y024598D01*
X014111Y024913D02*
X014229Y025031D01*
X014111Y024913D02*
X014111Y024126D01*
X014446Y023791D01*
X014446Y023772D01*
X014446Y023732D01*
X014898Y023280D01*
X015016Y022748D02*
X014898Y022630D01*
X015016Y022748D02*
X016768Y022748D01*
X017201Y023181D01*
X018343Y023181D01*
X018501Y023024D01*
X018501Y020543D01*
X018284Y020327D01*
X018284Y020307D01*
X018658Y020307D02*
X018658Y023122D01*
X018442Y023339D01*
X017005Y023339D01*
X016886Y023220D01*
X016453Y023969D02*
X016296Y024126D01*
X015660Y024126D01*
X017260Y024652D02*
X017286Y024626D01*
X020410Y024146D02*
X020410Y024047D01*
X021039Y024047D01*
X021039Y024225D01*
X021016Y024202D01*
X020878Y024145D01*
X020729Y024145D01*
X020727Y024146D01*
X020682Y024146D01*
X020410Y024146D01*
X020410Y024126D02*
X021039Y024126D01*
X020961Y024179D02*
X020961Y024047D01*
X020804Y024047D02*
X020804Y024145D01*
X020646Y024146D02*
X020646Y024047D01*
X020489Y024047D02*
X020489Y024146D01*
X020489Y023417D02*
X020489Y022917D01*
X020512Y022917D02*
X020410Y022917D01*
X020410Y023417D01*
X021260Y023417D01*
X021376Y023465D01*
X021464Y023554D01*
X021621Y023711D01*
X021648Y023775D01*
X021730Y023693D01*
X022358Y023693D01*
X022379Y023713D01*
X022379Y020562D01*
X022339Y020523D02*
X022339Y020165D01*
X022242Y020068D01*
X022197Y020113D01*
X022059Y020170D01*
X021910Y020170D01*
X021772Y020113D01*
X021667Y020008D01*
X021634Y019929D01*
X021634Y020555D01*
X021496Y020693D01*
X020907Y020693D01*
X020768Y020555D01*
X020768Y019906D01*
X020823Y019852D01*
X020823Y019772D01*
X020650Y019945D01*
X020650Y020555D01*
X020512Y020693D01*
X020410Y020693D01*
X020410Y021248D01*
X020466Y021114D01*
X020579Y021000D01*
X020727Y020939D01*
X020888Y020939D01*
X021036Y021000D01*
X021150Y021114D01*
X021211Y021262D01*
X021211Y021423D01*
X021150Y021571D01*
X021036Y021685D01*
X020888Y021746D01*
X020727Y021746D01*
X020579Y021685D01*
X020466Y021571D01*
X020410Y021437D01*
X020410Y021992D01*
X020512Y021992D01*
X020650Y022130D01*
X020650Y022779D01*
X020512Y022917D01*
X020563Y022866D02*
X020856Y022866D01*
X020907Y022917D02*
X020768Y022779D01*
X020768Y022130D01*
X020907Y021992D01*
X021496Y021992D01*
X021634Y022130D01*
X021634Y022779D01*
X021496Y022917D01*
X020907Y022917D01*
X020961Y022917D02*
X020961Y023417D01*
X020804Y023417D02*
X020804Y022814D01*
X020768Y022709D02*
X020650Y022709D01*
X020646Y022783D02*
X020646Y023417D01*
X020410Y023339D02*
X022776Y023339D01*
X022757Y023320D02*
X022698Y023320D01*
X022560Y023263D01*
X022454Y023157D01*
X022397Y023019D01*
X022397Y022870D01*
X022454Y022732D01*
X022560Y022627D01*
X022698Y022570D01*
X022847Y022570D01*
X022971Y022621D01*
X023451Y022621D01*
X023590Y022760D01*
X023590Y023555D01*
X023451Y023694D01*
X023028Y023694D01*
X023087Y023753D01*
X023091Y023751D01*
X023241Y023751D01*
X023378Y023808D01*
X023484Y023914D01*
X023541Y024051D01*
X023541Y024201D01*
X023484Y024338D01*
X023378Y024444D01*
X023241Y024501D01*
X023091Y024501D01*
X023087Y024499D01*
X023028Y024559D01*
X022399Y024559D01*
X022379Y024539D01*
X022379Y024623D01*
X022355Y024633D02*
X022485Y024579D01*
X022626Y024579D01*
X022961Y024579D01*
X023600Y024579D01*
X023659Y024520D01*
X024248Y024520D01*
X024287Y024559D01*
X025775Y024559D01*
X025961Y024373D01*
X025961Y023268D01*
X026015Y023138D01*
X026115Y023038D01*
X026509Y022644D01*
X026639Y022591D01*
X026780Y022591D01*
X028925Y022591D01*
X029111Y022404D01*
X029111Y020382D01*
X028921Y020571D01*
X028990Y020738D01*
X028990Y020979D01*
X028898Y021202D01*
X028727Y021372D01*
X028505Y021464D01*
X028263Y021464D01*
X028041Y021372D01*
X027870Y021202D01*
X027778Y020979D01*
X027778Y020738D01*
X027826Y020622D01*
X026941Y020622D01*
X026832Y020622D01*
X026730Y020580D01*
X026320Y020169D01*
X025115Y020169D01*
X025115Y020216D01*
X025401Y020503D01*
X025449Y020618D01*
X025449Y020744D01*
X025449Y021826D01*
X025401Y021942D01*
X025313Y022031D01*
X025018Y022325D01*
X025018Y022688D01*
X025090Y022760D01*
X025090Y023555D01*
X024951Y023694D01*
X024456Y023694D01*
X024317Y023555D01*
X024317Y022760D01*
X024388Y022688D01*
X024388Y022258D01*
X024388Y022132D01*
X024436Y022016D01*
X024759Y021694D01*
X024456Y021694D01*
X024317Y021555D01*
X024317Y021016D01*
X023590Y021016D01*
X023590Y021555D01*
X023451Y021694D01*
X022956Y021694D01*
X022817Y021555D01*
X022817Y020760D01*
X022875Y020701D01*
X022835Y020661D01*
X022478Y020661D01*
X022339Y020523D01*
X022339Y020504D02*
X021634Y020504D01*
X021591Y020598D02*
X021591Y022087D01*
X021583Y022079D02*
X024411Y022079D01*
X024426Y022042D02*
X024426Y021664D01*
X024368Y021606D02*
X023539Y021606D01*
X023481Y021664D02*
X023481Y022651D01*
X023539Y022709D02*
X024368Y022709D01*
X024388Y022551D02*
X021634Y022551D01*
X021634Y022394D02*
X024388Y022394D01*
X024388Y022236D02*
X021634Y022236D01*
X021434Y021992D02*
X021434Y020693D01*
X021528Y020661D02*
X022835Y020661D01*
X022851Y020677D02*
X022851Y020726D01*
X022817Y020819D02*
X020410Y020819D01*
X020489Y020693D02*
X020489Y021091D01*
X020457Y021134D02*
X020410Y021134D01*
X020410Y020976D02*
X020637Y020976D01*
X020646Y020973D02*
X020646Y020558D01*
X020650Y020504D02*
X020768Y020504D01*
X020804Y020590D02*
X020804Y020939D01*
X020961Y020969D02*
X020961Y020693D01*
X020875Y020661D02*
X020543Y020661D01*
X020650Y020346D02*
X020768Y020346D01*
X020768Y020189D02*
X020650Y020189D01*
X020650Y020031D02*
X020768Y020031D01*
X020800Y019874D02*
X020721Y019874D01*
X020804Y019871D02*
X020804Y019791D01*
X021197Y019795D02*
X021201Y019799D01*
X021201Y020230D01*
X021634Y020189D02*
X022339Y020189D01*
X022221Y020089D02*
X022221Y023693D01*
X022064Y023693D02*
X022064Y020168D01*
X021906Y020169D02*
X021906Y023693D01*
X021749Y023693D02*
X021749Y020089D01*
X021691Y020031D02*
X021634Y020031D01*
X021618Y019890D02*
X021610Y019870D01*
X021610Y019810D01*
X021572Y019772D01*
X021572Y019844D01*
X021618Y019890D01*
X021612Y019874D02*
X021602Y019874D01*
X021591Y019863D02*
X021591Y019791D01*
X021591Y019402D02*
X021985Y019795D01*
X021591Y019402D02*
X020804Y019402D01*
X021634Y020346D02*
X022339Y020346D01*
X022536Y020661D02*
X022536Y022651D01*
X022478Y022709D02*
X021634Y022709D01*
X021591Y022822D02*
X021591Y023681D01*
X021564Y023654D02*
X022915Y023654D01*
X022955Y023693D02*
X022817Y023555D01*
X022817Y023379D01*
X022757Y023320D01*
X022694Y023318D02*
X022694Y023693D01*
X022851Y023693D02*
X022851Y023589D01*
X022817Y023496D02*
X021407Y023496D01*
X021434Y023523D02*
X021434Y022917D01*
X021547Y022866D02*
X022399Y022866D01*
X022399Y023024D02*
X020410Y023024D01*
X020410Y023181D02*
X022478Y023181D01*
X022536Y023239D02*
X022536Y023693D01*
X022399Y023693D02*
X022955Y023693D01*
X023166Y023694D02*
X023166Y023751D01*
X023323Y023785D02*
X023323Y023694D01*
X023381Y023811D02*
X025961Y023811D01*
X025961Y023654D02*
X024991Y023654D01*
X025056Y023589D02*
X025056Y024559D01*
X025213Y024559D02*
X025213Y022130D01*
X025265Y022079D02*
X029111Y022079D01*
X029111Y022236D02*
X025107Y022236D01*
X025056Y022288D02*
X025056Y022726D01*
X025039Y022709D02*
X026444Y022709D01*
X026473Y022680D02*
X026473Y020323D01*
X026497Y020346D02*
X025245Y020346D01*
X025213Y020314D02*
X025213Y020169D01*
X025115Y020189D02*
X026339Y020189D01*
X026316Y020169D02*
X026316Y022837D01*
X026287Y022866D02*
X025090Y022866D01*
X025090Y023024D02*
X026129Y023024D01*
X026158Y022995D02*
X026158Y020169D01*
X026001Y020169D02*
X026001Y023173D01*
X025997Y023181D02*
X025090Y023181D01*
X025090Y023339D02*
X025961Y023339D01*
X025961Y023496D02*
X025090Y023496D01*
X024898Y023694D02*
X024898Y024559D01*
X024741Y024559D02*
X024741Y023694D01*
X024583Y023694D02*
X024583Y024559D01*
X024426Y024559D02*
X024426Y023664D01*
X024415Y023654D02*
X023491Y023654D01*
X023481Y023664D02*
X023481Y023911D01*
X023507Y023969D02*
X025961Y023969D01*
X025961Y024126D02*
X023541Y024126D01*
X023507Y024283D02*
X025961Y024283D01*
X025893Y024441D02*
X023381Y024441D01*
X023323Y024467D02*
X023323Y024579D01*
X023166Y024579D02*
X023166Y024501D01*
X023009Y024559D02*
X023009Y024579D01*
X022851Y024579D02*
X022851Y024559D01*
X022694Y024559D02*
X022694Y024579D01*
X022536Y024579D02*
X022536Y024559D01*
X022438Y024598D02*
X022211Y024598D01*
X022201Y024589D02*
X022300Y024688D01*
X022355Y024633D01*
X022358Y024559D02*
X022142Y024559D01*
X022142Y024589D01*
X022201Y024589D01*
X022221Y024609D02*
X022221Y024559D01*
X022358Y024559D02*
X022379Y024539D01*
X022713Y024126D02*
X023166Y024126D01*
X023481Y024341D02*
X023481Y024579D01*
X023638Y024540D02*
X023638Y021016D01*
X023590Y021134D02*
X024317Y021134D01*
X024268Y021016D02*
X024268Y024540D01*
X024111Y024520D02*
X024111Y021016D01*
X023953Y021016D02*
X023953Y024520D01*
X023796Y024520D02*
X023796Y021016D01*
X023590Y021291D02*
X024317Y021291D01*
X024317Y021449D02*
X023590Y021449D01*
X023323Y021694D02*
X023323Y022621D01*
X023166Y022621D02*
X023166Y021694D01*
X023009Y021694D02*
X023009Y022621D01*
X022851Y022572D02*
X022851Y021589D01*
X022868Y021606D02*
X021115Y021606D01*
X021119Y021602D02*
X021119Y021992D01*
X021276Y021992D02*
X021276Y020693D01*
X021119Y020693D02*
X021119Y021083D01*
X021158Y021134D02*
X022817Y021134D01*
X022817Y021291D02*
X021211Y021291D01*
X021200Y021449D02*
X022817Y021449D01*
X022817Y020976D02*
X020978Y020976D01*
X020415Y021449D02*
X020410Y021449D01*
X020410Y021606D02*
X020501Y021606D01*
X020489Y021594D02*
X020489Y021992D01*
X020410Y021921D02*
X024532Y021921D01*
X024583Y021870D02*
X024583Y021694D01*
X024689Y021764D02*
X020410Y021764D01*
X020646Y021712D02*
X020646Y022127D01*
X020598Y022079D02*
X020820Y022079D01*
X020804Y022095D02*
X020804Y021746D01*
X020961Y021716D02*
X020961Y021992D01*
X020768Y022236D02*
X020650Y022236D01*
X020650Y022394D02*
X020768Y022394D01*
X020768Y022551D02*
X020650Y022551D01*
X021119Y022917D02*
X021119Y023417D01*
X021276Y023424D02*
X021276Y022917D01*
X022379Y023713D02*
X022399Y023693D01*
X022044Y024126D02*
X021867Y024303D01*
X021867Y024933D01*
X021906Y025278D02*
X021906Y025327D01*
X021937Y025327D02*
X021961Y025337D01*
X022024Y025337D01*
X022024Y025278D01*
X021669Y025278D01*
X021669Y025327D01*
X021937Y025327D01*
X021749Y025327D02*
X021749Y025278D01*
X021749Y026035D02*
X021749Y026094D01*
X021906Y026094D02*
X021906Y026035D01*
X021937Y026035D02*
X021284Y026035D01*
X021157Y026035D01*
X021098Y026094D01*
X020509Y026094D01*
X020410Y025995D01*
X020410Y026094D01*
X029465Y026094D01*
X029465Y023052D01*
X029372Y023146D01*
X029272Y023245D01*
X029142Y023299D01*
X026856Y023299D01*
X026670Y023485D01*
X026670Y024449D01*
X026670Y024590D01*
X026616Y024720D01*
X026222Y025114D01*
X026123Y025214D01*
X025992Y025268D01*
X024724Y025268D01*
X024779Y025290D01*
X024895Y025407D01*
X024958Y025559D01*
X024958Y025724D01*
X024895Y025876D01*
X024779Y025993D01*
X024626Y026056D01*
X024461Y026056D01*
X024338Y026005D01*
X024248Y026094D01*
X023659Y026094D01*
X023520Y025956D01*
X023520Y025952D01*
X023497Y025942D01*
X023363Y025808D01*
X023363Y025887D01*
X023224Y026026D01*
X022985Y026026D01*
X022961Y026035D01*
X022626Y026035D01*
X022485Y026035D01*
X022355Y025981D01*
X022300Y025926D01*
X022201Y026026D01*
X021961Y026026D01*
X021937Y026035D01*
X022064Y026026D02*
X022064Y026094D01*
X022221Y026094D02*
X022221Y026005D01*
X022211Y026016D02*
X022438Y026016D01*
X022379Y025991D02*
X022379Y026094D01*
X022536Y026094D02*
X022536Y026035D01*
X022694Y026035D02*
X022694Y026094D01*
X022851Y026094D02*
X022851Y026035D01*
X023009Y026026D02*
X023009Y026094D01*
X023166Y026094D02*
X023166Y026026D01*
X023234Y026016D02*
X023580Y026016D01*
X023638Y026074D02*
X023638Y026094D01*
X023481Y026094D02*
X023481Y025926D01*
X023413Y025858D02*
X023363Y025858D01*
X023323Y025927D02*
X023323Y026094D01*
X023796Y026094D02*
X023796Y026094D01*
X023953Y026094D02*
X023953Y026094D01*
X024111Y026094D02*
X024111Y026094D01*
X024268Y026094D02*
X024268Y026074D01*
X024327Y026016D02*
X024364Y026016D01*
X024426Y026041D02*
X024426Y026094D01*
X024583Y026094D02*
X024583Y026056D01*
X024724Y026016D02*
X029465Y026016D01*
X029465Y025858D02*
X024903Y025858D01*
X024898Y025869D02*
X024898Y026094D01*
X024741Y026094D02*
X024741Y026009D01*
X025056Y026094D02*
X025056Y025268D01*
X025213Y025268D02*
X025213Y026094D01*
X025371Y026094D02*
X025371Y025268D01*
X025528Y025268D02*
X025528Y026094D01*
X025686Y026094D02*
X025686Y025268D01*
X025843Y025268D02*
X025843Y026094D01*
X026001Y026094D02*
X026001Y025264D01*
X026087Y025228D02*
X029465Y025228D01*
X029465Y025071D02*
X026265Y025071D01*
X026316Y025021D02*
X026316Y026094D01*
X026473Y026094D02*
X026473Y024863D01*
X026423Y024913D02*
X029465Y024913D01*
X029465Y024756D02*
X026580Y024756D01*
X026631Y024685D02*
X026631Y026094D01*
X026788Y026094D02*
X026788Y023367D01*
X026817Y023339D02*
X029465Y023339D01*
X029465Y023496D02*
X026670Y023496D01*
X026670Y023654D02*
X029465Y023654D01*
X029465Y023811D02*
X026670Y023811D01*
X026670Y023969D02*
X029465Y023969D01*
X029465Y024126D02*
X026670Y024126D01*
X026670Y024283D02*
X029465Y024283D01*
X029465Y024441D02*
X026670Y024441D01*
X026666Y024598D02*
X029465Y024598D01*
X029465Y025386D02*
X024874Y025386D01*
X024898Y025414D02*
X024898Y025268D01*
X024741Y025268D02*
X024741Y025275D01*
X024952Y025543D02*
X029465Y025543D01*
X029465Y025701D02*
X024958Y025701D01*
X026158Y026094D02*
X026158Y025178D01*
X025843Y024491D02*
X025843Y020169D01*
X025686Y020169D02*
X025686Y024559D01*
X025528Y024559D02*
X025528Y020169D01*
X025371Y020169D02*
X025371Y020472D01*
X025402Y020504D02*
X026654Y020504D01*
X026631Y020480D02*
X026631Y022594D01*
X026788Y022591D02*
X026788Y020604D01*
X026946Y020622D02*
X026946Y022591D01*
X027103Y022591D02*
X027103Y020622D01*
X027260Y020622D02*
X027260Y022591D01*
X027418Y022591D02*
X027418Y020622D01*
X027575Y020622D02*
X027575Y022591D01*
X027733Y022591D02*
X027733Y020622D01*
X027809Y020661D02*
X025449Y020661D01*
X025449Y020819D02*
X027778Y020819D01*
X027778Y020976D02*
X025449Y020976D01*
X025449Y021134D02*
X027842Y021134D01*
X027890Y021222D02*
X027890Y022591D01*
X028048Y022591D02*
X028048Y021375D01*
X027960Y021291D02*
X025449Y021291D01*
X025449Y021449D02*
X028226Y021449D01*
X028205Y021440D02*
X028205Y022591D01*
X028363Y022591D02*
X028363Y021464D01*
X028520Y021458D02*
X028520Y022591D01*
X028678Y022591D02*
X028678Y021393D01*
X028542Y021449D02*
X029111Y021449D01*
X029111Y021606D02*
X025449Y021606D01*
X025449Y021764D02*
X029111Y021764D01*
X029111Y021921D02*
X025410Y021921D01*
X025371Y021973D02*
X025371Y024559D01*
X024317Y023496D02*
X023590Y023496D01*
X023590Y023339D02*
X024317Y023339D01*
X024317Y023181D02*
X023590Y023181D01*
X023590Y023024D02*
X024317Y023024D01*
X024317Y022866D02*
X023590Y022866D01*
X023203Y023157D02*
X022985Y023157D01*
X022772Y022945D01*
X022694Y022572D02*
X022694Y020661D01*
X023304Y020740D02*
X024347Y020740D01*
X024682Y020406D01*
X024682Y020228D01*
X024347Y019953D02*
X024406Y019894D01*
X026434Y019894D01*
X027516Y019402D02*
X027883Y019402D01*
X027890Y019395D02*
X027890Y019291D01*
X027960Y019291D02*
X027536Y019291D01*
X027536Y019381D01*
X027516Y019402D01*
X027536Y019422D01*
X027536Y019425D01*
X027860Y019425D01*
X027941Y019344D01*
X027992Y019323D01*
X027960Y019291D01*
X027733Y019291D02*
X027733Y019425D01*
X027575Y019425D02*
X027575Y019291D01*
X028676Y019393D02*
X028796Y019513D01*
X028796Y019304D01*
X028727Y019372D01*
X028676Y019393D01*
X028678Y019393D02*
X028678Y019395D01*
X028685Y019402D02*
X028796Y019402D01*
X028993Y020500D02*
X028993Y022522D01*
X028964Y022551D02*
X025018Y022551D01*
X025018Y022394D02*
X029111Y022394D01*
X028835Y022591D02*
X028835Y021264D01*
X028808Y021291D02*
X029111Y021291D01*
X029111Y021134D02*
X028926Y021134D01*
X028990Y020976D02*
X029111Y020976D01*
X029111Y020819D02*
X028990Y020819D01*
X028959Y020661D02*
X029111Y020661D01*
X029111Y020504D02*
X028989Y020504D01*
X029336Y023181D02*
X029465Y023181D01*
X029308Y023210D02*
X029308Y026094D01*
X029150Y026094D02*
X029150Y023296D01*
X028993Y023299D02*
X028993Y026094D01*
X028835Y026094D02*
X028835Y023299D01*
X028678Y023299D02*
X028678Y026094D01*
X028520Y026094D02*
X028520Y023299D01*
X028363Y023299D02*
X028363Y026094D01*
X028205Y026094D02*
X028205Y023299D01*
X028048Y023299D02*
X028048Y026094D01*
X027890Y026094D02*
X027890Y023299D01*
X027733Y023299D02*
X027733Y026094D01*
X027575Y026094D02*
X027575Y023299D01*
X027418Y023299D02*
X027418Y026094D01*
X027260Y026094D02*
X027260Y023299D01*
X027103Y023299D02*
X027103Y026094D01*
X026946Y026094D02*
X026946Y023299D01*
X024741Y021712D02*
X024741Y021694D01*
X023659Y019795D02*
X023398Y019795D01*
X023398Y019795D01*
X023659Y019795D01*
X023659Y019795D01*
X023638Y019795D02*
X023638Y019795D01*
X023481Y019795D02*
X023481Y019795D01*
X023481Y019008D02*
X023481Y019008D01*
X023442Y019008D02*
X023659Y019008D01*
X023442Y019008D01*
X023442Y019008D01*
X023638Y019008D02*
X023638Y019008D01*
X023659Y019008D02*
X023659Y019008D01*
X022890Y019008D02*
X022768Y019008D01*
X022768Y019008D01*
X022890Y019008D01*
X022890Y019008D01*
X022851Y019008D02*
X022851Y019008D01*
X022958Y017354D02*
X022969Y017354D01*
X018934Y018073D02*
X018934Y018909D01*
X018835Y019008D01*
X017674Y019008D01*
X017064Y018398D01*
X016847Y018122D02*
X016906Y018063D01*
X017349Y018063D01*
X017349Y017482D01*
X017182Y017315D01*
X017438Y017039D02*
X017556Y017157D01*
X017556Y018073D01*
X017753Y018073D02*
X017753Y018358D01*
X017634Y018476D01*
X017516Y018476D01*
X017792Y018752D02*
X017949Y018594D01*
X017949Y018073D01*
X018146Y018073D02*
X018146Y017551D01*
X018048Y017453D01*
X018343Y017551D02*
X018442Y017453D01*
X018343Y017551D02*
X018343Y018073D01*
X018383Y018506D02*
X018225Y018506D01*
X018225Y018540D01*
X018225Y018649D01*
X018191Y018732D01*
X018658Y018732D01*
X018658Y018506D01*
X018580Y018506D01*
X018383Y018506D01*
X018442Y018506D02*
X018442Y018732D01*
X018599Y018732D02*
X018599Y018506D01*
X018658Y018614D02*
X018225Y018614D01*
X018284Y018506D02*
X018284Y018732D01*
X017359Y018073D02*
X017349Y018063D01*
X017064Y017787D02*
X017064Y017778D01*
X017073Y017768D01*
X017073Y017676D01*
X016969Y017633D01*
X016941Y017604D01*
X016915Y017630D01*
X016896Y017630D01*
X016896Y017747D01*
X016922Y017747D01*
X017019Y017787D01*
X017064Y017787D01*
X017024Y017787D02*
X017024Y017656D01*
X017058Y017669D02*
X016896Y017669D01*
X016621Y017335D02*
X016621Y018014D01*
X016414Y018220D01*
X016217Y017886D02*
X015804Y017886D01*
X015745Y017945D01*
X015745Y018220D01*
X015764Y018201D01*
X015745Y018220D02*
X015686Y018161D01*
X015292Y018220D02*
X014938Y018220D01*
X014347Y017630D01*
X015016Y017630D02*
X015686Y017630D01*
X016217Y017886D02*
X016296Y017807D01*
X015351Y018673D02*
X015292Y018614D01*
X017182Y020051D02*
X017182Y020583D01*
X017339Y020583D02*
X017339Y020051D01*
X018497Y014697D02*
X018658Y014535D01*
X018658Y014697D01*
X018497Y014697D01*
X018516Y014677D02*
X018658Y014677D01*
X018599Y014697D02*
X018599Y014594D01*
X016621Y014579D02*
X016375Y014579D01*
X016079Y014283D01*
X015410Y013850D02*
X015390Y013850D01*
X010095Y011003D02*
X010095Y004406D01*
X011320Y004126D02*
X011336Y004126D01*
X011355Y004107D02*
X011355Y004042D01*
X011385Y003969D02*
X013750Y003969D01*
X013717Y003890D02*
X013717Y004067D01*
X013560Y004067D02*
X013560Y000898D01*
X013717Y000898D02*
X013717Y003417D01*
X013691Y003496D02*
X011444Y003496D01*
X011444Y003654D02*
X013691Y003654D01*
X013691Y003811D02*
X011444Y003811D01*
X011512Y004047D02*
X011512Y000898D01*
X011355Y000898D02*
X011355Y003265D01*
X011385Y003339D02*
X013750Y003339D01*
X013815Y003181D02*
X011320Y003181D01*
X011197Y003044D02*
X011197Y000898D01*
X011670Y000898D02*
X011670Y004047D01*
X011827Y004047D02*
X011827Y000898D01*
X011985Y000898D02*
X011985Y004047D01*
X012083Y004126D02*
X012163Y004126D01*
X012142Y004146D02*
X012142Y000898D01*
X012300Y000898D02*
X012300Y004047D01*
X012457Y004047D02*
X012457Y000898D01*
X012615Y000898D02*
X012615Y004047D01*
X012772Y004047D02*
X012772Y000898D01*
X012930Y000898D02*
X012930Y004146D01*
X012909Y004126D02*
X012989Y004126D01*
X013087Y004067D02*
X013087Y000898D01*
X013245Y000898D02*
X013245Y004067D01*
X013402Y004067D02*
X013402Y000898D01*
X013875Y000898D02*
X013875Y003107D01*
X013958Y003024D02*
X011177Y003024D01*
X011690Y004500D02*
X011355Y004835D01*
X011355Y005691D01*
X011818Y006154D01*
X011235Y006331D02*
X008543Y006331D01*
X008599Y006173D02*
X011211Y006173D01*
X011781Y006760D02*
X011854Y006760D01*
X011818Y006796D01*
X011781Y006760D01*
X011827Y006760D02*
X011827Y006786D01*
X012281Y006547D02*
X012318Y006511D01*
X012354Y006547D01*
X012281Y006547D01*
X012300Y006547D02*
X012300Y006529D01*
X012818Y006154D02*
X011833Y005169D01*
X011833Y005144D01*
X012142Y004835D01*
X013658Y004835D01*
X013973Y005150D01*
X013363Y005169D02*
X012536Y005169D01*
X012909Y005543D02*
X012989Y005543D01*
X012938Y005547D02*
X012905Y005547D01*
X012949Y005503D01*
X013033Y005586D01*
X012938Y005547D01*
X012930Y005547D02*
X012930Y005523D01*
X011833Y005169D02*
X011709Y005169D01*
X011709Y004500D02*
X011690Y004500D01*
X011709Y004500D02*
X012536Y004500D01*
X014032Y002950D02*
X014032Y000898D01*
X015385Y003339D02*
X015655Y003339D01*
X015864Y004283D02*
X015177Y004283D01*
X015134Y004326D02*
X015134Y004402D01*
X015922Y004402D02*
X015922Y004341D01*
X020961Y004400D02*
X020961Y004402D01*
X021349Y003496D02*
X025683Y003496D01*
X025686Y003391D02*
X025686Y000898D01*
X025843Y000898D02*
X025843Y002983D01*
X025820Y003024D02*
X021082Y003024D01*
X021119Y003060D02*
X021119Y000898D01*
X021276Y000898D02*
X021276Y003303D01*
X021291Y003339D02*
X025700Y003339D01*
X025742Y003181D02*
X021226Y003181D01*
X023009Y004565D02*
X023009Y000898D01*
X026316Y004492D02*
X026316Y004941D01*
X027103Y004941D02*
X027103Y004492D01*
X027644Y003969D02*
X027856Y003969D01*
X027890Y003935D02*
X027890Y000898D01*
X028048Y000898D02*
X028048Y003827D01*
X028076Y003811D02*
X027698Y003811D01*
X028205Y003749D02*
X028205Y000898D01*
X028363Y000898D02*
X028363Y003707D01*
X028520Y003690D02*
X028520Y000898D01*
X028678Y000898D02*
X028678Y003690D01*
X028835Y003728D02*
X028835Y000898D01*
X029465Y001134D02*
X001512Y001134D01*
X001512Y001291D02*
X029465Y001291D01*
X029465Y001449D02*
X001512Y001449D01*
X001512Y001606D02*
X029465Y001606D01*
X029465Y001764D02*
X001512Y001764D01*
X001512Y001921D02*
X029465Y001921D01*
X029465Y005201D02*
X029381Y005347D01*
X029190Y005538D01*
X028993Y005651D01*
X028993Y008614D01*
X027595Y008614D01*
X027595Y008417D01*
X027745Y008417D01*
X027917Y008417D01*
X028146Y008417D01*
X028284Y008279D01*
X028284Y008144D01*
X028454Y007974D01*
X028520Y007814D01*
X028520Y007688D01*
X028520Y008614D01*
X028363Y008614D02*
X028363Y008065D01*
X028365Y008063D02*
X029465Y008063D01*
X029465Y008220D02*
X028284Y008220D01*
X028205Y008358D02*
X028205Y008614D01*
X028048Y008614D02*
X028048Y008417D01*
X028185Y008378D02*
X029465Y008378D01*
X029465Y008535D02*
X029465Y005201D01*
X029465Y005228D02*
X029449Y005228D01*
X029465Y005386D02*
X029342Y005386D01*
X029308Y005420D02*
X029308Y008535D01*
X029465Y008535D02*
X029072Y008535D01*
X027595Y008535D01*
X027733Y008614D02*
X027733Y008417D01*
X027890Y008417D02*
X027890Y008614D01*
X028678Y008614D02*
X028678Y007219D01*
X028638Y007258D02*
X028638Y007570D01*
X028520Y007688D01*
X028520Y007748D02*
X029465Y007748D01*
X029465Y007591D02*
X028618Y007591D01*
X028638Y007433D02*
X029465Y007433D01*
X029465Y007276D02*
X028638Y007276D01*
X028638Y007258D02*
X028927Y006970D01*
X028993Y006811D01*
X028993Y006638D01*
X028993Y005651D01*
X028993Y005701D02*
X029465Y005701D01*
X029465Y005858D02*
X028993Y005858D01*
X028993Y006016D02*
X029465Y006016D01*
X029465Y006173D02*
X028993Y006173D01*
X028993Y006331D02*
X029465Y006331D01*
X029465Y006488D02*
X028993Y006488D01*
X028993Y006646D02*
X029465Y006646D01*
X029465Y006803D02*
X028993Y006803D01*
X028931Y006961D02*
X029465Y006961D01*
X029465Y007118D02*
X028778Y007118D01*
X028835Y007061D02*
X028835Y008614D01*
X028993Y008614D02*
X029072Y008535D01*
X029150Y008535D02*
X029150Y005560D01*
X029180Y005543D02*
X029465Y005543D01*
X028127Y005858D02*
X027735Y005858D01*
X027536Y006961D02*
X027457Y006961D01*
X027457Y007118D02*
X027536Y007118D01*
X027536Y007276D02*
X027457Y007276D01*
X027457Y007433D02*
X027536Y007433D01*
X028483Y007906D02*
X029465Y007906D01*
X028993Y009323D02*
X028688Y009323D01*
X028993Y009323D01*
X028993Y009520D01*
X029072Y009520D02*
X028656Y009520D01*
X028688Y009442D01*
X028688Y009323D01*
X028678Y009466D02*
X028678Y009520D01*
X028672Y009480D02*
X029465Y009480D01*
X029465Y009520D02*
X029465Y009402D01*
X029072Y009402D01*
X028993Y009323D01*
X028835Y009323D02*
X028835Y009520D01*
X029072Y009520D02*
X029465Y009520D01*
X029308Y009520D02*
X029308Y009402D01*
X029150Y009402D02*
X029150Y009520D01*
X024453Y007197D02*
X023894Y006638D01*
X023894Y006016D01*
X023619Y006468D02*
X023600Y006468D01*
X023560Y006429D01*
X023520Y006468D01*
X023099Y006468D01*
X023099Y006694D01*
X023110Y006683D01*
X023333Y006591D01*
X023574Y006591D01*
X023619Y006609D01*
X023619Y006583D01*
X023619Y006468D01*
X023619Y006488D02*
X023099Y006488D01*
X023166Y006468D02*
X023166Y006660D01*
X023200Y006646D02*
X023099Y006646D01*
X023323Y006594D02*
X023323Y006468D01*
X023481Y006468D02*
X023481Y006591D01*
X023225Y006016D02*
X022666Y006016D01*
X007753Y013949D02*
X007753Y013953D01*
X007595Y014110D01*
X007595Y013929D01*
X007714Y013929D01*
X007733Y013949D01*
X007753Y013949D01*
X007733Y013948D02*
X007733Y013972D01*
X007658Y014047D02*
X007595Y014047D01*
X006847Y014047D02*
X006780Y014047D01*
X006787Y014050D02*
X006847Y014110D01*
X006847Y014004D01*
X006847Y013929D01*
X006631Y013929D01*
X006631Y013945D01*
X006605Y014008D01*
X006685Y014008D01*
X006787Y014050D01*
X006788Y014051D02*
X006788Y013929D01*
X006631Y013947D02*
X006631Y014008D01*
X006257Y013870D02*
X006257Y013496D01*
X005587Y013496D02*
X005587Y013949D01*
X005607Y013969D01*
X002792Y013103D02*
X002792Y013062D01*
X002774Y013044D01*
X002658Y013044D01*
X002521Y012987D01*
X002497Y012963D01*
X002497Y013146D01*
X002713Y013362D01*
X002713Y013182D01*
X002792Y013103D01*
X002792Y013102D02*
X002497Y013102D01*
X002536Y013185D02*
X002536Y012994D01*
X002694Y013044D02*
X002694Y013343D01*
X002713Y013260D02*
X002611Y013260D01*
X001806Y013417D02*
X001512Y013417D01*
X001512Y013260D02*
X001788Y013260D01*
X001788Y013102D02*
X001512Y013102D01*
X001512Y012945D02*
X001788Y012945D01*
X001788Y012787D02*
X001512Y012787D01*
X001512Y012630D02*
X001788Y012630D01*
X001788Y012472D02*
X001512Y012472D01*
X001512Y012315D02*
X001788Y012315D01*
X001788Y012157D02*
X001512Y012157D01*
X001512Y012000D02*
X001788Y012000D01*
X001788Y011843D02*
X001512Y011843D01*
X001512Y011685D02*
X001788Y011685D01*
X001788Y011528D02*
X001512Y011528D01*
X001512Y011370D02*
X001788Y011370D01*
X001788Y011213D02*
X001512Y011213D01*
X001512Y011055D02*
X001788Y011055D01*
X001788Y010898D02*
X001512Y010898D01*
X001512Y010740D02*
X001788Y010740D01*
X001788Y010583D02*
X001512Y010583D01*
X001512Y010425D02*
X001788Y010425D01*
X001788Y010268D02*
X001512Y010268D01*
X001512Y010110D02*
X001788Y010110D01*
X001788Y009953D02*
X001512Y009953D01*
X001512Y009795D02*
X001788Y009795D01*
X001788Y009638D02*
X001512Y009638D01*
X001512Y009480D02*
X001788Y009480D01*
X001788Y009323D02*
X001512Y009323D01*
X001512Y009165D02*
X001788Y009165D01*
X001788Y009008D02*
X001512Y009008D01*
X001512Y008850D02*
X001788Y008850D01*
X001788Y008693D02*
X001512Y008693D01*
X001512Y008535D02*
X001788Y008535D01*
X001788Y008378D02*
X001512Y008378D01*
X001512Y008220D02*
X001788Y008220D01*
X001788Y008063D02*
X001512Y008063D01*
X001512Y007906D02*
X001788Y007906D01*
X001788Y007748D02*
X001512Y007748D01*
X001512Y007591D02*
X001788Y007591D01*
X001788Y007433D02*
X001512Y007433D01*
X001512Y007276D02*
X001788Y007276D01*
X001788Y007118D02*
X001512Y007118D01*
X001512Y006961D02*
X001788Y006961D01*
X007005Y003094D02*
X006964Y002997D01*
X006827Y002860D01*
X006827Y002787D01*
X007339Y002787D01*
X007195Y002847D01*
X007045Y002997D01*
X007005Y003094D01*
X007034Y003024D02*
X006975Y003024D01*
X006946Y002978D02*
X006946Y002787D01*
X006833Y002866D02*
X007176Y002866D01*
X007260Y002820D02*
X007260Y002787D01*
X007103Y002787D02*
X007103Y002939D01*
X020410Y026016D02*
X020430Y026016D01*
X020489Y026074D02*
X020489Y026094D01*
X020646Y026094D02*
X020646Y026094D01*
X020804Y026094D02*
X020804Y026094D01*
X020961Y026094D02*
X020961Y026094D01*
X021119Y026094D02*
X021119Y026074D01*
X021276Y026094D02*
X021276Y026035D01*
X021434Y026035D02*
X021434Y026094D01*
X021591Y026094D02*
X021591Y026035D01*
D37*
X020804Y024520D03*
X022772Y022945D03*
X023166Y024126D03*
X018658Y020307D03*
X018284Y020307D03*
X017162Y019382D03*
X016886Y019106D03*
X017516Y018476D03*
X017792Y018752D03*
X017064Y018398D03*
X016847Y018122D03*
X017182Y017315D03*
X017438Y017039D03*
X018048Y017453D03*
X018442Y017453D03*
X018835Y017472D03*
X019229Y017472D03*
X019623Y017472D03*
X020312Y017276D03*
X020646Y017768D03*
X019839Y018555D03*
X020154Y018752D03*
X020509Y018752D03*
X021197Y019795D03*
X021985Y019795D03*
X022379Y019402D03*
X022379Y019008D03*
X022772Y019795D03*
X022418Y017945D03*
X021886Y017413D03*
X023245Y017098D03*
X022379Y016252D03*
X024741Y016646D03*
X024741Y017039D03*
X025134Y019402D03*
X019623Y015228D03*
X019623Y014559D03*
X018166Y014205D03*
X017654Y014283D03*
X017241Y014283D03*
X016729Y013909D03*
X016355Y014106D03*
X016867Y013496D03*
X016473Y012709D03*
X015292Y013083D03*
X015312Y013476D03*
X015390Y013850D03*
X015410Y014205D03*
X015430Y014559D03*
X015528Y014894D03*
X015883Y015051D03*
X016178Y015287D03*
X015981Y016764D03*
X015627Y016921D03*
X016040Y017610D03*
X015686Y017630D03*
X018028Y016232D03*
X018304Y016449D03*
X017654Y015071D03*
X018402Y013220D03*
X018835Y012787D03*
X020410Y011921D03*
X021709Y011213D03*
X021985Y010937D03*
X022457Y011685D03*
X022201Y011941D03*
X021355Y009894D03*
X021631Y009638D03*
X021985Y009638D03*
X021985Y008929D03*
X021631Y008929D03*
X021257Y008929D03*
X011749Y016646D03*
X011355Y016665D03*
X011001Y016606D03*
X010961Y016252D03*
X010961Y015858D03*
X009977Y016055D03*
X009780Y016370D03*
X009386Y016488D03*
X009386Y017315D03*
X008757Y015583D03*
X008245Y015268D03*
X008757Y014972D03*
X008205Y014480D03*
X006906Y015622D03*
X006237Y015661D03*
X005725Y015622D03*
X005528Y016528D03*
X006453Y016843D03*
X006847Y017335D03*
X005587Y017413D03*
X005095Y018535D03*
X005449Y019402D03*
X005843Y019402D03*
X006237Y019402D03*
X006631Y019402D03*
X007024Y019402D03*
X007044Y020976D03*
X005253Y023339D03*
X004268Y023339D03*
X003875Y022945D03*
X002300Y021370D03*
X004544Y016606D03*
X005607Y013969D03*
X006257Y013870D03*
X006257Y011941D03*
X004662Y011921D03*
X002733Y012669D03*
X006178Y010287D03*
X007772Y011173D03*
X009249Y013083D03*
X010331Y012669D03*
X010961Y013083D03*
X012595Y022669D03*
X011749Y023083D03*
X011749Y023732D03*
X012201Y023713D03*
X014898Y023280D03*
X014898Y022630D03*
X016453Y023969D03*
X016886Y023220D03*
D38*
X015745Y018220D02*
X015292Y018220D01*
X021001Y013240D02*
X021257Y013496D01*
X021001Y013240D02*
X021001Y013102D01*
X021001Y012709D01*
X021001Y012512D01*
X022379Y011134D01*
X023560Y009953D01*
X023792Y009953D01*
X023831Y009914D01*
X023619Y009702D01*
X023619Y009286D01*
X023619Y008772D01*
X022666Y007819D01*
X022666Y006016D01*
X022666Y004835D01*
X014111Y004835D01*
X013776Y004500D01*
X013363Y004500D01*
X022182Y012709D02*
X022772Y012709D01*
X022182Y012709D02*
X022182Y013240D01*
X021926Y013496D01*
X023953Y011134D02*
X024741Y011134D01*
X025528Y011134D01*
X024741Y011134D02*
X024741Y009914D01*
X024741Y008772D01*
X025194Y008772D01*
X024741Y008772D02*
X024288Y008772D01*
X025863Y008772D02*
X025863Y009702D01*
X025651Y009914D01*
X025690Y009953D01*
X026709Y009953D01*
X027172Y009953D01*
X029396Y009953D01*
X027172Y008969D02*
X027162Y008959D01*
X027162Y007984D01*
X026906Y007728D01*
X026906Y007197D01*
X026709Y007000D01*
X026709Y005898D01*
X028087Y007197D02*
X028087Y007728D01*
X027831Y007984D01*
X028087Y007197D02*
X028560Y006724D01*
X028560Y004717D01*
X021985Y018220D02*
X021532Y018220D01*
X027103Y019067D02*
X027312Y018858D01*
X028384Y018858D01*
X028284Y019858D02*
X027225Y019858D01*
X027103Y019736D01*
D39*
X021985Y018220D03*
X022772Y012709D03*
X023953Y011134D03*
X024741Y011134D03*
X025528Y011134D03*
X017654Y008772D03*
X016473Y010346D03*
X015292Y018220D03*
X008599Y019402D03*
X004662Y019402D03*
X024544Y025642D03*
D40*
X023953Y025642D01*
X023697Y025642D01*
X023363Y025307D01*
X022890Y025307D01*
X022890Y024933D02*
X022556Y024933D01*
X022379Y025110D01*
X022379Y025504D01*
X022556Y025681D01*
X022890Y025681D01*
X022890Y024933D02*
X023914Y024933D01*
X023953Y024972D01*
X024012Y024913D01*
X025922Y024913D01*
X026316Y024520D01*
X026316Y023339D01*
X026709Y022945D01*
X029071Y022945D01*
X029465Y022551D01*
X029465Y015071D01*
X029071Y014677D01*
X027103Y014677D01*
X026709Y014283D01*
X026709Y009953D01*
X027172Y008969D02*
X029396Y008969D01*
X023619Y009286D02*
X019502Y009286D01*
X019229Y009559D01*
X015292Y009559D01*
X014898Y009953D01*
X014898Y011331D01*
X015686Y012118D01*
X015745Y012315D02*
X016867Y012315D01*
X017260Y012709D01*
X017713Y012709D01*
X016473Y010799D02*
X015823Y010799D01*
X015686Y010937D01*
X016473Y010799D02*
X016473Y010346D01*
X017654Y008772D02*
X018107Y008772D01*
X018223Y008656D01*
X018223Y007154D01*
X022379Y011134D02*
X023560Y012315D01*
X023560Y016252D01*
X022024Y017787D01*
X021237Y017787D01*
X020863Y018161D01*
X020863Y018220D01*
X023560Y016311D02*
X026316Y019067D01*
X027103Y019067D01*
X021867Y025681D02*
X021354Y025681D01*
X020843Y025681D01*
X020804Y025642D01*
X016837Y018644D02*
X016808Y018614D01*
X015292Y018614D01*
X014898Y018614D01*
X014564Y018280D01*
X009780Y018280D01*
X009743Y018280D01*
X009743Y019439D01*
X009386Y019795D01*
X003481Y019795D01*
X003087Y019402D01*
X003087Y017886D01*
X003146Y017827D01*
X003146Y017453D01*
X003146Y017020D01*
X004662Y018949D02*
X004662Y019402D01*
X007737Y022626D02*
X008674Y022626D01*
X008993Y022945D01*
X008993Y023791D01*
X008993Y024461D02*
X007827Y025626D01*
X007737Y025626D01*
X008599Y019402D02*
X008599Y018949D01*
X008678Y018358D02*
X008599Y018280D01*
X008678Y018358D02*
X009662Y018358D01*
X003146Y013496D02*
X003146Y012669D01*
X002733Y012669D01*
X004268Y010287D02*
X005449Y010287D01*
X006178Y010287D01*
X007772Y011173D02*
X007772Y011843D01*
D41*
X006808Y012669D02*
X006808Y013496D01*
X006808Y012669D02*
X006257Y012669D01*
X006257Y011941D01*
X004662Y011921D02*
X003068Y011921D01*
X002457Y011311D01*
X002457Y006961D01*
X002851Y006567D01*
X004111Y006567D01*
X004156Y006522D01*
X004268Y006409D01*
X006237Y006409D01*
X006631Y006409D01*
X007418Y007197D01*
X007418Y008772D01*
X009977Y011331D01*
X010961Y011331D01*
X010961Y013083D01*
X009249Y013083D02*
X009249Y013496D01*
X008697Y013496D01*
X009249Y013496D02*
X009249Y012669D01*
X010961Y011331D02*
X014898Y011331D01*
X015686Y012118D02*
X015745Y012177D01*
X015745Y012315D01*
X015745Y013496D01*
X016414Y018220D02*
X016837Y018644D01*
X017595Y019402D01*
X019229Y019402D01*
X019233Y019406D01*
X019233Y020185D01*
X019229Y019402D02*
X020410Y019402D01*
X020804Y019008D01*
X020804Y018280D01*
X023461Y018614D02*
X023973Y018614D01*
X024012Y018575D01*
X024012Y019402D02*
X023461Y019402D01*
X024682Y020228D02*
X025134Y020681D01*
X025134Y021764D01*
X024703Y022195D01*
X024703Y023157D01*
X021354Y023889D02*
X021197Y023732D01*
X018501Y023732D01*
X018442Y023791D01*
X018276Y023626D01*
X017286Y023626D01*
X016786Y023626D01*
X016473Y023313D01*
X016473Y022945D01*
X014446Y022945D01*
X014111Y023280D01*
X014111Y023339D01*
X013776Y023673D01*
X013776Y023772D02*
X013381Y023376D01*
X012799Y023376D01*
X012797Y023378D01*
X011512Y023378D01*
X011355Y023535D01*
X011355Y025150D01*
X011197Y025307D01*
X010174Y025307D01*
X009327Y024461D01*
X008993Y024461D01*
X012799Y024876D02*
X012799Y025570D01*
X013323Y026094D01*
X014111Y026094D01*
X014446Y025760D01*
X014446Y025425D01*
X016749Y025425D01*
X017260Y024913D01*
X017260Y024652D01*
X017286Y024626D02*
X018276Y024626D01*
X018442Y024461D01*
X020745Y024461D01*
X020804Y024520D01*
X020804Y024972D01*
X021354Y025681D02*
X021354Y023889D01*
X023560Y016311D02*
X023560Y016252D01*
X009780Y018280D02*
X009701Y018358D01*
X009662Y018358D01*
X004156Y007372D02*
X004156Y006522D01*
X006237Y006409D02*
X006237Y004441D01*
X006631Y004047D01*
X007634Y004047D01*
X008205Y003476D01*
X008205Y002866D01*
X007812Y002472D01*
X006552Y002472D01*
X006512Y002512D01*
X006512Y003299D01*
X007024Y003772D02*
X005961Y003772D01*
X005449Y003260D01*
X005056Y003260D01*
X005056Y003319D01*
X004249Y003319D02*
X003304Y003319D01*
X003284Y003299D01*
X002300Y003299D02*
X002300Y002866D01*
X002694Y002472D01*
X006552Y002472D01*
X007497Y003299D02*
X007024Y003772D01*
D42*
X004662Y011921D02*
X004662Y012276D01*
X004268Y012669D01*
M02*
