%
M48
M72
T01C0.0157
T02C0.0236
T03C0.0320
T04C0.0335
T05C0.0394
T06C0.0400
T07C0.0630
T08C0.1180
T09C0.1260
T10C0.1280
%
T01
X5528Y16528
X8757Y15583
X15410Y14205
X18402Y13220
X15528Y14894
X17654Y14283
X15883Y15051
X18166Y14205
X9386Y17315
X9386Y16488
X16867Y13496
X15292Y13083
X6237Y15661
X8757Y14972
X16729Y13909
X15312Y13476
X4544Y16606
X8245Y15268
X16355Y14106
X15390Y13850
X6453Y16843
X9977Y16055
X16178Y15287
X17654Y15071
X5095Y18535
X9780Y16370
X10961Y15858
X5843Y19402
X10961Y16252
X6237Y19402
X11001Y16606
X6631Y19402
X11355Y16665
X7024Y19402
X11749Y16646
X5449Y19402
X15627Y16921
X17182Y17315
X16847Y18122
X15686Y17630
X17438Y17039
X15981Y16764
X15430Y14559
X17241Y14283
X18304Y16449
X18658Y20307
X16886Y23220
X16453Y23969
X18028Y16232
X18284Y20307
X14898Y22630
X14898Y23280
X7044Y20976
X19623Y17472
X19229Y17472
X19839Y18555
X3875Y22945
X20312Y17276
X4268Y23339
X17516Y18476
X16886Y19106
X12201Y23713
X12595Y22669
X17792Y18752
X17162Y19382
X11749Y23732
X11749Y23083
X6178Y10287
X21197Y19795
X22772Y22945
X23166Y24126
X20804Y24520
X2733Y12669
X7772Y11173
X6257Y13870
X10331Y12669
X16473Y12709
X18835Y12787
X20410Y11921
X25134Y19402
X20646Y17768
X2300Y21370
X9249Y13083
X4662Y11921
X10961Y13083
X6257Y11941
X21886Y17413
X22418Y17945
X19623Y14559
X19623Y15228
X22379Y16252
X23245Y17098
X22772Y19795
X21985Y19795
X20509Y18752
X24741Y16646
X20154Y18752
X24741Y17039
X21985Y8929
X21985Y9638
X21985Y10937
X22457Y11685
X21631Y8929
X21631Y9638
X21709Y11213
X22201Y11941
X21257Y8929
X21355Y9894
X18835Y17472
X5253Y23339
X6847Y17335
X5587Y17413
X17064Y18398
X16040Y17610
X5607Y13969
X5725Y15622
X6906Y15622
X8205Y14480
X22379Y19008
X18048Y17453
X22379Y19402
X18442Y17453
T02
X23953Y11134
X25528Y11134
X24741Y11134
X22772Y12709
X4662Y19402
X8599Y19402
X16473Y10346
X17654Y8772
X15292Y18220
X21985Y18220
X24544Y25642
T03
X4737Y22626
X5737Y22626
X5737Y25626
X4737Y25626
X6737Y22626
X7737Y22626
X6737Y25626
X7737Y25626
X24453Y7197
X23453Y7197
T04
X20808Y21343
X19627Y21343
X28284Y10543
X28284Y9362
T05
X6656Y8372
X6156Y7372
X5656Y8372
X4656Y8372
X3656Y8372
X5156Y7372
X4156Y7372
X3156Y7372
X2300Y3299
X7497Y3299
X6512Y3299
X3284Y3299
T06
X11318Y7154
X11818Y6154
X12318Y7154
X12818Y6154
X13318Y7154
X13818Y6154
X17223Y7154
X17723Y6154
X18223Y7154
X18723Y6154
X19223Y7154
X19723Y6154
X28284Y15858
X28384Y16858
X28284Y17858
X28384Y18858
X28284Y19858
X28384Y20858
T07
X1906Y6055
X7890Y6055
T08
X26709Y5898
X26709Y3535
X28560Y4717
T09
X2656Y4872
X7156Y4872
T10
X10568Y3654
X14568Y3654
X16473Y3654
X20473Y3654
M30
