G75*
G70*
%OFA0B0*%
%FSLAX24Y24*%
%IPPOS*%
%LPD*%
%AMOC8*
5,1,8,0,0,1.08239X$1,22.5*
%
%ADD10C,0.0070*%
%ADD11C,0.0520*%
%ADD12C,0.0740*%
%ADD13R,0.0740X0.0740*%
%ADD14C,0.0945*%
%ADD15C,0.0594*%
%ADD16C,0.1580*%
%ADD17C,0.0277*%
%ADD18C,0.0079*%
%ADD19C,0.0356*%
%ADD20C,0.0118*%
D10*
X001547Y000933D02*
X001968Y001353D01*
X001968Y001458D01*
X001863Y001563D01*
X001653Y001563D01*
X001547Y001458D01*
X001547Y000933D02*
X001968Y000933D01*
X002192Y001038D02*
X002612Y001458D01*
X002612Y001038D01*
X002507Y000933D01*
X002297Y000933D01*
X002192Y001038D01*
X002192Y001458D01*
X002297Y001563D01*
X002507Y001563D01*
X002612Y001458D01*
X002836Y001353D02*
X003047Y001563D01*
X003047Y000933D01*
X003257Y000933D02*
X002836Y000933D01*
X003481Y001038D02*
X003481Y001458D01*
X003586Y001563D01*
X003796Y001563D01*
X003901Y001458D01*
X003481Y001038D01*
X003586Y000933D01*
X003796Y000933D01*
X003901Y001038D01*
X003901Y001458D01*
X004126Y001248D02*
X004546Y001248D01*
X004770Y001038D02*
X004770Y001458D01*
X004875Y001563D01*
X005085Y001563D01*
X005190Y001458D01*
X004770Y001038D01*
X004875Y000933D01*
X005085Y000933D01*
X005190Y001038D01*
X005190Y001458D01*
X005415Y001563D02*
X005835Y001563D01*
X005835Y001458D01*
X005415Y001038D01*
X005415Y000933D01*
X006059Y001248D02*
X006479Y001248D01*
X006704Y001353D02*
X006914Y001563D01*
X006914Y000933D01*
X006704Y000933D02*
X007124Y000933D01*
X007348Y000933D02*
X007769Y000933D01*
X007558Y000933D02*
X007558Y001563D01*
X007348Y001353D01*
D11*
X007737Y022366D02*
X007737Y022886D01*
X006737Y022886D02*
X006737Y022366D01*
X005737Y022366D02*
X005737Y022886D01*
X004737Y022886D02*
X004737Y022366D01*
X004737Y025366D02*
X004737Y025886D01*
X005737Y025886D02*
X005737Y025366D01*
X006737Y025366D02*
X006737Y025886D01*
X007737Y025886D02*
X007737Y025366D01*
D12*
X006656Y008372D03*
X005656Y008372D03*
X004656Y008372D03*
X003656Y008372D03*
X004156Y007372D03*
X005156Y007372D03*
X006156Y007372D03*
X011318Y007154D03*
X012318Y007154D03*
X013318Y007154D03*
X013818Y006154D03*
X012818Y006154D03*
X011818Y006154D03*
X017223Y007154D03*
X017723Y006154D03*
X018723Y006154D03*
X018223Y007154D03*
X019223Y007154D03*
X019723Y006154D03*
X023453Y007197D03*
X024453Y007197D03*
X028284Y015858D03*
X028384Y016858D03*
X028284Y017858D03*
X028384Y018858D03*
X028284Y019858D03*
X028384Y020858D03*
D13*
X003156Y007372D03*
D14*
X001906Y006055D03*
X007890Y006055D03*
D15*
X007497Y003299D03*
X006512Y003299D03*
X003284Y003299D03*
X002300Y003299D03*
D16*
X026709Y003535D03*
X028560Y004717D03*
X026709Y005898D03*
D17*
X021985Y008929D03*
X021631Y008929D03*
X021257Y008929D03*
X021631Y009638D03*
X021985Y009638D03*
X021355Y009894D03*
X021985Y010937D03*
X021709Y011213D03*
X022201Y011941D03*
X022457Y011685D03*
X020410Y011921D03*
X018835Y012787D03*
X018402Y013220D03*
X018166Y014205D03*
X017654Y014283D03*
X017241Y014283D03*
X016729Y013909D03*
X016355Y014106D03*
X016867Y013496D03*
X016473Y012709D03*
X015292Y013083D03*
X015312Y013476D03*
X015390Y013850D03*
X015410Y014205D03*
X015430Y014559D03*
X015528Y014894D03*
X015883Y015051D03*
X016178Y015287D03*
X015981Y016764D03*
X015627Y016921D03*
X016040Y017610D03*
X015686Y017630D03*
X016847Y018122D03*
X017064Y018398D03*
X017516Y018476D03*
X017792Y018752D03*
X017162Y019382D03*
X016886Y019106D03*
X018284Y020307D03*
X018658Y020307D03*
X020154Y018752D03*
X020509Y018752D03*
X019839Y018555D03*
X020646Y017768D03*
X020312Y017276D03*
X019623Y017472D03*
X019229Y017472D03*
X018835Y017472D03*
X018442Y017453D03*
X018048Y017453D03*
X017438Y017039D03*
X017182Y017315D03*
X018028Y016232D03*
X018304Y016449D03*
X019623Y015228D03*
X019623Y014559D03*
X017654Y015071D03*
X021886Y017413D03*
X022418Y017945D03*
X023245Y017098D03*
X022379Y016252D03*
X024741Y016646D03*
X024741Y017039D03*
X022379Y019008D03*
X022379Y019402D03*
X022772Y019795D03*
X021985Y019795D03*
X021197Y019795D03*
X022772Y022945D03*
X023166Y024126D03*
X020804Y024520D03*
X016886Y023220D03*
X016453Y023969D03*
X014898Y023280D03*
X014898Y022630D03*
X012595Y022669D03*
X011749Y023083D03*
X011749Y023732D03*
X012201Y023713D03*
X007044Y020976D03*
X007024Y019402D03*
X006631Y019402D03*
X006237Y019402D03*
X005843Y019402D03*
X005449Y019402D03*
X005095Y018535D03*
X005587Y017413D03*
X006453Y016843D03*
X006847Y017335D03*
X005528Y016528D03*
X005725Y015622D03*
X006237Y015661D03*
X006906Y015622D03*
X008245Y015268D03*
X008757Y014972D03*
X008757Y015583D03*
X009386Y016488D03*
X009780Y016370D03*
X009977Y016055D03*
X010961Y015858D03*
X010961Y016252D03*
X011001Y016606D03*
X011355Y016665D03*
X011749Y016646D03*
X009386Y017315D03*
X008205Y014480D03*
X009249Y013083D03*
X010331Y012669D03*
X010961Y013083D03*
X007772Y011173D03*
X006257Y011941D03*
X004662Y011921D03*
X002733Y012669D03*
X005607Y013969D03*
X006257Y013870D03*
X004544Y016606D03*
X002300Y021370D03*
X003875Y022945D03*
X004268Y023339D03*
X005253Y023339D03*
X006178Y010287D03*
X025134Y019402D03*
D18*
X023695Y017970D02*
X027759Y017970D01*
X027757Y017963D02*
X027757Y017753D01*
X027837Y017559D01*
X027985Y017411D01*
X028163Y017338D01*
X028085Y017305D01*
X027937Y017157D01*
X027857Y016963D01*
X027857Y016753D01*
X027937Y016559D01*
X028085Y016411D01*
X028163Y016379D01*
X027985Y016305D01*
X027837Y016157D01*
X027757Y015963D01*
X027757Y015753D01*
X027837Y015559D01*
X027985Y015411D01*
X028179Y015331D01*
X028389Y015331D01*
X028583Y015411D01*
X028731Y015559D01*
X028812Y015753D01*
X028812Y015963D01*
X028731Y016157D01*
X028583Y016305D01*
X028505Y016338D01*
X028683Y016411D01*
X028831Y016559D01*
X028912Y016753D01*
X028912Y016963D01*
X028831Y017157D01*
X028683Y017305D01*
X028505Y017379D01*
X028583Y017411D01*
X028731Y017559D01*
X028812Y017753D01*
X028812Y017963D01*
X028731Y018157D01*
X028583Y018305D01*
X028505Y018338D01*
X028683Y018411D01*
X028831Y018559D01*
X028912Y018753D01*
X028912Y018963D01*
X028831Y019157D01*
X028683Y019305D01*
X028489Y019386D01*
X028478Y019386D01*
X028480Y019386D01*
X028551Y019423D01*
X028616Y019470D01*
X028673Y019526D01*
X028720Y019591D01*
X028756Y019663D01*
X028781Y019739D01*
X028793Y019818D01*
X028793Y019819D01*
X028324Y019819D01*
X028324Y019898D01*
X028793Y019898D01*
X028781Y019978D01*
X028756Y020054D01*
X028720Y020125D01*
X028673Y020190D01*
X028616Y020247D01*
X028551Y020294D01*
X028480Y020330D01*
X028403Y020355D01*
X028345Y020364D01*
X028345Y020819D01*
X028423Y020819D01*
X028423Y020349D01*
X028424Y020349D01*
X028503Y020361D01*
X028580Y020386D01*
X028651Y020423D01*
X028716Y020470D01*
X028773Y020526D01*
X028820Y020591D01*
X028856Y020663D01*
X028881Y020739D01*
X028893Y020818D01*
X028893Y020819D01*
X028424Y020819D01*
X028424Y020898D01*
X028893Y020898D01*
X028881Y020978D01*
X028856Y021054D01*
X028820Y021125D01*
X028773Y021190D01*
X028716Y021247D01*
X028651Y021294D01*
X028580Y021330D01*
X028503Y021355D01*
X028424Y021368D01*
X028423Y021368D01*
X028423Y020898D01*
X028345Y020898D01*
X028345Y021368D01*
X028344Y021368D01*
X028265Y021355D01*
X028189Y021330D01*
X028117Y021294D01*
X028052Y021247D01*
X027996Y021190D01*
X027948Y021125D01*
X027912Y021054D01*
X027887Y020978D01*
X027875Y020898D01*
X027875Y020898D01*
X028345Y020898D01*
X028345Y020819D01*
X027875Y020819D01*
X027875Y020818D01*
X027887Y020739D01*
X027912Y020663D01*
X027948Y020591D01*
X027996Y020526D01*
X028052Y020470D01*
X028117Y020423D01*
X028189Y020386D01*
X028265Y020361D01*
X028323Y020352D01*
X028323Y019898D01*
X028245Y019898D01*
X028245Y020368D01*
X028244Y020368D01*
X028165Y020355D01*
X028089Y020330D01*
X028017Y020294D01*
X027952Y020247D01*
X027896Y020190D01*
X027848Y020125D01*
X027812Y020054D01*
X027787Y019978D01*
X027775Y019898D01*
X027775Y019898D01*
X028245Y019898D01*
X028245Y019819D01*
X027775Y019819D01*
X027775Y019818D01*
X027787Y019739D01*
X027812Y019663D01*
X027848Y019591D01*
X027896Y019526D01*
X027952Y019470D01*
X028017Y019423D01*
X028089Y019386D01*
X028165Y019361D01*
X028205Y019355D01*
X028085Y019305D01*
X027937Y019157D01*
X027857Y018963D01*
X027857Y018753D01*
X027937Y018559D01*
X028085Y018411D01*
X028163Y018379D01*
X027985Y018305D01*
X027837Y018157D01*
X027757Y017963D01*
X027757Y017893D02*
X023772Y017893D01*
X023849Y017815D02*
X027757Y017815D01*
X027763Y017738D02*
X023927Y017738D01*
X024004Y017661D02*
X027795Y017661D01*
X027827Y017584D02*
X024081Y017584D01*
X024159Y017506D02*
X027890Y017506D01*
X027967Y017429D02*
X024236Y017429D01*
X024313Y017352D02*
X028129Y017352D01*
X028054Y017274D02*
X024925Y017274D01*
X024909Y017290D02*
X024800Y017336D01*
X024682Y017336D01*
X024573Y017290D01*
X024490Y017207D01*
X024480Y017184D01*
X022716Y018949D01*
X022675Y018949D01*
X022675Y019067D01*
X022630Y019176D01*
X022601Y019205D01*
X022630Y019234D01*
X022675Y019343D01*
X022675Y019460D01*
X022647Y019526D01*
X022713Y019499D01*
X022831Y019499D01*
X022940Y019544D01*
X023023Y019627D01*
X023068Y019736D01*
X023068Y019854D01*
X023023Y019963D01*
X022940Y020046D01*
X022831Y020091D01*
X022713Y020091D01*
X022604Y020046D01*
X022550Y019992D01*
X022207Y019992D01*
X022153Y020046D01*
X022044Y020091D01*
X021926Y020091D01*
X021817Y020046D01*
X021734Y019963D01*
X021689Y019854D01*
X021689Y019736D01*
X021734Y019627D01*
X021817Y019544D01*
X021926Y019499D01*
X022044Y019499D01*
X022110Y019526D01*
X022082Y019460D01*
X022082Y019384D01*
X022080Y019382D01*
X019640Y019382D01*
X019524Y019267D01*
X019465Y019207D01*
X019465Y020521D01*
X019465Y020583D01*
X020410Y020583D01*
X020410Y026094D01*
X029465Y026094D01*
X029465Y004926D01*
X029454Y004974D01*
X029420Y005073D01*
X029374Y005167D01*
X029319Y005255D01*
X029254Y005337D01*
X029180Y005411D01*
X029098Y005476D01*
X029010Y005531D01*
X028916Y005576D01*
X028817Y005611D01*
X028716Y005634D01*
X028612Y005646D01*
X028599Y005646D01*
X028599Y004756D01*
X028520Y004756D01*
X028520Y004677D01*
X027630Y004677D01*
X027630Y004664D01*
X027642Y004561D01*
X027665Y004459D01*
X027700Y004360D01*
X027745Y004266D01*
X027801Y004178D01*
X027866Y004096D01*
X027939Y004022D01*
X028021Y003957D01*
X028109Y003902D01*
X028203Y003857D01*
X028302Y003822D01*
X028404Y003799D01*
X028507Y003787D01*
X028520Y003787D01*
X028520Y004677D01*
X007928Y004677D01*
X007944Y004715D02*
X007824Y004426D01*
X007602Y004205D01*
X007313Y004085D01*
X006999Y004085D01*
X006710Y004205D01*
X006489Y004426D01*
X006369Y004715D01*
X006369Y005029D01*
X006489Y005318D01*
X006710Y005540D01*
X006999Y005659D01*
X007313Y005659D01*
X007454Y005601D01*
X007356Y005698D01*
X007260Y005930D01*
X007260Y006180D01*
X007356Y006412D01*
X007534Y006589D01*
X007765Y006685D01*
X008016Y006685D01*
X008247Y006589D01*
X008424Y006412D01*
X008520Y006180D01*
X008520Y005930D01*
X008424Y005698D01*
X008247Y005521D01*
X008016Y005425D01*
X007765Y005425D01*
X007682Y005460D01*
X007824Y005318D01*
X007944Y005029D01*
X007944Y004715D01*
X007944Y004755D02*
X028520Y004755D01*
X028520Y004756D02*
X027630Y004756D01*
X027630Y004769D01*
X027642Y004872D01*
X027665Y004974D01*
X027700Y005073D01*
X027745Y005167D01*
X027801Y005255D01*
X027866Y005337D01*
X027939Y005411D01*
X028021Y005476D01*
X028109Y005531D01*
X028203Y005576D01*
X028302Y005611D01*
X028404Y005634D01*
X028507Y005646D01*
X028520Y005646D01*
X028520Y004756D01*
X028520Y004832D02*
X028599Y004832D01*
X028599Y004909D02*
X028520Y004909D01*
X028520Y004986D02*
X028599Y004986D01*
X028599Y005064D02*
X028520Y005064D01*
X028520Y005141D02*
X028599Y005141D01*
X028599Y005218D02*
X028520Y005218D01*
X028520Y005296D02*
X028599Y005296D01*
X028599Y005373D02*
X028520Y005373D01*
X028520Y005450D02*
X028599Y005450D01*
X028599Y005527D02*
X028520Y005527D01*
X028520Y005605D02*
X028599Y005605D01*
X028835Y005605D02*
X029465Y005605D01*
X029465Y005682D02*
X027645Y005682D01*
X027657Y005709D02*
X027512Y005361D01*
X027246Y005094D01*
X026898Y004950D01*
X026521Y004950D01*
X026173Y005094D01*
X025906Y005361D01*
X025762Y005709D01*
X025762Y006086D01*
X025906Y006434D01*
X026173Y006701D01*
X026521Y006845D01*
X026898Y006845D01*
X027246Y006701D01*
X027512Y006434D01*
X027657Y006086D01*
X027657Y005709D01*
X027657Y005759D02*
X029465Y005759D01*
X029465Y005836D02*
X027657Y005836D01*
X027657Y005914D02*
X029465Y005914D01*
X029465Y005991D02*
X027657Y005991D01*
X027657Y006068D02*
X029465Y006068D01*
X029465Y006146D02*
X027632Y006146D01*
X027600Y006223D02*
X029465Y006223D01*
X029465Y006300D02*
X027568Y006300D01*
X027536Y006377D02*
X029465Y006377D01*
X029465Y006455D02*
X027492Y006455D01*
X027415Y006532D02*
X029465Y006532D01*
X029465Y006609D02*
X027337Y006609D01*
X027260Y006687D02*
X029465Y006687D01*
X029465Y006764D02*
X027094Y006764D01*
X026907Y006841D02*
X029465Y006841D01*
X029465Y006918D02*
X024909Y006918D01*
X024901Y006898D02*
X024981Y007092D01*
X024981Y007302D01*
X024901Y007496D01*
X024752Y007644D01*
X024558Y007724D01*
X024348Y007724D01*
X024155Y007644D01*
X024006Y007496D01*
X023942Y007341D01*
X023925Y007392D01*
X023889Y007464D01*
X023842Y007529D01*
X023785Y007585D01*
X023720Y007632D01*
X023649Y007669D01*
X023573Y007694D01*
X023493Y007706D01*
X023493Y007236D01*
X023414Y007236D01*
X023414Y007157D01*
X023493Y007157D01*
X023493Y006687D01*
X023493Y006687D01*
X023573Y006700D01*
X023649Y006725D01*
X023720Y006761D01*
X023785Y006808D01*
X023842Y006865D01*
X023889Y006930D01*
X023925Y007001D01*
X023942Y007053D01*
X024006Y006898D01*
X024155Y006750D01*
X024348Y006669D01*
X024558Y006669D01*
X024752Y006750D01*
X024901Y006898D01*
X024844Y006841D02*
X026511Y006841D01*
X026325Y006764D02*
X024766Y006764D01*
X024600Y006687D02*
X026158Y006687D01*
X026081Y006609D02*
X020001Y006609D01*
X020022Y006601D02*
X019828Y006681D01*
X019618Y006681D01*
X019424Y006601D01*
X019276Y006452D01*
X019223Y006325D01*
X019170Y006452D01*
X019022Y006601D01*
X018828Y006681D01*
X018618Y006681D01*
X018424Y006601D01*
X018276Y006452D01*
X018223Y006325D01*
X018170Y006452D01*
X018022Y006601D01*
X017828Y006681D01*
X017618Y006681D01*
X017424Y006601D01*
X017276Y006452D01*
X017196Y006258D01*
X017196Y006049D01*
X017276Y005855D01*
X017424Y005706D01*
X017618Y005626D01*
X017828Y005626D01*
X018022Y005706D01*
X018170Y005855D01*
X018223Y005982D01*
X018276Y005855D01*
X018424Y005706D01*
X018618Y005626D01*
X018828Y005626D01*
X019022Y005706D01*
X019170Y005855D01*
X019223Y005982D01*
X019276Y005855D01*
X019424Y005706D01*
X019618Y005626D01*
X019828Y005626D01*
X020022Y005706D01*
X020170Y005855D01*
X020251Y006049D01*
X020251Y006258D01*
X020170Y006452D01*
X020022Y006601D01*
X020090Y006532D02*
X026004Y006532D01*
X025926Y006455D02*
X020168Y006455D01*
X020201Y006377D02*
X025883Y006377D01*
X025851Y006300D02*
X020233Y006300D01*
X020251Y006223D02*
X025819Y006223D01*
X025786Y006146D02*
X020251Y006146D01*
X020251Y006068D02*
X025762Y006068D01*
X025762Y005991D02*
X020227Y005991D01*
X020195Y005914D02*
X025762Y005914D01*
X025762Y005836D02*
X020152Y005836D01*
X020075Y005759D02*
X025762Y005759D01*
X025773Y005682D02*
X019963Y005682D01*
X019483Y005682D02*
X018963Y005682D01*
X019075Y005759D02*
X019371Y005759D01*
X019294Y005836D02*
X019152Y005836D01*
X019195Y005914D02*
X019251Y005914D01*
X019245Y006377D02*
X019201Y006377D01*
X019168Y006455D02*
X019278Y006455D01*
X019356Y006532D02*
X019090Y006532D01*
X019118Y006626D02*
X018924Y006706D01*
X018776Y006855D01*
X018712Y007010D01*
X018695Y006958D01*
X018659Y006887D01*
X018612Y006822D01*
X018555Y006765D01*
X018490Y006718D01*
X018419Y006681D01*
X018342Y006657D01*
X018263Y006644D01*
X018262Y006644D01*
X018262Y007114D01*
X018184Y007114D01*
X018184Y006644D01*
X018183Y006644D01*
X018104Y006657D01*
X018028Y006681D01*
X017956Y006718D01*
X017891Y006765D01*
X017835Y006822D01*
X017787Y006887D01*
X017751Y006958D01*
X017734Y007010D01*
X017670Y006855D01*
X017522Y006706D01*
X017328Y006626D01*
X017118Y006626D01*
X016924Y006706D01*
X016776Y006855D01*
X016696Y007049D01*
X016696Y007258D01*
X016776Y007452D01*
X016924Y007601D01*
X017118Y007681D01*
X017328Y007681D01*
X017522Y007601D01*
X017670Y007452D01*
X017734Y007298D01*
X017751Y007349D01*
X017787Y007420D01*
X017835Y007485D01*
X017891Y007542D01*
X017956Y007589D01*
X018028Y007626D01*
X018104Y007650D01*
X018183Y007663D01*
X018184Y007663D01*
X018184Y007193D01*
X018262Y007193D01*
X018262Y007663D01*
X018263Y007663D01*
X018342Y007650D01*
X018419Y007626D01*
X018490Y007589D01*
X018555Y007542D01*
X018612Y007485D01*
X018659Y007420D01*
X018695Y007349D01*
X018712Y007298D01*
X018776Y007452D01*
X018924Y007601D01*
X019118Y007681D01*
X019328Y007681D01*
X019522Y007601D01*
X019670Y007452D01*
X019751Y007258D01*
X019751Y007049D01*
X019670Y006855D01*
X019522Y006706D01*
X019328Y006626D01*
X019118Y006626D01*
X019001Y006609D02*
X019445Y006609D01*
X019474Y006687D02*
X024307Y006687D01*
X024140Y006764D02*
X023724Y006764D01*
X023818Y006841D02*
X024063Y006841D01*
X023998Y006918D02*
X023881Y006918D01*
X023923Y006996D02*
X023966Y006996D01*
X023959Y007382D02*
X023929Y007382D01*
X023891Y007459D02*
X023991Y007459D01*
X024047Y007537D02*
X023834Y007537D01*
X023746Y007614D02*
X024125Y007614D01*
X024269Y007691D02*
X023580Y007691D01*
X023493Y007691D02*
X023414Y007691D01*
X023413Y007706D02*
X023334Y007694D01*
X023258Y007669D01*
X023186Y007632D01*
X023122Y007585D01*
X023065Y007529D01*
X023018Y007464D01*
X022981Y007392D01*
X022957Y007316D01*
X022944Y007237D01*
X022944Y007236D01*
X023414Y007236D01*
X023414Y007706D01*
X023413Y007706D01*
X023493Y007706D02*
X023493Y007706D01*
X023493Y007614D02*
X023414Y007614D01*
X023414Y007537D02*
X023493Y007537D01*
X023493Y007459D02*
X023414Y007459D01*
X023414Y007382D02*
X023493Y007382D01*
X023493Y007305D02*
X023414Y007305D01*
X023414Y007228D02*
X019751Y007228D01*
X019751Y007150D02*
X022945Y007150D01*
X022944Y007157D02*
X022957Y007078D01*
X022981Y007001D01*
X023018Y006930D01*
X023065Y006865D01*
X023122Y006808D01*
X023186Y006761D01*
X023258Y006725D01*
X023334Y006700D01*
X023413Y006687D01*
X023414Y006687D01*
X023414Y007157D01*
X022944Y007157D01*
X022944Y007157D01*
X022958Y007073D02*
X019751Y007073D01*
X019729Y006996D02*
X022984Y006996D01*
X023026Y006918D02*
X019697Y006918D01*
X019657Y006841D02*
X023089Y006841D01*
X023183Y006764D02*
X019579Y006764D01*
X019731Y007305D02*
X022955Y007305D01*
X022978Y007382D02*
X019699Y007382D01*
X019663Y007459D02*
X023016Y007459D01*
X023073Y007537D02*
X019586Y007537D01*
X019490Y007614D02*
X023161Y007614D01*
X023327Y007691D02*
X006583Y007691D01*
X006603Y007671D02*
X006455Y007819D01*
X006261Y007899D01*
X006051Y007899D01*
X005857Y007819D01*
X005709Y007671D01*
X005656Y007543D01*
X005603Y007671D01*
X005455Y007819D01*
X005261Y007899D01*
X005051Y007899D01*
X004857Y007819D01*
X004709Y007671D01*
X004656Y007543D01*
X004603Y007671D01*
X004455Y007819D01*
X004261Y007899D01*
X004051Y007899D01*
X003857Y007819D01*
X003709Y007671D01*
X003684Y007609D01*
X003684Y007807D01*
X003646Y007845D01*
X003761Y007845D01*
X003955Y007925D01*
X004103Y008073D01*
X004156Y008201D01*
X004209Y008073D01*
X004357Y007925D01*
X004551Y007845D01*
X004761Y007845D01*
X004955Y007925D01*
X005103Y008073D01*
X005156Y008201D01*
X005209Y008073D01*
X005357Y007925D01*
X005551Y007845D01*
X005761Y007845D01*
X005955Y007925D01*
X006103Y008073D01*
X006156Y008201D01*
X006209Y008073D01*
X006357Y007925D01*
X006551Y007845D01*
X006761Y007845D01*
X006955Y007925D01*
X007103Y008073D01*
X007184Y008267D01*
X007184Y008477D01*
X007103Y008671D01*
X006955Y008819D01*
X006761Y008899D01*
X006551Y008899D01*
X006357Y008819D01*
X006209Y008671D01*
X006156Y008543D01*
X006103Y008671D01*
X005955Y008819D01*
X005761Y008899D01*
X005551Y008899D01*
X005357Y008819D01*
X005209Y008671D01*
X005156Y008543D01*
X005103Y008671D01*
X004955Y008819D01*
X004761Y008899D01*
X004551Y008899D01*
X004357Y008819D01*
X004209Y008671D01*
X004156Y008543D01*
X004103Y008671D01*
X003955Y008819D01*
X003761Y008899D01*
X003551Y008899D01*
X003357Y008819D01*
X003209Y008671D01*
X003129Y008477D01*
X003129Y008267D01*
X003209Y008073D01*
X003357Y007925D01*
X003419Y007899D01*
X002721Y007899D01*
X002629Y007807D01*
X002629Y006937D01*
X002721Y006845D01*
X003591Y006845D01*
X003684Y006937D01*
X003684Y007135D01*
X003709Y007073D01*
X003684Y007073D01*
X003709Y007073D02*
X003857Y006925D01*
X004051Y006845D01*
X004261Y006845D01*
X004455Y006925D01*
X004603Y007073D01*
X004709Y007073D01*
X004857Y006925D01*
X005051Y006845D01*
X005261Y006845D01*
X005455Y006925D01*
X005603Y007073D01*
X005709Y007073D01*
X005857Y006925D01*
X006051Y006845D01*
X006261Y006845D01*
X006455Y006925D01*
X006603Y007073D01*
X010790Y007073D01*
X010790Y007049D02*
X010870Y006855D01*
X011019Y006706D01*
X011213Y006626D01*
X011422Y006626D01*
X011616Y006706D01*
X011765Y006855D01*
X011829Y007010D01*
X011846Y006958D01*
X011882Y006887D01*
X011929Y006822D01*
X011986Y006765D01*
X012051Y006718D01*
X012122Y006681D01*
X012198Y006657D01*
X012277Y006644D01*
X012278Y006644D01*
X012278Y007114D01*
X012357Y007114D01*
X012357Y006644D01*
X012358Y006644D01*
X012437Y006657D01*
X012513Y006681D01*
X012584Y006718D01*
X012649Y006765D01*
X012706Y006822D01*
X012753Y006887D01*
X012790Y006958D01*
X012806Y007010D01*
X012870Y006855D01*
X013019Y006706D01*
X013213Y006626D01*
X013422Y006626D01*
X013616Y006706D01*
X013765Y006855D01*
X013845Y007049D01*
X013845Y007258D01*
X013765Y007452D01*
X013616Y007601D01*
X013422Y007681D01*
X013213Y007681D01*
X013019Y007601D01*
X012870Y007452D01*
X012806Y007298D01*
X012790Y007349D01*
X012753Y007420D01*
X012706Y007485D01*
X012649Y007542D01*
X012584Y007589D01*
X012513Y007626D01*
X012437Y007650D01*
X012358Y007663D01*
X012357Y007663D01*
X012357Y007193D01*
X012278Y007193D01*
X012278Y007663D01*
X012277Y007663D01*
X012198Y007650D01*
X012122Y007626D01*
X012051Y007589D01*
X011986Y007542D01*
X011929Y007485D01*
X011882Y007420D01*
X011846Y007349D01*
X011829Y007298D01*
X011765Y007452D01*
X011616Y007601D01*
X011422Y007681D01*
X011213Y007681D01*
X011019Y007601D01*
X010870Y007452D01*
X010790Y007258D01*
X010790Y007049D01*
X010812Y006996D02*
X006526Y006996D01*
X006603Y007073D02*
X006684Y007267D01*
X006684Y007477D01*
X006603Y007671D01*
X006627Y007614D02*
X011051Y007614D01*
X010955Y007537D02*
X006659Y007537D01*
X006684Y007459D02*
X010878Y007459D01*
X010841Y007382D02*
X006684Y007382D01*
X006684Y007305D02*
X010809Y007305D01*
X010790Y007228D02*
X006667Y007228D01*
X006635Y007150D02*
X010790Y007150D01*
X010844Y006918D02*
X006439Y006918D01*
X005873Y006918D02*
X005439Y006918D01*
X005526Y006996D02*
X005786Y006996D01*
X005709Y007073D02*
X005656Y007201D01*
X005603Y007073D01*
X005635Y007150D02*
X005677Y007150D01*
X005685Y007614D02*
X005627Y007614D01*
X005583Y007691D02*
X005729Y007691D01*
X005807Y007769D02*
X005506Y007769D01*
X005548Y007846D02*
X005391Y007846D01*
X005361Y007923D02*
X004951Y007923D01*
X004922Y007846D02*
X004764Y007846D01*
X004807Y007769D02*
X004506Y007769D01*
X004548Y007846D02*
X004391Y007846D01*
X004361Y007923D02*
X003951Y007923D01*
X003922Y007846D02*
X003764Y007846D01*
X003807Y007769D02*
X003684Y007769D01*
X003684Y007691D02*
X003729Y007691D01*
X003685Y007614D02*
X003684Y007614D01*
X003361Y007923D02*
X001512Y007923D01*
X001512Y007846D02*
X002667Y007846D01*
X002629Y007769D02*
X001512Y007769D01*
X001512Y007691D02*
X002629Y007691D01*
X002629Y007614D02*
X001512Y007614D01*
X001512Y007537D02*
X002629Y007537D01*
X002629Y007459D02*
X001512Y007459D01*
X001512Y007382D02*
X002629Y007382D01*
X002629Y007305D02*
X001512Y007305D01*
X001512Y007228D02*
X002629Y007228D01*
X002629Y007150D02*
X001512Y007150D01*
X001512Y007073D02*
X002629Y007073D01*
X002629Y006996D02*
X001512Y006996D01*
X001512Y006918D02*
X002647Y006918D01*
X002263Y006589D02*
X002031Y006685D01*
X001781Y006685D01*
X001549Y006589D01*
X001512Y006552D01*
X001512Y026094D01*
X004371Y026094D01*
X004319Y025969D01*
X004319Y025283D01*
X004383Y025129D01*
X004500Y025012D01*
X004654Y024949D01*
X004820Y024949D01*
X004973Y025012D01*
X005091Y025129D01*
X005154Y025283D01*
X005154Y025969D01*
X005102Y026094D01*
X005371Y026094D01*
X005319Y025969D01*
X005319Y025283D01*
X005383Y025129D01*
X005500Y025012D01*
X005654Y024949D01*
X005820Y024949D01*
X005973Y025012D01*
X006091Y025129D01*
X006154Y025283D01*
X006154Y025969D01*
X006102Y026094D01*
X006371Y026094D01*
X006319Y025969D01*
X006319Y025283D01*
X006383Y025129D01*
X006500Y025012D01*
X006654Y024949D01*
X006820Y024949D01*
X006973Y025012D01*
X007091Y025129D01*
X007154Y025283D01*
X007154Y025969D01*
X007102Y026094D01*
X007371Y026094D01*
X007319Y025969D01*
X007319Y025283D01*
X007383Y025129D01*
X007500Y025012D01*
X007654Y024949D01*
X007812Y024949D01*
X007812Y023278D01*
X007776Y023285D01*
X007776Y022666D01*
X007697Y022666D01*
X007697Y023285D01*
X007620Y023270D01*
X007548Y023240D01*
X007482Y023196D01*
X007427Y023141D01*
X007383Y023075D01*
X007353Y023002D01*
X007337Y022925D01*
X007337Y022665D01*
X007697Y022665D01*
X007697Y022587D01*
X007337Y022587D01*
X007337Y022327D01*
X007353Y022249D01*
X007383Y022177D01*
X007427Y022111D01*
X007482Y022056D01*
X007548Y022012D01*
X007620Y021982D01*
X007697Y021967D01*
X007697Y022586D01*
X007776Y022586D01*
X007776Y021967D01*
X007812Y021974D01*
X007812Y021094D01*
X007316Y021094D01*
X007295Y021144D01*
X007212Y021227D01*
X007103Y021273D01*
X006985Y021273D01*
X006876Y021227D01*
X006793Y021144D01*
X006789Y021135D01*
X005942Y021983D01*
X005942Y021999D01*
X005973Y022012D01*
X006091Y022129D01*
X006154Y022283D01*
X006154Y022969D01*
X006091Y023122D01*
X005973Y023240D01*
X005820Y023303D01*
X005654Y023303D01*
X005539Y023256D01*
X005549Y023280D01*
X005549Y023397D01*
X005504Y023506D01*
X005420Y023590D01*
X005311Y023635D01*
X005194Y023635D01*
X005085Y023590D01*
X005001Y023506D01*
X004956Y023397D01*
X004956Y023280D01*
X004973Y023240D01*
X004820Y023303D01*
X004654Y023303D01*
X004558Y023264D01*
X004565Y023280D01*
X004565Y023397D01*
X004519Y023506D01*
X004436Y023590D01*
X004327Y023635D01*
X004209Y023635D01*
X004101Y023590D01*
X004017Y023506D01*
X003972Y023397D01*
X003972Y023280D01*
X003999Y023214D01*
X003934Y023241D01*
X003816Y023241D01*
X003707Y023196D01*
X003624Y023113D01*
X003578Y023004D01*
X003578Y022886D01*
X003624Y022777D01*
X003707Y022694D01*
X003816Y022649D01*
X003892Y022649D01*
X003914Y022627D01*
X003914Y022037D01*
X004029Y021921D01*
X004029Y021921D01*
X004249Y021702D01*
X004364Y021587D01*
X005092Y021587D01*
X006628Y020051D01*
X006791Y020051D01*
X017651Y020051D01*
X018006Y019697D01*
X018087Y019697D01*
X018087Y018813D01*
X018043Y018920D01*
X017960Y019003D01*
X017851Y019048D01*
X017733Y019048D01*
X017651Y019014D01*
X017424Y019241D01*
X017458Y019323D01*
X017458Y019441D01*
X017413Y019550D01*
X017330Y019633D01*
X017221Y019678D01*
X017103Y019678D01*
X016994Y019633D01*
X016911Y019550D01*
X016866Y019441D01*
X016866Y019402D01*
X016828Y019402D01*
X016719Y019357D01*
X016635Y019274D01*
X016590Y019165D01*
X016590Y019047D01*
X016635Y018939D01*
X016719Y018855D01*
X016828Y018810D01*
X016945Y018810D01*
X017028Y018844D01*
X017217Y018655D01*
X017123Y018694D01*
X017005Y018694D01*
X016896Y018649D01*
X016812Y018565D01*
X016767Y018457D01*
X016767Y018410D01*
X016679Y018373D01*
X016596Y018290D01*
X016551Y018181D01*
X016551Y018065D01*
X016451Y017965D01*
X016338Y017965D01*
X016240Y018063D01*
X016003Y018063D01*
X015840Y018063D01*
X015703Y017926D01*
X015627Y017926D01*
X015518Y017881D01*
X015435Y017798D01*
X015389Y017689D01*
X015389Y017571D01*
X015398Y017551D01*
X015368Y017551D01*
X015253Y017436D01*
X015016Y017200D01*
X015016Y017037D01*
X015016Y016643D01*
X015132Y016528D01*
X015348Y016311D01*
X015511Y016311D01*
X015584Y016311D01*
X015742Y016154D01*
X015905Y016154D01*
X016259Y016154D01*
X016358Y016252D01*
X017120Y016252D01*
X017750Y015622D01*
X017913Y015622D01*
X018366Y015622D01*
X018481Y015737D01*
X018914Y016170D01*
X018914Y016334D01*
X018914Y016544D01*
X018917Y016547D01*
X020059Y016547D01*
X020174Y016663D01*
X020334Y016823D01*
X020511Y016823D01*
X020627Y016938D01*
X020764Y017076D01*
X020764Y017239D01*
X020764Y017475D01*
X020649Y017591D01*
X020036Y018204D01*
X020036Y018333D01*
X020090Y018387D01*
X020119Y018456D01*
X020172Y018456D01*
X020213Y018414D01*
X020329Y018299D01*
X020525Y018299D01*
X020688Y018299D01*
X020787Y018398D01*
X022474Y018398D01*
X024268Y016603D01*
X024268Y016485D01*
X024446Y016308D01*
X024561Y016193D01*
X024777Y016193D01*
X024940Y016193D01*
X025078Y016331D01*
X025194Y016446D01*
X025194Y016702D01*
X025194Y016865D01*
X025037Y017022D01*
X025037Y017098D01*
X024992Y017207D01*
X024909Y017290D01*
X024996Y017197D02*
X027977Y017197D01*
X027922Y017120D02*
X025028Y017120D01*
X025037Y017043D02*
X027890Y017043D01*
X027858Y016965D02*
X025093Y016965D01*
X025170Y016888D02*
X027857Y016888D01*
X027857Y016811D02*
X025194Y016811D01*
X025194Y016733D02*
X027865Y016733D01*
X027897Y016656D02*
X025194Y016656D01*
X025194Y016579D02*
X027929Y016579D01*
X027995Y016502D02*
X025194Y016502D01*
X025172Y016424D02*
X028072Y016424D01*
X028086Y016347D02*
X025095Y016347D01*
X025017Y016270D02*
X027950Y016270D01*
X027872Y016192D02*
X022675Y016192D01*
X022675Y016193D02*
X022630Y016084D01*
X022546Y016001D01*
X022437Y015956D01*
X022320Y015956D01*
X022211Y016001D01*
X022127Y016084D01*
X022082Y016193D01*
X022082Y016311D01*
X022127Y016420D01*
X022211Y016503D01*
X022320Y016548D01*
X022416Y016548D01*
X022949Y017081D01*
X022949Y017157D01*
X022994Y017266D01*
X023077Y017350D01*
X023186Y017395D01*
X023304Y017395D01*
X023412Y017350D01*
X023496Y017266D01*
X023541Y017157D01*
X023541Y017039D01*
X023496Y016931D01*
X023412Y016847D01*
X023304Y016802D01*
X023227Y016802D01*
X022675Y016250D01*
X022675Y016193D01*
X022694Y016270D02*
X024484Y016270D01*
X024407Y016347D02*
X022772Y016347D01*
X022849Y016424D02*
X024329Y016424D01*
X024268Y016502D02*
X022926Y016502D01*
X023004Y016579D02*
X024268Y016579D01*
X024216Y016656D02*
X023081Y016656D01*
X023158Y016733D02*
X024138Y016733D01*
X024061Y016811D02*
X023324Y016811D01*
X023453Y016888D02*
X023984Y016888D01*
X023906Y016965D02*
X023510Y016965D01*
X023541Y017043D02*
X023829Y017043D01*
X023752Y017120D02*
X023541Y017120D01*
X023524Y017197D02*
X023675Y017197D01*
X023597Y017274D02*
X023488Y017274D01*
X023520Y017352D02*
X023407Y017352D01*
X023443Y017429D02*
X022183Y017429D01*
X022183Y017431D02*
X022400Y017649D01*
X022477Y017649D01*
X022586Y017694D01*
X022669Y017777D01*
X022714Y017886D01*
X022714Y018004D01*
X022669Y018113D01*
X022586Y018196D01*
X022477Y018241D01*
X022359Y018241D01*
X022250Y018196D01*
X022167Y018113D01*
X022122Y018004D01*
X022122Y017927D01*
X021904Y017710D01*
X021828Y017710D01*
X021719Y017664D01*
X021635Y017581D01*
X021590Y017472D01*
X021590Y017354D01*
X021635Y017246D01*
X021719Y017162D01*
X021828Y017117D01*
X021945Y017117D01*
X022054Y017162D01*
X022138Y017246D01*
X022183Y017354D01*
X022183Y017431D01*
X022181Y017352D02*
X023082Y017352D01*
X023002Y017274D02*
X022149Y017274D01*
X022089Y017197D02*
X022965Y017197D01*
X022949Y017120D02*
X021952Y017120D01*
X021821Y017120D02*
X020764Y017120D01*
X020764Y017197D02*
X021684Y017197D01*
X021623Y017274D02*
X020764Y017274D01*
X020764Y017352D02*
X021591Y017352D01*
X021590Y017429D02*
X020764Y017429D01*
X020733Y017506D02*
X021604Y017506D01*
X021638Y017584D02*
X020656Y017584D01*
X020649Y017591D02*
X020649Y017591D01*
X020579Y017661D02*
X021715Y017661D01*
X021933Y017738D02*
X020501Y017738D01*
X020424Y017815D02*
X022010Y017815D01*
X022087Y017893D02*
X020347Y017893D01*
X020270Y017970D02*
X022122Y017970D01*
X022140Y018047D02*
X020192Y018047D01*
X020115Y018125D02*
X022179Y018125D01*
X022264Y018202D02*
X020038Y018202D01*
X020036Y018279D02*
X022593Y018279D01*
X022572Y018202D02*
X022670Y018202D01*
X022657Y018125D02*
X022747Y018125D01*
X022696Y018047D02*
X022825Y018047D01*
X022902Y017970D02*
X022714Y017970D01*
X022714Y017893D02*
X022979Y017893D01*
X023056Y017815D02*
X022685Y017815D01*
X022630Y017738D02*
X023134Y017738D01*
X023211Y017661D02*
X022506Y017661D01*
X022335Y017584D02*
X023288Y017584D01*
X023366Y017506D02*
X022258Y017506D01*
X021886Y017413D02*
X022418Y017945D01*
X022515Y018356D02*
X020746Y018356D01*
X020607Y018496D02*
X020410Y018496D01*
X020154Y018752D01*
X020194Y018434D02*
X020110Y018434D01*
X020059Y018356D02*
X020271Y018356D01*
X019839Y018555D02*
X019839Y018122D01*
X020568Y017394D01*
X020568Y017157D01*
X020430Y017020D01*
X020253Y017020D01*
X019977Y016744D01*
X018835Y016744D01*
X018717Y016626D01*
X018717Y016252D01*
X018284Y015819D01*
X017831Y015819D01*
X017201Y016449D01*
X016276Y016449D01*
X016178Y016350D01*
X015823Y016350D01*
X015666Y016508D01*
X015430Y016508D01*
X015213Y016724D01*
X015213Y017118D01*
X015449Y017354D01*
X016178Y017354D01*
X016296Y017236D01*
X016690Y017236D01*
X016768Y017315D01*
X016768Y017531D01*
X016965Y017728D01*
X017221Y017728D01*
X017713Y018220D01*
X018166Y018220D01*
X018284Y018339D01*
X018284Y019795D01*
X018186Y019894D01*
X018087Y019894D01*
X017733Y020248D01*
X006709Y020248D01*
X005174Y021783D01*
X004446Y021783D01*
X004111Y022118D01*
X004111Y022709D01*
X003875Y022945D01*
X003972Y023225D02*
X003995Y023225D01*
X003972Y023303D02*
X001512Y023303D01*
X001512Y023380D02*
X003972Y023380D01*
X003997Y023457D02*
X001512Y023457D01*
X001512Y023534D02*
X004045Y023534D01*
X004154Y023612D02*
X001512Y023612D01*
X001512Y023689D02*
X007812Y023689D01*
X007812Y023766D02*
X001512Y023766D01*
X001512Y023844D02*
X007812Y023844D01*
X007812Y023921D02*
X001512Y023921D01*
X001512Y023998D02*
X007812Y023998D01*
X007812Y024075D02*
X001512Y024075D01*
X001512Y024153D02*
X007812Y024153D01*
X007812Y024230D02*
X001512Y024230D01*
X001512Y024307D02*
X007812Y024307D01*
X007812Y024385D02*
X001512Y024385D01*
X001512Y024462D02*
X007812Y024462D01*
X007812Y024539D02*
X001512Y024539D01*
X001512Y024616D02*
X007812Y024616D01*
X007812Y024694D02*
X001512Y024694D01*
X001512Y024771D02*
X007812Y024771D01*
X007812Y024848D02*
X001512Y024848D01*
X001512Y024926D02*
X007812Y024926D01*
X007523Y025003D02*
X006951Y025003D01*
X007041Y025080D02*
X007432Y025080D01*
X007371Y025157D02*
X007102Y025157D01*
X007134Y025235D02*
X007339Y025235D01*
X007319Y025312D02*
X007154Y025312D01*
X007154Y025389D02*
X007319Y025389D01*
X007319Y025466D02*
X007154Y025466D01*
X007154Y025544D02*
X007319Y025544D01*
X007319Y025621D02*
X007154Y025621D01*
X007154Y025698D02*
X007319Y025698D01*
X007319Y025776D02*
X007154Y025776D01*
X007154Y025853D02*
X007319Y025853D01*
X007319Y025930D02*
X007154Y025930D01*
X007138Y026007D02*
X007335Y026007D01*
X007367Y026085D02*
X007106Y026085D01*
X006367Y026085D02*
X006106Y026085D01*
X006138Y026007D02*
X006335Y026007D01*
X006319Y025930D02*
X006154Y025930D01*
X006154Y025853D02*
X006319Y025853D01*
X006319Y025776D02*
X006154Y025776D01*
X006154Y025698D02*
X006319Y025698D01*
X006319Y025621D02*
X006154Y025621D01*
X006154Y025544D02*
X006319Y025544D01*
X006319Y025466D02*
X006154Y025466D01*
X006154Y025389D02*
X006319Y025389D01*
X006319Y025312D02*
X006154Y025312D01*
X006134Y025235D02*
X006339Y025235D01*
X006371Y025157D02*
X006102Y025157D01*
X006041Y025080D02*
X006432Y025080D01*
X006523Y025003D02*
X005951Y025003D01*
X005523Y025003D02*
X004951Y025003D01*
X005041Y025080D02*
X005432Y025080D01*
X005371Y025157D02*
X005102Y025157D01*
X005134Y025235D02*
X005339Y025235D01*
X005319Y025312D02*
X005154Y025312D01*
X005154Y025389D02*
X005319Y025389D01*
X005319Y025466D02*
X005154Y025466D01*
X005154Y025544D02*
X005319Y025544D01*
X005319Y025621D02*
X005154Y025621D01*
X005154Y025698D02*
X005319Y025698D01*
X005319Y025776D02*
X005154Y025776D01*
X005154Y025853D02*
X005319Y025853D01*
X005319Y025930D02*
X005154Y025930D01*
X005138Y026007D02*
X005335Y026007D01*
X005367Y026085D02*
X005106Y026085D01*
X004367Y026085D02*
X001512Y026085D01*
X001512Y026007D02*
X004335Y026007D01*
X004319Y025930D02*
X001512Y025930D01*
X001512Y025853D02*
X004319Y025853D01*
X004319Y025776D02*
X001512Y025776D01*
X001512Y025698D02*
X004319Y025698D01*
X004319Y025621D02*
X001512Y025621D01*
X001512Y025544D02*
X004319Y025544D01*
X004319Y025466D02*
X001512Y025466D01*
X001512Y025389D02*
X004319Y025389D01*
X004319Y025312D02*
X001512Y025312D01*
X001512Y025235D02*
X004339Y025235D01*
X004371Y025157D02*
X001512Y025157D01*
X001512Y025080D02*
X004432Y025080D01*
X004523Y025003D02*
X001512Y025003D01*
X001512Y023225D02*
X003778Y023225D01*
X003659Y023148D02*
X001512Y023148D01*
X001512Y023071D02*
X003606Y023071D01*
X003578Y022993D02*
X001512Y022993D01*
X001512Y022916D02*
X003578Y022916D01*
X003598Y022839D02*
X001512Y022839D01*
X001512Y022762D02*
X003639Y022762D01*
X003730Y022684D02*
X001512Y022684D01*
X001512Y022607D02*
X003914Y022607D01*
X003914Y022530D02*
X001512Y022530D01*
X001512Y022452D02*
X003914Y022452D01*
X003914Y022375D02*
X001512Y022375D01*
X001512Y022298D02*
X003914Y022298D01*
X003914Y022221D02*
X001512Y022221D01*
X001512Y022143D02*
X003914Y022143D01*
X003914Y022066D02*
X001512Y022066D01*
X001512Y021989D02*
X003962Y021989D01*
X004039Y021911D02*
X001512Y021911D01*
X001512Y021834D02*
X004116Y021834D01*
X004194Y021757D02*
X001512Y021757D01*
X001512Y021680D02*
X004271Y021680D01*
X004249Y021702D02*
X004249Y021702D01*
X004348Y021602D02*
X001512Y021602D01*
X001512Y021525D02*
X005154Y021525D01*
X005231Y021448D02*
X001512Y021448D01*
X001512Y021370D02*
X005308Y021370D01*
X005386Y021293D02*
X001512Y021293D01*
X001512Y021216D02*
X005463Y021216D01*
X005540Y021139D02*
X001512Y021139D01*
X001512Y021061D02*
X005618Y021061D01*
X005695Y020984D02*
X001512Y020984D01*
X001512Y020907D02*
X005772Y020907D01*
X005849Y020829D02*
X001512Y020829D01*
X001512Y020752D02*
X005927Y020752D01*
X006004Y020675D02*
X001512Y020675D01*
X001512Y020598D02*
X006081Y020598D01*
X006159Y020520D02*
X001512Y020520D01*
X001512Y020443D02*
X006236Y020443D01*
X006313Y020366D02*
X001512Y020366D01*
X001512Y020289D02*
X006390Y020289D01*
X006468Y020211D02*
X001512Y020211D01*
X001512Y020134D02*
X006545Y020134D01*
X006622Y020057D02*
X001512Y020057D01*
X001512Y019979D02*
X017723Y019979D01*
X017800Y019902D02*
X001512Y019902D01*
X001512Y019825D02*
X005476Y019825D01*
X005525Y019874D02*
X005410Y019759D01*
X005368Y019716D01*
X005320Y019669D01*
X005282Y019653D01*
X005198Y019569D01*
X005153Y019460D01*
X005153Y019343D01*
X005198Y019234D01*
X005282Y019150D01*
X005391Y019105D01*
X005508Y019105D01*
X005617Y019150D01*
X005646Y019180D01*
X005675Y019150D01*
X005784Y019105D01*
X005861Y019105D01*
X006352Y018614D01*
X006515Y018614D01*
X007730Y018614D01*
X008084Y018260D01*
X008248Y018260D01*
X010250Y018260D01*
X010331Y018178D01*
X010331Y016373D01*
X010331Y016210D01*
X010665Y015876D01*
X010665Y015799D01*
X010710Y015690D01*
X010793Y015607D01*
X010902Y015562D01*
X011020Y015562D01*
X011129Y015607D01*
X011212Y015690D01*
X011257Y015799D01*
X011257Y015917D01*
X011212Y016026D01*
X011183Y016055D01*
X011212Y016084D01*
X011257Y016193D01*
X011257Y016311D01*
X011220Y016401D01*
X011296Y016369D01*
X011414Y016369D01*
X011523Y016414D01*
X011542Y016433D01*
X011581Y016395D01*
X011690Y016349D01*
X011808Y016349D01*
X011916Y016395D01*
X012000Y016478D01*
X012045Y016587D01*
X012045Y016705D01*
X012000Y016813D01*
X011916Y016897D01*
X011808Y016942D01*
X011731Y016942D01*
X011555Y017118D01*
X011417Y017118D01*
X011355Y017180D01*
X011355Y018656D01*
X011240Y018772D01*
X010728Y019283D01*
X010565Y019283D01*
X008523Y019283D01*
X008169Y019638D01*
X008006Y019638D01*
X007460Y019638D01*
X007339Y019759D01*
X007224Y019874D01*
X005525Y019874D01*
X005399Y019748D02*
X001512Y019748D01*
X001512Y019670D02*
X005322Y019670D01*
X005222Y019593D02*
X001512Y019593D01*
X001512Y019516D02*
X005176Y019516D01*
X005153Y019438D02*
X001512Y019438D01*
X001512Y019361D02*
X005153Y019361D01*
X005178Y019284D02*
X001512Y019284D01*
X001512Y019207D02*
X005226Y019207D01*
X005333Y019129D02*
X001512Y019129D01*
X001512Y019052D02*
X005914Y019052D01*
X005992Y018975D02*
X001512Y018975D01*
X001512Y018897D02*
X006069Y018897D01*
X006146Y018820D02*
X005182Y018820D01*
X005154Y018832D02*
X005036Y018832D01*
X004927Y018787D01*
X004844Y018703D01*
X004799Y018594D01*
X004799Y018476D01*
X004844Y018368D01*
X004898Y018313D01*
X004898Y017351D01*
X005014Y017236D01*
X005289Y016961D01*
X005452Y016961D01*
X006182Y016961D01*
X006157Y016901D01*
X006157Y016784D01*
X006202Y016675D01*
X006271Y016606D01*
X005816Y016606D01*
X005779Y016695D01*
X005696Y016779D01*
X005587Y016824D01*
X005469Y016824D01*
X005360Y016779D01*
X005277Y016695D01*
X005232Y016586D01*
X005232Y016469D01*
X005240Y016449D01*
X004980Y016449D01*
X004840Y016588D01*
X004840Y016665D01*
X004795Y016774D01*
X004712Y016857D01*
X004603Y016902D01*
X004485Y016902D01*
X004376Y016857D01*
X004293Y016774D01*
X004248Y016665D01*
X004248Y016547D01*
X004293Y016439D01*
X004376Y016355D01*
X004485Y016310D01*
X004562Y016310D01*
X004701Y016170D01*
X004817Y016055D01*
X005683Y016055D01*
X005646Y016019D01*
X005528Y015900D01*
X005528Y015844D01*
X005474Y015790D01*
X005429Y015681D01*
X005429Y015604D01*
X005410Y015585D01*
X005410Y014191D01*
X005356Y014136D01*
X005311Y014027D01*
X005311Y013910D01*
X005356Y013801D01*
X005439Y013717D01*
X005548Y013672D01*
X005666Y013672D01*
X005775Y013717D01*
X005858Y013801D01*
X005903Y013910D01*
X005903Y014027D01*
X005858Y014136D01*
X005804Y014191D01*
X005804Y015334D01*
X005893Y015371D01*
X005976Y015454D01*
X005990Y015489D01*
X006069Y015410D01*
X006178Y015365D01*
X006296Y015365D01*
X006405Y015410D01*
X006406Y015411D01*
X006591Y015226D01*
X006706Y015110D01*
X006706Y015111D02*
X005804Y015111D01*
X005804Y015188D02*
X006629Y015188D01*
X006552Y015265D02*
X005804Y015265D01*
X005824Y015342D02*
X006474Y015342D01*
X006788Y015307D02*
X006434Y015661D01*
X006237Y015661D01*
X006060Y015420D02*
X005942Y015420D01*
X005725Y015622D02*
X005725Y015819D01*
X005843Y015937D01*
X006788Y015937D01*
X006906Y015819D01*
X006906Y015622D01*
X006906Y015583D01*
X007418Y015583D01*
X007812Y015189D01*
X007812Y014874D01*
X008205Y014480D01*
X008461Y014362D02*
X008461Y014677D01*
X008757Y014972D01*
X009053Y014956D02*
X015233Y014956D01*
X015232Y014953D02*
X015232Y014835D01*
X015248Y014796D01*
X015179Y014727D01*
X015134Y014618D01*
X015134Y014500D01*
X015178Y014392D01*
X015159Y014372D01*
X015114Y014264D01*
X015114Y014146D01*
X015159Y014038D01*
X015139Y014018D01*
X015094Y013909D01*
X015094Y013791D01*
X015127Y013711D01*
X015061Y013644D01*
X015015Y013535D01*
X015015Y013417D01*
X015061Y013309D01*
X015080Y013289D01*
X015041Y013250D01*
X014996Y013142D01*
X014996Y013024D01*
X011257Y013024D01*
X011212Y012915D01*
X011129Y012832D01*
X011020Y012786D01*
X010902Y012786D01*
X010793Y012832D01*
X010759Y012866D01*
X009451Y012866D01*
X009416Y012832D01*
X009308Y012786D01*
X009190Y012786D01*
X009081Y012832D01*
X008998Y012915D01*
X008952Y013024D01*
X001512Y013024D01*
X001512Y013101D02*
X008952Y013101D01*
X008952Y013142D02*
X008952Y013024D01*
X008984Y012947D02*
X001512Y012947D01*
X001512Y012869D02*
X009043Y012869D01*
X009176Y012792D02*
X001512Y012792D01*
X001512Y012715D02*
X029465Y012715D01*
X029465Y012792D02*
X015364Y012792D01*
X015351Y012786D02*
X015460Y012832D01*
X015543Y012915D01*
X015588Y013024D01*
X018180Y013024D01*
X018151Y013053D02*
X018234Y012969D01*
X018343Y012924D01*
X018461Y012924D01*
X018570Y012969D01*
X018653Y013053D01*
X018698Y013162D01*
X018698Y013279D01*
X018653Y013388D01*
X018599Y013443D01*
X018599Y013513D01*
X018599Y013676D01*
X018325Y013950D01*
X018334Y013954D01*
X018417Y014037D01*
X018462Y014146D01*
X018462Y014264D01*
X018417Y014372D01*
X018334Y014456D01*
X018225Y014501D01*
X018128Y014501D01*
X017813Y014816D01*
X017822Y014820D01*
X017905Y014903D01*
X017950Y015012D01*
X017950Y015130D01*
X017905Y015239D01*
X017822Y015322D01*
X017713Y015367D01*
X017636Y015367D01*
X017519Y015484D01*
X017356Y015484D01*
X016400Y015484D01*
X016346Y015539D01*
X016237Y015584D01*
X016119Y015584D01*
X016010Y015539D01*
X015927Y015455D01*
X015882Y015347D01*
X015824Y015347D01*
X015715Y015302D01*
X015631Y015219D01*
X015615Y015178D01*
X015587Y015190D01*
X015469Y015190D01*
X015360Y015145D01*
X015277Y015061D01*
X015232Y014953D01*
X015232Y014879D02*
X009038Y014879D01*
X009053Y014914D02*
X009053Y015031D01*
X009008Y015140D01*
X008924Y015224D01*
X008815Y015269D01*
X008698Y015269D01*
X008589Y015224D01*
X008517Y015152D01*
X008541Y015209D01*
X008541Y015327D01*
X008516Y015386D01*
X008534Y015386D01*
X008589Y015332D01*
X008698Y015286D01*
X008815Y015286D01*
X008924Y015332D01*
X009008Y015415D01*
X009053Y015524D01*
X009053Y015642D01*
X009008Y015750D01*
X008924Y015834D01*
X008865Y015858D01*
X009755Y015858D01*
X009809Y015804D01*
X009918Y015759D01*
X010036Y015759D01*
X010145Y015804D01*
X010228Y015887D01*
X010273Y015996D01*
X010273Y016114D01*
X010228Y016223D01*
X010145Y016306D01*
X010076Y016335D01*
X010076Y016429D01*
X010031Y016538D01*
X009948Y016621D01*
X009839Y016666D01*
X009721Y016666D01*
X009646Y016635D01*
X009638Y016656D01*
X009583Y016710D01*
X009583Y017093D01*
X009638Y017147D01*
X009683Y017256D01*
X009683Y017374D01*
X009638Y017483D01*
X009554Y017566D01*
X009445Y017611D01*
X009328Y017611D01*
X009219Y017566D01*
X009135Y017483D01*
X009090Y017374D01*
X009090Y017256D01*
X009135Y017147D01*
X009190Y017093D01*
X009190Y016710D01*
X009135Y016656D01*
X009090Y016547D01*
X009090Y016429D01*
X009099Y016409D01*
X008090Y016409D01*
X007303Y017197D01*
X007140Y017197D01*
X007111Y017197D01*
X009115Y017197D01*
X009090Y017274D02*
X007143Y017274D01*
X007143Y017276D02*
X007143Y017394D01*
X007098Y017502D01*
X007015Y017586D01*
X006906Y017631D01*
X006788Y017631D01*
X006679Y017586D01*
X006625Y017531D01*
X005859Y017531D01*
X005838Y017581D01*
X005755Y017664D01*
X005646Y017710D01*
X005528Y017710D01*
X005419Y017664D01*
X005336Y017581D01*
X005304Y017503D01*
X005292Y017515D01*
X005292Y018313D01*
X005346Y018368D01*
X005391Y018476D01*
X005391Y018594D01*
X005346Y018703D01*
X005263Y018787D01*
X005154Y018832D01*
X005008Y018820D02*
X001512Y018820D01*
X001512Y018743D02*
X004884Y018743D01*
X004828Y018666D02*
X001512Y018666D01*
X001512Y018588D02*
X004799Y018588D01*
X004799Y018511D02*
X001512Y018511D01*
X001512Y018434D02*
X004817Y018434D01*
X004855Y018356D02*
X001512Y018356D01*
X001512Y018279D02*
X004898Y018279D01*
X004898Y018202D02*
X001512Y018202D01*
X001512Y018125D02*
X004898Y018125D01*
X004898Y018047D02*
X001512Y018047D01*
X001512Y017970D02*
X004898Y017970D01*
X004898Y017893D02*
X001512Y017893D01*
X001512Y017815D02*
X004898Y017815D01*
X004898Y017738D02*
X001512Y017738D01*
X001512Y017661D02*
X004898Y017661D01*
X004898Y017584D02*
X001512Y017584D01*
X001512Y017506D02*
X004898Y017506D01*
X004898Y017429D02*
X001512Y017429D01*
X001512Y017352D02*
X004898Y017352D01*
X004975Y017274D02*
X001512Y017274D01*
X001512Y017197D02*
X005053Y017197D01*
X005130Y017120D02*
X001512Y017120D01*
X001512Y017043D02*
X005207Y017043D01*
X005284Y016965D02*
X001512Y016965D01*
X001512Y016888D02*
X004450Y016888D01*
X004329Y016811D02*
X001512Y016811D01*
X001512Y016733D02*
X004276Y016733D01*
X004248Y016656D02*
X001512Y016656D01*
X001512Y016579D02*
X004248Y016579D01*
X004267Y016502D02*
X001512Y016502D01*
X001512Y016424D02*
X004307Y016424D01*
X004396Y016347D02*
X001512Y016347D01*
X001512Y016270D02*
X004602Y016270D01*
X004679Y016192D02*
X001512Y016192D01*
X001512Y016115D02*
X004757Y016115D01*
X004898Y016252D02*
X007260Y016252D01*
X008245Y015268D01*
X008541Y015265D02*
X008689Y015265D01*
X008824Y015265D02*
X015678Y015265D01*
X015619Y015188D02*
X015592Y015188D01*
X015464Y015188D02*
X008960Y015188D01*
X009020Y015111D02*
X015326Y015111D01*
X015265Y015033D02*
X009052Y015033D01*
X009053Y014914D02*
X009008Y014805D01*
X008924Y014721D01*
X008815Y014676D01*
X008739Y014676D01*
X008658Y014596D01*
X008658Y014281D01*
X008543Y014165D01*
X008385Y014008D01*
X008222Y014008D01*
X007986Y014008D01*
X007871Y014123D01*
X007418Y014576D01*
X007418Y014739D01*
X007418Y015029D01*
X007336Y015110D01*
X006706Y015110D01*
X006788Y015307D02*
X007418Y015307D01*
X007615Y015110D01*
X007615Y014657D01*
X008068Y014205D01*
X008304Y014205D01*
X008461Y014362D01*
X008658Y014338D02*
X015145Y014338D01*
X015169Y014415D02*
X008658Y014415D01*
X008658Y014492D02*
X015137Y014492D01*
X015134Y014570D02*
X008658Y014570D01*
X008709Y014647D02*
X015146Y014647D01*
X015178Y014724D02*
X008927Y014724D01*
X009004Y014801D02*
X015246Y014801D01*
X015528Y014894D02*
X015627Y014795D01*
X016001Y014795D01*
X016079Y014874D01*
X017241Y014874D01*
X017654Y014461D01*
X017654Y014283D01*
X017969Y014028D02*
X017123Y014028D01*
X016965Y014185D01*
X016965Y014500D01*
X016906Y014559D01*
X016237Y014559D01*
X016138Y014461D01*
X015705Y014461D01*
X015449Y014205D01*
X015410Y014205D01*
X015686Y014106D02*
X015430Y013850D01*
X015390Y013850D01*
X015112Y013951D02*
X005903Y013951D01*
X005903Y014029D02*
X007965Y014029D01*
X007888Y014106D02*
X005871Y014106D01*
X005811Y014183D02*
X007811Y014183D01*
X007733Y014260D02*
X005804Y014260D01*
X005804Y014338D02*
X007656Y014338D01*
X007579Y014415D02*
X005804Y014415D01*
X005804Y014492D02*
X007502Y014492D01*
X007424Y014570D02*
X005804Y014570D01*
X005804Y014647D02*
X007418Y014647D01*
X007418Y014724D02*
X005804Y014724D01*
X005804Y014801D02*
X007418Y014801D01*
X007418Y014879D02*
X005804Y014879D01*
X005804Y014956D02*
X007418Y014956D01*
X007413Y015033D02*
X005804Y015033D01*
X005410Y015033D02*
X001512Y015033D01*
X001512Y014956D02*
X005410Y014956D01*
X005410Y014879D02*
X001512Y014879D01*
X001512Y014801D02*
X005410Y014801D01*
X005410Y014724D02*
X001512Y014724D01*
X001512Y014647D02*
X005410Y014647D01*
X005410Y014570D02*
X001512Y014570D01*
X001512Y014492D02*
X005410Y014492D01*
X005410Y014415D02*
X001512Y014415D01*
X001512Y014338D02*
X005410Y014338D01*
X005410Y014260D02*
X001512Y014260D01*
X001512Y014183D02*
X005403Y014183D01*
X005343Y014106D02*
X001512Y014106D01*
X001512Y014029D02*
X005311Y014029D01*
X005311Y013951D02*
X001512Y013951D01*
X001512Y013874D02*
X005325Y013874D01*
X005360Y013797D02*
X001512Y013797D01*
X001512Y013719D02*
X005437Y013719D01*
X005607Y013969D02*
X005607Y015504D01*
X005725Y015622D01*
X005449Y015729D02*
X001512Y015729D01*
X001512Y015806D02*
X005490Y015806D01*
X005528Y015883D02*
X001512Y015883D01*
X001512Y015961D02*
X005588Y015961D01*
X005666Y016038D02*
X001512Y016038D01*
X001512Y015651D02*
X005429Y015651D01*
X005410Y015574D02*
X001512Y015574D01*
X001512Y015497D02*
X005410Y015497D01*
X005410Y015420D02*
X001512Y015420D01*
X001512Y015342D02*
X005410Y015342D01*
X005410Y015265D02*
X001512Y015265D01*
X001512Y015188D02*
X005410Y015188D01*
X005410Y015111D02*
X001512Y015111D01*
X001512Y013642D02*
X015060Y013642D01*
X015028Y013565D02*
X001512Y013565D01*
X001512Y013488D02*
X015015Y013488D01*
X015018Y013410D02*
X001512Y013410D01*
X001512Y013333D02*
X009080Y013333D01*
X009081Y013334D02*
X008998Y013250D01*
X008952Y013142D01*
X008968Y013178D02*
X001512Y013178D01*
X001512Y013256D02*
X009003Y013256D01*
X009081Y013334D02*
X009190Y013379D01*
X009308Y013379D01*
X009416Y013334D01*
X009451Y013299D01*
X010759Y013299D01*
X010793Y013334D01*
X010902Y013379D01*
X011020Y013379D01*
X011129Y013334D01*
X011212Y013250D01*
X011257Y013142D01*
X011257Y013024D01*
X011257Y013101D02*
X014996Y013101D01*
X014996Y013024D02*
X015041Y012915D01*
X015124Y012832D01*
X015233Y012786D01*
X015351Y012786D01*
X015220Y012792D02*
X011034Y012792D01*
X010889Y012792D02*
X009321Y012792D01*
X009417Y013333D02*
X010793Y013333D01*
X011130Y013333D02*
X015050Y013333D01*
X015046Y013256D02*
X011207Y013256D01*
X011242Y013178D02*
X015011Y013178D01*
X015028Y012947D02*
X011225Y012947D01*
X011167Y012869D02*
X015086Y012869D01*
X015292Y013083D02*
X015883Y013673D01*
X016631Y013673D01*
X016808Y013496D01*
X016867Y013496D01*
X017163Y013488D02*
X018205Y013488D01*
X018205Y013513D02*
X018205Y013443D01*
X018151Y013388D01*
X018106Y013279D01*
X018106Y013162D01*
X018151Y013053D01*
X018131Y013101D02*
X015589Y013101D01*
X015588Y013100D02*
X015964Y013476D01*
X016549Y013476D01*
X016571Y013455D01*
X016571Y013437D01*
X016616Y013328D01*
X016699Y013245D01*
X016808Y013200D01*
X016926Y013200D01*
X017035Y013245D01*
X017118Y013328D01*
X017163Y013437D01*
X017163Y013555D01*
X017118Y013664D01*
X017035Y013747D01*
X016990Y013766D01*
X017024Y013848D01*
X017041Y013831D01*
X017204Y013831D01*
X017888Y013831D01*
X018205Y013513D01*
X018153Y013565D02*
X017159Y013565D01*
X017127Y013642D02*
X018076Y013642D01*
X017999Y013719D02*
X017062Y013719D01*
X017003Y013797D02*
X017922Y013797D01*
X017969Y014028D02*
X018402Y013594D01*
X018402Y013220D01*
X018289Y012947D02*
X015556Y012947D01*
X015588Y013024D02*
X015588Y013100D01*
X015666Y013178D02*
X018106Y013178D01*
X018106Y013256D02*
X017045Y013256D01*
X017120Y013333D02*
X018128Y013333D01*
X018173Y013410D02*
X017152Y013410D01*
X016688Y013256D02*
X015743Y013256D01*
X015821Y013333D02*
X016614Y013333D01*
X016582Y013410D02*
X015898Y013410D01*
X015784Y013831D02*
X015430Y013476D01*
X015312Y013476D01*
X015124Y013719D02*
X005777Y013719D01*
X005854Y013797D02*
X015094Y013797D01*
X015094Y013874D02*
X005888Y013874D01*
X006198Y012237D02*
X006089Y012192D01*
X006054Y012157D01*
X004845Y012157D01*
X004830Y012172D01*
X004721Y012217D01*
X004603Y012217D01*
X004494Y012172D01*
X004411Y012089D01*
X004366Y011980D01*
X004366Y011862D01*
X004411Y011753D01*
X004494Y011670D01*
X004603Y011625D01*
X004721Y011625D01*
X004830Y011670D01*
X004884Y011724D01*
X006054Y011724D01*
X006089Y011690D01*
X006198Y011645D01*
X006315Y011645D01*
X006424Y011690D01*
X006508Y011773D01*
X006553Y011882D01*
X006553Y012000D01*
X006508Y012109D01*
X006424Y012192D01*
X006315Y012237D01*
X006198Y012237D01*
X006070Y012174D02*
X004826Y012174D01*
X004498Y012174D02*
X001512Y012174D01*
X001512Y012251D02*
X029465Y012251D01*
X029465Y012174D02*
X022387Y012174D01*
X022369Y012192D02*
X022260Y012237D01*
X022142Y012237D01*
X022034Y012192D01*
X021950Y012109D01*
X021905Y012000D01*
X021905Y011882D01*
X021950Y011773D01*
X021991Y011733D01*
X021766Y011509D01*
X021650Y011509D01*
X021541Y011464D01*
X021458Y011380D01*
X021413Y011271D01*
X021413Y011154D01*
X021458Y011045D01*
X021541Y010961D01*
X021650Y010916D01*
X021689Y010916D01*
X021689Y010878D01*
X021734Y010769D01*
X021817Y010686D01*
X021926Y010641D01*
X022044Y010641D01*
X022153Y010686D01*
X022236Y010769D01*
X022281Y010878D01*
X022281Y010996D01*
X022236Y011105D01*
X022196Y011145D01*
X022439Y011389D01*
X022516Y011389D01*
X022625Y011434D01*
X022708Y011517D01*
X022754Y011626D01*
X022754Y011744D01*
X022708Y011853D01*
X022625Y011936D01*
X022516Y011981D01*
X022498Y011981D01*
X022498Y012000D01*
X022453Y012109D01*
X022369Y012192D01*
X022458Y012096D02*
X029465Y012096D01*
X029465Y012019D02*
X022490Y012019D01*
X022611Y011942D02*
X029465Y011942D01*
X029465Y011865D02*
X022697Y011865D01*
X022736Y011787D02*
X029465Y011787D01*
X029465Y011710D02*
X022754Y011710D01*
X022754Y011633D02*
X029465Y011633D01*
X029465Y011555D02*
X022724Y011555D01*
X022669Y011478D02*
X029465Y011478D01*
X029465Y011401D02*
X022545Y011401D01*
X022374Y011324D02*
X029465Y011324D01*
X029465Y011246D02*
X022297Y011246D01*
X022220Y011169D02*
X029465Y011169D01*
X029465Y011092D02*
X022241Y011092D01*
X022273Y011014D02*
X029465Y011014D01*
X029465Y010937D02*
X022281Y010937D01*
X022274Y010860D02*
X028200Y010860D01*
X028219Y010868D02*
X028100Y010819D01*
X028009Y010727D01*
X027959Y010608D01*
X027959Y010479D01*
X028009Y010359D01*
X028100Y010268D01*
X028219Y010219D01*
X028349Y010219D01*
X028468Y010268D01*
X028559Y010359D01*
X028609Y010479D01*
X028609Y010608D01*
X028559Y010727D01*
X028468Y010819D01*
X028349Y010868D01*
X028219Y010868D01*
X028368Y010860D02*
X029465Y010860D01*
X029465Y010783D02*
X028504Y010783D01*
X028569Y010705D02*
X029465Y010705D01*
X029465Y010628D02*
X028601Y010628D01*
X028609Y010551D02*
X029465Y010551D01*
X029465Y010474D02*
X028607Y010474D01*
X028575Y010396D02*
X029465Y010396D01*
X029465Y010319D02*
X028519Y010319D01*
X028405Y010242D02*
X029465Y010242D01*
X029465Y010164D02*
X021475Y010164D01*
X021523Y010145D02*
X021414Y010190D01*
X021296Y010190D01*
X021187Y010145D01*
X021104Y010061D01*
X021059Y009953D01*
X021059Y009835D01*
X021104Y009726D01*
X021158Y009672D01*
X021158Y009641D01*
X021158Y009477D01*
X021276Y009359D01*
X021276Y009225D01*
X021198Y009225D01*
X021089Y009180D01*
X021005Y009097D01*
X020960Y008988D01*
X020960Y008870D01*
X021005Y008761D01*
X021089Y008678D01*
X021198Y008633D01*
X021315Y008633D01*
X021424Y008678D01*
X021444Y008697D01*
X021463Y008678D01*
X021572Y008633D01*
X021689Y008633D01*
X021798Y008678D01*
X021808Y008687D01*
X021817Y008678D01*
X021926Y008633D01*
X022044Y008633D01*
X022153Y008678D01*
X022236Y008761D01*
X022281Y008870D01*
X022281Y008988D01*
X022236Y009097D01*
X022153Y009180D01*
X022044Y009225D01*
X021985Y009225D01*
X021985Y009342D01*
X022044Y009342D01*
X022153Y009387D01*
X022236Y009470D01*
X022281Y009579D01*
X022281Y009697D01*
X022236Y009806D01*
X022153Y009889D01*
X022044Y009934D01*
X021926Y009934D01*
X021817Y009889D01*
X021808Y009879D01*
X021798Y009889D01*
X021689Y009934D01*
X021651Y009934D01*
X021651Y009953D01*
X021606Y010061D01*
X021523Y010145D01*
X021580Y010087D02*
X029465Y010087D01*
X029465Y010010D02*
X021627Y010010D01*
X021693Y009933D02*
X021922Y009933D01*
X022047Y009933D02*
X029465Y009933D01*
X029465Y009855D02*
X022186Y009855D01*
X022247Y009778D02*
X029465Y009778D01*
X029465Y009701D02*
X022279Y009701D01*
X022281Y009623D02*
X028086Y009623D01*
X028100Y009638D02*
X028009Y009546D01*
X022267Y009546D01*
X022235Y009469D02*
X027977Y009469D01*
X027959Y009427D02*
X027959Y009298D01*
X028009Y009178D01*
X028100Y009087D01*
X028219Y009037D01*
X028349Y009037D01*
X028468Y009087D01*
X028559Y009178D01*
X028609Y009298D01*
X028609Y009427D01*
X028559Y009546D01*
X029465Y009546D01*
X029465Y009469D02*
X028591Y009469D01*
X028609Y009392D02*
X029465Y009392D01*
X029465Y009314D02*
X028609Y009314D01*
X028584Y009237D02*
X029465Y009237D01*
X029465Y009160D02*
X028541Y009160D01*
X028457Y009082D02*
X029465Y009082D01*
X029465Y009005D02*
X022274Y009005D01*
X022281Y008928D02*
X029465Y008928D01*
X029465Y008851D02*
X022273Y008851D01*
X022241Y008773D02*
X029465Y008773D01*
X029465Y008696D02*
X022171Y008696D01*
X021985Y008929D02*
X021788Y009126D01*
X021788Y009441D01*
X021985Y009638D01*
X022158Y009392D02*
X027959Y009392D01*
X027959Y009427D02*
X028009Y009546D01*
X028100Y009638D02*
X028219Y009687D01*
X028349Y009687D01*
X028468Y009638D01*
X028559Y009546D01*
X028482Y009623D02*
X029465Y009623D01*
X029465Y008619D02*
X007125Y008619D01*
X007157Y008541D02*
X029465Y008541D01*
X029465Y008464D02*
X007184Y008464D01*
X007184Y008387D02*
X029465Y008387D01*
X029465Y008310D02*
X007184Y008310D01*
X007169Y008232D02*
X029465Y008232D01*
X029465Y008155D02*
X007137Y008155D01*
X007105Y008078D02*
X029465Y008078D01*
X029465Y008000D02*
X007030Y008000D01*
X006951Y007923D02*
X029465Y007923D01*
X029465Y007846D02*
X006764Y007846D01*
X006548Y007846D02*
X006391Y007846D01*
X006361Y007923D02*
X005951Y007923D01*
X005922Y007846D02*
X005764Y007846D01*
X006030Y008000D02*
X006282Y008000D01*
X006207Y008078D02*
X006105Y008078D01*
X006137Y008155D02*
X006175Y008155D01*
X006506Y007769D02*
X029465Y007769D01*
X029465Y007691D02*
X024638Y007691D01*
X024782Y007614D02*
X029465Y007614D01*
X029465Y007537D02*
X024859Y007537D01*
X024916Y007459D02*
X029465Y007459D01*
X029465Y007382D02*
X024948Y007382D01*
X024980Y007305D02*
X029465Y007305D01*
X029465Y007228D02*
X024981Y007228D01*
X024981Y007150D02*
X029465Y007150D01*
X029465Y007073D02*
X024973Y007073D01*
X024941Y006996D02*
X029465Y006996D01*
X029465Y005527D02*
X029016Y005527D01*
X029130Y005450D02*
X029465Y005450D01*
X029465Y005373D02*
X029218Y005373D01*
X029287Y005296D02*
X029465Y005296D01*
X029465Y005218D02*
X029342Y005218D01*
X029387Y005141D02*
X029465Y005141D01*
X029465Y005064D02*
X029423Y005064D01*
X029450Y004986D02*
X029465Y004986D01*
X029465Y004507D02*
X029465Y000898D01*
X007961Y000898D01*
X007961Y001012D01*
X007848Y001125D01*
X007751Y001125D01*
X007751Y001643D01*
X007638Y001756D01*
X007479Y001756D01*
X007366Y001643D01*
X007156Y001433D01*
X007156Y001273D01*
X007268Y001161D01*
X007366Y001161D01*
X007366Y001125D01*
X007268Y001125D01*
X007236Y001093D01*
X007204Y001125D01*
X007106Y001125D01*
X007106Y001643D01*
X006994Y001756D01*
X006834Y001756D01*
X006721Y001643D01*
X006519Y001440D01*
X006027Y001440D01*
X006027Y001538D01*
X006027Y001643D01*
X005915Y001756D01*
X005755Y001756D01*
X005335Y001756D01*
X005250Y001671D01*
X005237Y001684D01*
X005165Y001756D01*
X005006Y001756D01*
X004795Y001756D01*
X004683Y001643D01*
X004578Y001538D01*
X004578Y001440D01*
X004094Y001440D01*
X004094Y001538D01*
X004026Y001605D01*
X003981Y001651D01*
X003948Y001684D01*
X003876Y001756D01*
X003716Y001756D01*
X003506Y001756D01*
X003394Y001643D01*
X003289Y001538D01*
X003289Y001378D01*
X003289Y001125D01*
X003239Y001125D01*
X003239Y001643D01*
X003126Y001756D01*
X002967Y001756D01*
X002854Y001643D01*
X002777Y001566D01*
X002737Y001605D01*
X002692Y001651D01*
X002658Y001684D01*
X002587Y001756D01*
X002427Y001756D01*
X002217Y001756D01*
X002105Y001643D01*
X002080Y001618D01*
X002048Y001651D01*
X002047Y001651D01*
X002016Y001682D01*
X001942Y001756D01*
X001732Y001756D01*
X001573Y001756D01*
X001512Y001695D01*
X001512Y005558D01*
X001549Y005521D01*
X001781Y005425D01*
X002031Y005425D01*
X002141Y005471D01*
X001989Y005318D01*
X001869Y005029D01*
X001869Y004715D01*
X001989Y004426D01*
X002210Y004205D01*
X002499Y004085D01*
X002813Y004085D01*
X003102Y004205D01*
X003324Y004426D01*
X003444Y004715D01*
X003444Y005029D01*
X003324Y005318D01*
X003102Y005540D01*
X002813Y005659D01*
X002499Y005659D01*
X002332Y005590D01*
X002440Y005698D01*
X002536Y005930D01*
X002536Y006180D01*
X002440Y006412D01*
X002263Y006589D01*
X002214Y006609D02*
X007582Y006609D01*
X007476Y006532D02*
X002320Y006532D01*
X002397Y006455D02*
X007399Y006455D01*
X007342Y006377D02*
X002454Y006377D01*
X002486Y006300D02*
X007310Y006300D01*
X007278Y006223D02*
X002518Y006223D01*
X002536Y006146D02*
X007260Y006146D01*
X007260Y006068D02*
X002536Y006068D01*
X002536Y005991D02*
X007260Y005991D01*
X007267Y005914D02*
X002529Y005914D01*
X002497Y005836D02*
X007299Y005836D01*
X007331Y005759D02*
X002465Y005759D01*
X002424Y005682D02*
X007373Y005682D01*
X007445Y005605D02*
X007450Y005605D01*
X007692Y005450D02*
X007705Y005450D01*
X007769Y005373D02*
X025901Y005373D01*
X025869Y005450D02*
X008076Y005450D01*
X008253Y005527D02*
X025837Y005527D01*
X025805Y005605D02*
X008331Y005605D01*
X008408Y005682D02*
X011621Y005682D01*
X011622Y005681D02*
X011698Y005657D01*
X011777Y005644D01*
X011778Y005644D01*
X011778Y006114D01*
X011308Y006114D01*
X011308Y006113D01*
X011321Y006034D01*
X011346Y005958D01*
X011382Y005887D01*
X011429Y005822D01*
X011486Y005765D01*
X011551Y005718D01*
X011622Y005681D01*
X011494Y005759D02*
X008450Y005759D01*
X008482Y005836D02*
X011418Y005836D01*
X011368Y005914D02*
X008514Y005914D01*
X008520Y005991D02*
X011335Y005991D01*
X011315Y006068D02*
X008520Y006068D01*
X008520Y006146D02*
X011778Y006146D01*
X011778Y006114D02*
X011778Y006193D01*
X011308Y006193D01*
X011308Y006194D01*
X011321Y006273D01*
X011346Y006349D01*
X011382Y006420D01*
X011429Y006485D01*
X011486Y006542D01*
X011551Y006589D01*
X011622Y006626D01*
X011698Y006650D01*
X011777Y006663D01*
X011778Y006663D01*
X011778Y006193D01*
X011857Y006193D01*
X011857Y006663D01*
X011858Y006663D01*
X011937Y006650D01*
X012013Y006626D01*
X012084Y006589D01*
X012149Y006542D01*
X012206Y006485D01*
X012253Y006420D01*
X012290Y006349D01*
X012306Y006298D01*
X012370Y006452D01*
X012519Y006601D01*
X012713Y006681D01*
X012922Y006681D01*
X013116Y006601D01*
X013265Y006452D01*
X013318Y006325D01*
X013370Y006452D01*
X013519Y006601D01*
X013713Y006681D01*
X013922Y006681D01*
X014116Y006601D01*
X014265Y006452D01*
X014345Y006258D01*
X014345Y006049D01*
X014265Y005855D01*
X014116Y005706D01*
X013922Y005626D01*
X013713Y005626D01*
X013519Y005706D01*
X013370Y005855D01*
X013318Y005982D01*
X013265Y005855D01*
X013116Y005706D01*
X012922Y005626D01*
X012713Y005626D01*
X012519Y005706D01*
X012370Y005855D01*
X012306Y006010D01*
X012290Y005958D01*
X012253Y005887D01*
X012206Y005822D01*
X012149Y005765D01*
X012084Y005718D01*
X012013Y005681D01*
X011937Y005657D01*
X011858Y005644D01*
X011857Y005644D01*
X011857Y006114D01*
X011778Y006114D01*
X011778Y006068D02*
X011857Y006068D01*
X011857Y005991D02*
X011778Y005991D01*
X011778Y005914D02*
X011857Y005914D01*
X011857Y005836D02*
X011778Y005836D01*
X011778Y005759D02*
X011857Y005759D01*
X011857Y005682D02*
X011778Y005682D01*
X012014Y005682D02*
X012578Y005682D01*
X012466Y005759D02*
X012141Y005759D01*
X012217Y005836D02*
X012389Y005836D01*
X012346Y005914D02*
X012267Y005914D01*
X012300Y005991D02*
X012314Y005991D01*
X012305Y006300D02*
X012307Y006300D01*
X012275Y006377D02*
X012339Y006377D01*
X012373Y006455D02*
X012228Y006455D01*
X012159Y006532D02*
X012450Y006532D01*
X012540Y006609D02*
X012045Y006609D01*
X012112Y006687D02*
X011569Y006687D01*
X011590Y006609D02*
X008198Y006609D01*
X008304Y006532D02*
X011476Y006532D01*
X011407Y006455D02*
X008382Y006455D01*
X008439Y006377D02*
X011360Y006377D01*
X011330Y006300D02*
X008471Y006300D01*
X008503Y006223D02*
X011313Y006223D01*
X011778Y006223D02*
X011857Y006223D01*
X011857Y006300D02*
X011778Y006300D01*
X011778Y006377D02*
X011857Y006377D01*
X011857Y006455D02*
X011778Y006455D01*
X011778Y006532D02*
X011857Y006532D01*
X011857Y006609D02*
X011778Y006609D01*
X011674Y006764D02*
X011987Y006764D01*
X011915Y006841D02*
X011751Y006841D01*
X011791Y006918D02*
X011866Y006918D01*
X011833Y006996D02*
X011823Y006996D01*
X011826Y007305D02*
X011831Y007305D01*
X011862Y007382D02*
X011794Y007382D01*
X011758Y007459D02*
X011910Y007459D01*
X011980Y007537D02*
X011680Y007537D01*
X011584Y007614D02*
X012099Y007614D01*
X012278Y007614D02*
X012357Y007614D01*
X012357Y007537D02*
X012278Y007537D01*
X012278Y007459D02*
X012357Y007459D01*
X012357Y007382D02*
X012278Y007382D01*
X012278Y007305D02*
X012357Y007305D01*
X012357Y007228D02*
X012278Y007228D01*
X012278Y007073D02*
X012357Y007073D01*
X012357Y006996D02*
X012278Y006996D01*
X012278Y006918D02*
X012357Y006918D01*
X012357Y006841D02*
X012278Y006841D01*
X012278Y006764D02*
X012357Y006764D01*
X012357Y006687D02*
X012278Y006687D01*
X012523Y006687D02*
X013066Y006687D01*
X013095Y006609D02*
X013540Y006609D01*
X013569Y006687D02*
X016972Y006687D01*
X016867Y006764D02*
X013674Y006764D01*
X013751Y006841D02*
X016789Y006841D01*
X016749Y006918D02*
X013791Y006918D01*
X013823Y006996D02*
X016717Y006996D01*
X016696Y007073D02*
X013845Y007073D01*
X013845Y007150D02*
X016696Y007150D01*
X016696Y007228D02*
X013845Y007228D01*
X013826Y007305D02*
X016715Y007305D01*
X016747Y007382D02*
X013794Y007382D01*
X013758Y007459D02*
X016783Y007459D01*
X016860Y007537D02*
X013680Y007537D01*
X013584Y007614D02*
X016956Y007614D01*
X017490Y007614D02*
X018005Y007614D01*
X017886Y007537D02*
X017586Y007537D01*
X017663Y007459D02*
X017816Y007459D01*
X017768Y007382D02*
X017699Y007382D01*
X017731Y007305D02*
X017737Y007305D01*
X017729Y006996D02*
X017739Y006996D01*
X017771Y006918D02*
X017697Y006918D01*
X017657Y006841D02*
X017820Y006841D01*
X017893Y006764D02*
X017579Y006764D01*
X017474Y006687D02*
X018017Y006687D01*
X018001Y006609D02*
X018445Y006609D01*
X018429Y006687D02*
X018972Y006687D01*
X018867Y006764D02*
X018553Y006764D01*
X018626Y006841D02*
X018789Y006841D01*
X018749Y006918D02*
X018675Y006918D01*
X018707Y006996D02*
X018717Y006996D01*
X018709Y007305D02*
X018715Y007305D01*
X018747Y007382D02*
X018678Y007382D01*
X018630Y007459D02*
X018783Y007459D01*
X018860Y007537D02*
X018560Y007537D01*
X018441Y007614D02*
X018956Y007614D01*
X018262Y007614D02*
X018184Y007614D01*
X018184Y007537D02*
X018262Y007537D01*
X018262Y007459D02*
X018184Y007459D01*
X018184Y007382D02*
X018262Y007382D01*
X018262Y007305D02*
X018184Y007305D01*
X018184Y007228D02*
X018262Y007228D01*
X018262Y007073D02*
X018184Y007073D01*
X018184Y006996D02*
X018262Y006996D01*
X018262Y006918D02*
X018184Y006918D01*
X018184Y006841D02*
X018262Y006841D01*
X018262Y006764D02*
X018184Y006764D01*
X018184Y006687D02*
X018262Y006687D01*
X018356Y006532D02*
X018090Y006532D01*
X018168Y006455D02*
X018278Y006455D01*
X018245Y006377D02*
X018201Y006377D01*
X018195Y005914D02*
X018251Y005914D01*
X018294Y005836D02*
X018152Y005836D01*
X018075Y005759D02*
X018371Y005759D01*
X018483Y005682D02*
X017963Y005682D01*
X017483Y005682D02*
X014057Y005682D01*
X014169Y005759D02*
X017371Y005759D01*
X017294Y005836D02*
X014246Y005836D01*
X014289Y005914D02*
X017251Y005914D01*
X017219Y005991D02*
X014321Y005991D01*
X014345Y006068D02*
X017196Y006068D01*
X017196Y006146D02*
X014345Y006146D01*
X014345Y006223D02*
X017196Y006223D01*
X017213Y006300D02*
X014328Y006300D01*
X014296Y006377D02*
X017245Y006377D01*
X017278Y006455D02*
X014262Y006455D01*
X014185Y006532D02*
X017356Y006532D01*
X017445Y006609D02*
X014095Y006609D01*
X013450Y006532D02*
X013185Y006532D01*
X013262Y006455D02*
X013373Y006455D01*
X013339Y006377D02*
X013296Y006377D01*
X013289Y005914D02*
X013346Y005914D01*
X013389Y005836D02*
X013246Y005836D01*
X013169Y005759D02*
X013466Y005759D01*
X013578Y005682D02*
X013057Y005682D01*
X012961Y006764D02*
X012648Y006764D01*
X012720Y006841D02*
X012884Y006841D01*
X012844Y006918D02*
X012769Y006918D01*
X012802Y006996D02*
X012812Y006996D01*
X012804Y007305D02*
X012809Y007305D01*
X012841Y007382D02*
X012773Y007382D01*
X012725Y007459D02*
X012878Y007459D01*
X012955Y007537D02*
X012655Y007537D01*
X012536Y007614D02*
X013051Y007614D01*
X011066Y006687D02*
X001512Y006687D01*
X001512Y006764D02*
X010961Y006764D01*
X010884Y006841D02*
X001512Y006841D01*
X001512Y006609D02*
X001598Y006609D01*
X001543Y005527D02*
X001512Y005527D01*
X001512Y005450D02*
X001721Y005450D01*
X001512Y005373D02*
X002043Y005373D01*
X002091Y005450D02*
X002121Y005450D01*
X001979Y005296D02*
X001512Y005296D01*
X001512Y005218D02*
X001947Y005218D01*
X001915Y005141D02*
X001512Y005141D01*
X001512Y005064D02*
X001883Y005064D01*
X001869Y004986D02*
X001512Y004986D01*
X001512Y004909D02*
X001869Y004909D01*
X001869Y004832D02*
X001512Y004832D01*
X001512Y004755D02*
X001869Y004755D01*
X001885Y004677D02*
X001512Y004677D01*
X001512Y004600D02*
X001917Y004600D01*
X001949Y004523D02*
X001512Y004523D01*
X001512Y004445D02*
X001981Y004445D01*
X002046Y004368D02*
X001512Y004368D01*
X001512Y004291D02*
X002124Y004291D01*
X002201Y004214D02*
X001512Y004214D01*
X001512Y004136D02*
X002375Y004136D01*
X002390Y003754D02*
X002209Y003754D01*
X002042Y003684D01*
X001915Y003557D01*
X001846Y003390D01*
X001846Y003209D01*
X001512Y003209D01*
X001512Y003286D02*
X001846Y003286D01*
X001846Y003209D02*
X001915Y003042D01*
X002042Y002914D01*
X002209Y002845D01*
X002390Y002845D01*
X002557Y002914D01*
X002685Y003042D01*
X002754Y003209D01*
X002830Y003209D01*
X002899Y003042D01*
X003027Y002914D01*
X003194Y002845D01*
X003374Y002845D01*
X003541Y002914D01*
X003669Y003042D01*
X003738Y003209D01*
X006058Y003209D01*
X006127Y003042D01*
X006255Y002914D01*
X006422Y002845D01*
X006603Y002845D01*
X006770Y002914D01*
X006898Y003042D01*
X006967Y003209D01*
X007042Y003209D01*
X007112Y003042D01*
X007239Y002914D01*
X007406Y002845D01*
X007587Y002845D01*
X007754Y002914D01*
X007882Y003042D01*
X007951Y003209D01*
X009889Y003209D01*
X009891Y003202D02*
X010116Y002977D01*
X010409Y002856D01*
X010726Y002856D01*
X011019Y002977D01*
X011244Y003202D01*
X011365Y003495D01*
X011365Y003812D01*
X011244Y004105D01*
X011019Y004330D01*
X010726Y004451D01*
X010409Y004451D01*
X010116Y004330D01*
X009891Y004105D01*
X009770Y003812D01*
X009770Y003495D01*
X009891Y003202D01*
X009857Y003286D02*
X007951Y003286D01*
X007951Y003209D02*
X007951Y003390D01*
X007882Y003557D01*
X007754Y003684D01*
X007587Y003754D01*
X007406Y003754D01*
X007239Y003684D01*
X007112Y003557D01*
X007042Y003390D01*
X007042Y003209D01*
X006967Y003209D02*
X006967Y003390D01*
X006898Y003557D01*
X006770Y003684D01*
X006603Y003754D01*
X006422Y003754D01*
X006255Y003684D01*
X006127Y003557D01*
X006058Y003390D01*
X006058Y003209D01*
X006058Y003286D02*
X003738Y003286D01*
X003738Y003209D02*
X003738Y003390D01*
X003669Y003557D01*
X003541Y003684D01*
X003374Y003754D01*
X003194Y003754D01*
X003027Y003684D01*
X002899Y003557D01*
X002830Y003390D01*
X002830Y003209D01*
X002754Y003209D02*
X002754Y003390D01*
X002685Y003557D01*
X002557Y003684D01*
X002390Y003754D01*
X002399Y003750D02*
X003185Y003750D01*
X003015Y003673D02*
X002569Y003673D01*
X002646Y003595D02*
X002938Y003595D01*
X002883Y003518D02*
X002701Y003518D01*
X002733Y003441D02*
X002851Y003441D01*
X002830Y003363D02*
X002754Y003363D01*
X002754Y003286D02*
X002830Y003286D01*
X002862Y003132D02*
X002722Y003132D01*
X002690Y003054D02*
X002894Y003054D01*
X002964Y002977D02*
X002620Y002977D01*
X002523Y002900D02*
X003061Y002900D01*
X003507Y002900D02*
X006290Y002900D01*
X006192Y002977D02*
X003604Y002977D01*
X003674Y003054D02*
X006122Y003054D01*
X006090Y003132D02*
X003706Y003132D01*
X003738Y003363D02*
X006058Y003363D01*
X006079Y003441D02*
X003717Y003441D01*
X003685Y003518D02*
X006111Y003518D01*
X006166Y003595D02*
X003630Y003595D01*
X003553Y003673D02*
X006243Y003673D01*
X006413Y003750D02*
X003383Y003750D01*
X003111Y004214D02*
X006701Y004214D01*
X006624Y004291D02*
X003188Y004291D01*
X003266Y004368D02*
X006546Y004368D01*
X006481Y004445D02*
X003332Y004445D01*
X003364Y004523D02*
X006449Y004523D01*
X006417Y004600D02*
X003396Y004600D01*
X003428Y004677D02*
X006385Y004677D01*
X006369Y004755D02*
X003444Y004755D01*
X003444Y004832D02*
X006369Y004832D01*
X006369Y004909D02*
X003444Y004909D01*
X003444Y004986D02*
X006369Y004986D01*
X006383Y005064D02*
X003429Y005064D01*
X003397Y005141D02*
X006415Y005141D01*
X006447Y005218D02*
X003365Y005218D01*
X003333Y005296D02*
X006479Y005296D01*
X006543Y005373D02*
X003269Y005373D01*
X003192Y005450D02*
X006621Y005450D01*
X006698Y005527D02*
X003114Y005527D01*
X002945Y005605D02*
X006867Y005605D01*
X007833Y005296D02*
X025971Y005296D01*
X026049Y005218D02*
X007865Y005218D01*
X007897Y005141D02*
X026126Y005141D01*
X026247Y005064D02*
X007929Y005064D01*
X007944Y004986D02*
X026433Y004986D01*
X026553Y004453D02*
X026452Y004430D01*
X026353Y004395D01*
X026259Y004350D01*
X026171Y004295D01*
X026089Y004229D01*
X026015Y004156D01*
X025950Y004074D01*
X025895Y003986D01*
X025849Y003892D01*
X025815Y003793D01*
X025792Y003691D01*
X025780Y003588D01*
X025780Y003575D01*
X026670Y003575D01*
X026670Y004465D01*
X026657Y004465D01*
X026553Y004453D01*
X026520Y004445D02*
X020645Y004445D01*
X020632Y004451D02*
X020314Y004451D01*
X020021Y004330D01*
X019797Y004105D01*
X019676Y003812D01*
X019676Y003495D01*
X019797Y003202D01*
X020021Y002977D01*
X020314Y002856D01*
X020632Y002856D01*
X020925Y002977D01*
X021149Y003202D01*
X021271Y003495D01*
X021271Y003812D01*
X021149Y004105D01*
X020925Y004330D01*
X020632Y004451D01*
X020832Y004368D02*
X026296Y004368D01*
X026166Y004291D02*
X020964Y004291D01*
X021041Y004214D02*
X026073Y004214D01*
X026000Y004136D02*
X021118Y004136D01*
X021168Y004059D02*
X025941Y004059D01*
X025893Y003982D02*
X021200Y003982D01*
X021232Y003904D02*
X025855Y003904D01*
X025827Y003827D02*
X021264Y003827D01*
X021271Y003750D02*
X025805Y003750D01*
X025790Y003673D02*
X021271Y003673D01*
X021271Y003595D02*
X025781Y003595D01*
X025780Y003496D02*
X025780Y003483D01*
X025792Y003379D01*
X025815Y003278D01*
X025849Y003179D01*
X025895Y003085D01*
X025950Y002997D01*
X026015Y002915D01*
X026089Y002841D01*
X026171Y002776D01*
X026259Y002721D01*
X026353Y002675D01*
X026452Y002641D01*
X026553Y002618D01*
X026657Y002606D01*
X026670Y002606D01*
X026670Y003496D01*
X026749Y003496D01*
X026749Y003575D01*
X027639Y003575D01*
X027639Y003588D01*
X027627Y003691D01*
X027604Y003793D01*
X027569Y003892D01*
X027524Y003986D01*
X027468Y004074D01*
X027403Y004156D01*
X027330Y004229D01*
X027248Y004295D01*
X027160Y004350D01*
X027065Y004395D01*
X026967Y004430D01*
X026865Y004453D01*
X026761Y004465D01*
X026749Y004465D01*
X026749Y003575D01*
X026670Y003575D01*
X026670Y003496D01*
X025780Y003496D01*
X025785Y003441D02*
X021248Y003441D01*
X021271Y003518D02*
X026670Y003518D01*
X026670Y003595D02*
X026749Y003595D01*
X026749Y003518D02*
X029465Y003518D01*
X029465Y003595D02*
X027638Y003595D01*
X027629Y003673D02*
X029465Y003673D01*
X029465Y003750D02*
X027614Y003750D01*
X027592Y003827D02*
X028288Y003827D01*
X028105Y003904D02*
X027563Y003904D01*
X027526Y003982D02*
X027990Y003982D01*
X027903Y004059D02*
X027478Y004059D01*
X027419Y004136D02*
X027834Y004136D01*
X027778Y004214D02*
X027345Y004214D01*
X027253Y004291D02*
X027733Y004291D01*
X027697Y004368D02*
X027122Y004368D01*
X026899Y004445D02*
X027670Y004445D01*
X027651Y004523D02*
X007864Y004523D01*
X007896Y004600D02*
X027638Y004600D01*
X027637Y004832D02*
X007944Y004832D01*
X007944Y004909D02*
X027650Y004909D01*
X027670Y004986D02*
X026985Y004986D01*
X027172Y005064D02*
X027697Y005064D01*
X027733Y005141D02*
X027293Y005141D01*
X027370Y005218D02*
X027777Y005218D01*
X027833Y005296D02*
X027447Y005296D01*
X027517Y005373D02*
X027902Y005373D01*
X027989Y005450D02*
X027549Y005450D01*
X027581Y005527D02*
X028103Y005527D01*
X028284Y005605D02*
X027613Y005605D01*
X028520Y004677D02*
X028599Y004677D01*
X028599Y003787D01*
X028612Y003787D01*
X028716Y003799D01*
X028817Y003822D01*
X028916Y003857D01*
X029010Y003902D01*
X029098Y003957D01*
X029180Y004022D01*
X029254Y004096D01*
X029319Y004178D01*
X029374Y004266D01*
X029420Y004360D01*
X029454Y004459D01*
X029465Y004507D01*
X029465Y004445D02*
X029449Y004445D01*
X029465Y004368D02*
X029422Y004368D01*
X029386Y004291D02*
X029465Y004291D01*
X029465Y004214D02*
X029341Y004214D01*
X029286Y004136D02*
X029465Y004136D01*
X029465Y004059D02*
X029216Y004059D01*
X029129Y003982D02*
X029465Y003982D01*
X029465Y003904D02*
X029014Y003904D01*
X028832Y003827D02*
X029465Y003827D01*
X029465Y003441D02*
X027634Y003441D01*
X027639Y003483D02*
X027627Y003379D01*
X027604Y003278D01*
X027569Y003179D01*
X027524Y003085D01*
X027468Y002997D01*
X027403Y002915D01*
X027330Y002841D01*
X027248Y002776D01*
X027160Y002721D01*
X027065Y002675D01*
X026967Y002641D01*
X026865Y002618D01*
X026761Y002606D01*
X026749Y002606D01*
X026749Y003496D01*
X027639Y003496D01*
X027639Y003483D01*
X027623Y003363D02*
X029465Y003363D01*
X029465Y003286D02*
X027606Y003286D01*
X027580Y003209D02*
X029465Y003209D01*
X029465Y003132D02*
X027546Y003132D01*
X027505Y003054D02*
X029465Y003054D01*
X029465Y002977D02*
X027453Y002977D01*
X027388Y002900D02*
X029465Y002900D01*
X029465Y002822D02*
X027306Y002822D01*
X027198Y002745D02*
X029465Y002745D01*
X029465Y002668D02*
X027044Y002668D01*
X026749Y002668D02*
X026670Y002668D01*
X026670Y002745D02*
X026749Y002745D01*
X026749Y002822D02*
X026670Y002822D01*
X026670Y002900D02*
X026749Y002900D01*
X026749Y002977D02*
X026670Y002977D01*
X026670Y003054D02*
X026749Y003054D01*
X026749Y003132D02*
X026670Y003132D01*
X026670Y003209D02*
X026749Y003209D01*
X026749Y003286D02*
X026670Y003286D01*
X026670Y003363D02*
X026749Y003363D01*
X026749Y003441D02*
X026670Y003441D01*
X026670Y003673D02*
X026749Y003673D01*
X026749Y003750D02*
X026670Y003750D01*
X026670Y003827D02*
X026749Y003827D01*
X026749Y003904D02*
X026670Y003904D01*
X026670Y003982D02*
X026749Y003982D01*
X026749Y004059D02*
X026670Y004059D01*
X026670Y004136D02*
X026749Y004136D01*
X026749Y004214D02*
X026670Y004214D01*
X026670Y004291D02*
X026749Y004291D01*
X026749Y004368D02*
X026670Y004368D01*
X026670Y004445D02*
X026749Y004445D01*
X025795Y003363D02*
X021216Y003363D01*
X021184Y003286D02*
X025813Y003286D01*
X025839Y003209D02*
X021152Y003209D01*
X021079Y003132D02*
X025872Y003132D01*
X025914Y003054D02*
X021002Y003054D01*
X020924Y002977D02*
X025966Y002977D01*
X026031Y002900D02*
X020737Y002900D01*
X020209Y002900D02*
X016737Y002900D01*
X016632Y002856D02*
X016925Y002977D01*
X017149Y003202D01*
X017271Y003495D01*
X017271Y003812D01*
X017149Y004105D01*
X016925Y004330D01*
X016632Y004451D01*
X016314Y004451D01*
X016021Y004330D01*
X015797Y004105D01*
X015676Y003812D01*
X015676Y003495D01*
X015797Y003202D01*
X016021Y002977D01*
X016314Y002856D01*
X016632Y002856D01*
X016924Y002977D02*
X020022Y002977D01*
X019944Y003054D02*
X017002Y003054D01*
X017079Y003132D02*
X019867Y003132D01*
X019794Y003209D02*
X017152Y003209D01*
X017184Y003286D02*
X019762Y003286D01*
X019730Y003363D02*
X017216Y003363D01*
X017248Y003441D02*
X019698Y003441D01*
X019676Y003518D02*
X017271Y003518D01*
X017271Y003595D02*
X019676Y003595D01*
X019676Y003673D02*
X017271Y003673D01*
X017271Y003750D02*
X019676Y003750D01*
X019682Y003827D02*
X017264Y003827D01*
X017232Y003904D02*
X019714Y003904D01*
X019746Y003982D02*
X017200Y003982D01*
X017168Y004059D02*
X019778Y004059D01*
X019828Y004136D02*
X017118Y004136D01*
X017041Y004214D02*
X019905Y004214D01*
X019983Y004291D02*
X016964Y004291D01*
X016832Y004368D02*
X020114Y004368D01*
X020301Y004445D02*
X016645Y004445D01*
X016301Y004445D02*
X014740Y004445D01*
X014726Y004451D02*
X014409Y004451D01*
X014116Y004330D01*
X013891Y004105D01*
X013770Y003812D01*
X013770Y003495D01*
X013891Y003202D01*
X014116Y002977D01*
X014409Y002856D01*
X014726Y002856D01*
X015019Y002977D01*
X015244Y003202D01*
X015365Y003495D01*
X015365Y003812D01*
X015244Y004105D01*
X015019Y004330D01*
X014726Y004451D01*
X014926Y004368D02*
X016114Y004368D01*
X015983Y004291D02*
X015058Y004291D01*
X015135Y004214D02*
X015905Y004214D01*
X015828Y004136D02*
X015213Y004136D01*
X015263Y004059D02*
X015778Y004059D01*
X015746Y003982D02*
X015295Y003982D01*
X015327Y003904D02*
X015714Y003904D01*
X015682Y003827D02*
X015359Y003827D01*
X015365Y003750D02*
X015676Y003750D01*
X015676Y003673D02*
X015365Y003673D01*
X015365Y003595D02*
X015676Y003595D01*
X015676Y003518D02*
X015365Y003518D01*
X015343Y003441D02*
X015698Y003441D01*
X015730Y003363D02*
X015311Y003363D01*
X015279Y003286D02*
X015762Y003286D01*
X015794Y003209D02*
X015246Y003209D01*
X015173Y003132D02*
X015867Y003132D01*
X015944Y003054D02*
X015096Y003054D01*
X015018Y002977D02*
X016022Y002977D01*
X016209Y002900D02*
X014832Y002900D01*
X014303Y002900D02*
X010832Y002900D01*
X011018Y002977D02*
X014117Y002977D01*
X014039Y003054D02*
X011096Y003054D01*
X011173Y003132D02*
X013962Y003132D01*
X013889Y003209D02*
X011246Y003209D01*
X011279Y003286D02*
X013857Y003286D01*
X013825Y003363D02*
X011311Y003363D01*
X011343Y003441D02*
X013792Y003441D01*
X013770Y003518D02*
X011365Y003518D01*
X011365Y003595D02*
X013770Y003595D01*
X013770Y003673D02*
X011365Y003673D01*
X011365Y003750D02*
X013770Y003750D01*
X013776Y003827D02*
X011359Y003827D01*
X011327Y003904D02*
X013808Y003904D01*
X013840Y003982D02*
X011295Y003982D01*
X011263Y004059D02*
X013872Y004059D01*
X013922Y004136D02*
X011213Y004136D01*
X011135Y004214D02*
X014000Y004214D01*
X014077Y004291D02*
X011058Y004291D01*
X010926Y004368D02*
X014209Y004368D01*
X014395Y004445D02*
X010740Y004445D01*
X010395Y004445D02*
X007832Y004445D01*
X007766Y004368D02*
X010209Y004368D01*
X010077Y004291D02*
X007688Y004291D01*
X007611Y004214D02*
X010000Y004214D01*
X009922Y004136D02*
X007437Y004136D01*
X007397Y003750D02*
X006612Y003750D01*
X006782Y003673D02*
X007228Y003673D01*
X007150Y003595D02*
X006859Y003595D01*
X006914Y003518D02*
X007096Y003518D01*
X007064Y003441D02*
X006946Y003441D01*
X006967Y003363D02*
X007042Y003363D01*
X007042Y003286D02*
X006967Y003286D01*
X006935Y003132D02*
X007074Y003132D01*
X007106Y003054D02*
X006903Y003054D01*
X006833Y002977D02*
X007176Y002977D01*
X007274Y002900D02*
X006735Y002900D01*
X007719Y002900D02*
X010303Y002900D01*
X010117Y002977D02*
X007817Y002977D01*
X007887Y003054D02*
X010039Y003054D01*
X009962Y003132D02*
X007919Y003132D01*
X007951Y003363D02*
X009825Y003363D01*
X009792Y003441D02*
X007930Y003441D01*
X007898Y003518D02*
X009770Y003518D01*
X009770Y003595D02*
X007843Y003595D01*
X007766Y003673D02*
X009770Y003673D01*
X009770Y003750D02*
X007596Y003750D01*
X006875Y004136D02*
X002937Y004136D01*
X002201Y003750D02*
X001512Y003750D01*
X001512Y003827D02*
X009776Y003827D01*
X009808Y003904D02*
X001512Y003904D01*
X001512Y003982D02*
X009840Y003982D01*
X009872Y004059D02*
X001512Y004059D01*
X001512Y003673D02*
X002031Y003673D01*
X001953Y003595D02*
X001512Y003595D01*
X001512Y003518D02*
X001899Y003518D01*
X001867Y003441D02*
X001512Y003441D01*
X001512Y003363D02*
X001846Y003363D01*
X001877Y003132D02*
X001512Y003132D01*
X001512Y003054D02*
X001910Y003054D01*
X001980Y002977D02*
X001512Y002977D01*
X001512Y002900D02*
X002077Y002900D01*
X001512Y002822D02*
X026113Y002822D01*
X026220Y002745D02*
X001512Y002745D01*
X001512Y002668D02*
X026375Y002668D01*
X028520Y003827D02*
X028599Y003827D01*
X028599Y003904D02*
X028520Y003904D01*
X028520Y003982D02*
X028599Y003982D01*
X028599Y004059D02*
X028520Y004059D01*
X028520Y004136D02*
X028599Y004136D01*
X028599Y004214D02*
X028520Y004214D01*
X028520Y004291D02*
X028599Y004291D01*
X028599Y004368D02*
X028520Y004368D01*
X028520Y004445D02*
X028599Y004445D01*
X028599Y004523D02*
X028520Y004523D01*
X028520Y004600D02*
X028599Y004600D01*
X029465Y002591D02*
X001512Y002591D01*
X001512Y002513D02*
X029465Y002513D01*
X029465Y002436D02*
X001512Y002436D01*
X001512Y002359D02*
X029465Y002359D01*
X029465Y002281D02*
X001512Y002281D01*
X001512Y002204D02*
X029465Y002204D01*
X029465Y002127D02*
X001512Y002127D01*
X001512Y002050D02*
X029465Y002050D01*
X029465Y001972D02*
X001512Y001972D01*
X001512Y001895D02*
X029465Y001895D01*
X029465Y001818D02*
X001512Y001818D01*
X001512Y001740D02*
X001558Y001740D01*
X001958Y001740D02*
X002202Y001740D01*
X002125Y001663D02*
X002035Y001663D01*
X002587Y001756D02*
X002587Y001756D01*
X002602Y001740D02*
X002952Y001740D01*
X002874Y001663D02*
X002679Y001663D01*
X002692Y001651D02*
X002692Y001651D01*
X002757Y001586D02*
X002797Y001586D01*
X003141Y001740D02*
X003491Y001740D01*
X003414Y001663D02*
X003219Y001663D01*
X003239Y001586D02*
X003337Y001586D01*
X003289Y001509D02*
X003239Y001509D01*
X003239Y001431D02*
X003289Y001431D01*
X003289Y001354D02*
X003239Y001354D01*
X003239Y001277D02*
X003289Y001277D01*
X003289Y001199D02*
X003239Y001199D01*
X003876Y001756D02*
X003876Y001756D01*
X003891Y001740D02*
X004780Y001740D01*
X004703Y001663D02*
X003968Y001663D01*
X003981Y001651D02*
X003981Y001651D01*
X004046Y001586D02*
X004626Y001586D01*
X004578Y001509D02*
X004094Y001509D01*
X004094Y001538D02*
X004094Y001538D01*
X005165Y001756D02*
X005165Y001756D01*
X005180Y001740D02*
X005320Y001740D01*
X005930Y001740D02*
X006819Y001740D01*
X006742Y001663D02*
X006007Y001663D01*
X006027Y001586D02*
X006664Y001586D01*
X006587Y001509D02*
X006027Y001509D01*
X007009Y001740D02*
X007463Y001740D01*
X007386Y001663D02*
X007086Y001663D01*
X007106Y001586D02*
X007309Y001586D01*
X007232Y001509D02*
X007106Y001509D01*
X007106Y001431D02*
X007156Y001431D01*
X007156Y001354D02*
X007106Y001354D01*
X007106Y001277D02*
X007156Y001277D01*
X007106Y001199D02*
X007229Y001199D01*
X007207Y001122D02*
X007266Y001122D01*
X007751Y001199D02*
X029465Y001199D01*
X029465Y001122D02*
X007851Y001122D01*
X007928Y001045D02*
X029465Y001045D01*
X029465Y000968D02*
X007961Y000968D01*
X007751Y001277D02*
X029465Y001277D01*
X029465Y001354D02*
X007751Y001354D01*
X007751Y001431D02*
X029465Y001431D01*
X029465Y001509D02*
X007751Y001509D01*
X007751Y001586D02*
X029465Y001586D01*
X029465Y001663D02*
X007730Y001663D01*
X007653Y001740D02*
X029465Y001740D01*
X023493Y006764D02*
X023414Y006764D01*
X023414Y006841D02*
X023493Y006841D01*
X023493Y006918D02*
X023414Y006918D01*
X023414Y006996D02*
X023493Y006996D01*
X023493Y007073D02*
X023414Y007073D01*
X023414Y007150D02*
X023493Y007150D01*
X021445Y008696D02*
X021442Y008696D01*
X021276Y008929D02*
X021473Y009126D01*
X021473Y009441D01*
X021355Y009559D01*
X021355Y009894D01*
X021234Y010164D02*
X001512Y010164D01*
X001512Y010087D02*
X021129Y010087D01*
X021082Y010010D02*
X001512Y010010D01*
X001512Y009933D02*
X021059Y009933D01*
X021059Y009855D02*
X001512Y009855D01*
X001512Y009778D02*
X021082Y009778D01*
X021129Y009701D02*
X001512Y009701D01*
X001512Y009623D02*
X021158Y009623D01*
X021158Y009546D02*
X001512Y009546D01*
X001512Y009469D02*
X021167Y009469D01*
X021244Y009392D02*
X001512Y009392D01*
X001512Y009314D02*
X021276Y009314D01*
X021276Y009237D02*
X001512Y009237D01*
X001512Y009160D02*
X021068Y009160D01*
X020999Y009082D02*
X001512Y009082D01*
X001512Y009005D02*
X020967Y009005D01*
X020960Y008928D02*
X001512Y008928D01*
X001512Y008851D02*
X003433Y008851D01*
X003311Y008773D02*
X001512Y008773D01*
X001512Y008696D02*
X003234Y008696D01*
X003187Y008619D02*
X001512Y008619D01*
X001512Y008541D02*
X003155Y008541D01*
X003129Y008464D02*
X001512Y008464D01*
X001512Y008387D02*
X003129Y008387D01*
X003129Y008310D02*
X001512Y008310D01*
X001512Y008232D02*
X003143Y008232D01*
X003175Y008155D02*
X001512Y008155D01*
X001512Y008078D02*
X003207Y008078D01*
X003282Y008000D02*
X001512Y008000D01*
X003684Y006996D02*
X003786Y006996D01*
X003873Y006918D02*
X003665Y006918D01*
X004439Y006918D02*
X004873Y006918D01*
X004786Y006996D02*
X004526Y006996D01*
X004603Y007073D02*
X004656Y007201D01*
X004709Y007073D01*
X004677Y007150D02*
X004635Y007150D01*
X004627Y007614D02*
X004685Y007614D01*
X004729Y007691D02*
X004583Y007691D01*
X004282Y008000D02*
X004030Y008000D01*
X004105Y008078D02*
X004207Y008078D01*
X004175Y008155D02*
X004137Y008155D01*
X004125Y008619D02*
X004187Y008619D01*
X004234Y008696D02*
X004078Y008696D01*
X004001Y008773D02*
X004311Y008773D01*
X004433Y008851D02*
X003879Y008851D01*
X004879Y008851D02*
X005433Y008851D01*
X005311Y008773D02*
X005001Y008773D01*
X005078Y008696D02*
X005234Y008696D01*
X005187Y008619D02*
X005125Y008619D01*
X005137Y008155D02*
X005175Y008155D01*
X005207Y008078D02*
X005105Y008078D01*
X005030Y008000D02*
X005282Y008000D01*
X006125Y008619D02*
X006187Y008619D01*
X006234Y008696D02*
X006078Y008696D01*
X006001Y008773D02*
X006311Y008773D01*
X006433Y008851D02*
X005879Y008851D01*
X006879Y008851D02*
X020968Y008851D01*
X021000Y008773D02*
X007001Y008773D01*
X007078Y008696D02*
X021071Y008696D01*
X021257Y008929D02*
X021276Y008929D01*
X021631Y008929D02*
X021631Y009638D01*
X021985Y009314D02*
X027959Y009314D01*
X027984Y009237D02*
X021985Y009237D01*
X022173Y009160D02*
X028027Y009160D01*
X028111Y009082D02*
X022242Y009082D01*
X022172Y010705D02*
X028000Y010705D01*
X027968Y010628D02*
X001512Y010628D01*
X001512Y010551D02*
X027959Y010551D01*
X027961Y010474D02*
X001512Y010474D01*
X001512Y010396D02*
X027993Y010396D01*
X028049Y010319D02*
X001512Y010319D01*
X001512Y010242D02*
X028164Y010242D01*
X028064Y010783D02*
X022242Y010783D01*
X021985Y010937D02*
X021985Y011213D01*
X022457Y011685D01*
X022201Y011665D02*
X022201Y011941D01*
X022201Y011665D02*
X021749Y011213D01*
X021709Y011213D01*
X021435Y011324D02*
X001512Y011324D01*
X001512Y011401D02*
X021479Y011401D01*
X021576Y011478D02*
X001512Y011478D01*
X001512Y011555D02*
X021813Y011555D01*
X021890Y011633D02*
X004740Y011633D01*
X004870Y011710D02*
X006069Y011710D01*
X006445Y011710D02*
X021968Y011710D01*
X021944Y011787D02*
X006514Y011787D01*
X006545Y011865D02*
X021912Y011865D01*
X021905Y011942D02*
X006553Y011942D01*
X006545Y012019D02*
X021913Y012019D01*
X021945Y012096D02*
X006513Y012096D01*
X006443Y012174D02*
X022015Y012174D01*
X021413Y011246D02*
X001512Y011246D01*
X001512Y011169D02*
X021413Y011169D01*
X021439Y011092D02*
X001512Y011092D01*
X001512Y011014D02*
X021488Y011014D01*
X021600Y010937D02*
X001512Y010937D01*
X001512Y010860D02*
X021696Y010860D01*
X021728Y010783D02*
X001512Y010783D01*
X001512Y010705D02*
X021798Y010705D01*
X018624Y013024D02*
X029465Y013024D01*
X029465Y013101D02*
X018673Y013101D01*
X018698Y013178D02*
X029465Y013178D01*
X029465Y013256D02*
X018698Y013256D01*
X018676Y013333D02*
X029465Y013333D01*
X029465Y013410D02*
X018631Y013410D01*
X018599Y013488D02*
X029465Y013488D01*
X029465Y013565D02*
X018599Y013565D01*
X018599Y013642D02*
X029465Y013642D01*
X029465Y013719D02*
X018556Y013719D01*
X018478Y013797D02*
X029465Y013797D01*
X029465Y013874D02*
X018401Y013874D01*
X018328Y013951D02*
X029465Y013951D01*
X029465Y014029D02*
X018409Y014029D01*
X018446Y014106D02*
X029465Y014106D01*
X029465Y014183D02*
X018462Y014183D01*
X018462Y014260D02*
X029465Y014260D01*
X029465Y014338D02*
X019820Y014338D01*
X019790Y014308D02*
X019874Y014391D01*
X019919Y014500D01*
X019919Y014618D01*
X019874Y014727D01*
X019819Y014781D01*
X019819Y015006D01*
X019874Y015061D01*
X019919Y015169D01*
X019919Y015287D01*
X019874Y015396D01*
X019790Y015479D01*
X019682Y015525D01*
X019564Y015525D01*
X019455Y015479D01*
X019372Y015396D01*
X019326Y015287D01*
X019326Y015169D01*
X019372Y015061D01*
X019426Y015006D01*
X019426Y014781D01*
X019372Y014727D01*
X019326Y014618D01*
X019326Y014500D01*
X019372Y014391D01*
X019455Y014308D01*
X019564Y014263D01*
X019682Y014263D01*
X019790Y014308D01*
X019884Y014415D02*
X029465Y014415D01*
X029465Y014492D02*
X019916Y014492D01*
X019919Y014570D02*
X029465Y014570D01*
X029465Y014647D02*
X019907Y014647D01*
X019875Y014724D02*
X029465Y014724D01*
X029465Y014801D02*
X019819Y014801D01*
X019819Y014879D02*
X029465Y014879D01*
X029465Y014956D02*
X019819Y014956D01*
X019846Y015033D02*
X029465Y015033D01*
X029465Y015111D02*
X019894Y015111D01*
X019919Y015188D02*
X029465Y015188D01*
X029465Y015265D02*
X019919Y015265D01*
X019896Y015342D02*
X028151Y015342D01*
X027977Y015420D02*
X019850Y015420D01*
X019748Y015497D02*
X027899Y015497D01*
X027831Y015574D02*
X016259Y015574D01*
X016387Y015497D02*
X019497Y015497D01*
X019395Y015420D02*
X017584Y015420D01*
X017438Y015287D02*
X017654Y015071D01*
X017773Y015342D02*
X019349Y015342D01*
X019326Y015265D02*
X017879Y015265D01*
X017926Y015188D02*
X019326Y015188D01*
X019351Y015111D02*
X017950Y015111D01*
X017950Y015033D02*
X019399Y015033D01*
X019426Y014956D02*
X017927Y014956D01*
X017881Y014879D02*
X019426Y014879D01*
X019426Y014801D02*
X017828Y014801D01*
X017905Y014724D02*
X019370Y014724D01*
X019338Y014647D02*
X017983Y014647D01*
X018060Y014570D02*
X019326Y014570D01*
X019330Y014492D02*
X018246Y014492D01*
X018375Y014415D02*
X019362Y014415D01*
X019425Y014338D02*
X018432Y014338D01*
X018166Y014205D02*
X018146Y014205D01*
X017320Y015031D01*
X015902Y015031D01*
X015883Y015051D01*
X015812Y015342D02*
X008935Y015342D01*
X009010Y015420D02*
X015912Y015420D01*
X015968Y015497D02*
X009042Y015497D01*
X009053Y015574D02*
X010873Y015574D01*
X010749Y015651D02*
X009049Y015651D01*
X009017Y015729D02*
X010694Y015729D01*
X010665Y015806D02*
X010147Y015806D01*
X010224Y015883D02*
X010658Y015883D01*
X010580Y015961D02*
X010258Y015961D01*
X010273Y016038D02*
X010503Y016038D01*
X010426Y016115D02*
X010273Y016115D01*
X010241Y016192D02*
X010349Y016192D01*
X010331Y016270D02*
X010181Y016270D01*
X010076Y016347D02*
X010331Y016347D01*
X010331Y016424D02*
X010076Y016424D01*
X010046Y016502D02*
X010331Y016502D01*
X010331Y016579D02*
X009990Y016579D01*
X009863Y016656D02*
X010331Y016656D01*
X010331Y016733D02*
X009583Y016733D01*
X009583Y016811D02*
X010331Y016811D01*
X010331Y016888D02*
X009583Y016888D01*
X009583Y016965D02*
X010331Y016965D01*
X010331Y017043D02*
X009583Y017043D01*
X009610Y017120D02*
X010331Y017120D01*
X010331Y017197D02*
X009658Y017197D01*
X009683Y017274D02*
X010331Y017274D01*
X010331Y017352D02*
X009683Y017352D01*
X009660Y017429D02*
X010331Y017429D01*
X010331Y017506D02*
X009614Y017506D01*
X009512Y017584D02*
X010331Y017584D01*
X010331Y017661D02*
X005759Y017661D01*
X005836Y017584D02*
X006677Y017584D01*
X006847Y017335D02*
X005666Y017335D01*
X005587Y017413D01*
X005305Y017506D02*
X005300Y017506D01*
X005292Y017584D02*
X005339Y017584D01*
X005292Y017661D02*
X005416Y017661D01*
X005292Y017738D02*
X010331Y017738D01*
X010331Y017815D02*
X005292Y017815D01*
X005292Y017893D02*
X010331Y017893D01*
X010331Y017970D02*
X005292Y017970D01*
X005292Y018047D02*
X010331Y018047D01*
X010331Y018125D02*
X005292Y018125D01*
X005292Y018202D02*
X010308Y018202D01*
X010528Y018260D02*
X010331Y018457D01*
X008166Y018457D01*
X007812Y018811D01*
X006434Y018811D01*
X005843Y019402D01*
X005726Y019129D02*
X005566Y019129D01*
X005449Y019402D02*
X005449Y019520D01*
X005607Y019677D01*
X007142Y019677D01*
X007379Y019441D01*
X008087Y019441D01*
X008442Y019087D01*
X010646Y019087D01*
X011158Y018575D01*
X011158Y017098D01*
X011335Y016921D01*
X011473Y016921D01*
X011749Y016646D01*
X012045Y016656D02*
X015016Y016656D01*
X015016Y016733D02*
X012033Y016733D01*
X012001Y016811D02*
X015016Y016811D01*
X015016Y016888D02*
X011925Y016888D01*
X011707Y016965D02*
X015016Y016965D01*
X015016Y017043D02*
X011630Y017043D01*
X011415Y017120D02*
X015016Y017120D01*
X015016Y017197D02*
X011355Y017197D01*
X011355Y017274D02*
X015091Y017274D01*
X015168Y017352D02*
X011355Y017352D01*
X011355Y017429D02*
X015246Y017429D01*
X015323Y017506D02*
X011355Y017506D01*
X011355Y017584D02*
X015389Y017584D01*
X015389Y017661D02*
X011355Y017661D01*
X011355Y017738D02*
X015410Y017738D01*
X015452Y017815D02*
X011355Y017815D01*
X011355Y017893D02*
X015546Y017893D01*
X015747Y017970D02*
X011355Y017970D01*
X011355Y018047D02*
X015825Y018047D01*
X015922Y017866D02*
X015686Y017630D01*
X015922Y017866D02*
X016158Y017866D01*
X016257Y017768D01*
X016532Y017768D01*
X016847Y018083D01*
X016847Y018122D01*
X016886Y017886D02*
X017005Y017886D01*
X017103Y017984D01*
X017103Y018358D01*
X017064Y018398D01*
X017191Y018666D02*
X017206Y018666D01*
X017129Y018743D02*
X011268Y018743D01*
X011191Y018820D02*
X016803Y018820D01*
X016676Y018897D02*
X011114Y018897D01*
X011037Y018975D02*
X016620Y018975D01*
X016590Y019052D02*
X010959Y019052D01*
X010882Y019129D02*
X016590Y019129D01*
X016607Y019207D02*
X010805Y019207D01*
X010568Y018929D02*
X011001Y018496D01*
X011001Y017020D01*
X011355Y016665D01*
X011533Y016424D02*
X011551Y016424D01*
X011242Y016347D02*
X015312Y016347D01*
X015235Y016424D02*
X011946Y016424D01*
X012010Y016502D02*
X015158Y016502D01*
X015080Y016579D02*
X012042Y016579D01*
X011257Y016270D02*
X015626Y016270D01*
X015703Y016192D02*
X011257Y016192D01*
X011225Y016115D02*
X017257Y016115D01*
X017334Y016038D02*
X011200Y016038D01*
X011239Y015961D02*
X017411Y015961D01*
X017488Y015883D02*
X011257Y015883D01*
X011257Y015806D02*
X017566Y015806D01*
X017643Y015729D02*
X011228Y015729D01*
X011173Y015651D02*
X017720Y015651D01*
X017910Y015976D02*
X017280Y016606D01*
X016197Y016606D01*
X016099Y016508D01*
X015883Y016508D01*
X015725Y016665D01*
X015509Y016665D01*
X015371Y016803D01*
X015371Y017039D01*
X015528Y017197D01*
X016119Y017197D01*
X016237Y017079D01*
X016808Y017079D01*
X016926Y017197D01*
X016926Y017453D01*
X017044Y017571D01*
X017300Y017571D01*
X017792Y018063D01*
X018343Y018063D01*
X018442Y018161D01*
X018442Y019933D01*
X018323Y020051D01*
X018166Y020051D01*
X018009Y020209D01*
X018009Y020307D01*
X017910Y020406D01*
X006768Y020406D01*
X005233Y021941D01*
X004505Y021941D01*
X004268Y022177D01*
X004268Y023339D01*
X004383Y023612D02*
X005138Y023612D01*
X005030Y023534D02*
X004491Y023534D01*
X004540Y023457D02*
X004981Y023457D01*
X004956Y023380D02*
X004565Y023380D01*
X004565Y023303D02*
X004652Y023303D01*
X004822Y023303D02*
X004956Y023303D01*
X005253Y023339D02*
X005253Y022157D01*
X006847Y020563D01*
X018776Y020563D01*
X018914Y020425D01*
X018914Y017551D01*
X018835Y017472D01*
X018678Y017217D02*
X019760Y017217D01*
X019898Y017354D01*
X019898Y017551D01*
X019426Y018024D01*
X019426Y018890D01*
X019721Y019185D01*
X022162Y019185D01*
X022379Y019402D01*
X022652Y019516D02*
X022673Y019516D01*
X022675Y019438D02*
X027995Y019438D01*
X027906Y019516D02*
X022871Y019516D01*
X022989Y019593D02*
X027848Y019593D01*
X027810Y019670D02*
X023041Y019670D01*
X023068Y019748D02*
X027786Y019748D01*
X027775Y019902D02*
X023049Y019902D01*
X023068Y019825D02*
X028245Y019825D01*
X028245Y019902D02*
X028323Y019902D01*
X028324Y019825D02*
X029465Y019825D01*
X029465Y019902D02*
X028793Y019902D01*
X028793Y019898D02*
X028793Y019898D01*
X028780Y019979D02*
X029465Y019979D01*
X029465Y020057D02*
X028755Y020057D01*
X028713Y020134D02*
X029465Y020134D01*
X029465Y020211D02*
X028651Y020211D01*
X028558Y020289D02*
X029465Y020289D01*
X029465Y020366D02*
X028517Y020366D01*
X028423Y020366D02*
X028345Y020366D01*
X028345Y020443D02*
X028423Y020443D01*
X028423Y020520D02*
X028345Y020520D01*
X028345Y020598D02*
X028423Y020598D01*
X028423Y020675D02*
X028345Y020675D01*
X028345Y020752D02*
X028423Y020752D01*
X028424Y020829D02*
X029465Y020829D01*
X029465Y020752D02*
X028883Y020752D01*
X028860Y020675D02*
X029465Y020675D01*
X029465Y020598D02*
X028823Y020598D01*
X028767Y020520D02*
X029465Y020520D01*
X029465Y020443D02*
X028679Y020443D01*
X028323Y020289D02*
X028245Y020289D01*
X028245Y020366D02*
X028251Y020366D01*
X028233Y020366D02*
X019465Y020366D01*
X019465Y020443D02*
X028089Y020443D01*
X028002Y020520D02*
X019465Y020520D01*
X019268Y020602D02*
X018973Y020898D01*
X007123Y020898D01*
X007044Y020976D01*
X006926Y020720D02*
X005745Y021902D01*
X005745Y022618D01*
X005737Y022626D01*
X006154Y022607D02*
X006697Y022607D01*
X006697Y022587D02*
X006337Y022587D01*
X006337Y022327D01*
X006353Y022249D01*
X006383Y022177D01*
X006427Y022111D01*
X006482Y022056D01*
X006548Y022012D01*
X006620Y021982D01*
X006697Y021967D01*
X006697Y022586D01*
X006776Y022586D01*
X006776Y021967D01*
X006853Y021982D01*
X006926Y022012D01*
X006991Y022056D01*
X007047Y022111D01*
X007091Y022177D01*
X007121Y022249D01*
X007136Y022327D01*
X007136Y022587D01*
X006776Y022587D01*
X006776Y022665D01*
X007136Y022665D01*
X007136Y022925D01*
X007121Y023002D01*
X007091Y023075D01*
X007047Y023141D01*
X006991Y023196D01*
X006926Y023240D01*
X006853Y023270D01*
X006776Y023285D01*
X006776Y022666D01*
X006697Y022666D01*
X006697Y023285D01*
X006620Y023270D01*
X006548Y023240D01*
X006482Y023196D01*
X006427Y023141D01*
X006383Y023075D01*
X006353Y023002D01*
X006337Y022925D01*
X006337Y022665D01*
X006697Y022665D01*
X006697Y022587D01*
X006697Y022530D02*
X006776Y022530D01*
X006776Y022607D02*
X007697Y022607D01*
X007697Y022684D02*
X007776Y022684D01*
X007776Y022762D02*
X007697Y022762D01*
X007697Y022839D02*
X007776Y022839D01*
X007776Y022916D02*
X007697Y022916D01*
X007697Y022993D02*
X007776Y022993D01*
X007776Y023071D02*
X007697Y023071D01*
X007697Y023148D02*
X007776Y023148D01*
X007776Y023225D02*
X007697Y023225D01*
X007812Y023303D02*
X005822Y023303D01*
X005652Y023303D02*
X005549Y023303D01*
X005549Y023380D02*
X007812Y023380D01*
X007812Y023457D02*
X005524Y023457D01*
X005476Y023534D02*
X007812Y023534D01*
X007812Y023612D02*
X005367Y023612D01*
X005988Y023225D02*
X006526Y023225D01*
X006434Y023148D02*
X006065Y023148D01*
X006112Y023071D02*
X006381Y023071D01*
X006351Y022993D02*
X006144Y022993D01*
X006154Y022916D02*
X006337Y022916D01*
X006337Y022839D02*
X006154Y022839D01*
X006154Y022762D02*
X006337Y022762D01*
X006337Y022684D02*
X006154Y022684D01*
X006154Y022530D02*
X006337Y022530D01*
X006337Y022452D02*
X006154Y022452D01*
X006154Y022375D02*
X006337Y022375D01*
X006343Y022298D02*
X006154Y022298D01*
X006128Y022221D02*
X006365Y022221D01*
X006405Y022143D02*
X006096Y022143D01*
X006027Y022066D02*
X006472Y022066D01*
X006604Y021989D02*
X005942Y021989D01*
X006013Y021911D02*
X007812Y021911D01*
X007812Y021834D02*
X006090Y021834D01*
X006168Y021757D02*
X007812Y021757D01*
X007812Y021680D02*
X006245Y021680D01*
X006322Y021602D02*
X007812Y021602D01*
X007812Y021525D02*
X006400Y021525D01*
X006477Y021448D02*
X007812Y021448D01*
X007812Y021370D02*
X006554Y021370D01*
X006631Y021293D02*
X007812Y021293D01*
X007812Y021216D02*
X007223Y021216D01*
X007297Y021139D02*
X007812Y021139D01*
X007776Y021989D02*
X007697Y021989D01*
X007697Y022066D02*
X007776Y022066D01*
X007776Y022143D02*
X007697Y022143D01*
X007697Y022221D02*
X007776Y022221D01*
X007776Y022298D02*
X007697Y022298D01*
X007697Y022375D02*
X007776Y022375D01*
X007776Y022452D02*
X007697Y022452D01*
X007697Y022530D02*
X007776Y022530D01*
X007337Y022530D02*
X007136Y022530D01*
X007136Y022452D02*
X007337Y022452D01*
X007337Y022375D02*
X007136Y022375D01*
X007130Y022298D02*
X007343Y022298D01*
X007365Y022221D02*
X007109Y022221D01*
X007068Y022143D02*
X007405Y022143D01*
X007472Y022066D02*
X007002Y022066D01*
X006870Y021989D02*
X007604Y021989D01*
X007337Y022684D02*
X007136Y022684D01*
X007136Y022762D02*
X007337Y022762D01*
X007337Y022839D02*
X007136Y022839D01*
X007136Y022916D02*
X007337Y022916D01*
X007351Y022993D02*
X007123Y022993D01*
X007093Y023071D02*
X007381Y023071D01*
X007434Y023148D02*
X007040Y023148D01*
X006948Y023225D02*
X007526Y023225D01*
X006776Y023225D02*
X006697Y023225D01*
X006697Y023148D02*
X006776Y023148D01*
X006776Y023071D02*
X006697Y023071D01*
X006697Y022993D02*
X006776Y022993D01*
X006776Y022916D02*
X006697Y022916D01*
X006697Y022839D02*
X006776Y022839D01*
X006776Y022762D02*
X006697Y022762D01*
X006697Y022684D02*
X006776Y022684D01*
X006776Y022452D02*
X006697Y022452D01*
X006697Y022375D02*
X006776Y022375D01*
X006776Y022298D02*
X006697Y022298D01*
X006697Y022221D02*
X006776Y022221D01*
X006776Y022143D02*
X006697Y022143D01*
X006697Y022066D02*
X006776Y022066D01*
X006776Y021989D02*
X006697Y021989D01*
X006709Y021216D02*
X006865Y021216D01*
X006791Y021139D02*
X006786Y021139D01*
X006926Y020720D02*
X018875Y020720D01*
X019111Y020484D01*
X019111Y017591D01*
X019229Y017472D01*
X019268Y017827D02*
X019268Y020602D01*
X019465Y020289D02*
X028010Y020289D01*
X027917Y020211D02*
X019465Y020211D01*
X019465Y020134D02*
X027855Y020134D01*
X027814Y020057D02*
X022915Y020057D01*
X023007Y019979D02*
X027788Y019979D01*
X028245Y019979D02*
X028323Y019979D01*
X028323Y020057D02*
X028245Y020057D01*
X028245Y020134D02*
X028323Y020134D01*
X028323Y020211D02*
X028245Y020211D01*
X027945Y020598D02*
X020410Y020598D01*
X020410Y020675D02*
X027908Y020675D01*
X027885Y020752D02*
X020410Y020752D01*
X020410Y020829D02*
X028345Y020829D01*
X028345Y020907D02*
X028423Y020907D01*
X028423Y020984D02*
X028345Y020984D01*
X028345Y021061D02*
X028423Y021061D01*
X028423Y021139D02*
X028345Y021139D01*
X028345Y021216D02*
X028423Y021216D01*
X028423Y021293D02*
X028345Y021293D01*
X028116Y021293D02*
X021132Y021293D01*
X021132Y021278D02*
X021083Y021159D01*
X020992Y021067D01*
X020872Y021018D01*
X020743Y021018D01*
X020624Y021067D01*
X020532Y021159D01*
X020483Y021278D01*
X020483Y021407D01*
X020532Y021526D01*
X020624Y021618D01*
X020743Y021667D01*
X020872Y021667D01*
X020992Y021618D01*
X021083Y021526D01*
X021132Y021407D01*
X021132Y021278D01*
X021107Y021216D02*
X028021Y021216D01*
X027958Y021139D02*
X021063Y021139D01*
X020978Y021061D02*
X027916Y021061D01*
X027889Y020984D02*
X020410Y020984D01*
X020410Y020907D02*
X027876Y020907D01*
X028652Y021293D02*
X029465Y021293D01*
X029465Y021216D02*
X028747Y021216D01*
X028810Y021139D02*
X029465Y021139D01*
X029465Y021061D02*
X028852Y021061D01*
X028879Y020984D02*
X029465Y020984D01*
X029465Y020907D02*
X028892Y020907D01*
X028893Y020898D02*
X028893Y020898D01*
X029465Y021370D02*
X021132Y021370D01*
X021116Y021448D02*
X029465Y021448D01*
X029465Y021525D02*
X021084Y021525D01*
X021007Y021602D02*
X029465Y021602D01*
X029465Y021680D02*
X020410Y021680D01*
X020410Y021757D02*
X029465Y021757D01*
X029465Y021834D02*
X020410Y021834D01*
X020410Y021911D02*
X029465Y021911D01*
X029465Y021989D02*
X020410Y021989D01*
X020410Y022066D02*
X029465Y022066D01*
X029465Y022143D02*
X020410Y022143D01*
X020410Y022221D02*
X029465Y022221D01*
X029465Y022298D02*
X020410Y022298D01*
X020410Y022375D02*
X029465Y022375D01*
X029465Y022452D02*
X020410Y022452D01*
X020410Y022530D02*
X029465Y022530D01*
X029465Y022607D02*
X020410Y022607D01*
X020410Y022684D02*
X029465Y022684D01*
X029465Y022762D02*
X020410Y022762D01*
X020410Y022839D02*
X029465Y022839D01*
X029465Y022916D02*
X020410Y022916D01*
X020410Y022993D02*
X029465Y022993D01*
X029465Y023071D02*
X020410Y023071D01*
X020410Y023148D02*
X029465Y023148D01*
X029465Y023225D02*
X020410Y023225D01*
X020410Y023303D02*
X029465Y023303D01*
X029465Y023380D02*
X020410Y023380D01*
X020410Y023457D02*
X029465Y023457D01*
X029465Y023534D02*
X020410Y023534D01*
X020410Y023612D02*
X029465Y023612D01*
X029465Y023689D02*
X020410Y023689D01*
X020410Y023766D02*
X029465Y023766D01*
X029465Y023844D02*
X020410Y023844D01*
X020410Y023921D02*
X029465Y023921D01*
X029465Y023998D02*
X020410Y023998D01*
X020410Y024075D02*
X029465Y024075D01*
X029465Y024153D02*
X020410Y024153D01*
X020410Y024230D02*
X029465Y024230D01*
X029465Y024307D02*
X020410Y024307D01*
X020410Y024385D02*
X029465Y024385D01*
X029465Y024462D02*
X020410Y024462D01*
X020410Y024539D02*
X029465Y024539D01*
X029465Y024616D02*
X020410Y024616D01*
X020410Y024694D02*
X029465Y024694D01*
X029465Y024771D02*
X020410Y024771D01*
X020410Y024848D02*
X029465Y024848D01*
X029465Y024926D02*
X020410Y024926D01*
X020410Y025003D02*
X029465Y025003D01*
X029465Y025080D02*
X020410Y025080D01*
X020410Y025157D02*
X029465Y025157D01*
X029465Y025235D02*
X020410Y025235D01*
X020410Y025312D02*
X029465Y025312D01*
X029465Y025389D02*
X020410Y025389D01*
X020410Y025466D02*
X029465Y025466D01*
X029465Y025544D02*
X020410Y025544D01*
X020410Y025621D02*
X029465Y025621D01*
X029465Y025698D02*
X020410Y025698D01*
X020410Y025776D02*
X029465Y025776D01*
X029465Y025853D02*
X020410Y025853D01*
X020410Y025930D02*
X029465Y025930D01*
X029465Y026007D02*
X020410Y026007D01*
X020410Y026085D02*
X029465Y026085D01*
X022629Y020057D02*
X022128Y020057D01*
X021842Y020057D02*
X019465Y020057D01*
X019465Y019979D02*
X021750Y019979D01*
X021709Y019902D02*
X019465Y019902D01*
X019465Y019825D02*
X021689Y019825D01*
X021689Y019748D02*
X019465Y019748D01*
X019465Y019670D02*
X021716Y019670D01*
X021768Y019593D02*
X019465Y019593D01*
X019465Y019516D02*
X021886Y019516D01*
X022084Y019516D02*
X022105Y019516D01*
X022082Y019438D02*
X019465Y019438D01*
X019465Y019361D02*
X019619Y019361D01*
X019541Y019284D02*
X019465Y019284D01*
X019780Y019008D02*
X019583Y018811D01*
X019583Y018102D01*
X020056Y017630D01*
X020056Y017295D01*
X019820Y017059D01*
X018442Y017059D01*
X018048Y017453D01*
X017772Y017354D02*
X018205Y016921D01*
X018205Y016547D01*
X018304Y016449D01*
X018560Y016331D02*
X018560Y016783D01*
X018678Y016902D01*
X019898Y016902D01*
X020272Y017276D01*
X020312Y017276D01*
X020654Y016965D02*
X022833Y016965D01*
X022756Y016888D02*
X020576Y016888D01*
X020731Y017043D02*
X022911Y017043D01*
X022679Y016811D02*
X020322Y016811D01*
X020245Y016733D02*
X022601Y016733D01*
X022524Y016656D02*
X020167Y016656D01*
X020090Y016579D02*
X022447Y016579D01*
X022209Y016502D02*
X018914Y016502D01*
X018914Y016424D02*
X022132Y016424D01*
X022097Y016347D02*
X018914Y016347D01*
X018914Y016270D02*
X022082Y016270D01*
X022083Y016192D02*
X018914Y016192D01*
X018859Y016115D02*
X022115Y016115D01*
X022174Y016038D02*
X018781Y016038D01*
X018704Y015961D02*
X022308Y015961D01*
X022449Y015961D02*
X027757Y015961D01*
X027757Y015883D02*
X018627Y015883D01*
X018550Y015806D02*
X027757Y015806D01*
X027767Y015729D02*
X018472Y015729D01*
X018395Y015651D02*
X027799Y015651D01*
X027788Y016038D02*
X022583Y016038D01*
X022643Y016115D02*
X027820Y016115D01*
X028528Y016347D02*
X029465Y016347D01*
X029465Y016270D02*
X028619Y016270D01*
X028696Y016192D02*
X029465Y016192D01*
X029465Y016115D02*
X028749Y016115D01*
X028781Y016038D02*
X029465Y016038D01*
X029465Y015961D02*
X028812Y015961D01*
X028812Y015883D02*
X029465Y015883D01*
X029465Y015806D02*
X028812Y015806D01*
X028801Y015729D02*
X029465Y015729D01*
X029465Y015651D02*
X028769Y015651D01*
X028737Y015574D02*
X029465Y015574D01*
X029465Y015497D02*
X028669Y015497D01*
X028591Y015420D02*
X029465Y015420D01*
X029465Y015342D02*
X028417Y015342D01*
X028696Y016424D02*
X029465Y016424D01*
X029465Y016502D02*
X028773Y016502D01*
X028839Y016579D02*
X029465Y016579D01*
X029465Y016656D02*
X028871Y016656D01*
X028903Y016733D02*
X029465Y016733D01*
X029465Y016811D02*
X028912Y016811D01*
X028912Y016888D02*
X029465Y016888D01*
X029465Y016965D02*
X028911Y016965D01*
X028879Y017043D02*
X029465Y017043D01*
X029465Y017120D02*
X028847Y017120D01*
X028791Y017197D02*
X029465Y017197D01*
X029465Y017274D02*
X028714Y017274D01*
X028571Y017352D02*
X029465Y017352D01*
X029465Y017429D02*
X028601Y017429D01*
X028678Y017506D02*
X029465Y017506D01*
X029465Y017584D02*
X028741Y017584D01*
X028773Y017661D02*
X029465Y017661D01*
X029465Y017738D02*
X028805Y017738D01*
X028812Y017815D02*
X029465Y017815D01*
X029465Y017893D02*
X028812Y017893D01*
X028809Y017970D02*
X029465Y017970D01*
X029465Y018047D02*
X028777Y018047D01*
X028745Y018125D02*
X029465Y018125D01*
X029465Y018202D02*
X028686Y018202D01*
X028609Y018279D02*
X029465Y018279D01*
X029465Y018356D02*
X028551Y018356D01*
X028705Y018434D02*
X029465Y018434D01*
X029465Y018511D02*
X028783Y018511D01*
X028843Y018588D02*
X029465Y018588D01*
X029465Y018666D02*
X028875Y018666D01*
X028907Y018743D02*
X029465Y018743D01*
X029465Y018820D02*
X028912Y018820D01*
X028912Y018897D02*
X029465Y018897D01*
X029465Y018975D02*
X028907Y018975D01*
X028875Y019052D02*
X029465Y019052D01*
X029465Y019129D02*
X028843Y019129D01*
X028782Y019207D02*
X029465Y019207D01*
X029465Y019284D02*
X028704Y019284D01*
X028548Y019361D02*
X029465Y019361D01*
X029465Y019438D02*
X028573Y019438D01*
X028662Y019516D02*
X029465Y019516D01*
X029465Y019593D02*
X028721Y019593D01*
X028759Y019670D02*
X029465Y019670D01*
X029465Y019748D02*
X028782Y019748D01*
X028167Y019361D02*
X022675Y019361D01*
X022650Y019284D02*
X028064Y019284D01*
X027986Y019207D02*
X022602Y019207D01*
X022649Y019129D02*
X027925Y019129D01*
X027893Y019052D02*
X022675Y019052D01*
X022675Y018975D02*
X027861Y018975D01*
X027857Y018897D02*
X022767Y018897D01*
X022675Y018949D02*
X022675Y018949D01*
X022634Y018752D02*
X024741Y016646D01*
X024642Y016390D02*
X024859Y016390D01*
X024997Y016528D01*
X024997Y016783D01*
X024741Y017039D01*
X024557Y017274D02*
X024390Y017274D01*
X024468Y017197D02*
X024486Y017197D01*
X024465Y016685D02*
X024465Y016567D01*
X024642Y016390D01*
X024465Y016685D02*
X022556Y018594D01*
X020705Y018594D01*
X020607Y018496D01*
X020509Y018752D02*
X022634Y018752D01*
X022845Y018820D02*
X027857Y018820D01*
X027861Y018743D02*
X022922Y018743D01*
X022999Y018666D02*
X027893Y018666D01*
X027925Y018588D02*
X023077Y018588D01*
X023154Y018511D02*
X027985Y018511D01*
X028063Y018434D02*
X023231Y018434D01*
X023308Y018356D02*
X028108Y018356D01*
X027959Y018279D02*
X023386Y018279D01*
X023463Y018202D02*
X027882Y018202D01*
X027824Y018125D02*
X023540Y018125D01*
X023618Y018047D02*
X027791Y018047D01*
X023245Y017098D02*
X022398Y016252D01*
X022379Y016252D01*
X019623Y015228D02*
X019623Y014559D01*
X018205Y015976D02*
X017910Y015976D01*
X018028Y016232D02*
X018028Y016862D01*
X017595Y017295D01*
X017595Y017630D01*
X017871Y017906D01*
X018501Y017906D01*
X018599Y018004D01*
X018599Y019992D01*
X018284Y020307D01*
X018658Y020307D02*
X018757Y020209D01*
X018757Y017807D01*
X018678Y017728D01*
X017930Y017728D01*
X017772Y017571D01*
X017772Y017354D01*
X017438Y017039D02*
X017162Y016764D01*
X015981Y016764D01*
X016178Y016921D02*
X016060Y017039D01*
X015863Y017039D01*
X015745Y016921D01*
X015627Y016921D01*
X016178Y016921D02*
X017103Y016921D01*
X017182Y017000D01*
X017182Y017315D01*
X016611Y017610D02*
X016886Y017886D01*
X016533Y018047D02*
X016255Y018047D01*
X016333Y017970D02*
X016456Y017970D01*
X016551Y018125D02*
X011355Y018125D01*
X011355Y018202D02*
X016560Y018202D01*
X016592Y018279D02*
X011355Y018279D01*
X011355Y018356D02*
X016663Y018356D01*
X016767Y018434D02*
X011355Y018434D01*
X011355Y018511D02*
X016790Y018511D01*
X016835Y018588D02*
X011355Y018588D01*
X011346Y018666D02*
X016936Y018666D01*
X016970Y018820D02*
X017052Y018820D01*
X017044Y019106D02*
X016886Y019106D01*
X017044Y019106D02*
X017516Y018634D01*
X017516Y018476D01*
X017634Y018752D02*
X017162Y019224D01*
X017162Y019382D01*
X016954Y019593D02*
X008214Y019593D01*
X008291Y019516D02*
X016897Y019516D01*
X016866Y019438D02*
X008368Y019438D01*
X008445Y019361D02*
X016728Y019361D01*
X016645Y019284D02*
X008523Y019284D01*
X008363Y018929D02*
X010568Y018929D01*
X010489Y018772D02*
X010843Y018417D01*
X010843Y016764D01*
X011001Y016606D01*
X010686Y016528D02*
X010961Y016252D01*
X010686Y016528D02*
X010686Y018339D01*
X010410Y018614D01*
X008225Y018614D01*
X007871Y018969D01*
X006512Y018969D01*
X006237Y019244D01*
X006237Y019402D01*
X006631Y019402D02*
X006906Y019126D01*
X007930Y019126D01*
X008284Y018772D01*
X010489Y018772D01*
X010528Y018260D02*
X010528Y016291D01*
X010961Y015858D01*
X011050Y015574D02*
X016096Y015574D01*
X016178Y015287D02*
X017438Y015287D01*
X017182Y014717D02*
X016158Y014717D01*
X016079Y014638D01*
X015509Y014638D01*
X015430Y014559D01*
X015114Y014260D02*
X008638Y014260D01*
X008561Y014183D02*
X015114Y014183D01*
X015130Y014106D02*
X008483Y014106D01*
X008406Y014029D02*
X015150Y014029D01*
X015686Y014106D02*
X016355Y014106D01*
X016650Y013831D02*
X015784Y013831D01*
X016650Y013831D02*
X016729Y013909D01*
X017241Y014283D02*
X017241Y014657D01*
X017182Y014717D01*
X018205Y015976D02*
X018560Y016331D01*
X018678Y017217D02*
X018442Y017453D01*
X019268Y017827D02*
X019623Y017472D01*
X018087Y018820D02*
X018084Y018820D01*
X018087Y018897D02*
X018052Y018897D01*
X018087Y018975D02*
X017988Y018975D01*
X018087Y019052D02*
X017613Y019052D01*
X017536Y019129D02*
X018087Y019129D01*
X018087Y019207D02*
X017458Y019207D01*
X017442Y019284D02*
X018087Y019284D01*
X018087Y019361D02*
X017458Y019361D01*
X017458Y019438D02*
X018087Y019438D01*
X018087Y019516D02*
X017427Y019516D01*
X017370Y019593D02*
X018087Y019593D01*
X018087Y019670D02*
X017240Y019670D01*
X017084Y019670D02*
X007428Y019670D01*
X007350Y019748D02*
X017955Y019748D01*
X017878Y019825D02*
X007273Y019825D01*
X007024Y019402D02*
X007142Y019283D01*
X008009Y019283D01*
X008363Y018929D01*
X007911Y018434D02*
X005374Y018434D01*
X005391Y018511D02*
X007833Y018511D01*
X007756Y018588D02*
X005391Y018588D01*
X005362Y018666D02*
X006301Y018666D01*
X006223Y018743D02*
X005307Y018743D01*
X005095Y018535D02*
X005095Y017433D01*
X005371Y017157D01*
X006512Y017157D01*
X006670Y017000D01*
X007221Y017000D01*
X008009Y016213D01*
X009623Y016213D01*
X009780Y016370D01*
X009697Y016656D02*
X009637Y016656D01*
X009386Y016488D02*
X009386Y017315D01*
X009113Y017429D02*
X007129Y017429D01*
X007143Y017352D02*
X009090Y017352D01*
X009159Y017506D02*
X007094Y017506D01*
X007017Y017584D02*
X009261Y017584D01*
X009163Y017120D02*
X007380Y017120D01*
X007457Y017043D02*
X009190Y017043D01*
X009190Y016965D02*
X007534Y016965D01*
X007611Y016888D02*
X009190Y016888D01*
X009190Y016811D02*
X007689Y016811D01*
X007766Y016733D02*
X009190Y016733D01*
X009136Y016656D02*
X007843Y016656D01*
X007921Y016579D02*
X009103Y016579D01*
X009090Y016502D02*
X007998Y016502D01*
X008075Y016424D02*
X009092Y016424D01*
X008952Y015806D02*
X009807Y015806D01*
X009977Y016055D02*
X007930Y016055D01*
X007142Y016843D01*
X006453Y016843D01*
X006178Y016733D02*
X005741Y016733D01*
X005796Y016656D02*
X006221Y016656D01*
X006157Y016811D02*
X005618Y016811D01*
X005438Y016811D02*
X004758Y016811D01*
X004812Y016733D02*
X005315Y016733D01*
X005261Y016656D02*
X004840Y016656D01*
X004850Y016579D02*
X005232Y016579D01*
X005232Y016502D02*
X004927Y016502D01*
X004898Y016252D02*
X004544Y016606D01*
X004638Y016888D02*
X006157Y016888D01*
X005646Y016409D02*
X007339Y016409D01*
X008166Y015583D01*
X008757Y015583D01*
X008578Y015342D02*
X008534Y015342D01*
X008532Y015188D02*
X008553Y015188D01*
X007111Y017197D02*
X007143Y017276D01*
X008065Y018279D02*
X005292Y018279D01*
X005335Y018356D02*
X007988Y018356D01*
X005646Y016409D02*
X005528Y016528D01*
X001512Y012637D02*
X029465Y012637D01*
X029465Y012560D02*
X001512Y012560D01*
X001512Y012483D02*
X029465Y012483D01*
X029465Y012406D02*
X001512Y012406D01*
X001512Y012328D02*
X029465Y012328D01*
X029465Y012869D02*
X015497Y012869D01*
X018515Y012947D02*
X029465Y012947D01*
X022379Y019008D02*
X019780Y019008D01*
X017792Y018752D02*
X017634Y018752D01*
X016611Y017610D02*
X016040Y017610D01*
X016298Y016192D02*
X017179Y016192D01*
X021985Y019795D02*
X022772Y019795D01*
X020638Y021061D02*
X020410Y021061D01*
X020410Y021139D02*
X020552Y021139D01*
X020509Y021216D02*
X020410Y021216D01*
X020410Y021293D02*
X020483Y021293D01*
X020483Y021370D02*
X020410Y021370D01*
X020410Y021448D02*
X020500Y021448D01*
X020532Y021525D02*
X020410Y021525D01*
X020410Y021602D02*
X020608Y021602D01*
X016886Y023220D02*
X016886Y023535D01*
X016453Y023969D01*
X014898Y023280D02*
X014898Y022630D01*
X012595Y022669D02*
X012359Y022669D01*
X012201Y022827D01*
X012201Y023713D01*
X011749Y023732D02*
X011749Y023083D01*
X004418Y012096D02*
X001512Y012096D01*
X001512Y012019D02*
X004382Y012019D01*
X004366Y011942D02*
X001512Y011942D01*
X001512Y011865D02*
X004366Y011865D01*
X004397Y011787D02*
X001512Y011787D01*
X001512Y011710D02*
X004454Y011710D01*
X004584Y011633D02*
X001512Y011633D01*
X002346Y005605D02*
X002367Y005605D01*
D19*
X016473Y010346D03*
X017654Y008772D03*
X022772Y012709D03*
X023953Y011134D03*
X024741Y011134D03*
X025528Y011134D03*
X021985Y018220D03*
X015292Y018220D03*
X008599Y019402D03*
X004662Y019402D03*
X024544Y025642D03*
D20*
X010961Y013083D02*
X009249Y013083D01*
X006257Y011941D02*
X004682Y011941D01*
X004662Y011921D01*
M02*
